%TF.GenerationSoftware,KiCad,Pcbnew,8.0.4-8.0.4-0~ubuntu22.04.1*%
%TF.CreationDate,2024-08-09T03:22:31-04:00*%
%TF.ProjectId,CS4272-CZZ_Breakout_Board,43533432-3732-42d4-935a-5a5f42726561,rev?*%
%TF.SameCoordinates,Original*%
%TF.FileFunction,Copper,L2,Bot*%
%TF.FilePolarity,Positive*%
%FSLAX46Y46*%
G04 Gerber Fmt 4.6, Leading zero omitted, Abs format (unit mm)*
G04 Created by KiCad (PCBNEW 8.0.4-8.0.4-0~ubuntu22.04.1) date 2024-08-09 03:22:31*
%MOMM*%
%LPD*%
G01*
G04 APERTURE LIST*
%TA.AperFunction,ComponentPad*%
%ADD10R,1.700000X1.700000*%
%TD*%
%TA.AperFunction,ComponentPad*%
%ADD11O,1.700000X1.700000*%
%TD*%
%TA.AperFunction,ComponentPad*%
%ADD12C,1.500000*%
%TD*%
%TA.AperFunction,ViaPad*%
%ADD13C,0.700000*%
%TD*%
%TA.AperFunction,Conductor*%
%ADD14C,0.500000*%
%TD*%
%TA.AperFunction,Conductor*%
%ADD15C,0.300000*%
%TD*%
G04 APERTURE END LIST*
D10*
%TO.P,J2,1,Pin_1*%
%TO.N,Net-(D10-A2)*%
X211506250Y-99347500D03*
D11*
%TO.P,J2,2,Pin_2*%
%TO.N,GND*%
X211506250Y-101887500D03*
%TO.P,J2,3,Pin_3*%
X211506250Y-104427500D03*
%TO.P,J2,4,Pin_4*%
%TO.N,/CODEC_AINB*%
X211506250Y-106967500D03*
%TO.P,J2,5,Pin_5*%
%TO.N,/CODEC_AINA*%
X211506250Y-109507500D03*
%TO.P,J2,6,Pin_6*%
%TO.N,GND*%
X211506250Y-112047500D03*
%TO.P,J2,7,Pin_7*%
%TO.N,/CODEC_AOUTB*%
X211506250Y-114587500D03*
%TO.P,J2,8,Pin_8*%
%TO.N,/CODEC_AOUTA*%
X211506250Y-117127500D03*
%TO.P,J2,9,Pin_9*%
%TO.N,GND*%
X211506250Y-119667500D03*
%TO.P,J2,10,Pin_10*%
%TO.N,/CODEC_AMUTEC*%
X211506250Y-122207500D03*
%TO.P,J2,11,Pin_11*%
%TO.N,/CODEC_BMUTEC*%
X211506250Y-124747500D03*
%TO.P,J2,12,Pin_12*%
%TO.N,GND*%
X211506250Y-127287500D03*
%TD*%
D10*
%TO.P,J1,1,Pin_1*%
%TO.N,Net-(D1-A2)*%
X87662500Y-94870000D03*
D11*
%TO.P,J1,2,Pin_2*%
%TO.N,Net-(D2-A2)*%
X87662500Y-97410000D03*
%TO.P,J1,3,Pin_3*%
%TO.N,Net-(D3-A2)*%
X87662500Y-99950000D03*
%TO.P,J1,4,Pin_4*%
%TO.N,Net-(D4-A2)*%
X87662500Y-102490000D03*
%TO.P,J1,5,Pin_5*%
%TO.N,GND*%
X87662500Y-105030000D03*
%TO.P,J1,6,Pin_6*%
%TO.N,Net-(D5-A2)*%
X87662500Y-107570000D03*
%TO.P,J1,7,Pin_7*%
%TO.N,GND*%
X87662500Y-110110000D03*
%TO.P,J1,8,Pin_8*%
%TO.N,Net-(D6-A2)*%
X87662500Y-112650000D03*
%TO.P,J1,9,Pin_9*%
%TO.N,GND*%
X87662500Y-115190000D03*
%TO.P,J1,10,Pin_10*%
%TO.N,Net-(D7-A2)*%
X87662500Y-117730000D03*
%TO.P,J1,11,Pin_11*%
%TO.N,Net-(D8-A2)*%
X87662500Y-120270000D03*
%TO.P,J1,12,Pin_12*%
%TO.N,GND*%
X87662500Y-122810000D03*
%TO.P,J1,13,Pin_13*%
%TO.N,Net-(D9-A2)*%
X87662500Y-125350000D03*
%TO.P,J1,14,Pin_14*%
%TO.N,GND*%
X87662500Y-127890000D03*
%TD*%
D12*
%TO.P,Y1,1,1*%
%TO.N,/CODEC_XTO*%
X119875000Y-97600000D03*
%TO.P,Y1,2,2*%
%TO.N,/CODEC_XTI*%
X114995000Y-97600000D03*
%TD*%
D13*
%TO.N,+5V*%
X144975000Y-126350000D03*
X161625000Y-80300000D03*
X188225000Y-89300000D03*
X182475000Y-106350000D03*
X150125000Y-73900000D03*
X128425000Y-117175000D03*
X110475000Y-122100000D03*
X158125000Y-80300000D03*
X139325000Y-121650000D03*
X194975000Y-99100000D03*
X140975000Y-114650000D03*
X142350000Y-106500000D03*
X114100000Y-125725000D03*
X141225000Y-90850000D03*
X137125000Y-121650000D03*
X180975000Y-104850000D03*
X128425000Y-114350000D03*
X144325000Y-106500000D03*
X141225000Y-94850000D03*
X151125000Y-79900000D03*
X140975000Y-112850000D03*
X172970000Y-120850000D03*
X143125000Y-126850000D03*
X188225000Y-86350000D03*
X194975000Y-97350000D03*
X174475000Y-120850000D03*
%TO.N,GND*%
X156925000Y-123050000D03*
X96775000Y-106950000D03*
X111750000Y-89700000D03*
X155225000Y-90950000D03*
X132825000Y-75550000D03*
X96800000Y-123025000D03*
X96750000Y-127175000D03*
X115325000Y-120650000D03*
X109900000Y-130550000D03*
X165150000Y-83675000D03*
X173975000Y-106850000D03*
X125775000Y-120025000D03*
X207025000Y-108550000D03*
X207075000Y-116525000D03*
X180375000Y-124975000D03*
X169150000Y-105025000D03*
X156625000Y-102250000D03*
X187050000Y-105625000D03*
X141725000Y-122050000D03*
X112825000Y-117750000D03*
X126525000Y-133850000D03*
X121625000Y-110850000D03*
X132025000Y-87000000D03*
X144625000Y-88650000D03*
X146625000Y-72850000D03*
X142625000Y-99350000D03*
X169150000Y-99275000D03*
X120325000Y-87150000D03*
X176095000Y-102940000D03*
X121500000Y-101675000D03*
X119425000Y-71450000D03*
X136025000Y-77550000D03*
X133025000Y-100650000D03*
X153125000Y-84450000D03*
X96775000Y-119050000D03*
X150470000Y-103975000D03*
X122375000Y-123775000D03*
X128425000Y-79450000D03*
X150170000Y-124960000D03*
X185425000Y-120950000D03*
X96800000Y-115050000D03*
X96800000Y-111000000D03*
X192525000Y-81175000D03*
X207250000Y-126550000D03*
X96850000Y-94825000D03*
X160800000Y-102300000D03*
X207150000Y-112425000D03*
X134225000Y-107650000D03*
X96800000Y-102975000D03*
X195225000Y-120950000D03*
X123625000Y-68750000D03*
X169425000Y-86950000D03*
X176325000Y-104250000D03*
X173875000Y-128000000D03*
X207075000Y-104525000D03*
X137625000Y-87950000D03*
X185575000Y-127175000D03*
X92975000Y-97025000D03*
X207050000Y-100175000D03*
X169350000Y-125950000D03*
X106525000Y-125150000D03*
X164750000Y-112425000D03*
X117700000Y-129325000D03*
X121025000Y-105650000D03*
X182170000Y-115222501D03*
X181900000Y-94275000D03*
X169625000Y-120425000D03*
X163050000Y-77600000D03*
X113450000Y-101650000D03*
X122050000Y-133825000D03*
X129425000Y-103250000D03*
X207200000Y-120425000D03*
X170925000Y-71450000D03*
X161025000Y-123050000D03*
X150925000Y-72250000D03*
%TO.N,+3.3V*%
X124275000Y-124150000D03*
X107325000Y-115500000D03*
X105525000Y-107650000D03*
X115225000Y-111450000D03*
X115225000Y-113200000D03*
%TO.N,/CODEC_VCOM*%
X152425000Y-116800000D03*
X137925000Y-116400000D03*
X152425000Y-118700000D03*
X130725000Y-119400000D03*
X154525000Y-107650000D03*
X136225000Y-118100000D03*
X155625000Y-108750000D03*
X128725000Y-119400000D03*
%TO.N,/CODEC_AINA_BUFF-*%
X140325000Y-123550000D03*
X140325000Y-125550000D03*
%TO.N,/CODEC_AMUTEC*%
X128625000Y-121700000D03*
X129825000Y-122900000D03*
%TO.N,/CODEC_NRST*%
X117025000Y-115800000D03*
X117025000Y-118200000D03*
%TO.N,/CODEC_BMUTEC*%
X202975000Y-124650000D03*
X196725000Y-100600000D03*
X123725000Y-102850000D03*
X127125000Y-102850000D03*
X198625000Y-117500000D03*
X197125000Y-116000000D03*
X201425000Y-123100000D03*
X197525000Y-95100000D03*
%TO.N,/CODEC_AOUTB*%
X200325000Y-112800000D03*
X201925000Y-114400000D03*
X200325000Y-104000000D03*
X203425000Y-100900000D03*
%TO.N,/CODEC_AOUTA*%
X201925000Y-99400000D03*
X200425000Y-115800000D03*
X198825000Y-102400000D03*
X198925000Y-114300000D03*
%TD*%
D14*
%TO.N,+5V*%
X144975000Y-126400000D02*
X144975000Y-126350000D01*
X194975000Y-97350000D02*
X194975000Y-99100000D01*
X143125000Y-126850000D02*
X144525000Y-126850000D01*
X144525000Y-126850000D02*
X144975000Y-126400000D01*
X158125000Y-80300000D02*
X161625000Y-80300000D01*
X139325000Y-121650000D02*
X137125000Y-121650000D01*
X150125000Y-78900000D02*
X151125000Y-79900000D01*
X141225000Y-90850000D02*
X141225000Y-94850000D01*
X188225000Y-86350000D02*
X188225000Y-89300000D01*
X114100000Y-125725000D02*
X110475000Y-122100000D01*
X174475000Y-120850000D02*
X172970000Y-120850000D01*
X182475000Y-106350000D02*
X180975000Y-104850000D01*
X140975000Y-112850000D02*
X140975000Y-114650000D01*
X150125000Y-73900000D02*
X150125000Y-78900000D01*
X144325000Y-106500000D02*
X142350000Y-106500000D01*
D15*
X128425000Y-117175000D02*
X128425000Y-114350000D01*
D14*
%TO.N,+3.3V*%
X105525000Y-107650000D02*
X105525000Y-109950000D01*
X124275000Y-124150000D02*
X124275000Y-123000000D01*
X106875000Y-115500000D02*
X107325000Y-115500000D01*
X108225000Y-115750000D02*
X107975000Y-115500000D01*
X106625000Y-115250000D02*
X106875000Y-115500000D01*
X106625000Y-111050000D02*
X106625000Y-115250000D01*
X124275000Y-123000000D02*
X123725000Y-122450000D01*
D15*
X115225000Y-113200000D02*
X115225000Y-111450000D01*
D14*
X113125000Y-122450000D02*
X108225000Y-117550000D01*
X107975000Y-115500000D02*
X107325000Y-115500000D01*
X105525000Y-109950000D02*
X106625000Y-111050000D01*
X123725000Y-122450000D02*
X113125000Y-122450000D01*
X108225000Y-117550000D02*
X108225000Y-115750000D01*
D15*
%TO.N,/CODEC_VCOM*%
X136225000Y-118100000D02*
X137925000Y-116400000D01*
X152425000Y-116800000D02*
X152425000Y-118700000D01*
X128725000Y-119400000D02*
X130725000Y-119400000D01*
X155625000Y-108750000D02*
X154525000Y-107650000D01*
%TO.N,/CODEC_AINA_BUFF-*%
X140325000Y-123550000D02*
X140325000Y-125550000D01*
%TO.N,/CODEC_AMUTEC*%
X128625000Y-121700000D02*
X129825000Y-122900000D01*
%TO.N,/CODEC_NRST*%
X117025000Y-118200000D02*
X117025000Y-115800000D01*
%TO.N,/CODEC_BMUTEC*%
X197525000Y-99000000D02*
X196725000Y-99800000D01*
X123725000Y-102850000D02*
X127125000Y-102850000D01*
X201425000Y-123100000D02*
X202975000Y-124650000D01*
X197125000Y-116000000D02*
X198625000Y-117500000D01*
X196725000Y-99800000D02*
X196725000Y-100600000D01*
X197525000Y-95100000D02*
X197525000Y-99000000D01*
%TO.N,/CODEC_AOUTB*%
X201925000Y-114400000D02*
X200325000Y-112800000D01*
X200325000Y-104000000D02*
X203425000Y-100900000D01*
%TO.N,/CODEC_AOUTA*%
X198825000Y-102400000D02*
X201825000Y-99400000D01*
X200425000Y-115800000D02*
X198925000Y-114300000D01*
X201825000Y-99400000D02*
X201925000Y-99400000D01*
%TD*%
%TA.AperFunction,Conductor*%
%TO.N,GND*%
G36*
X211756250Y-103994488D02*
G01*
X211699243Y-103961575D01*
X211572076Y-103927500D01*
X211440424Y-103927500D01*
X211313257Y-103961575D01*
X211256250Y-103994488D01*
X211256250Y-102320512D01*
X211313257Y-102353425D01*
X211440424Y-102387500D01*
X211572076Y-102387500D01*
X211699243Y-102353425D01*
X211756250Y-102320512D01*
X211756250Y-103994488D01*
G37*
%TD.AperFunction*%
%TA.AperFunction,Conductor*%
G36*
X217325855Y-61350011D02*
G01*
X217487269Y-61352274D01*
X217499390Y-61353041D01*
X217803553Y-61387312D01*
X217820992Y-61389277D01*
X217834700Y-61391606D01*
X218149366Y-61463426D01*
X218162725Y-61467273D01*
X218467392Y-61573881D01*
X218480228Y-61579199D01*
X218771025Y-61719239D01*
X218783195Y-61725965D01*
X219056486Y-61897685D01*
X219067827Y-61905732D01*
X219320173Y-62106971D01*
X219330541Y-62116237D01*
X219558762Y-62344458D01*
X219568028Y-62354826D01*
X219769267Y-62607172D01*
X219777314Y-62618513D01*
X219949034Y-62891804D01*
X219955760Y-62903974D01*
X220095798Y-63194766D01*
X220101120Y-63207613D01*
X220207724Y-63512270D01*
X220211573Y-63525633D01*
X220283393Y-63840299D01*
X220285722Y-63854007D01*
X220321957Y-64175597D01*
X220322725Y-64187743D01*
X220324988Y-64349144D01*
X220325000Y-64350882D01*
X220325000Y-136849117D01*
X220324988Y-136850855D01*
X220322725Y-137012256D01*
X220321957Y-137024402D01*
X220285722Y-137345992D01*
X220283393Y-137359700D01*
X220211573Y-137674366D01*
X220207724Y-137687729D01*
X220101120Y-137992386D01*
X220095798Y-138005233D01*
X219955760Y-138296025D01*
X219949034Y-138308195D01*
X219777314Y-138581486D01*
X219769267Y-138592827D01*
X219568028Y-138845173D01*
X219558762Y-138855541D01*
X219330541Y-139083762D01*
X219320173Y-139093028D01*
X219067827Y-139294267D01*
X219056486Y-139302314D01*
X218783195Y-139474034D01*
X218771025Y-139480760D01*
X218480233Y-139620798D01*
X218467386Y-139626120D01*
X218162729Y-139732724D01*
X218149366Y-139736573D01*
X217834700Y-139808393D01*
X217820992Y-139810722D01*
X217499402Y-139846957D01*
X217487256Y-139847725D01*
X217325856Y-139849988D01*
X217324118Y-139850000D01*
X82175882Y-139850000D01*
X82174144Y-139849988D01*
X82012743Y-139847725D01*
X82000597Y-139846957D01*
X81679007Y-139810722D01*
X81665299Y-139808393D01*
X81350633Y-139736573D01*
X81337270Y-139732724D01*
X81032613Y-139626120D01*
X81019766Y-139620798D01*
X80728974Y-139480760D01*
X80716804Y-139474034D01*
X80443513Y-139302314D01*
X80432172Y-139294267D01*
X80179826Y-139093028D01*
X80169458Y-139083762D01*
X79941237Y-138855541D01*
X79931971Y-138845173D01*
X79730732Y-138592827D01*
X79722685Y-138581486D01*
X79550965Y-138308195D01*
X79544239Y-138296025D01*
X79498237Y-138200500D01*
X79404199Y-138005228D01*
X79398879Y-137992386D01*
X79306991Y-137729786D01*
X79292273Y-137687725D01*
X79288426Y-137674366D01*
X79216606Y-137359700D01*
X79214277Y-137345992D01*
X79212312Y-137328553D01*
X79178041Y-137024390D01*
X79177274Y-137012269D01*
X79175012Y-136850855D01*
X79175000Y-136849117D01*
X79175000Y-136743713D01*
X80824500Y-136743713D01*
X80824500Y-136956287D01*
X80857754Y-137166243D01*
X80920612Y-137359700D01*
X80923444Y-137368414D01*
X81019951Y-137557820D01*
X81144890Y-137729786D01*
X81295213Y-137880109D01*
X81467179Y-138005048D01*
X81467181Y-138005049D01*
X81467184Y-138005051D01*
X81656588Y-138101557D01*
X81858757Y-138167246D01*
X82068713Y-138200500D01*
X82068714Y-138200500D01*
X82281286Y-138200500D01*
X82281287Y-138200500D01*
X82491243Y-138167246D01*
X82693412Y-138101557D01*
X82882816Y-138005051D01*
X82904789Y-137989086D01*
X83054786Y-137880109D01*
X83054788Y-137880106D01*
X83054792Y-137880104D01*
X83205104Y-137729792D01*
X83205106Y-137729788D01*
X83205109Y-137729786D01*
X83330048Y-137557820D01*
X83330047Y-137557820D01*
X83330051Y-137557816D01*
X83426557Y-137368412D01*
X83492246Y-137166243D01*
X83525500Y-136956287D01*
X83525500Y-136743713D01*
X215974500Y-136743713D01*
X215974500Y-136956287D01*
X216007754Y-137166243D01*
X216070612Y-137359700D01*
X216073444Y-137368414D01*
X216169951Y-137557820D01*
X216294890Y-137729786D01*
X216445213Y-137880109D01*
X216617179Y-138005048D01*
X216617181Y-138005049D01*
X216617184Y-138005051D01*
X216806588Y-138101557D01*
X217008757Y-138167246D01*
X217218713Y-138200500D01*
X217218714Y-138200500D01*
X217431286Y-138200500D01*
X217431287Y-138200500D01*
X217641243Y-138167246D01*
X217843412Y-138101557D01*
X218032816Y-138005051D01*
X218054789Y-137989086D01*
X218204786Y-137880109D01*
X218204788Y-137880106D01*
X218204792Y-137880104D01*
X218355104Y-137729792D01*
X218355106Y-137729788D01*
X218355109Y-137729786D01*
X218480048Y-137557820D01*
X218480047Y-137557820D01*
X218480051Y-137557816D01*
X218576557Y-137368412D01*
X218642246Y-137166243D01*
X218675500Y-136956287D01*
X218675500Y-136743713D01*
X218642246Y-136533757D01*
X218576557Y-136331588D01*
X218480051Y-136142184D01*
X218480049Y-136142181D01*
X218480048Y-136142179D01*
X218355109Y-135970213D01*
X218204786Y-135819890D01*
X218032820Y-135694951D01*
X217843414Y-135598444D01*
X217843413Y-135598443D01*
X217843412Y-135598443D01*
X217641243Y-135532754D01*
X217641241Y-135532753D01*
X217641240Y-135532753D01*
X217479957Y-135507208D01*
X217431287Y-135499500D01*
X217218713Y-135499500D01*
X217170042Y-135507208D01*
X217008760Y-135532753D01*
X216806585Y-135598444D01*
X216617179Y-135694951D01*
X216445213Y-135819890D01*
X216294890Y-135970213D01*
X216169951Y-136142179D01*
X216073444Y-136331585D01*
X216007753Y-136533760D01*
X215974500Y-136743713D01*
X83525500Y-136743713D01*
X83492246Y-136533757D01*
X83426557Y-136331588D01*
X83330051Y-136142184D01*
X83330049Y-136142181D01*
X83330048Y-136142179D01*
X83205109Y-135970213D01*
X83054786Y-135819890D01*
X82882820Y-135694951D01*
X82693414Y-135598444D01*
X82693413Y-135598443D01*
X82693412Y-135598443D01*
X82491243Y-135532754D01*
X82491241Y-135532753D01*
X82491240Y-135532753D01*
X82329957Y-135507208D01*
X82281287Y-135499500D01*
X82068713Y-135499500D01*
X82020042Y-135507208D01*
X81858760Y-135532753D01*
X81656585Y-135598444D01*
X81467179Y-135694951D01*
X81295213Y-135819890D01*
X81144890Y-135970213D01*
X81019951Y-136142179D01*
X80923444Y-136331585D01*
X80857753Y-136533760D01*
X80824500Y-136743713D01*
X79175000Y-136743713D01*
X79175000Y-104779999D01*
X86331864Y-104779999D01*
X86331864Y-104780000D01*
X87229488Y-104780000D01*
X87196575Y-104837007D01*
X87162500Y-104964174D01*
X87162500Y-105095826D01*
X87196575Y-105222993D01*
X87229488Y-105280000D01*
X86331864Y-105280000D01*
X86389067Y-105493486D01*
X86389070Y-105493492D01*
X86488899Y-105707578D01*
X86624394Y-105901082D01*
X86791417Y-106068105D01*
X86984921Y-106203600D01*
X87184073Y-106296466D01*
X87236512Y-106342638D01*
X87255664Y-106409832D01*
X87235448Y-106476713D01*
X87182283Y-106522048D01*
X87176468Y-106524472D01*
X87169271Y-106527260D01*
X87147482Y-106535701D01*
X87147480Y-106535702D01*
X86966199Y-106647947D01*
X86808627Y-106791593D01*
X86680132Y-106961746D01*
X86585096Y-107152605D01*
X86585096Y-107152607D01*
X86530220Y-107345475D01*
X86526744Y-107357690D01*
X86507071Y-107570000D01*
X86526744Y-107782310D01*
X86578945Y-107965776D01*
X86585096Y-107987392D01*
X86585096Y-107987394D01*
X86680132Y-108178253D01*
X86798156Y-108334540D01*
X86808628Y-108348407D01*
X86966198Y-108492052D01*
X87147481Y-108604298D01*
X87176461Y-108615525D01*
X87231862Y-108658095D01*
X87255454Y-108723861D01*
X87239744Y-108791942D01*
X87189722Y-108840722D01*
X87184073Y-108843533D01*
X86984922Y-108936399D01*
X86984920Y-108936400D01*
X86791426Y-109071886D01*
X86791420Y-109071891D01*
X86624391Y-109238920D01*
X86624386Y-109238926D01*
X86488900Y-109432420D01*
X86488899Y-109432422D01*
X86389070Y-109646507D01*
X86389067Y-109646513D01*
X86331864Y-109859999D01*
X86331864Y-109860000D01*
X87229488Y-109860000D01*
X87196575Y-109917007D01*
X87162500Y-110044174D01*
X87162500Y-110175826D01*
X87196575Y-110302993D01*
X87229488Y-110360000D01*
X86331864Y-110360000D01*
X86389067Y-110573486D01*
X86389070Y-110573492D01*
X86488899Y-110787578D01*
X86624394Y-110981082D01*
X86791417Y-111148105D01*
X86984921Y-111283600D01*
X87184073Y-111376466D01*
X87236512Y-111422638D01*
X87255664Y-111489832D01*
X87235448Y-111556713D01*
X87182283Y-111602048D01*
X87176468Y-111604472D01*
X87169271Y-111607260D01*
X87147482Y-111615701D01*
X87147480Y-111615702D01*
X86966199Y-111727947D01*
X86808627Y-111871593D01*
X86680132Y-112041746D01*
X86585096Y-112232605D01*
X86585096Y-112232607D01*
X86526744Y-112437689D01*
X86521390Y-112495475D01*
X86507071Y-112650000D01*
X86526744Y-112862310D01*
X86578207Y-113043182D01*
X86585096Y-113067392D01*
X86585096Y-113067394D01*
X86680132Y-113258253D01*
X86796763Y-113412696D01*
X86808628Y-113428407D01*
X86966198Y-113572052D01*
X87147481Y-113684298D01*
X87176461Y-113695525D01*
X87231862Y-113738095D01*
X87255454Y-113803861D01*
X87239744Y-113871942D01*
X87189722Y-113920722D01*
X87184073Y-113923533D01*
X86984922Y-114016399D01*
X86984920Y-114016400D01*
X86791426Y-114151886D01*
X86791420Y-114151891D01*
X86624391Y-114318920D01*
X86624386Y-114318926D01*
X86488900Y-114512420D01*
X86488899Y-114512422D01*
X86389070Y-114726507D01*
X86389067Y-114726513D01*
X86331864Y-114939999D01*
X86331864Y-114940000D01*
X87229488Y-114940000D01*
X87196575Y-114997007D01*
X87162500Y-115124174D01*
X87162500Y-115255826D01*
X87196575Y-115382993D01*
X87229488Y-115440000D01*
X86331864Y-115440000D01*
X86389067Y-115653486D01*
X86389070Y-115653492D01*
X86488899Y-115867578D01*
X86624394Y-116061082D01*
X86791417Y-116228105D01*
X86984921Y-116363600D01*
X87184073Y-116456466D01*
X87236512Y-116502638D01*
X87255664Y-116569832D01*
X87235448Y-116636713D01*
X87182283Y-116682048D01*
X87176468Y-116684472D01*
X87170411Y-116686819D01*
X87147482Y-116695701D01*
X87147480Y-116695702D01*
X86966199Y-116807947D01*
X86808627Y-116951593D01*
X86680132Y-117121746D01*
X86585096Y-117312605D01*
X86585096Y-117312607D01*
X86526744Y-117517689D01*
X86509123Y-117707860D01*
X86507071Y-117730000D01*
X86526744Y-117942310D01*
X86571611Y-118100000D01*
X86585096Y-118147392D01*
X86585096Y-118147394D01*
X86680132Y-118338253D01*
X86808627Y-118508406D01*
X86808628Y-118508407D01*
X86966198Y-118652052D01*
X87147481Y-118764298D01*
X87346302Y-118841321D01*
X87543113Y-118878111D01*
X87605393Y-118909779D01*
X87640666Y-118970092D01*
X87637732Y-119039900D01*
X87597523Y-119097040D01*
X87543113Y-119121888D01*
X87346302Y-119158679D01*
X87346299Y-119158679D01*
X87346299Y-119158680D01*
X87147482Y-119235701D01*
X87147480Y-119235702D01*
X86966199Y-119347947D01*
X86808627Y-119491593D01*
X86680132Y-119661746D01*
X86585096Y-119852605D01*
X86585096Y-119852607D01*
X86526744Y-120057689D01*
X86507071Y-120269999D01*
X86507071Y-120270000D01*
X86526744Y-120482310D01*
X86585096Y-120687392D01*
X86585096Y-120687394D01*
X86680132Y-120878253D01*
X86800243Y-121037304D01*
X86808628Y-121048407D01*
X86966198Y-121192052D01*
X87147481Y-121304298D01*
X87176461Y-121315525D01*
X87231862Y-121358095D01*
X87255454Y-121423861D01*
X87239744Y-121491942D01*
X87189722Y-121540722D01*
X87184073Y-121543533D01*
X86984922Y-121636399D01*
X86984920Y-121636400D01*
X86791426Y-121771886D01*
X86791420Y-121771891D01*
X86624391Y-121938920D01*
X86624386Y-121938926D01*
X86488900Y-122132420D01*
X86488899Y-122132422D01*
X86389070Y-122346507D01*
X86389067Y-122346513D01*
X86331864Y-122559999D01*
X86331864Y-122560000D01*
X87229488Y-122560000D01*
X87196575Y-122617007D01*
X87162500Y-122744174D01*
X87162500Y-122875826D01*
X87196575Y-123002993D01*
X87229488Y-123060000D01*
X86331864Y-123060000D01*
X86389067Y-123273486D01*
X86389070Y-123273492D01*
X86488899Y-123487578D01*
X86624394Y-123681082D01*
X86791417Y-123848105D01*
X86984921Y-123983600D01*
X87184073Y-124076466D01*
X87236512Y-124122638D01*
X87255664Y-124189832D01*
X87235448Y-124256713D01*
X87182283Y-124302048D01*
X87176468Y-124304472D01*
X87169271Y-124307260D01*
X87147482Y-124315701D01*
X87147480Y-124315702D01*
X86966199Y-124427947D01*
X86808627Y-124571593D01*
X86680132Y-124741746D01*
X86585096Y-124932605D01*
X86585096Y-124932607D01*
X86533066Y-125115472D01*
X86526744Y-125137690D01*
X86507071Y-125350000D01*
X86526744Y-125562310D01*
X86557257Y-125669552D01*
X86585096Y-125767392D01*
X86585096Y-125767394D01*
X86680132Y-125958253D01*
X86808627Y-126128406D01*
X86808628Y-126128407D01*
X86966198Y-126272052D01*
X87147481Y-126384298D01*
X87176461Y-126395525D01*
X87231862Y-126438095D01*
X87255454Y-126503861D01*
X87239744Y-126571942D01*
X87189722Y-126620722D01*
X87184073Y-126623533D01*
X86984922Y-126716399D01*
X86984920Y-126716400D01*
X86791426Y-126851886D01*
X86791420Y-126851891D01*
X86624391Y-127018920D01*
X86624386Y-127018926D01*
X86488900Y-127212420D01*
X86488899Y-127212422D01*
X86389070Y-127426507D01*
X86389067Y-127426513D01*
X86331864Y-127639999D01*
X86331864Y-127640000D01*
X87229488Y-127640000D01*
X87196575Y-127697007D01*
X87162500Y-127824174D01*
X87162500Y-127955826D01*
X87196575Y-128082993D01*
X87229488Y-128140000D01*
X86331864Y-128140000D01*
X86389067Y-128353486D01*
X86389070Y-128353492D01*
X86488899Y-128567578D01*
X86624394Y-128761082D01*
X86791417Y-128928105D01*
X86984921Y-129063600D01*
X87199007Y-129163429D01*
X87199016Y-129163433D01*
X87412500Y-129220634D01*
X87412500Y-128323012D01*
X87469507Y-128355925D01*
X87596674Y-128390000D01*
X87728326Y-128390000D01*
X87855493Y-128355925D01*
X87912500Y-128323012D01*
X87912500Y-129220633D01*
X88125983Y-129163433D01*
X88125992Y-129163429D01*
X88340078Y-129063600D01*
X88533582Y-128928105D01*
X88700605Y-128761082D01*
X88836100Y-128567578D01*
X88935929Y-128353492D01*
X88935932Y-128353486D01*
X88993136Y-128140000D01*
X88095512Y-128140000D01*
X88128425Y-128082993D01*
X88162500Y-127955826D01*
X88162500Y-127824174D01*
X88128425Y-127697007D01*
X88095512Y-127640000D01*
X88993136Y-127640000D01*
X88993135Y-127639999D01*
X88935932Y-127426513D01*
X88935929Y-127426507D01*
X88836100Y-127212422D01*
X88836099Y-127212420D01*
X88700613Y-127018926D01*
X88700608Y-127018920D01*
X88533582Y-126851894D01*
X88530876Y-126849999D01*
X142469722Y-126849999D01*
X142469722Y-126850000D01*
X142488762Y-127006818D01*
X142522019Y-127094507D01*
X142544780Y-127154523D01*
X142634517Y-127284530D01*
X142752760Y-127389283D01*
X142752762Y-127389284D01*
X142892634Y-127462696D01*
X143046014Y-127500500D01*
X143046015Y-127500500D01*
X143203985Y-127500500D01*
X143357365Y-127462696D01*
X143448805Y-127414703D01*
X143506431Y-127400500D01*
X144597472Y-127400500D01*
X144597474Y-127400500D01*
X144597475Y-127400500D01*
X144737485Y-127362984D01*
X144863015Y-127290510D01*
X145161906Y-126991617D01*
X145200856Y-126966438D01*
X145200722Y-126966183D01*
X145203535Y-126964706D01*
X145205629Y-126963353D01*
X145207355Y-126962698D01*
X145207365Y-126962696D01*
X145347240Y-126889283D01*
X145465483Y-126784530D01*
X145555220Y-126654523D01*
X145611237Y-126506818D01*
X145630278Y-126350000D01*
X145620814Y-126272052D01*
X145611237Y-126193181D01*
X145581169Y-126113899D01*
X145555220Y-126045477D01*
X145465483Y-125915470D01*
X145347240Y-125810717D01*
X145347238Y-125810716D01*
X145347237Y-125810715D01*
X145207365Y-125737303D01*
X145053986Y-125699500D01*
X145053985Y-125699500D01*
X144896015Y-125699500D01*
X144896014Y-125699500D01*
X144742634Y-125737303D01*
X144602762Y-125810715D01*
X144484516Y-125915471D01*
X144394781Y-126045475D01*
X144394780Y-126045476D01*
X144338763Y-126193178D01*
X144336968Y-126200465D01*
X144334992Y-126199978D01*
X144311473Y-126254624D01*
X144253539Y-126293681D01*
X144215999Y-126299500D01*
X143506431Y-126299500D01*
X143448805Y-126285296D01*
X143357365Y-126237304D01*
X143357364Y-126237303D01*
X143357363Y-126237303D01*
X143203986Y-126199500D01*
X143203985Y-126199500D01*
X143046015Y-126199500D01*
X143046014Y-126199500D01*
X142892634Y-126237303D01*
X142752762Y-126310715D01*
X142634516Y-126415471D01*
X142544781Y-126545475D01*
X142544780Y-126545476D01*
X142488762Y-126693181D01*
X142469722Y-126849999D01*
X88530876Y-126849999D01*
X88340078Y-126716399D01*
X88140926Y-126623533D01*
X88088487Y-126577360D01*
X88069335Y-126510167D01*
X88089551Y-126443286D01*
X88142716Y-126397951D01*
X88148505Y-126395537D01*
X88177519Y-126384298D01*
X88358802Y-126272052D01*
X88516372Y-126128407D01*
X88644866Y-125958255D01*
X88694378Y-125858821D01*
X88739903Y-125767394D01*
X88739903Y-125767393D01*
X88739905Y-125767389D01*
X88798256Y-125562310D01*
X88817929Y-125350000D01*
X88798256Y-125137690D01*
X88739905Y-124932611D01*
X88739903Y-124932606D01*
X88739903Y-124932605D01*
X88644867Y-124741746D01*
X88516372Y-124571593D01*
X88476439Y-124535189D01*
X88358802Y-124427948D01*
X88177519Y-124315702D01*
X88177514Y-124315700D01*
X88170629Y-124313032D01*
X88148537Y-124304474D01*
X88093136Y-124261903D01*
X88069545Y-124196136D01*
X88085256Y-124128056D01*
X88135279Y-124079276D01*
X88140926Y-124076466D01*
X88340078Y-123983599D01*
X88533582Y-123848105D01*
X88700605Y-123681082D01*
X88836100Y-123487578D01*
X88935929Y-123273492D01*
X88935932Y-123273486D01*
X88993136Y-123060000D01*
X88095512Y-123060000D01*
X88128425Y-123002993D01*
X88162500Y-122875826D01*
X88162500Y-122744174D01*
X88128425Y-122617007D01*
X88095512Y-122560000D01*
X88993136Y-122560000D01*
X88993135Y-122559999D01*
X88935932Y-122346513D01*
X88935929Y-122346507D01*
X88836100Y-122132422D01*
X88836099Y-122132420D01*
X88813398Y-122099999D01*
X109819722Y-122099999D01*
X109819722Y-122100000D01*
X109838762Y-122256818D01*
X109881757Y-122370185D01*
X109894780Y-122404523D01*
X109984517Y-122534530D01*
X110102760Y-122639283D01*
X110242635Y-122712696D01*
X110297369Y-122726186D01*
X110355377Y-122758902D01*
X113436063Y-125839588D01*
X113464324Y-125883298D01*
X113473566Y-125907667D01*
X113519780Y-126029523D01*
X113609517Y-126159530D01*
X113727760Y-126264283D01*
X113727762Y-126264284D01*
X113867634Y-126337696D01*
X114021014Y-126375500D01*
X114021015Y-126375500D01*
X114178985Y-126375500D01*
X114332365Y-126337696D01*
X114472240Y-126264283D01*
X114590483Y-126159530D01*
X114680220Y-126029523D01*
X114736237Y-125881818D01*
X114755278Y-125725000D01*
X114748546Y-125669552D01*
X114736237Y-125568181D01*
X114714992Y-125512164D01*
X114680220Y-125420477D01*
X114590483Y-125290470D01*
X114472240Y-125185717D01*
X114472238Y-125185716D01*
X114472237Y-125185715D01*
X114332367Y-125112304D01*
X114277626Y-125098812D01*
X114219621Y-125066096D01*
X111138937Y-121985412D01*
X111110676Y-121941702D01*
X111087205Y-121879815D01*
X111055220Y-121795477D01*
X110965483Y-121665470D01*
X110847240Y-121560717D01*
X110847238Y-121560716D01*
X110847237Y-121560715D01*
X110707365Y-121487303D01*
X110553986Y-121449500D01*
X110553985Y-121449500D01*
X110396015Y-121449500D01*
X110396014Y-121449500D01*
X110242634Y-121487303D01*
X110102762Y-121560715D01*
X109984516Y-121665471D01*
X109894781Y-121795475D01*
X109894780Y-121795476D01*
X109838762Y-121943181D01*
X109819722Y-122099999D01*
X88813398Y-122099999D01*
X88700613Y-121938926D01*
X88700608Y-121938920D01*
X88533582Y-121771894D01*
X88340078Y-121636399D01*
X88140926Y-121543533D01*
X88088487Y-121497360D01*
X88069335Y-121430167D01*
X88089551Y-121363286D01*
X88142716Y-121317951D01*
X88148505Y-121315537D01*
X88177519Y-121304298D01*
X88358802Y-121192052D01*
X88516372Y-121048407D01*
X88644866Y-120878255D01*
X88730835Y-120705605D01*
X88739903Y-120687394D01*
X88739903Y-120687393D01*
X88739905Y-120687389D01*
X88798256Y-120482310D01*
X88817929Y-120270000D01*
X88798256Y-120057690D01*
X88739905Y-119852611D01*
X88739903Y-119852606D01*
X88739903Y-119852605D01*
X88644867Y-119661746D01*
X88516372Y-119491593D01*
X88435095Y-119417499D01*
X88358802Y-119347948D01*
X88177519Y-119235702D01*
X88177517Y-119235701D01*
X88078108Y-119197190D01*
X87978698Y-119158679D01*
X87781885Y-119121888D01*
X87719606Y-119090221D01*
X87684333Y-119029908D01*
X87687267Y-118960100D01*
X87727476Y-118902960D01*
X87781884Y-118878111D01*
X87978698Y-118841321D01*
X88177519Y-118764298D01*
X88358802Y-118652052D01*
X88516372Y-118508407D01*
X88644866Y-118338255D01*
X88684541Y-118258576D01*
X88739903Y-118147394D01*
X88739903Y-118147393D01*
X88739905Y-118147389D01*
X88798256Y-117942310D01*
X88817929Y-117730000D01*
X88798256Y-117517690D01*
X88739905Y-117312611D01*
X88739903Y-117312606D01*
X88739903Y-117312605D01*
X88644867Y-117121746D01*
X88516372Y-116951593D01*
X88476439Y-116915189D01*
X88358802Y-116807948D01*
X88177519Y-116695702D01*
X88177514Y-116695700D01*
X88154589Y-116686819D01*
X88148537Y-116684474D01*
X88093136Y-116641903D01*
X88069545Y-116576136D01*
X88085256Y-116508056D01*
X88135279Y-116459276D01*
X88140926Y-116456466D01*
X88340078Y-116363599D01*
X88533582Y-116228105D01*
X88700605Y-116061082D01*
X88836100Y-115867578D01*
X88935929Y-115653492D01*
X88935932Y-115653486D01*
X88993136Y-115440000D01*
X88095512Y-115440000D01*
X88128425Y-115382993D01*
X88162500Y-115255826D01*
X88162500Y-115124174D01*
X88128425Y-114997007D01*
X88095512Y-114940000D01*
X88993136Y-114940000D01*
X88993135Y-114939999D01*
X88935932Y-114726513D01*
X88935929Y-114726507D01*
X88836100Y-114512422D01*
X88836099Y-114512420D01*
X88700613Y-114318926D01*
X88700608Y-114318920D01*
X88533582Y-114151894D01*
X88340078Y-114016399D01*
X88140926Y-113923533D01*
X88088487Y-113877360D01*
X88069335Y-113810167D01*
X88089551Y-113743286D01*
X88142716Y-113697951D01*
X88148505Y-113695537D01*
X88177519Y-113684298D01*
X88358802Y-113572052D01*
X88516372Y-113428407D01*
X88644866Y-113258255D01*
X88696518Y-113154523D01*
X88739903Y-113067394D01*
X88739903Y-113067393D01*
X88739905Y-113067389D01*
X88798256Y-112862310D01*
X88817929Y-112650000D01*
X88798256Y-112437690D01*
X88739905Y-112232611D01*
X88739903Y-112232606D01*
X88739903Y-112232605D01*
X88644867Y-112041746D01*
X88516372Y-111871593D01*
X88387954Y-111754524D01*
X88358802Y-111727948D01*
X88177519Y-111615702D01*
X88177514Y-111615700D01*
X88170629Y-111613032D01*
X88148537Y-111604474D01*
X88093136Y-111561903D01*
X88069545Y-111496136D01*
X88085256Y-111428056D01*
X88135279Y-111379276D01*
X88140926Y-111376466D01*
X88340078Y-111283599D01*
X88533582Y-111148105D01*
X88700605Y-110981082D01*
X88836100Y-110787578D01*
X88935929Y-110573492D01*
X88935932Y-110573486D01*
X88993136Y-110360000D01*
X88095512Y-110360000D01*
X88128425Y-110302993D01*
X88162500Y-110175826D01*
X88162500Y-110044174D01*
X88128425Y-109917007D01*
X88095512Y-109860000D01*
X88993136Y-109860000D01*
X88993135Y-109859999D01*
X88935932Y-109646513D01*
X88935929Y-109646507D01*
X88836100Y-109432422D01*
X88836099Y-109432420D01*
X88700613Y-109238926D01*
X88700608Y-109238920D01*
X88533582Y-109071894D01*
X88340078Y-108936399D01*
X88140926Y-108843533D01*
X88088487Y-108797360D01*
X88069335Y-108730167D01*
X88089551Y-108663286D01*
X88142716Y-108617951D01*
X88148505Y-108615537D01*
X88177519Y-108604298D01*
X88358802Y-108492052D01*
X88516372Y-108348407D01*
X88644866Y-108178255D01*
X88660290Y-108147279D01*
X88739903Y-107987394D01*
X88739903Y-107987393D01*
X88739905Y-107987389D01*
X88798256Y-107782310D01*
X88810516Y-107649999D01*
X104869722Y-107649999D01*
X104869722Y-107650000D01*
X104888762Y-107806818D01*
X104944780Y-107954523D01*
X104952548Y-107965777D01*
X104974433Y-108032130D01*
X104974500Y-108036219D01*
X104974500Y-109877526D01*
X104974500Y-110022474D01*
X105012016Y-110162485D01*
X105083272Y-110285906D01*
X105084489Y-110288013D01*
X105084491Y-110288016D01*
X106038181Y-111241706D01*
X106071666Y-111303029D01*
X106074500Y-111329387D01*
X106074500Y-115322474D01*
X106102647Y-115427523D01*
X106112014Y-115462480D01*
X106112016Y-115462485D01*
X106184490Y-115588015D01*
X106536985Y-115940510D01*
X106640026Y-116000000D01*
X106662515Y-116012984D01*
X106802525Y-116050500D01*
X106943569Y-116050500D01*
X107001194Y-116064703D01*
X107092635Y-116112696D01*
X107169325Y-116131598D01*
X107246014Y-116150500D01*
X107246015Y-116150500D01*
X107403985Y-116150500D01*
X107520825Y-116121702D01*
X107590628Y-116124771D01*
X107647690Y-116165091D01*
X107673895Y-116229861D01*
X107674500Y-116242099D01*
X107674500Y-117622475D01*
X107682186Y-117651158D01*
X107712016Y-117762485D01*
X107784490Y-117888015D01*
X112786985Y-122890510D01*
X112878217Y-122943182D01*
X112912515Y-122962984D01*
X113052525Y-123000500D01*
X123445613Y-123000500D01*
X123512652Y-123020185D01*
X123533294Y-123036819D01*
X123688181Y-123191706D01*
X123721666Y-123253029D01*
X123724500Y-123279387D01*
X123724500Y-123763780D01*
X123704815Y-123830819D01*
X123702552Y-123834217D01*
X123694780Y-123845476D01*
X123638762Y-123993181D01*
X123619722Y-124149999D01*
X123619722Y-124150000D01*
X123638762Y-124306818D01*
X123653424Y-124345477D01*
X123694780Y-124454523D01*
X123784517Y-124584530D01*
X123902760Y-124689283D01*
X123902762Y-124689284D01*
X124042634Y-124762696D01*
X124196014Y-124800500D01*
X124196015Y-124800500D01*
X124353985Y-124800500D01*
X124507365Y-124762696D01*
X124547283Y-124741745D01*
X124647240Y-124689283D01*
X124765483Y-124584530D01*
X124855220Y-124454523D01*
X124911237Y-124306818D01*
X124930278Y-124150000D01*
X124921350Y-124076466D01*
X124911237Y-123993181D01*
X124858651Y-123854524D01*
X124855220Y-123845477D01*
X124847448Y-123834217D01*
X124825567Y-123767862D01*
X124825500Y-123763780D01*
X124825500Y-122927527D01*
X124825500Y-122927525D01*
X124787984Y-122787515D01*
X124769808Y-122756033D01*
X124715510Y-122661985D01*
X124063015Y-122009490D01*
X123937485Y-121937016D01*
X123937486Y-121937016D01*
X123902482Y-121927637D01*
X123797475Y-121899500D01*
X123797472Y-121899500D01*
X113404387Y-121899500D01*
X113337348Y-121879815D01*
X113316706Y-121863181D01*
X113153524Y-121699999D01*
X127969722Y-121699999D01*
X127969722Y-121700000D01*
X127988762Y-121856818D01*
X128025818Y-121954524D01*
X128044780Y-122004523D01*
X128134517Y-122134530D01*
X128252760Y-122239283D01*
X128252762Y-122239284D01*
X128392634Y-122312696D01*
X128546014Y-122350500D01*
X128546015Y-122350500D01*
X128587035Y-122350500D01*
X128654074Y-122370185D01*
X128674716Y-122386819D01*
X129136952Y-122849055D01*
X129170437Y-122910378D01*
X129172367Y-122921789D01*
X129188763Y-123056819D01*
X129216347Y-123129552D01*
X129244780Y-123204523D01*
X129334517Y-123334530D01*
X129452760Y-123439283D01*
X129452762Y-123439284D01*
X129592634Y-123512696D01*
X129746014Y-123550500D01*
X129746015Y-123550500D01*
X129903985Y-123550500D01*
X129906018Y-123549999D01*
X139669722Y-123549999D01*
X139669722Y-123550000D01*
X139688762Y-123706818D01*
X139744780Y-123854523D01*
X139744781Y-123854524D01*
X139834518Y-123984532D01*
X139839491Y-123990145D01*
X139838044Y-123991426D01*
X139869850Y-124042120D01*
X139874500Y-124075759D01*
X139874500Y-125024240D01*
X139854815Y-125091279D01*
X139839153Y-125109556D01*
X139839491Y-125109856D01*
X139834515Y-125115472D01*
X139744781Y-125245475D01*
X139744780Y-125245476D01*
X139688762Y-125393181D01*
X139669722Y-125549999D01*
X139669722Y-125550000D01*
X139688762Y-125706818D01*
X139739116Y-125839588D01*
X139744780Y-125854523D01*
X139834517Y-125984530D01*
X139952760Y-126089283D01*
X139952762Y-126089284D01*
X140092634Y-126162696D01*
X140246014Y-126200500D01*
X140246015Y-126200500D01*
X140403985Y-126200500D01*
X140557365Y-126162696D01*
X140622698Y-126128406D01*
X140697240Y-126089283D01*
X140815483Y-125984530D01*
X140905220Y-125854523D01*
X140961237Y-125706818D01*
X140980278Y-125550000D01*
X140977353Y-125525906D01*
X140961237Y-125393181D01*
X140922284Y-125290471D01*
X140905220Y-125245477D01*
X140815483Y-125115470D01*
X140815479Y-125115466D01*
X140810509Y-125109856D01*
X140811953Y-125108576D01*
X140780145Y-125057860D01*
X140775500Y-125024240D01*
X140775500Y-124075759D01*
X140795185Y-124008720D01*
X140810846Y-123990444D01*
X140810509Y-123990145D01*
X140815481Y-123984532D01*
X140815481Y-123984531D01*
X140815483Y-123984530D01*
X140905220Y-123854523D01*
X140961237Y-123706818D01*
X140980278Y-123550000D01*
X140975107Y-123507408D01*
X140961237Y-123393181D01*
X140916767Y-123275925D01*
X140905220Y-123245477D01*
X140815483Y-123115470D01*
X140798020Y-123099999D01*
X200769722Y-123099999D01*
X200769722Y-123100000D01*
X200788762Y-123256818D01*
X200840479Y-123393182D01*
X200844780Y-123404523D01*
X200934517Y-123534530D01*
X201052760Y-123639283D01*
X201052762Y-123639284D01*
X201192634Y-123712696D01*
X201346014Y-123750500D01*
X201346015Y-123750500D01*
X201387035Y-123750500D01*
X201454074Y-123770185D01*
X201474716Y-123786819D01*
X202286952Y-124599055D01*
X202320437Y-124660378D01*
X202322367Y-124671789D01*
X202337996Y-124800500D01*
X202338763Y-124806818D01*
X202394780Y-124954523D01*
X202484517Y-125084530D01*
X202602760Y-125189283D01*
X202602762Y-125189284D01*
X202742634Y-125262696D01*
X202896014Y-125300500D01*
X202896015Y-125300500D01*
X203053985Y-125300500D01*
X203207365Y-125262696D01*
X203347240Y-125189283D01*
X203465483Y-125084530D01*
X203555220Y-124954523D01*
X203611237Y-124806818D01*
X203630278Y-124650000D01*
X203611237Y-124493182D01*
X203555220Y-124345477D01*
X203465483Y-124215470D01*
X203347240Y-124110717D01*
X203347238Y-124110716D01*
X203347237Y-124110715D01*
X203207365Y-124037303D01*
X203053986Y-123999500D01*
X203053985Y-123999500D01*
X203012965Y-123999500D01*
X202945926Y-123979815D01*
X202925284Y-123963181D01*
X202113047Y-123150944D01*
X202079562Y-123089621D01*
X202077632Y-123078209D01*
X202072606Y-123036819D01*
X202061237Y-122943182D01*
X202005220Y-122795477D01*
X201915483Y-122665470D01*
X201797240Y-122560717D01*
X201797238Y-122560716D01*
X201797237Y-122560715D01*
X201657365Y-122487303D01*
X201503986Y-122449500D01*
X201503985Y-122449500D01*
X201346015Y-122449500D01*
X201346014Y-122449500D01*
X201192634Y-122487303D01*
X201052762Y-122560715D01*
X201052760Y-122560717D01*
X200938448Y-122661988D01*
X200934516Y-122665471D01*
X200844781Y-122795475D01*
X200844780Y-122795476D01*
X200788762Y-122943181D01*
X200769722Y-123099999D01*
X140798020Y-123099999D01*
X140697240Y-123010717D01*
X140697238Y-123010716D01*
X140697237Y-123010715D01*
X140557365Y-122937303D01*
X140403986Y-122899500D01*
X140403985Y-122899500D01*
X140246015Y-122899500D01*
X140246014Y-122899500D01*
X140092634Y-122937303D01*
X139952762Y-123010715D01*
X139834516Y-123115471D01*
X139744781Y-123245475D01*
X139744780Y-123245476D01*
X139688762Y-123393181D01*
X139669722Y-123549999D01*
X129906018Y-123549999D01*
X130057365Y-123512696D01*
X130067440Y-123507408D01*
X130197240Y-123439283D01*
X130315483Y-123334530D01*
X130405220Y-123204523D01*
X130461237Y-123056818D01*
X130480278Y-122900000D01*
X130479126Y-122890508D01*
X130461237Y-122743181D01*
X130430442Y-122661983D01*
X130405220Y-122595477D01*
X130315483Y-122465470D01*
X130197240Y-122360717D01*
X130197238Y-122360716D01*
X130197237Y-122360715D01*
X130057365Y-122287303D01*
X129903986Y-122249500D01*
X129903985Y-122249500D01*
X129862965Y-122249500D01*
X129795926Y-122229815D01*
X129775284Y-122213181D01*
X129313047Y-121750944D01*
X129279562Y-121689621D01*
X129277632Y-121678209D01*
X129274207Y-121649999D01*
X136469722Y-121649999D01*
X136469722Y-121650000D01*
X136488762Y-121806818D01*
X136540479Y-121943182D01*
X136544780Y-121954523D01*
X136634517Y-122084530D01*
X136752760Y-122189283D01*
X136752762Y-122189284D01*
X136892634Y-122262696D01*
X137046014Y-122300500D01*
X137046015Y-122300500D01*
X137203985Y-122300500D01*
X137357365Y-122262696D01*
X137448805Y-122214703D01*
X137506431Y-122200500D01*
X138943569Y-122200500D01*
X139001194Y-122214703D01*
X139092635Y-122262696D01*
X139169325Y-122281598D01*
X139246014Y-122300500D01*
X139246015Y-122300500D01*
X139403985Y-122300500D01*
X139557365Y-122262696D01*
X139568564Y-122256818D01*
X139697240Y-122189283D01*
X139815483Y-122084530D01*
X139905220Y-121954523D01*
X139961237Y-121806818D01*
X139980278Y-121650000D01*
X139974116Y-121599246D01*
X139961237Y-121493181D01*
X139924182Y-121395476D01*
X139905220Y-121345477D01*
X139815483Y-121215470D01*
X139697240Y-121110717D01*
X139697238Y-121110716D01*
X139697237Y-121110715D01*
X139557365Y-121037303D01*
X139403986Y-120999500D01*
X139403985Y-120999500D01*
X139246015Y-120999500D01*
X139246014Y-120999500D01*
X139092636Y-121037303D01*
X139061517Y-121053636D01*
X139001194Y-121085296D01*
X138943569Y-121099500D01*
X137506431Y-121099500D01*
X137448805Y-121085296D01*
X137357365Y-121037304D01*
X137357364Y-121037303D01*
X137357363Y-121037303D01*
X137203986Y-120999500D01*
X137203985Y-120999500D01*
X137046015Y-120999500D01*
X137046014Y-120999500D01*
X136892634Y-121037303D01*
X136752762Y-121110715D01*
X136634516Y-121215471D01*
X136544781Y-121345475D01*
X136544780Y-121345476D01*
X136488762Y-121493181D01*
X136469722Y-121649999D01*
X129274207Y-121649999D01*
X129261237Y-121543182D01*
X129205220Y-121395477D01*
X129115483Y-121265470D01*
X128997240Y-121160717D01*
X128997238Y-121160716D01*
X128997237Y-121160715D01*
X128857365Y-121087303D01*
X128703986Y-121049500D01*
X128703985Y-121049500D01*
X128546015Y-121049500D01*
X128546014Y-121049500D01*
X128392634Y-121087303D01*
X128252762Y-121160715D01*
X128134516Y-121265471D01*
X128044781Y-121395475D01*
X128044780Y-121395476D01*
X127988762Y-121543181D01*
X127969722Y-121699999D01*
X113153524Y-121699999D01*
X112303524Y-120849999D01*
X172314722Y-120849999D01*
X172314722Y-120850000D01*
X172333762Y-121006818D01*
X172374492Y-121114213D01*
X172389780Y-121154523D01*
X172479517Y-121284530D01*
X172597760Y-121389283D01*
X172597762Y-121389284D01*
X172737634Y-121462696D01*
X172891014Y-121500500D01*
X172891015Y-121500500D01*
X173048985Y-121500500D01*
X173202365Y-121462696D01*
X173293805Y-121414703D01*
X173351431Y-121400500D01*
X174093569Y-121400500D01*
X174151194Y-121414703D01*
X174242635Y-121462696D01*
X174319325Y-121481598D01*
X174396014Y-121500500D01*
X174396015Y-121500500D01*
X174553985Y-121500500D01*
X174707365Y-121462696D01*
X174847240Y-121389283D01*
X174965483Y-121284530D01*
X175055220Y-121154523D01*
X175111237Y-121006818D01*
X175130278Y-120850000D01*
X175112746Y-120705605D01*
X175111237Y-120693181D01*
X175089992Y-120637164D01*
X175055220Y-120545477D01*
X174965483Y-120415470D01*
X174847240Y-120310717D01*
X174847238Y-120310716D01*
X174847237Y-120310715D01*
X174707365Y-120237303D01*
X174553986Y-120199500D01*
X174553985Y-120199500D01*
X174396015Y-120199500D01*
X174396014Y-120199500D01*
X174242636Y-120237303D01*
X174196763Y-120261379D01*
X174151194Y-120285296D01*
X174093569Y-120299500D01*
X173351431Y-120299500D01*
X173293805Y-120285296D01*
X173202365Y-120237304D01*
X173202364Y-120237303D01*
X173202363Y-120237303D01*
X173048986Y-120199500D01*
X173048985Y-120199500D01*
X172891015Y-120199500D01*
X172891014Y-120199500D01*
X172737634Y-120237303D01*
X172597762Y-120310715D01*
X172479516Y-120415471D01*
X172389781Y-120545475D01*
X172389780Y-120545476D01*
X172333762Y-120693181D01*
X172314722Y-120849999D01*
X112303524Y-120849999D01*
X110853524Y-119399999D01*
X128069722Y-119399999D01*
X128069722Y-119400000D01*
X128088762Y-119556818D01*
X128128556Y-119661745D01*
X128144780Y-119704523D01*
X128234517Y-119834530D01*
X128352760Y-119939283D01*
X128352762Y-119939284D01*
X128492634Y-120012696D01*
X128646014Y-120050500D01*
X128646015Y-120050500D01*
X128803985Y-120050500D01*
X128957365Y-120012696D01*
X129030127Y-119974507D01*
X129097240Y-119939283D01*
X129162256Y-119881683D01*
X129225490Y-119851963D01*
X129244483Y-119850500D01*
X130205517Y-119850500D01*
X130272556Y-119870185D01*
X130287741Y-119881682D01*
X130352760Y-119939283D01*
X130352762Y-119939284D01*
X130492634Y-120012696D01*
X130646014Y-120050500D01*
X130646015Y-120050500D01*
X130803985Y-120050500D01*
X130957365Y-120012696D01*
X131030127Y-119974507D01*
X131097240Y-119939283D01*
X131215483Y-119834530D01*
X131305220Y-119704523D01*
X131361237Y-119556818D01*
X131380278Y-119400000D01*
X131369678Y-119312696D01*
X131361237Y-119243181D01*
X131332535Y-119167500D01*
X131305220Y-119095477D01*
X131215483Y-118965470D01*
X131097240Y-118860717D01*
X131097238Y-118860716D01*
X131097237Y-118860715D01*
X130957365Y-118787303D01*
X130803986Y-118749500D01*
X130803985Y-118749500D01*
X130646015Y-118749500D01*
X130646014Y-118749500D01*
X130492634Y-118787303D01*
X130352762Y-118860715D01*
X130287744Y-118918316D01*
X130224510Y-118948037D01*
X130205517Y-118949500D01*
X129244483Y-118949500D01*
X129177444Y-118929815D01*
X129162256Y-118918316D01*
X129152620Y-118909779D01*
X129097240Y-118860717D01*
X129097238Y-118860716D01*
X129097237Y-118860715D01*
X128957365Y-118787303D01*
X128803986Y-118749500D01*
X128803985Y-118749500D01*
X128646015Y-118749500D01*
X128646014Y-118749500D01*
X128492634Y-118787303D01*
X128352762Y-118860715D01*
X128234516Y-118965471D01*
X128144781Y-119095475D01*
X128144780Y-119095476D01*
X128088762Y-119243181D01*
X128069722Y-119399999D01*
X110853524Y-119399999D01*
X108811819Y-117358294D01*
X108778334Y-117296971D01*
X108775500Y-117270613D01*
X108775500Y-115799999D01*
X116369722Y-115799999D01*
X116369722Y-115800000D01*
X116388762Y-115956818D01*
X116441349Y-116095476D01*
X116444780Y-116104523D01*
X116485051Y-116162865D01*
X116534518Y-116234532D01*
X116539491Y-116240145D01*
X116538044Y-116241426D01*
X116569850Y-116292120D01*
X116574500Y-116325759D01*
X116574500Y-117674240D01*
X116554815Y-117741279D01*
X116539153Y-117759556D01*
X116539491Y-117759856D01*
X116534515Y-117765472D01*
X116444781Y-117895475D01*
X116444780Y-117895476D01*
X116388762Y-118043181D01*
X116369722Y-118199999D01*
X116369722Y-118200000D01*
X116388762Y-118356818D01*
X116406855Y-118404524D01*
X116444780Y-118504523D01*
X116534517Y-118634530D01*
X116652760Y-118739283D01*
X116652762Y-118739284D01*
X116792634Y-118812696D01*
X116946014Y-118850500D01*
X116946015Y-118850500D01*
X117103985Y-118850500D01*
X117257365Y-118812696D01*
X117288376Y-118796420D01*
X117397240Y-118739283D01*
X117515483Y-118634530D01*
X117605220Y-118504523D01*
X117661237Y-118356818D01*
X117680278Y-118200000D01*
X117677003Y-118173023D01*
X117668136Y-118099999D01*
X135569722Y-118099999D01*
X135569722Y-118100000D01*
X135588762Y-118256818D01*
X135641349Y-118395476D01*
X135644780Y-118404523D01*
X135734517Y-118534530D01*
X135852760Y-118639283D01*
X135852762Y-118639284D01*
X135992634Y-118712696D01*
X136146014Y-118750500D01*
X136146015Y-118750500D01*
X136303985Y-118750500D01*
X136457365Y-118712696D01*
X136481557Y-118699999D01*
X136597240Y-118639283D01*
X136715483Y-118534530D01*
X136805220Y-118404523D01*
X136861237Y-118256818D01*
X136877632Y-118121787D01*
X136905254Y-118057611D01*
X136913036Y-118049065D01*
X137875284Y-117086819D01*
X137936607Y-117053334D01*
X137962965Y-117050500D01*
X138003985Y-117050500D01*
X138157365Y-117012696D01*
X138256401Y-116960717D01*
X138297240Y-116939283D01*
X138415483Y-116834530D01*
X138439318Y-116799999D01*
X151769722Y-116799999D01*
X151769722Y-116800000D01*
X151788762Y-116956818D01*
X151838066Y-117086819D01*
X151844780Y-117104523D01*
X151856668Y-117121746D01*
X151934518Y-117234532D01*
X151939491Y-117240145D01*
X151938044Y-117241426D01*
X151969850Y-117292120D01*
X151974500Y-117325759D01*
X151974500Y-118174240D01*
X151954815Y-118241279D01*
X151939153Y-118259556D01*
X151939491Y-118259856D01*
X151934515Y-118265472D01*
X151844781Y-118395475D01*
X151844780Y-118395476D01*
X151788762Y-118543181D01*
X151769722Y-118699999D01*
X151769722Y-118700000D01*
X151788762Y-118856818D01*
X151844780Y-119004523D01*
X151934517Y-119134530D01*
X152052760Y-119239283D01*
X152052762Y-119239284D01*
X152192634Y-119312696D01*
X152346014Y-119350500D01*
X152346015Y-119350500D01*
X152503985Y-119350500D01*
X152657365Y-119312696D01*
X152743666Y-119267401D01*
X152797240Y-119239283D01*
X152915483Y-119134530D01*
X153005220Y-119004523D01*
X153061237Y-118856818D01*
X153080278Y-118700000D01*
X153061237Y-118543182D01*
X153042546Y-118493899D01*
X153008651Y-118404524D01*
X153005220Y-118395477D01*
X152915483Y-118265470D01*
X152915479Y-118265466D01*
X152910509Y-118259856D01*
X152911953Y-118258576D01*
X152880145Y-118207860D01*
X152875500Y-118174240D01*
X152875500Y-117325759D01*
X152895185Y-117258720D01*
X152910846Y-117240444D01*
X152910509Y-117240145D01*
X152915481Y-117234532D01*
X152915481Y-117234531D01*
X152915483Y-117234530D01*
X153005220Y-117104523D01*
X153061237Y-116956818D01*
X153080278Y-116800000D01*
X153066536Y-116686819D01*
X153061237Y-116643181D01*
X153033419Y-116569832D01*
X153005220Y-116495477D01*
X152915483Y-116365470D01*
X152797240Y-116260717D01*
X152797238Y-116260716D01*
X152797237Y-116260715D01*
X152657365Y-116187303D01*
X152503986Y-116149500D01*
X152503985Y-116149500D01*
X152346015Y-116149500D01*
X152346014Y-116149500D01*
X152192634Y-116187303D01*
X152052762Y-116260715D01*
X151934516Y-116365471D01*
X151844781Y-116495475D01*
X151844780Y-116495476D01*
X151788762Y-116643181D01*
X151769722Y-116799999D01*
X138439318Y-116799999D01*
X138505220Y-116704523D01*
X138561237Y-116556818D01*
X138580278Y-116400000D01*
X138576086Y-116365471D01*
X138561237Y-116243181D01*
X138531621Y-116165091D01*
X138505220Y-116095477D01*
X138439317Y-116000000D01*
X196469722Y-116000000D01*
X196471687Y-116016180D01*
X196488762Y-116156818D01*
X196540076Y-116292120D01*
X196544780Y-116304523D01*
X196634517Y-116434530D01*
X196752760Y-116539283D01*
X196752762Y-116539284D01*
X196892634Y-116612696D01*
X197046014Y-116650500D01*
X197046015Y-116650500D01*
X197087035Y-116650500D01*
X197154074Y-116670185D01*
X197174716Y-116686819D01*
X197936952Y-117449055D01*
X197970437Y-117510378D01*
X197972367Y-117521789D01*
X197988763Y-117656819D01*
X198010557Y-117714284D01*
X198044780Y-117804523D01*
X198134517Y-117934530D01*
X198252760Y-118039283D01*
X198252762Y-118039284D01*
X198392634Y-118112696D01*
X198546014Y-118150500D01*
X198546015Y-118150500D01*
X198703985Y-118150500D01*
X198857365Y-118112696D01*
X198962319Y-118057611D01*
X198997240Y-118039283D01*
X199115483Y-117934530D01*
X199205220Y-117804523D01*
X199261237Y-117656818D01*
X199280278Y-117500000D01*
X199278737Y-117487304D01*
X199261237Y-117343181D01*
X199222646Y-117241426D01*
X199205220Y-117195477D01*
X199115483Y-117065470D01*
X198997240Y-116960717D01*
X198997238Y-116960716D01*
X198997237Y-116960715D01*
X198857365Y-116887303D01*
X198703986Y-116849500D01*
X198703985Y-116849500D01*
X198662965Y-116849500D01*
X198595926Y-116829815D01*
X198575284Y-116813181D01*
X197813047Y-116050944D01*
X197779562Y-115989621D01*
X197777632Y-115978209D01*
X197773055Y-115940512D01*
X197761237Y-115843182D01*
X197705220Y-115695477D01*
X197615483Y-115565470D01*
X197497240Y-115460717D01*
X197497238Y-115460716D01*
X197497237Y-115460715D01*
X197357365Y-115387303D01*
X197203986Y-115349500D01*
X197203985Y-115349500D01*
X197046015Y-115349500D01*
X197046014Y-115349500D01*
X196892634Y-115387303D01*
X196752762Y-115460715D01*
X196634516Y-115565471D01*
X196544781Y-115695475D01*
X196544780Y-115695476D01*
X196488762Y-115843181D01*
X196470982Y-115989621D01*
X196469722Y-116000000D01*
X138439317Y-116000000D01*
X138415483Y-115965470D01*
X138297240Y-115860717D01*
X138297238Y-115860716D01*
X138297237Y-115860715D01*
X138157365Y-115787303D01*
X138003986Y-115749500D01*
X138003985Y-115749500D01*
X137846015Y-115749500D01*
X137846014Y-115749500D01*
X137692634Y-115787303D01*
X137552762Y-115860715D01*
X137434516Y-115965471D01*
X137344781Y-116095475D01*
X137344780Y-116095476D01*
X137288763Y-116243180D01*
X137272367Y-116378209D01*
X137244745Y-116442387D01*
X137236952Y-116450943D01*
X136274716Y-117413181D01*
X136213393Y-117446666D01*
X136187035Y-117449500D01*
X136146014Y-117449500D01*
X135992634Y-117487303D01*
X135852762Y-117560715D01*
X135734516Y-117665471D01*
X135644781Y-117795475D01*
X135644780Y-117795476D01*
X135588762Y-117943181D01*
X135569722Y-118099999D01*
X117668136Y-118099999D01*
X117661237Y-118043181D01*
X117623312Y-117943182D01*
X117605220Y-117895477D01*
X117515483Y-117765470D01*
X117515479Y-117765466D01*
X117510509Y-117759856D01*
X117511953Y-117758576D01*
X117480145Y-117707860D01*
X117475500Y-117674240D01*
X117475500Y-116325759D01*
X117495185Y-116258720D01*
X117510846Y-116240444D01*
X117510509Y-116240145D01*
X117515481Y-116234532D01*
X117515481Y-116234531D01*
X117515483Y-116234530D01*
X117605220Y-116104523D01*
X117661237Y-115956818D01*
X117680278Y-115800000D01*
X117678737Y-115787304D01*
X117661237Y-115643181D01*
X117621163Y-115537515D01*
X117605220Y-115495477D01*
X117515483Y-115365470D01*
X117397240Y-115260717D01*
X117397238Y-115260716D01*
X117397237Y-115260715D01*
X117257365Y-115187303D01*
X117103986Y-115149500D01*
X117103985Y-115149500D01*
X116946015Y-115149500D01*
X116946014Y-115149500D01*
X116792634Y-115187303D01*
X116652762Y-115260715D01*
X116534516Y-115365471D01*
X116444781Y-115495475D01*
X116444780Y-115495476D01*
X116388762Y-115643181D01*
X116369722Y-115799999D01*
X108775500Y-115799999D01*
X108775500Y-115677527D01*
X108775500Y-115677525D01*
X108737984Y-115537515D01*
X108716325Y-115500000D01*
X108665510Y-115411985D01*
X108313015Y-115059490D01*
X108187485Y-114987016D01*
X108111587Y-114966679D01*
X108111586Y-114966678D01*
X108064653Y-114954102D01*
X108047475Y-114949500D01*
X108047474Y-114949500D01*
X107706431Y-114949500D01*
X107648805Y-114935296D01*
X107557365Y-114887304D01*
X107557364Y-114887303D01*
X107557363Y-114887303D01*
X107403986Y-114849500D01*
X107403985Y-114849500D01*
X107299500Y-114849500D01*
X107232461Y-114829815D01*
X107186706Y-114777011D01*
X107175500Y-114725500D01*
X107175500Y-114349999D01*
X127769722Y-114349999D01*
X127769722Y-114350000D01*
X127788762Y-114506818D01*
X127844780Y-114654523D01*
X127844781Y-114654524D01*
X127934518Y-114784532D01*
X127939491Y-114790145D01*
X127938044Y-114791426D01*
X127969850Y-114842120D01*
X127974500Y-114875759D01*
X127974500Y-116649240D01*
X127954815Y-116716279D01*
X127939153Y-116734556D01*
X127939491Y-116734856D01*
X127934515Y-116740472D01*
X127844781Y-116870475D01*
X127844780Y-116870476D01*
X127788762Y-117018181D01*
X127769722Y-117174999D01*
X127769722Y-117175000D01*
X127788762Y-117331818D01*
X127832319Y-117446666D01*
X127844780Y-117479523D01*
X127934517Y-117609530D01*
X128052760Y-117714283D01*
X128052762Y-117714284D01*
X128192634Y-117787696D01*
X128346014Y-117825500D01*
X128346015Y-117825500D01*
X128503985Y-117825500D01*
X128657365Y-117787696D01*
X128797240Y-117714283D01*
X128915483Y-117609530D01*
X129005220Y-117479523D01*
X129061237Y-117331818D01*
X129080278Y-117175000D01*
X129074511Y-117127499D01*
X129061237Y-117018181D01*
X129031315Y-116939284D01*
X129005220Y-116870477D01*
X128915483Y-116740470D01*
X128915479Y-116740466D01*
X128910509Y-116734856D01*
X128911953Y-116733576D01*
X128880145Y-116682860D01*
X128875500Y-116649240D01*
X128875500Y-114875759D01*
X128895185Y-114808720D01*
X128910846Y-114790444D01*
X128910509Y-114790145D01*
X128915481Y-114784532D01*
X128915481Y-114784531D01*
X128915483Y-114784530D01*
X129005220Y-114654523D01*
X129061237Y-114506818D01*
X129080278Y-114350000D01*
X129061237Y-114193182D01*
X129052487Y-114170111D01*
X129024182Y-114095476D01*
X129005220Y-114045477D01*
X128915483Y-113915470D01*
X128797240Y-113810717D01*
X128797238Y-113810716D01*
X128797237Y-113810715D01*
X128657365Y-113737303D01*
X128503986Y-113699500D01*
X128503985Y-113699500D01*
X128346015Y-113699500D01*
X128346014Y-113699500D01*
X128192634Y-113737303D01*
X128052762Y-113810715D01*
X127934516Y-113915471D01*
X127844781Y-114045475D01*
X127844780Y-114045476D01*
X127788762Y-114193181D01*
X127769722Y-114349999D01*
X107175500Y-114349999D01*
X107175500Y-111449999D01*
X114569722Y-111449999D01*
X114569722Y-111450000D01*
X114588762Y-111606818D01*
X114644780Y-111754523D01*
X114644781Y-111754524D01*
X114734518Y-111884532D01*
X114739491Y-111890145D01*
X114738044Y-111891426D01*
X114769850Y-111942120D01*
X114774500Y-111975759D01*
X114774500Y-112674240D01*
X114754815Y-112741279D01*
X114739153Y-112759556D01*
X114739491Y-112759856D01*
X114734515Y-112765472D01*
X114644781Y-112895475D01*
X114644780Y-112895476D01*
X114588762Y-113043181D01*
X114569722Y-113199999D01*
X114569722Y-113200000D01*
X114588762Y-113356818D01*
X114638066Y-113486819D01*
X114644780Y-113504523D01*
X114734517Y-113634530D01*
X114852760Y-113739283D01*
X114852762Y-113739284D01*
X114992634Y-113812696D01*
X115146014Y-113850500D01*
X115146015Y-113850500D01*
X115303985Y-113850500D01*
X115457365Y-113812696D01*
X115480602Y-113800500D01*
X115597240Y-113739283D01*
X115715483Y-113634530D01*
X115805220Y-113504523D01*
X115861237Y-113356818D01*
X115880278Y-113200000D01*
X115876123Y-113165776D01*
X115861237Y-113043181D01*
X115839992Y-112987164D01*
X115805220Y-112895477D01*
X115773829Y-112849999D01*
X140319722Y-112849999D01*
X140319722Y-112850000D01*
X140338762Y-113006818D01*
X140375818Y-113104524D01*
X140394780Y-113154523D01*
X140402548Y-113165777D01*
X140424433Y-113232130D01*
X140424500Y-113236219D01*
X140424500Y-114263780D01*
X140404815Y-114330819D01*
X140402552Y-114334217D01*
X140394780Y-114345476D01*
X140338762Y-114493181D01*
X140319722Y-114649999D01*
X140319722Y-114650000D01*
X140338762Y-114806818D01*
X140369287Y-114887304D01*
X140394780Y-114954523D01*
X140484517Y-115084530D01*
X140602760Y-115189283D01*
X140602762Y-115189284D01*
X140742634Y-115262696D01*
X140896014Y-115300500D01*
X140896015Y-115300500D01*
X141053985Y-115300500D01*
X141207365Y-115262696D01*
X141211139Y-115260715D01*
X141347240Y-115189283D01*
X141465483Y-115084530D01*
X141555220Y-114954523D01*
X141611237Y-114806818D01*
X141630278Y-114650000D01*
X141611237Y-114493182D01*
X141555220Y-114345477D01*
X141547448Y-114334217D01*
X141536164Y-114299999D01*
X198269722Y-114299999D01*
X198269722Y-114300000D01*
X198288762Y-114456818D01*
X198326688Y-114556818D01*
X198344780Y-114604523D01*
X198434517Y-114734530D01*
X198552760Y-114839283D01*
X198552762Y-114839284D01*
X198692634Y-114912696D01*
X198846014Y-114950500D01*
X198846015Y-114950500D01*
X198887035Y-114950500D01*
X198954074Y-114970185D01*
X198974716Y-114986819D01*
X199736952Y-115749055D01*
X199770437Y-115810378D01*
X199772367Y-115821789D01*
X199788763Y-115956819D01*
X199841349Y-116095475D01*
X199844780Y-116104523D01*
X199934517Y-116234530D01*
X200052760Y-116339283D01*
X200052762Y-116339284D01*
X200192634Y-116412696D01*
X200346014Y-116450500D01*
X200346015Y-116450500D01*
X200503985Y-116450500D01*
X200657365Y-116412696D01*
X200681557Y-116399999D01*
X200797240Y-116339283D01*
X200915483Y-116234530D01*
X201005220Y-116104523D01*
X201061237Y-115956818D01*
X201080278Y-115800000D01*
X201078737Y-115787304D01*
X201061237Y-115643181D01*
X201021163Y-115537515D01*
X201005220Y-115495477D01*
X200915483Y-115365470D01*
X200797240Y-115260717D01*
X200797238Y-115260716D01*
X200797237Y-115260715D01*
X200657365Y-115187303D01*
X200503986Y-115149500D01*
X200503985Y-115149500D01*
X200462965Y-115149500D01*
X200395926Y-115129815D01*
X200375284Y-115113181D01*
X199613047Y-114350944D01*
X199579562Y-114289621D01*
X199577632Y-114278209D01*
X199573379Y-114243181D01*
X199561237Y-114143182D01*
X199505220Y-113995477D01*
X199415483Y-113865470D01*
X199297240Y-113760717D01*
X199297238Y-113760716D01*
X199297237Y-113760715D01*
X199157365Y-113687303D01*
X199003986Y-113649500D01*
X199003985Y-113649500D01*
X198846015Y-113649500D01*
X198846014Y-113649500D01*
X198692634Y-113687303D01*
X198552762Y-113760715D01*
X198434516Y-113865471D01*
X198344781Y-113995475D01*
X198344780Y-113995476D01*
X198288762Y-114143181D01*
X198269722Y-114299999D01*
X141536164Y-114299999D01*
X141525567Y-114267862D01*
X141525500Y-114263780D01*
X141525500Y-113236219D01*
X141545185Y-113169180D01*
X141547434Y-113165802D01*
X141555220Y-113154523D01*
X141611237Y-113006818D01*
X141630278Y-112850000D01*
X141624207Y-112799999D01*
X199669722Y-112799999D01*
X199669722Y-112800000D01*
X199688762Y-112956818D01*
X199707725Y-113006818D01*
X199744780Y-113104523D01*
X199834517Y-113234530D01*
X199952760Y-113339283D01*
X199952762Y-113339284D01*
X200092634Y-113412696D01*
X200246014Y-113450500D01*
X200246015Y-113450500D01*
X200287035Y-113450500D01*
X200354074Y-113470185D01*
X200374716Y-113486819D01*
X201236952Y-114349056D01*
X201270437Y-114410379D01*
X201272367Y-114421790D01*
X201288763Y-114556819D01*
X201325818Y-114654524D01*
X201344780Y-114704523D01*
X201434517Y-114834530D01*
X201552760Y-114939283D01*
X201552762Y-114939284D01*
X201692634Y-115012696D01*
X201846014Y-115050500D01*
X201846015Y-115050500D01*
X202003985Y-115050500D01*
X202157365Y-115012696D01*
X202172240Y-115004889D01*
X202297240Y-114939283D01*
X202415483Y-114834530D01*
X202505220Y-114704523D01*
X202561237Y-114556818D01*
X202580278Y-114400000D01*
X202577266Y-114375189D01*
X202561237Y-114243181D01*
X202533523Y-114170107D01*
X202505220Y-114095477D01*
X202415483Y-113965470D01*
X202297240Y-113860717D01*
X202297238Y-113860716D01*
X202297237Y-113860715D01*
X202157365Y-113787303D01*
X202003986Y-113749500D01*
X202003985Y-113749500D01*
X201962966Y-113749500D01*
X201895927Y-113729815D01*
X201875285Y-113713181D01*
X201013046Y-112850942D01*
X200979561Y-112789619D01*
X200977634Y-112778225D01*
X200961237Y-112643182D01*
X200905220Y-112495477D01*
X200815483Y-112365470D01*
X200697240Y-112260717D01*
X200697238Y-112260716D01*
X200697237Y-112260715D01*
X200557365Y-112187303D01*
X200403986Y-112149500D01*
X200403985Y-112149500D01*
X200246015Y-112149500D01*
X200246014Y-112149500D01*
X200092634Y-112187303D01*
X199952762Y-112260715D01*
X199834516Y-112365471D01*
X199744781Y-112495475D01*
X199744780Y-112495476D01*
X199688762Y-112643181D01*
X199669722Y-112799999D01*
X141624207Y-112799999D01*
X141622947Y-112789619D01*
X141611237Y-112693181D01*
X141555987Y-112547500D01*
X141555220Y-112545477D01*
X141465483Y-112415470D01*
X141347240Y-112310717D01*
X141347238Y-112310716D01*
X141347237Y-112310715D01*
X141207365Y-112237303D01*
X141053986Y-112199500D01*
X141053985Y-112199500D01*
X140896015Y-112199500D01*
X140896014Y-112199500D01*
X140742634Y-112237303D01*
X140602762Y-112310715D01*
X140484516Y-112415471D01*
X140394781Y-112545475D01*
X140394780Y-112545476D01*
X140338762Y-112693181D01*
X140319722Y-112849999D01*
X115773829Y-112849999D01*
X115715483Y-112765470D01*
X115715479Y-112765466D01*
X115710509Y-112759856D01*
X115711953Y-112758576D01*
X115680145Y-112707860D01*
X115675500Y-112674240D01*
X115675500Y-111975759D01*
X115695185Y-111908720D01*
X115710846Y-111890444D01*
X115710509Y-111890145D01*
X115715481Y-111884532D01*
X115715481Y-111884531D01*
X115715483Y-111884530D01*
X115805220Y-111754523D01*
X115861237Y-111606818D01*
X115880278Y-111450000D01*
X115871350Y-111376466D01*
X115861237Y-111293181D01*
X115816955Y-111176420D01*
X115805220Y-111145477D01*
X115715483Y-111015470D01*
X115597240Y-110910717D01*
X115597238Y-110910716D01*
X115597237Y-110910715D01*
X115457365Y-110837303D01*
X115303986Y-110799500D01*
X115303985Y-110799500D01*
X115146015Y-110799500D01*
X115146014Y-110799500D01*
X114992634Y-110837303D01*
X114852762Y-110910715D01*
X114852760Y-110910717D01*
X114741376Y-111009394D01*
X114734516Y-111015471D01*
X114644781Y-111145475D01*
X114644780Y-111145476D01*
X114588762Y-111293181D01*
X114569722Y-111449999D01*
X107175500Y-111449999D01*
X107175500Y-110977527D01*
X107175500Y-110977525D01*
X107137984Y-110837515D01*
X107137982Y-110837512D01*
X107137982Y-110837510D01*
X107137981Y-110837509D01*
X107116037Y-110799501D01*
X107116035Y-110799499D01*
X107065510Y-110711985D01*
X106111819Y-109758294D01*
X106078334Y-109696971D01*
X106075500Y-109670613D01*
X106075500Y-108036219D01*
X106095185Y-107969180D01*
X106097434Y-107965802D01*
X106105220Y-107954523D01*
X106161237Y-107806818D01*
X106180278Y-107650000D01*
X106180278Y-107649999D01*
X153869722Y-107649999D01*
X153869722Y-107650000D01*
X153888762Y-107806818D01*
X153944780Y-107954523D01*
X154034517Y-108084530D01*
X154152760Y-108189283D01*
X154152762Y-108189284D01*
X154292634Y-108262696D01*
X154446014Y-108300500D01*
X154446015Y-108300500D01*
X154487035Y-108300500D01*
X154554074Y-108320185D01*
X154574716Y-108336819D01*
X154936952Y-108699055D01*
X154970437Y-108760378D01*
X154972367Y-108771789D01*
X154988763Y-108906819D01*
X154999982Y-108936400D01*
X155044780Y-109054523D01*
X155134517Y-109184530D01*
X155252760Y-109289283D01*
X155252762Y-109289284D01*
X155392634Y-109362696D01*
X155546014Y-109400500D01*
X155546015Y-109400500D01*
X155703985Y-109400500D01*
X155857365Y-109362696D01*
X155997240Y-109289283D01*
X156115483Y-109184530D01*
X156205220Y-109054523D01*
X156261237Y-108906818D01*
X156280278Y-108750000D01*
X156277740Y-108729093D01*
X156261237Y-108593181D01*
X156239992Y-108537164D01*
X156205220Y-108445477D01*
X156115483Y-108315470D01*
X155997240Y-108210717D01*
X155997238Y-108210716D01*
X155997237Y-108210715D01*
X155857365Y-108137303D01*
X155703986Y-108099500D01*
X155703985Y-108099500D01*
X155662965Y-108099500D01*
X155595926Y-108079815D01*
X155575284Y-108063181D01*
X155213047Y-107700944D01*
X155179562Y-107639621D01*
X155177632Y-107628209D01*
X155171263Y-107575755D01*
X155161237Y-107493182D01*
X155105220Y-107345477D01*
X155015483Y-107215470D01*
X154897240Y-107110717D01*
X154897238Y-107110716D01*
X154897237Y-107110715D01*
X154757365Y-107037303D01*
X154603986Y-106999500D01*
X154603985Y-106999500D01*
X154446015Y-106999500D01*
X154446014Y-106999500D01*
X154292634Y-107037303D01*
X154152762Y-107110715D01*
X154034516Y-107215471D01*
X153944781Y-107345475D01*
X153944780Y-107345476D01*
X153888762Y-107493181D01*
X153869722Y-107649999D01*
X106180278Y-107649999D01*
X106161237Y-107493182D01*
X106105220Y-107345477D01*
X106015483Y-107215470D01*
X105897240Y-107110717D01*
X105897238Y-107110716D01*
X105897237Y-107110715D01*
X105757365Y-107037303D01*
X105603986Y-106999500D01*
X105603985Y-106999500D01*
X105446015Y-106999500D01*
X105446014Y-106999500D01*
X105292634Y-107037303D01*
X105152762Y-107110715D01*
X105034516Y-107215471D01*
X104944781Y-107345475D01*
X104944780Y-107345476D01*
X104888762Y-107493181D01*
X104869722Y-107649999D01*
X88810516Y-107649999D01*
X88817929Y-107570000D01*
X88798256Y-107357690D01*
X88739905Y-107152611D01*
X88739903Y-107152606D01*
X88739903Y-107152605D01*
X88644867Y-106961746D01*
X88516372Y-106791593D01*
X88476439Y-106755189D01*
X88358802Y-106647948D01*
X88177519Y-106535702D01*
X88177514Y-106535700D01*
X88170629Y-106533032D01*
X88148537Y-106524474D01*
X88116686Y-106499999D01*
X141694722Y-106499999D01*
X141694722Y-106500000D01*
X141713762Y-106656818D01*
X141762197Y-106784528D01*
X141769780Y-106804523D01*
X141859517Y-106934530D01*
X141977760Y-107039283D01*
X141977762Y-107039284D01*
X142117634Y-107112696D01*
X142271014Y-107150500D01*
X142271015Y-107150500D01*
X142428985Y-107150500D01*
X142582365Y-107112696D01*
X142673805Y-107064703D01*
X142731431Y-107050500D01*
X143943569Y-107050500D01*
X144001194Y-107064703D01*
X144092635Y-107112696D01*
X144169325Y-107131598D01*
X144246014Y-107150500D01*
X144246015Y-107150500D01*
X144403985Y-107150500D01*
X144557365Y-107112696D01*
X144561139Y-107110715D01*
X144697240Y-107039283D01*
X144815483Y-106934530D01*
X144905220Y-106804523D01*
X144961237Y-106656818D01*
X144980278Y-106500000D01*
X144977451Y-106476713D01*
X144961237Y-106343181D01*
X144939992Y-106287164D01*
X144905220Y-106195477D01*
X144815483Y-106065470D01*
X144697240Y-105960717D01*
X144697238Y-105960716D01*
X144697237Y-105960715D01*
X144557365Y-105887303D01*
X144403986Y-105849500D01*
X144403985Y-105849500D01*
X144246015Y-105849500D01*
X144246014Y-105849500D01*
X144092636Y-105887303D01*
X144046763Y-105911379D01*
X144001194Y-105935296D01*
X143943569Y-105949500D01*
X142731431Y-105949500D01*
X142673805Y-105935296D01*
X142582365Y-105887304D01*
X142582364Y-105887303D01*
X142582363Y-105887303D01*
X142428986Y-105849500D01*
X142428985Y-105849500D01*
X142271015Y-105849500D01*
X142271014Y-105849500D01*
X142117634Y-105887303D01*
X141977762Y-105960715D01*
X141859516Y-106065471D01*
X141769781Y-106195475D01*
X141769780Y-106195476D01*
X141713762Y-106343181D01*
X141694722Y-106499999D01*
X88116686Y-106499999D01*
X88093136Y-106481903D01*
X88069545Y-106416136D01*
X88085256Y-106348056D01*
X88135279Y-106299276D01*
X88140926Y-106296466D01*
X88340078Y-106203599D01*
X88533582Y-106068105D01*
X88700605Y-105901082D01*
X88836100Y-105707578D01*
X88935929Y-105493492D01*
X88935932Y-105493486D01*
X88993136Y-105280000D01*
X88095512Y-105280000D01*
X88128425Y-105222993D01*
X88162500Y-105095826D01*
X88162500Y-104964174D01*
X88131906Y-104849999D01*
X180319722Y-104849999D01*
X180319722Y-104850000D01*
X180338762Y-105006818D01*
X180372519Y-105095826D01*
X180394780Y-105154523D01*
X180484517Y-105284530D01*
X180602760Y-105389283D01*
X180742635Y-105462696D01*
X180797369Y-105476186D01*
X180855377Y-105508902D01*
X181811063Y-106464588D01*
X181839324Y-106508298D01*
X181855180Y-106550107D01*
X181894780Y-106654523D01*
X181984517Y-106784530D01*
X182102760Y-106889283D01*
X182102762Y-106889284D01*
X182242634Y-106962696D01*
X182396014Y-107000500D01*
X182396015Y-107000500D01*
X182553985Y-107000500D01*
X182707365Y-106962696D01*
X182761034Y-106934528D01*
X182847240Y-106889283D01*
X182965483Y-106784530D01*
X183055220Y-106654523D01*
X183111237Y-106506818D01*
X183130278Y-106350000D01*
X183111516Y-106195475D01*
X183111237Y-106193181D01*
X183089992Y-106137164D01*
X183055220Y-106045477D01*
X182965483Y-105915470D01*
X182847240Y-105810717D01*
X182847238Y-105810716D01*
X182847237Y-105810715D01*
X182707367Y-105737304D01*
X182652626Y-105723812D01*
X182594621Y-105691096D01*
X181638937Y-104735412D01*
X181610676Y-104691702D01*
X181580713Y-104612696D01*
X181555220Y-104545477D01*
X181465483Y-104415470D01*
X181347240Y-104310717D01*
X181347238Y-104310716D01*
X181347237Y-104310715D01*
X181207365Y-104237303D01*
X181053986Y-104199500D01*
X181053985Y-104199500D01*
X180896015Y-104199500D01*
X180896014Y-104199500D01*
X180742634Y-104237303D01*
X180602762Y-104310715D01*
X180484516Y-104415471D01*
X180394781Y-104545475D01*
X180394780Y-104545476D01*
X180338762Y-104693181D01*
X180319722Y-104849999D01*
X88131906Y-104849999D01*
X88128425Y-104837007D01*
X88095512Y-104780000D01*
X88993136Y-104780000D01*
X88993135Y-104779999D01*
X88935932Y-104566513D01*
X88935929Y-104566507D01*
X88836100Y-104352422D01*
X88836099Y-104352420D01*
X88700613Y-104158926D01*
X88700608Y-104158920D01*
X88541687Y-103999999D01*
X199669722Y-103999999D01*
X199669722Y-104000000D01*
X199688762Y-104156818D01*
X199719287Y-104237304D01*
X199744780Y-104304523D01*
X199834517Y-104434530D01*
X199952760Y-104539283D01*
X199952762Y-104539284D01*
X200092634Y-104612696D01*
X200246014Y-104650500D01*
X200246015Y-104650500D01*
X200403985Y-104650500D01*
X200557365Y-104612696D01*
X200645358Y-104566513D01*
X200697240Y-104539283D01*
X200815483Y-104434530D01*
X200905220Y-104304523D01*
X200961237Y-104156818D01*
X200977632Y-104021787D01*
X201005254Y-103957611D01*
X201013036Y-103949065D01*
X203324604Y-101637499D01*
X210175614Y-101637499D01*
X210175614Y-101637500D01*
X211073238Y-101637500D01*
X211040325Y-101694507D01*
X211006250Y-101821674D01*
X211006250Y-101953326D01*
X211040325Y-102080493D01*
X211073238Y-102137500D01*
X210175614Y-102137500D01*
X210232817Y-102350986D01*
X210232820Y-102350992D01*
X210332649Y-102565078D01*
X210468144Y-102758582D01*
X210635167Y-102925605D01*
X210821281Y-103055925D01*
X210864906Y-103110503D01*
X210872098Y-103180001D01*
X210840576Y-103242356D01*
X210821281Y-103259075D01*
X210635172Y-103389390D01*
X210635170Y-103389391D01*
X210468141Y-103556420D01*
X210468136Y-103556426D01*
X210332650Y-103749920D01*
X210332649Y-103749922D01*
X210232820Y-103964007D01*
X210232817Y-103964013D01*
X210175614Y-104177499D01*
X210175614Y-104177500D01*
X211073238Y-104177500D01*
X211040325Y-104234507D01*
X211006250Y-104361674D01*
X211006250Y-104493326D01*
X211040325Y-104620493D01*
X211073238Y-104677500D01*
X210175614Y-104677500D01*
X210232817Y-104890986D01*
X210232820Y-104890992D01*
X210332649Y-105105078D01*
X210468144Y-105298582D01*
X210635167Y-105465605D01*
X210828671Y-105601100D01*
X211027823Y-105693966D01*
X211080262Y-105740138D01*
X211099414Y-105807332D01*
X211079198Y-105874213D01*
X211026033Y-105919548D01*
X211020218Y-105921972D01*
X211013021Y-105924760D01*
X210991232Y-105933201D01*
X210991230Y-105933202D01*
X210809949Y-106045447D01*
X210652377Y-106189093D01*
X210523882Y-106359246D01*
X210428846Y-106550105D01*
X210428846Y-106550107D01*
X210370494Y-106755189D01*
X210350821Y-106967499D01*
X210350821Y-106967500D01*
X210370494Y-107179810D01*
X210428846Y-107384892D01*
X210428846Y-107384894D01*
X210523882Y-107575753D01*
X210618423Y-107700944D01*
X210652378Y-107745907D01*
X210809948Y-107889552D01*
X210991231Y-108001798D01*
X211190052Y-108078821D01*
X211386863Y-108115611D01*
X211449143Y-108147279D01*
X211484416Y-108207592D01*
X211481482Y-108277400D01*
X211441273Y-108334540D01*
X211386863Y-108359388D01*
X211190052Y-108396179D01*
X211190049Y-108396179D01*
X211190049Y-108396180D01*
X210991232Y-108473201D01*
X210991230Y-108473202D01*
X210809949Y-108585447D01*
X210652377Y-108729093D01*
X210523882Y-108899246D01*
X210428846Y-109090105D01*
X210428846Y-109090107D01*
X210370494Y-109295189D01*
X210350821Y-109507499D01*
X210350821Y-109507500D01*
X210370494Y-109719810D01*
X210428846Y-109924892D01*
X210428846Y-109924894D01*
X210523882Y-110115753D01*
X210523884Y-110115755D01*
X210652378Y-110285907D01*
X210809948Y-110429552D01*
X210991231Y-110541798D01*
X211020211Y-110553025D01*
X211075612Y-110595595D01*
X211099204Y-110661361D01*
X211083494Y-110729442D01*
X211033472Y-110778222D01*
X211027823Y-110781033D01*
X210828672Y-110873899D01*
X210828670Y-110873900D01*
X210635176Y-111009386D01*
X210635170Y-111009391D01*
X210468141Y-111176420D01*
X210468136Y-111176426D01*
X210332650Y-111369920D01*
X210332649Y-111369922D01*
X210232820Y-111584007D01*
X210232817Y-111584013D01*
X210175614Y-111797499D01*
X210175614Y-111797500D01*
X211073238Y-111797500D01*
X211040325Y-111854507D01*
X211006250Y-111981674D01*
X211006250Y-112113326D01*
X211040325Y-112240493D01*
X211073238Y-112297500D01*
X210175614Y-112297500D01*
X210232817Y-112510986D01*
X210232820Y-112510992D01*
X210332649Y-112725078D01*
X210468144Y-112918582D01*
X210635167Y-113085605D01*
X210828671Y-113221100D01*
X211027823Y-113313966D01*
X211080262Y-113360138D01*
X211099414Y-113427332D01*
X211079198Y-113494213D01*
X211026033Y-113539548D01*
X211020218Y-113541972D01*
X211013021Y-113544760D01*
X210991232Y-113553201D01*
X210991230Y-113553202D01*
X210809949Y-113665447D01*
X210652377Y-113809093D01*
X210523882Y-113979246D01*
X210428846Y-114170105D01*
X210428846Y-114170107D01*
X210377393Y-114350944D01*
X210370494Y-114375190D01*
X210350821Y-114587500D01*
X210370494Y-114799810D01*
X210414514Y-114954523D01*
X210428846Y-115004892D01*
X210428846Y-115004894D01*
X210523882Y-115195753D01*
X210652377Y-115365906D01*
X210652378Y-115365907D01*
X210809948Y-115509552D01*
X210991231Y-115621798D01*
X211190052Y-115698821D01*
X211386863Y-115735611D01*
X211449143Y-115767279D01*
X211484416Y-115827592D01*
X211481482Y-115897400D01*
X211441273Y-115954540D01*
X211386863Y-115979388D01*
X211190052Y-116016179D01*
X211190049Y-116016179D01*
X211190049Y-116016180D01*
X210991232Y-116093201D01*
X210991230Y-116093202D01*
X210809949Y-116205447D01*
X210652377Y-116349093D01*
X210523882Y-116519246D01*
X210428846Y-116710105D01*
X210428846Y-116710107D01*
X210370494Y-116915189D01*
X210354591Y-117086819D01*
X210350821Y-117127500D01*
X210370494Y-117339810D01*
X210422272Y-117521789D01*
X210428846Y-117544892D01*
X210428846Y-117544894D01*
X210523882Y-117735753D01*
X210652377Y-117905906D01*
X210652378Y-117905907D01*
X210809948Y-118049552D01*
X210991231Y-118161798D01*
X211020211Y-118173025D01*
X211075612Y-118215595D01*
X211099204Y-118281361D01*
X211083494Y-118349442D01*
X211033472Y-118398222D01*
X211027823Y-118401033D01*
X210828672Y-118493899D01*
X210828670Y-118493900D01*
X210635176Y-118629386D01*
X210635170Y-118629391D01*
X210468141Y-118796420D01*
X210468136Y-118796426D01*
X210332650Y-118989920D01*
X210332649Y-118989922D01*
X210232820Y-119204007D01*
X210232817Y-119204013D01*
X210175614Y-119417499D01*
X210175614Y-119417500D01*
X211073238Y-119417500D01*
X211040325Y-119474507D01*
X211006250Y-119601674D01*
X211006250Y-119733326D01*
X211040325Y-119860493D01*
X211073238Y-119917500D01*
X210175614Y-119917500D01*
X210232817Y-120130986D01*
X210232820Y-120130992D01*
X210332649Y-120345078D01*
X210468144Y-120538582D01*
X210635167Y-120705605D01*
X210828671Y-120841100D01*
X211027823Y-120933966D01*
X211080262Y-120980138D01*
X211099414Y-121047332D01*
X211079198Y-121114213D01*
X211026033Y-121159548D01*
X211020218Y-121161972D01*
X211013021Y-121164760D01*
X210991232Y-121173201D01*
X210991230Y-121173202D01*
X210809949Y-121285447D01*
X210652377Y-121429093D01*
X210523882Y-121599246D01*
X210428846Y-121790105D01*
X210428846Y-121790107D01*
X210370494Y-121995189D01*
X210357583Y-122134530D01*
X210350821Y-122207500D01*
X210370494Y-122419810D01*
X210420476Y-122595477D01*
X210428846Y-122624892D01*
X210428846Y-122624894D01*
X210523882Y-122815753D01*
X210635067Y-122962984D01*
X210652378Y-122985907D01*
X210809948Y-123129552D01*
X210991231Y-123241798D01*
X211190052Y-123318821D01*
X211386863Y-123355611D01*
X211449143Y-123387279D01*
X211484416Y-123447592D01*
X211481482Y-123517400D01*
X211441273Y-123574540D01*
X211386863Y-123599388D01*
X211190052Y-123636179D01*
X211190049Y-123636179D01*
X211190049Y-123636180D01*
X210991232Y-123713201D01*
X210991230Y-123713202D01*
X210809949Y-123825447D01*
X210652377Y-123969093D01*
X210523882Y-124139246D01*
X210428846Y-124330105D01*
X210428846Y-124330107D01*
X210370494Y-124535189D01*
X210357837Y-124671789D01*
X210350821Y-124747500D01*
X210370494Y-124959810D01*
X210414784Y-125115472D01*
X210428846Y-125164892D01*
X210428846Y-125164894D01*
X210523882Y-125355753D01*
X210572759Y-125420476D01*
X210652378Y-125525907D01*
X210809948Y-125669552D01*
X210991231Y-125781798D01*
X211020211Y-125793025D01*
X211075612Y-125835595D01*
X211099204Y-125901361D01*
X211083494Y-125969442D01*
X211033472Y-126018222D01*
X211027823Y-126021033D01*
X210828672Y-126113899D01*
X210828670Y-126113900D01*
X210635176Y-126249386D01*
X210635170Y-126249391D01*
X210468141Y-126416420D01*
X210468136Y-126416426D01*
X210332650Y-126609920D01*
X210332649Y-126609922D01*
X210232820Y-126824007D01*
X210232817Y-126824013D01*
X210175614Y-127037499D01*
X210175614Y-127037500D01*
X211073238Y-127037500D01*
X211040325Y-127094507D01*
X211006250Y-127221674D01*
X211006250Y-127353326D01*
X211040325Y-127480493D01*
X211073238Y-127537500D01*
X210175614Y-127537500D01*
X210232817Y-127750986D01*
X210232820Y-127750992D01*
X210332649Y-127965078D01*
X210468144Y-128158582D01*
X210635167Y-128325605D01*
X210828671Y-128461100D01*
X211042757Y-128560929D01*
X211042766Y-128560933D01*
X211256250Y-128618134D01*
X211256250Y-127720512D01*
X211313257Y-127753425D01*
X211440424Y-127787500D01*
X211572076Y-127787500D01*
X211699243Y-127753425D01*
X211756250Y-127720512D01*
X211756250Y-128618133D01*
X211969733Y-128560933D01*
X211969742Y-128560929D01*
X212183828Y-128461100D01*
X212377332Y-128325605D01*
X212544355Y-128158582D01*
X212679850Y-127965078D01*
X212779679Y-127750992D01*
X212779682Y-127750986D01*
X212836886Y-127537500D01*
X211939262Y-127537500D01*
X211972175Y-127480493D01*
X212006250Y-127353326D01*
X212006250Y-127221674D01*
X211972175Y-127094507D01*
X211939262Y-127037500D01*
X212836886Y-127037500D01*
X212836885Y-127037499D01*
X212779682Y-126824013D01*
X212779679Y-126824007D01*
X212679850Y-126609922D01*
X212679849Y-126609920D01*
X212544363Y-126416426D01*
X212544358Y-126416420D01*
X212377332Y-126249394D01*
X212183828Y-126113899D01*
X211984676Y-126021033D01*
X211932237Y-125974860D01*
X211913085Y-125907667D01*
X211933301Y-125840786D01*
X211986466Y-125795451D01*
X211992255Y-125793037D01*
X212021269Y-125781798D01*
X212202552Y-125669552D01*
X212360122Y-125525907D01*
X212488616Y-125355755D01*
X212491482Y-125349999D01*
X212583653Y-125164894D01*
X212583653Y-125164893D01*
X212583655Y-125164889D01*
X212642006Y-124959810D01*
X212661679Y-124747500D01*
X212642006Y-124535190D01*
X212583655Y-124330111D01*
X212583653Y-124330106D01*
X212583653Y-124330105D01*
X212488617Y-124139246D01*
X212360122Y-123969093D01*
X212353637Y-123963181D01*
X212202552Y-123825448D01*
X212021269Y-123713202D01*
X212021267Y-123713201D01*
X211921858Y-123674690D01*
X211822448Y-123636179D01*
X211625635Y-123599388D01*
X211563356Y-123567721D01*
X211528083Y-123507408D01*
X211531017Y-123437600D01*
X211571226Y-123380460D01*
X211625634Y-123355611D01*
X211822448Y-123318821D01*
X212021269Y-123241798D01*
X212202552Y-123129552D01*
X212360122Y-122985907D01*
X212488616Y-122815755D01*
X212563448Y-122665471D01*
X212583653Y-122624894D01*
X212583653Y-122624893D01*
X212583655Y-122624889D01*
X212642006Y-122419810D01*
X212661679Y-122207500D01*
X212642006Y-121995190D01*
X212583655Y-121790111D01*
X212583653Y-121790106D01*
X212583653Y-121790105D01*
X212488617Y-121599246D01*
X212360122Y-121429093D01*
X212307719Y-121381321D01*
X212202552Y-121285448D01*
X212021269Y-121173202D01*
X212021264Y-121173200D01*
X212014379Y-121170532D01*
X211992287Y-121161974D01*
X211936886Y-121119403D01*
X211913295Y-121053636D01*
X211929006Y-120985556D01*
X211979029Y-120936776D01*
X211984676Y-120933966D01*
X212183828Y-120841099D01*
X212377332Y-120705605D01*
X212544355Y-120538582D01*
X212679850Y-120345078D01*
X212779679Y-120130992D01*
X212779682Y-120130986D01*
X212836886Y-119917500D01*
X211939262Y-119917500D01*
X211972175Y-119860493D01*
X212006250Y-119733326D01*
X212006250Y-119601674D01*
X211972175Y-119474507D01*
X211939262Y-119417500D01*
X212836886Y-119417500D01*
X212836885Y-119417499D01*
X212779682Y-119204013D01*
X212779679Y-119204007D01*
X212679850Y-118989922D01*
X212679849Y-118989920D01*
X212544363Y-118796426D01*
X212544358Y-118796420D01*
X212377332Y-118629394D01*
X212183828Y-118493899D01*
X211984676Y-118401033D01*
X211932237Y-118354860D01*
X211913085Y-118287667D01*
X211933301Y-118220786D01*
X211986466Y-118175451D01*
X211992255Y-118173037D01*
X212021269Y-118161798D01*
X212202552Y-118049552D01*
X212360122Y-117905907D01*
X212488616Y-117735755D01*
X212523613Y-117665471D01*
X212583653Y-117544894D01*
X212583653Y-117544893D01*
X212583655Y-117544889D01*
X212642006Y-117339810D01*
X212661679Y-117127500D01*
X212642006Y-116915190D01*
X212583655Y-116710111D01*
X212583653Y-116710106D01*
X212583653Y-116710105D01*
X212488617Y-116519246D01*
X212360122Y-116349093D01*
X212297626Y-116292120D01*
X212202552Y-116205448D01*
X212021269Y-116093202D01*
X212021267Y-116093201D01*
X211822520Y-116016207D01*
X211822448Y-116016179D01*
X211625635Y-115979388D01*
X211563356Y-115947721D01*
X211528083Y-115887408D01*
X211531017Y-115817600D01*
X211571226Y-115760460D01*
X211625634Y-115735611D01*
X211822448Y-115698821D01*
X212021269Y-115621798D01*
X212202552Y-115509552D01*
X212360122Y-115365907D01*
X212488616Y-115195755D01*
X212556467Y-115059491D01*
X212583653Y-115004894D01*
X212583653Y-115004893D01*
X212583655Y-115004889D01*
X212642006Y-114799810D01*
X212661679Y-114587500D01*
X212642006Y-114375190D01*
X212583655Y-114170111D01*
X212583653Y-114170106D01*
X212583653Y-114170105D01*
X212488617Y-113979246D01*
X212360122Y-113809093D01*
X212294752Y-113749500D01*
X212202552Y-113665448D01*
X212021269Y-113553202D01*
X212021264Y-113553200D01*
X212014379Y-113550532D01*
X211992287Y-113541974D01*
X211936886Y-113499403D01*
X211913295Y-113433636D01*
X211929006Y-113365556D01*
X211979029Y-113316776D01*
X211984676Y-113313966D01*
X212183828Y-113221099D01*
X212377332Y-113085605D01*
X212544355Y-112918582D01*
X212679850Y-112725078D01*
X212779679Y-112510992D01*
X212779682Y-112510986D01*
X212836886Y-112297500D01*
X211939262Y-112297500D01*
X211972175Y-112240493D01*
X212006250Y-112113326D01*
X212006250Y-111981674D01*
X211972175Y-111854507D01*
X211939262Y-111797500D01*
X212836886Y-111797500D01*
X212836885Y-111797499D01*
X212779682Y-111584013D01*
X212779679Y-111584007D01*
X212679850Y-111369922D01*
X212679849Y-111369920D01*
X212544363Y-111176426D01*
X212544358Y-111176420D01*
X212377332Y-111009394D01*
X212183828Y-110873899D01*
X211984676Y-110781033D01*
X211932237Y-110734860D01*
X211913085Y-110667667D01*
X211933301Y-110600786D01*
X211986466Y-110555451D01*
X211992255Y-110553037D01*
X212021269Y-110541798D01*
X212202552Y-110429552D01*
X212360122Y-110285907D01*
X212488616Y-110115755D01*
X212535064Y-110022474D01*
X212583653Y-109924894D01*
X212583653Y-109924893D01*
X212583655Y-109924889D01*
X212642006Y-109719810D01*
X212661679Y-109507500D01*
X212642006Y-109295190D01*
X212583655Y-109090111D01*
X212583653Y-109090106D01*
X212583653Y-109090105D01*
X212488617Y-108899246D01*
X212360122Y-108729093D01*
X212307719Y-108681321D01*
X212202552Y-108585448D01*
X212021269Y-108473202D01*
X212021267Y-108473201D01*
X211921858Y-108434690D01*
X211822448Y-108396179D01*
X211625635Y-108359388D01*
X211563356Y-108327721D01*
X211528083Y-108267408D01*
X211531017Y-108197600D01*
X211571226Y-108140460D01*
X211625634Y-108115611D01*
X211822448Y-108078821D01*
X212021269Y-108001798D01*
X212202552Y-107889552D01*
X212360122Y-107745907D01*
X212488616Y-107575755D01*
X212583655Y-107384889D01*
X212642006Y-107179810D01*
X212661679Y-106967500D01*
X212642006Y-106755190D01*
X212583655Y-106550111D01*
X212583653Y-106550106D01*
X212583653Y-106550105D01*
X212488617Y-106359246D01*
X212360122Y-106189093D01*
X212227405Y-106068105D01*
X212202552Y-106045448D01*
X212021269Y-105933202D01*
X212021264Y-105933200D01*
X212014379Y-105930532D01*
X211992287Y-105921974D01*
X211936886Y-105879403D01*
X211913295Y-105813636D01*
X211929006Y-105745556D01*
X211979029Y-105696776D01*
X211984676Y-105693966D01*
X212183828Y-105601099D01*
X212377332Y-105465605D01*
X212544355Y-105298582D01*
X212679850Y-105105078D01*
X212779679Y-104890992D01*
X212779682Y-104890986D01*
X212836886Y-104677500D01*
X211939262Y-104677500D01*
X211972175Y-104620493D01*
X212006250Y-104493326D01*
X212006250Y-104361674D01*
X211972175Y-104234507D01*
X211939262Y-104177500D01*
X212836886Y-104177500D01*
X212836885Y-104177499D01*
X212779682Y-103964013D01*
X212779679Y-103964007D01*
X212679850Y-103749922D01*
X212679849Y-103749920D01*
X212544363Y-103556426D01*
X212544358Y-103556420D01*
X212377332Y-103389394D01*
X212191218Y-103259075D01*
X212147594Y-103204498D01*
X212140401Y-103134999D01*
X212171923Y-103072645D01*
X212191218Y-103055925D01*
X212377332Y-102925605D01*
X212544355Y-102758582D01*
X212679850Y-102565078D01*
X212779679Y-102350992D01*
X212779682Y-102350986D01*
X212836886Y-102137500D01*
X211939262Y-102137500D01*
X211972175Y-102080493D01*
X212006250Y-101953326D01*
X212006250Y-101821674D01*
X211972175Y-101694507D01*
X211939262Y-101637500D01*
X212836886Y-101637500D01*
X212836885Y-101637499D01*
X212779682Y-101424013D01*
X212779679Y-101424007D01*
X212679850Y-101209922D01*
X212679849Y-101209920D01*
X212544363Y-101016426D01*
X212544358Y-101016420D01*
X212377332Y-100849394D01*
X212197644Y-100723574D01*
X212154019Y-100668996D01*
X212146827Y-100599498D01*
X212178349Y-100537143D01*
X212238579Y-100501730D01*
X212268767Y-100497999D01*
X212401114Y-100497999D01*
X212401129Y-100497997D01*
X212401132Y-100497997D01*
X212426237Y-100495086D01*
X212426238Y-100495085D01*
X212426241Y-100495085D01*
X212529015Y-100449706D01*
X212608456Y-100370265D01*
X212653835Y-100267491D01*
X212656750Y-100242365D01*
X212656749Y-98452636D01*
X212655782Y-98444297D01*
X212653836Y-98427512D01*
X212653835Y-98427510D01*
X212653835Y-98427509D01*
X212608456Y-98324735D01*
X212529015Y-98245294D01*
X212529013Y-98245293D01*
X212426242Y-98199915D01*
X212401115Y-98197000D01*
X210611393Y-98197000D01*
X210611367Y-98197002D01*
X210586262Y-98199913D01*
X210586258Y-98199915D01*
X210483485Y-98245293D01*
X210404044Y-98324734D01*
X210358665Y-98427506D01*
X210358665Y-98427508D01*
X210355750Y-98452631D01*
X210355750Y-100242356D01*
X210355752Y-100242382D01*
X210358663Y-100267487D01*
X210358665Y-100267491D01*
X210404043Y-100370264D01*
X210404044Y-100370265D01*
X210483485Y-100449706D01*
X210586259Y-100495085D01*
X210611385Y-100498000D01*
X210743733Y-100497999D01*
X210810770Y-100517683D01*
X210856525Y-100570487D01*
X210866469Y-100639645D01*
X210837445Y-100703201D01*
X210814855Y-100723574D01*
X210635172Y-100849390D01*
X210635170Y-100849391D01*
X210468141Y-101016420D01*
X210468136Y-101016426D01*
X210332650Y-101209920D01*
X210332649Y-101209922D01*
X210232820Y-101424007D01*
X210232817Y-101424013D01*
X210175614Y-101637499D01*
X203324604Y-101637499D01*
X203375284Y-101586819D01*
X203436607Y-101553334D01*
X203462965Y-101550500D01*
X203503985Y-101550500D01*
X203657365Y-101512696D01*
X203705560Y-101487401D01*
X203797240Y-101439283D01*
X203915483Y-101334530D01*
X204005220Y-101204523D01*
X204061237Y-101056818D01*
X204080278Y-100900000D01*
X204061237Y-100743182D01*
X204061236Y-100743180D01*
X204033102Y-100668996D01*
X204005220Y-100595477D01*
X203915483Y-100465470D01*
X203797240Y-100360717D01*
X203797238Y-100360716D01*
X203797237Y-100360715D01*
X203657365Y-100287303D01*
X203503986Y-100249500D01*
X203503985Y-100249500D01*
X203346015Y-100249500D01*
X203346014Y-100249500D01*
X203192634Y-100287303D01*
X203052762Y-100360715D01*
X202934516Y-100465471D01*
X202844781Y-100595475D01*
X202844780Y-100595476D01*
X202788763Y-100743180D01*
X202772367Y-100878209D01*
X202744745Y-100942387D01*
X202736952Y-100950943D01*
X200374716Y-103313181D01*
X200313393Y-103346666D01*
X200287035Y-103349500D01*
X200246014Y-103349500D01*
X200092634Y-103387303D01*
X199952762Y-103460715D01*
X199952760Y-103460717D01*
X199844733Y-103556420D01*
X199834516Y-103565471D01*
X199744781Y-103695475D01*
X199744780Y-103695476D01*
X199688762Y-103843181D01*
X199669722Y-103999999D01*
X88541687Y-103999999D01*
X88533582Y-103991894D01*
X88340078Y-103856399D01*
X88140926Y-103763533D01*
X88088487Y-103717360D01*
X88069335Y-103650167D01*
X88089551Y-103583286D01*
X88142716Y-103537951D01*
X88148505Y-103535537D01*
X88177519Y-103524298D01*
X88358802Y-103412052D01*
X88516372Y-103268407D01*
X88644866Y-103098255D01*
X88690396Y-103006818D01*
X88739903Y-102907394D01*
X88739903Y-102907393D01*
X88739905Y-102907389D01*
X88756234Y-102849999D01*
X123069722Y-102849999D01*
X123069722Y-102850000D01*
X123088762Y-103006818D01*
X123144780Y-103154523D01*
X123234517Y-103284530D01*
X123352760Y-103389283D01*
X123364860Y-103395633D01*
X123492634Y-103462696D01*
X123646014Y-103500500D01*
X123646015Y-103500500D01*
X123803985Y-103500500D01*
X123957365Y-103462696D01*
X123961139Y-103460715D01*
X124097240Y-103389283D01*
X124162256Y-103331683D01*
X124225490Y-103301963D01*
X124244483Y-103300500D01*
X126605517Y-103300500D01*
X126672556Y-103320185D01*
X126687741Y-103331682D01*
X126752760Y-103389283D01*
X126764860Y-103395633D01*
X126892634Y-103462696D01*
X127046014Y-103500500D01*
X127046015Y-103500500D01*
X127203985Y-103500500D01*
X127357365Y-103462696D01*
X127361139Y-103460715D01*
X127497240Y-103389283D01*
X127615483Y-103284530D01*
X127705220Y-103154523D01*
X127761237Y-103006818D01*
X127780278Y-102850000D01*
X127761237Y-102693182D01*
X127705220Y-102545477D01*
X127615483Y-102415470D01*
X127598020Y-102399999D01*
X198169722Y-102399999D01*
X198169722Y-102400000D01*
X198188762Y-102556818D01*
X198240479Y-102693182D01*
X198244780Y-102704523D01*
X198334517Y-102834530D01*
X198452760Y-102939283D01*
X198452762Y-102939284D01*
X198592634Y-103012696D01*
X198746014Y-103050500D01*
X198746015Y-103050500D01*
X198903985Y-103050500D01*
X199057365Y-103012696D01*
X199068564Y-103006818D01*
X199197240Y-102939283D01*
X199315483Y-102834530D01*
X199405220Y-102704523D01*
X199461237Y-102556818D01*
X199477632Y-102421787D01*
X199505254Y-102357611D01*
X199513036Y-102349065D01*
X201775284Y-100086819D01*
X201836607Y-100053334D01*
X201862965Y-100050500D01*
X202003985Y-100050500D01*
X202157365Y-100012696D01*
X202207080Y-99986603D01*
X202297240Y-99939283D01*
X202415483Y-99834530D01*
X202505220Y-99704523D01*
X202561237Y-99556818D01*
X202580278Y-99400000D01*
X202568970Y-99306865D01*
X202561237Y-99243181D01*
X202534087Y-99171593D01*
X202505220Y-99095477D01*
X202415483Y-98965470D01*
X202297240Y-98860717D01*
X202297238Y-98860716D01*
X202297237Y-98860715D01*
X202157365Y-98787303D01*
X202003986Y-98749500D01*
X202003985Y-98749500D01*
X201846015Y-98749500D01*
X201846014Y-98749500D01*
X201692634Y-98787303D01*
X201552762Y-98860715D01*
X201434516Y-98965471D01*
X201344781Y-99095475D01*
X201344780Y-99095476D01*
X201288763Y-99243178D01*
X201288761Y-99243190D01*
X201286186Y-99264392D01*
X201258562Y-99328569D01*
X201250772Y-99337122D01*
X198874716Y-101713181D01*
X198813393Y-101746666D01*
X198787035Y-101749500D01*
X198746014Y-101749500D01*
X198592634Y-101787303D01*
X198452762Y-101860715D01*
X198334516Y-101965471D01*
X198244781Y-102095475D01*
X198244780Y-102095476D01*
X198188762Y-102243181D01*
X198169722Y-102399999D01*
X127598020Y-102399999D01*
X127497240Y-102310717D01*
X127497238Y-102310716D01*
X127497237Y-102310715D01*
X127357365Y-102237303D01*
X127203986Y-102199500D01*
X127203985Y-102199500D01*
X127046015Y-102199500D01*
X127046014Y-102199500D01*
X126892634Y-102237303D01*
X126752762Y-102310715D01*
X126687744Y-102368316D01*
X126624510Y-102398037D01*
X126605517Y-102399500D01*
X124244483Y-102399500D01*
X124177444Y-102379815D01*
X124162256Y-102368316D01*
X124097240Y-102310717D01*
X124097238Y-102310716D01*
X124097237Y-102310715D01*
X123957365Y-102237303D01*
X123803986Y-102199500D01*
X123803985Y-102199500D01*
X123646015Y-102199500D01*
X123646014Y-102199500D01*
X123492634Y-102237303D01*
X123352762Y-102310715D01*
X123234516Y-102415471D01*
X123144781Y-102545475D01*
X123144780Y-102545476D01*
X123088762Y-102693181D01*
X123069722Y-102849999D01*
X88756234Y-102849999D01*
X88798256Y-102702310D01*
X88817929Y-102490000D01*
X88798256Y-102277690D01*
X88739905Y-102072611D01*
X88739903Y-102072606D01*
X88739903Y-102072605D01*
X88644867Y-101881746D01*
X88516372Y-101711593D01*
X88379502Y-101586819D01*
X88358802Y-101567948D01*
X88177519Y-101455702D01*
X88177517Y-101455701D01*
X88078108Y-101417190D01*
X87978698Y-101378679D01*
X87781885Y-101341888D01*
X87719606Y-101310221D01*
X87684333Y-101249908D01*
X87687267Y-101180100D01*
X87727476Y-101122960D01*
X87781884Y-101098111D01*
X87978698Y-101061321D01*
X88177519Y-100984298D01*
X88358802Y-100872052D01*
X88516372Y-100728407D01*
X88613342Y-100599999D01*
X196069722Y-100599999D01*
X196069722Y-100600000D01*
X196088762Y-100756818D01*
X196123871Y-100849391D01*
X196144780Y-100904523D01*
X196234517Y-101034530D01*
X196352760Y-101139283D01*
X196352762Y-101139284D01*
X196492634Y-101212696D01*
X196646014Y-101250500D01*
X196646015Y-101250500D01*
X196803985Y-101250500D01*
X196957365Y-101212696D01*
X196972937Y-101204523D01*
X197097240Y-101139283D01*
X197215483Y-101034530D01*
X197305220Y-100904523D01*
X197361237Y-100756818D01*
X197380278Y-100600000D01*
X197361237Y-100443182D01*
X197305220Y-100295477D01*
X197215483Y-100165470D01*
X197215479Y-100165466D01*
X197210509Y-100159856D01*
X197211953Y-100158576D01*
X197180145Y-100107860D01*
X197175500Y-100074240D01*
X197175500Y-100037965D01*
X197195185Y-99970926D01*
X197211819Y-99950284D01*
X197522820Y-99639283D01*
X197885490Y-99276614D01*
X197944799Y-99173887D01*
X197945414Y-99171593D01*
X197958330Y-99123389D01*
X197958330Y-99123388D01*
X197961958Y-99109846D01*
X197975500Y-99059309D01*
X197975500Y-95625759D01*
X197995185Y-95558720D01*
X198010846Y-95540444D01*
X198010509Y-95540145D01*
X198015481Y-95534532D01*
X198015481Y-95534531D01*
X198015483Y-95534530D01*
X198105220Y-95404523D01*
X198161237Y-95256818D01*
X198180278Y-95100000D01*
X198161237Y-94943182D01*
X198105220Y-94795477D01*
X198015483Y-94665470D01*
X197897240Y-94560717D01*
X197897238Y-94560716D01*
X197897237Y-94560715D01*
X197757365Y-94487303D01*
X197603986Y-94449500D01*
X197603985Y-94449500D01*
X197446015Y-94449500D01*
X197446014Y-94449500D01*
X197292634Y-94487303D01*
X197152762Y-94560715D01*
X197034516Y-94665471D01*
X196944781Y-94795475D01*
X196944780Y-94795476D01*
X196888762Y-94943181D01*
X196869722Y-95099999D01*
X196869722Y-95100000D01*
X196888762Y-95256818D01*
X196944780Y-95404523D01*
X196944781Y-95404524D01*
X197034518Y-95534532D01*
X197039491Y-95540145D01*
X197038044Y-95541426D01*
X197069850Y-95592120D01*
X197074500Y-95625759D01*
X197074500Y-98762034D01*
X197054815Y-98829073D01*
X197038181Y-98849715D01*
X196364513Y-99523383D01*
X196364509Y-99523389D01*
X196305201Y-99626112D01*
X196305200Y-99626117D01*
X196274500Y-99740691D01*
X196274500Y-100074240D01*
X196254815Y-100141279D01*
X196239153Y-100159556D01*
X196239491Y-100159856D01*
X196234515Y-100165472D01*
X196144781Y-100295475D01*
X196144780Y-100295476D01*
X196088762Y-100443181D01*
X196069722Y-100599999D01*
X88613342Y-100599999D01*
X88644866Y-100558255D01*
X88676321Y-100495084D01*
X88739903Y-100367394D01*
X88739903Y-100367393D01*
X88739905Y-100367389D01*
X88798256Y-100162310D01*
X88817929Y-99950000D01*
X88798256Y-99737690D01*
X88739905Y-99532611D01*
X88739903Y-99532606D01*
X88739903Y-99532605D01*
X88644867Y-99341746D01*
X88516372Y-99171593D01*
X88463493Y-99123387D01*
X88358802Y-99027948D01*
X88177519Y-98915702D01*
X88177517Y-98915701D01*
X88007185Y-98849715D01*
X87978698Y-98838679D01*
X87781885Y-98801888D01*
X87719606Y-98770221D01*
X87684333Y-98709908D01*
X87687267Y-98640100D01*
X87727476Y-98582960D01*
X87781884Y-98558111D01*
X87978698Y-98521321D01*
X88177519Y-98444298D01*
X88358802Y-98332052D01*
X88516372Y-98188407D01*
X88644866Y-98018255D01*
X88739905Y-97827389D01*
X88798256Y-97622310D01*
X88800323Y-97600000D01*
X113939417Y-97600000D01*
X113959699Y-97805932D01*
X113989734Y-97904944D01*
X114019768Y-98003954D01*
X114117315Y-98186450D01*
X114151969Y-98228677D01*
X114248589Y-98346410D01*
X114345209Y-98425702D01*
X114408550Y-98477685D01*
X114591046Y-98575232D01*
X114789066Y-98635300D01*
X114789065Y-98635300D01*
X114807529Y-98637118D01*
X114995000Y-98655583D01*
X115200934Y-98635300D01*
X115398954Y-98575232D01*
X115581450Y-98477685D01*
X115741410Y-98346410D01*
X115872685Y-98186450D01*
X115970232Y-98003954D01*
X116030300Y-97805934D01*
X116050583Y-97600000D01*
X118819417Y-97600000D01*
X118839699Y-97805932D01*
X118869734Y-97904944D01*
X118899768Y-98003954D01*
X118997315Y-98186450D01*
X119031969Y-98228677D01*
X119128589Y-98346410D01*
X119225209Y-98425702D01*
X119288550Y-98477685D01*
X119471046Y-98575232D01*
X119669066Y-98635300D01*
X119669065Y-98635300D01*
X119687529Y-98637118D01*
X119875000Y-98655583D01*
X120080934Y-98635300D01*
X120278954Y-98575232D01*
X120461450Y-98477685D01*
X120621410Y-98346410D01*
X120752685Y-98186450D01*
X120850232Y-98003954D01*
X120910300Y-97805934D01*
X120930583Y-97600000D01*
X120910300Y-97394066D01*
X120896933Y-97349999D01*
X194319722Y-97349999D01*
X194319722Y-97350000D01*
X194338762Y-97506818D01*
X194374102Y-97600000D01*
X194394780Y-97654523D01*
X194402548Y-97665777D01*
X194424433Y-97732130D01*
X194424500Y-97736219D01*
X194424500Y-98713780D01*
X194404815Y-98780819D01*
X194402552Y-98784217D01*
X194394780Y-98795476D01*
X194338762Y-98943181D01*
X194319722Y-99099999D01*
X194319722Y-99100000D01*
X194338762Y-99256818D01*
X194393064Y-99399999D01*
X194394780Y-99404523D01*
X194484517Y-99534530D01*
X194602760Y-99639283D01*
X194602762Y-99639284D01*
X194742634Y-99712696D01*
X194896014Y-99750500D01*
X194896015Y-99750500D01*
X195053985Y-99750500D01*
X195207365Y-99712696D01*
X195222937Y-99704523D01*
X195347240Y-99639283D01*
X195465483Y-99534530D01*
X195555220Y-99404523D01*
X195611237Y-99256818D01*
X195630278Y-99100000D01*
X195611237Y-98943182D01*
X195555220Y-98795477D01*
X195547448Y-98784217D01*
X195525567Y-98717862D01*
X195525500Y-98713780D01*
X195525500Y-97736219D01*
X195545185Y-97669180D01*
X195547434Y-97665802D01*
X195555220Y-97654523D01*
X195611237Y-97506818D01*
X195630278Y-97350000D01*
X195611585Y-97196043D01*
X195611237Y-97193181D01*
X195589992Y-97137164D01*
X195555220Y-97045477D01*
X195465483Y-96915470D01*
X195347240Y-96810717D01*
X195347238Y-96810716D01*
X195347237Y-96810715D01*
X195207365Y-96737303D01*
X195053986Y-96699500D01*
X195053985Y-96699500D01*
X194896015Y-96699500D01*
X194896014Y-96699500D01*
X194742634Y-96737303D01*
X194602762Y-96810715D01*
X194484516Y-96915471D01*
X194394781Y-97045475D01*
X194394780Y-97045476D01*
X194338762Y-97193181D01*
X194319722Y-97349999D01*
X120896933Y-97349999D01*
X120850232Y-97196046D01*
X120752685Y-97013550D01*
X120672194Y-96915471D01*
X120621410Y-96853589D01*
X120461452Y-96722317D01*
X120461453Y-96722317D01*
X120461450Y-96722315D01*
X120278954Y-96624768D01*
X120080934Y-96564700D01*
X120080932Y-96564699D01*
X120080934Y-96564699D01*
X119875000Y-96544417D01*
X119669067Y-96564699D01*
X119471043Y-96624769D01*
X119360898Y-96683643D01*
X119288550Y-96722315D01*
X119288548Y-96722316D01*
X119288547Y-96722317D01*
X119128589Y-96853589D01*
X118997317Y-97013547D01*
X118899769Y-97196043D01*
X118839699Y-97394067D01*
X118819417Y-97600000D01*
X116050583Y-97600000D01*
X116030300Y-97394066D01*
X115970232Y-97196046D01*
X115872685Y-97013550D01*
X115792194Y-96915471D01*
X115741410Y-96853589D01*
X115581452Y-96722317D01*
X115581453Y-96722317D01*
X115581450Y-96722315D01*
X115398954Y-96624768D01*
X115200934Y-96564700D01*
X115200932Y-96564699D01*
X115200934Y-96564699D01*
X114995000Y-96544417D01*
X114789067Y-96564699D01*
X114591043Y-96624769D01*
X114480898Y-96683643D01*
X114408550Y-96722315D01*
X114408548Y-96722316D01*
X114408547Y-96722317D01*
X114248589Y-96853589D01*
X114117317Y-97013547D01*
X114019769Y-97196043D01*
X113959699Y-97394067D01*
X113939417Y-97600000D01*
X88800323Y-97600000D01*
X88817929Y-97410000D01*
X88798256Y-97197690D01*
X88739905Y-96992611D01*
X88739903Y-96992606D01*
X88739903Y-96992605D01*
X88644867Y-96801746D01*
X88516372Y-96631593D01*
X88420745Y-96544417D01*
X88358802Y-96487948D01*
X88177519Y-96375702D01*
X88177517Y-96375701D01*
X88078108Y-96337190D01*
X87978698Y-96298679D01*
X87805956Y-96266387D01*
X87743676Y-96234719D01*
X87708403Y-96174407D01*
X87711337Y-96104599D01*
X87751546Y-96047459D01*
X87816264Y-96021128D01*
X87828733Y-96020499D01*
X88557364Y-96020499D01*
X88557379Y-96020497D01*
X88557382Y-96020497D01*
X88582487Y-96017586D01*
X88582488Y-96017585D01*
X88582491Y-96017585D01*
X88685265Y-95972206D01*
X88764706Y-95892765D01*
X88810085Y-95789991D01*
X88813000Y-95764865D01*
X88812999Y-93975136D01*
X88812997Y-93975117D01*
X88810086Y-93950012D01*
X88810085Y-93950010D01*
X88810085Y-93950009D01*
X88764706Y-93847235D01*
X88685265Y-93767794D01*
X88685263Y-93767793D01*
X88582492Y-93722415D01*
X88557365Y-93719500D01*
X86767643Y-93719500D01*
X86767617Y-93719502D01*
X86742512Y-93722413D01*
X86742508Y-93722415D01*
X86639735Y-93767793D01*
X86560294Y-93847234D01*
X86514915Y-93950006D01*
X86514915Y-93950008D01*
X86512000Y-93975131D01*
X86512000Y-95764856D01*
X86512002Y-95764882D01*
X86514913Y-95789987D01*
X86514915Y-95789991D01*
X86560293Y-95892764D01*
X86560294Y-95892765D01*
X86639735Y-95972206D01*
X86742509Y-96017585D01*
X86767635Y-96020500D01*
X87496258Y-96020499D01*
X87563295Y-96040183D01*
X87609050Y-96092987D01*
X87618994Y-96162146D01*
X87589969Y-96225702D01*
X87531191Y-96263476D01*
X87519042Y-96266388D01*
X87462616Y-96276935D01*
X87346302Y-96298679D01*
X87346300Y-96298679D01*
X87346298Y-96298680D01*
X87147482Y-96375701D01*
X87147480Y-96375702D01*
X86966199Y-96487947D01*
X86808627Y-96631593D01*
X86680132Y-96801746D01*
X86585096Y-96992605D01*
X86585096Y-96992607D01*
X86527212Y-97196046D01*
X86526744Y-97197690D01*
X86507071Y-97410000D01*
X86526744Y-97622310D01*
X86578990Y-97805934D01*
X86585096Y-97827392D01*
X86585096Y-97827394D01*
X86680132Y-98018253D01*
X86808627Y-98188406D01*
X86808628Y-98188407D01*
X86966198Y-98332052D01*
X87147481Y-98444298D01*
X87346302Y-98521321D01*
X87543113Y-98558111D01*
X87605393Y-98589779D01*
X87640666Y-98650092D01*
X87637732Y-98719900D01*
X87597523Y-98777040D01*
X87543113Y-98801888D01*
X87346302Y-98838679D01*
X87346299Y-98838679D01*
X87346299Y-98838680D01*
X87147482Y-98915701D01*
X87147480Y-98915702D01*
X86966199Y-99027947D01*
X86808627Y-99171593D01*
X86680132Y-99341746D01*
X86585096Y-99532605D01*
X86585096Y-99532607D01*
X86533856Y-99712696D01*
X86526744Y-99737690D01*
X86507071Y-99950000D01*
X86526744Y-100162310D01*
X86562308Y-100287304D01*
X86585096Y-100367392D01*
X86585096Y-100367394D01*
X86680132Y-100558253D01*
X86741597Y-100639645D01*
X86808628Y-100728407D01*
X86966198Y-100872052D01*
X87147481Y-100984298D01*
X87346302Y-101061321D01*
X87543113Y-101098111D01*
X87605393Y-101129779D01*
X87640666Y-101190092D01*
X87637732Y-101259900D01*
X87597523Y-101317040D01*
X87543113Y-101341888D01*
X87346302Y-101378679D01*
X87346299Y-101378679D01*
X87346299Y-101378680D01*
X87147482Y-101455701D01*
X87147480Y-101455702D01*
X86966199Y-101567947D01*
X86808627Y-101711593D01*
X86680132Y-101881746D01*
X86585096Y-102072605D01*
X86585096Y-102072607D01*
X86526744Y-102277689D01*
X86513392Y-102421789D01*
X86507071Y-102490000D01*
X86526744Y-102702310D01*
X86564364Y-102834530D01*
X86585096Y-102907392D01*
X86585096Y-102907394D01*
X86680132Y-103098253D01*
X86808627Y-103268406D01*
X86808628Y-103268407D01*
X86966198Y-103412052D01*
X87147481Y-103524298D01*
X87176461Y-103535525D01*
X87231862Y-103578095D01*
X87255454Y-103643861D01*
X87239744Y-103711942D01*
X87189722Y-103760722D01*
X87184073Y-103763533D01*
X86984922Y-103856399D01*
X86984920Y-103856400D01*
X86791426Y-103991886D01*
X86791420Y-103991891D01*
X86624391Y-104158920D01*
X86624386Y-104158926D01*
X86488900Y-104352420D01*
X86488899Y-104352422D01*
X86389070Y-104566507D01*
X86389067Y-104566513D01*
X86331864Y-104779999D01*
X79175000Y-104779999D01*
X79175000Y-90849999D01*
X140569722Y-90849999D01*
X140569722Y-90850000D01*
X140588762Y-91006818D01*
X140644780Y-91154523D01*
X140652548Y-91165777D01*
X140674433Y-91232130D01*
X140674500Y-91236219D01*
X140674500Y-94463780D01*
X140654815Y-94530819D01*
X140652552Y-94534217D01*
X140644780Y-94545476D01*
X140588762Y-94693181D01*
X140569722Y-94849999D01*
X140569722Y-94850000D01*
X140588762Y-95006818D01*
X140624102Y-95100000D01*
X140644780Y-95154523D01*
X140734517Y-95284530D01*
X140852760Y-95389283D01*
X140852762Y-95389284D01*
X140992634Y-95462696D01*
X141146014Y-95500500D01*
X141146015Y-95500500D01*
X141303985Y-95500500D01*
X141457365Y-95462696D01*
X141597240Y-95389283D01*
X141715483Y-95284530D01*
X141805220Y-95154523D01*
X141861237Y-95006818D01*
X141880278Y-94850000D01*
X141861237Y-94693182D01*
X141805220Y-94545477D01*
X141797448Y-94534217D01*
X141775567Y-94467862D01*
X141775500Y-94463780D01*
X141775500Y-91236219D01*
X141795185Y-91169180D01*
X141797434Y-91165802D01*
X141805220Y-91154523D01*
X141861237Y-91006818D01*
X141880278Y-90850000D01*
X141861237Y-90693182D01*
X141805220Y-90545477D01*
X141715483Y-90415470D01*
X141597240Y-90310717D01*
X141597238Y-90310716D01*
X141597237Y-90310715D01*
X141457365Y-90237303D01*
X141303986Y-90199500D01*
X141303985Y-90199500D01*
X141146015Y-90199500D01*
X141146014Y-90199500D01*
X140992634Y-90237303D01*
X140852762Y-90310715D01*
X140734516Y-90415471D01*
X140644781Y-90545475D01*
X140644780Y-90545476D01*
X140588762Y-90693181D01*
X140569722Y-90849999D01*
X79175000Y-90849999D01*
X79175000Y-86349999D01*
X187569722Y-86349999D01*
X187569722Y-86350000D01*
X187588762Y-86506818D01*
X187644780Y-86654523D01*
X187652548Y-86665777D01*
X187674433Y-86732130D01*
X187674500Y-86736219D01*
X187674500Y-88913780D01*
X187654815Y-88980819D01*
X187652552Y-88984217D01*
X187644780Y-88995476D01*
X187588762Y-89143181D01*
X187569722Y-89299999D01*
X187569722Y-89300000D01*
X187588762Y-89456818D01*
X187644780Y-89604523D01*
X187734517Y-89734530D01*
X187852760Y-89839283D01*
X187852762Y-89839284D01*
X187992634Y-89912696D01*
X188146014Y-89950500D01*
X188146015Y-89950500D01*
X188303985Y-89950500D01*
X188457365Y-89912696D01*
X188597240Y-89839283D01*
X188715483Y-89734530D01*
X188805220Y-89604523D01*
X188861237Y-89456818D01*
X188880278Y-89300000D01*
X188861237Y-89143182D01*
X188805220Y-88995477D01*
X188797448Y-88984217D01*
X188775567Y-88917862D01*
X188775500Y-88913780D01*
X188775500Y-86736219D01*
X188795185Y-86669180D01*
X188797434Y-86665802D01*
X188805220Y-86654523D01*
X188861237Y-86506818D01*
X188880278Y-86350000D01*
X188861237Y-86193182D01*
X188805220Y-86045477D01*
X188715483Y-85915470D01*
X188597240Y-85810717D01*
X188597238Y-85810716D01*
X188597237Y-85810715D01*
X188457365Y-85737303D01*
X188303986Y-85699500D01*
X188303985Y-85699500D01*
X188146015Y-85699500D01*
X188146014Y-85699500D01*
X187992634Y-85737303D01*
X187852762Y-85810715D01*
X187734516Y-85915471D01*
X187644781Y-86045475D01*
X187644780Y-86045476D01*
X187588762Y-86193181D01*
X187569722Y-86349999D01*
X79175000Y-86349999D01*
X79175000Y-73899999D01*
X149469722Y-73899999D01*
X149469722Y-73900000D01*
X149488762Y-74056818D01*
X149544780Y-74204523D01*
X149552548Y-74215777D01*
X149574433Y-74282130D01*
X149574500Y-74286219D01*
X149574500Y-78827526D01*
X149574500Y-78972474D01*
X149612016Y-79112485D01*
X149684489Y-79238013D01*
X149684491Y-79238016D01*
X150461063Y-80014588D01*
X150489324Y-80058298D01*
X150544780Y-80204523D01*
X150634517Y-80334530D01*
X150752760Y-80439283D01*
X150752762Y-80439284D01*
X150892634Y-80512696D01*
X151046014Y-80550500D01*
X151046015Y-80550500D01*
X151203985Y-80550500D01*
X151357365Y-80512696D01*
X151497240Y-80439283D01*
X151615483Y-80334530D01*
X151639318Y-80299999D01*
X157469722Y-80299999D01*
X157469722Y-80300000D01*
X157488762Y-80456818D01*
X157544780Y-80604523D01*
X157634517Y-80734530D01*
X157752760Y-80839283D01*
X157752762Y-80839284D01*
X157892634Y-80912696D01*
X158046014Y-80950500D01*
X158046015Y-80950500D01*
X158203985Y-80950500D01*
X158357365Y-80912696D01*
X158448805Y-80864703D01*
X158506431Y-80850500D01*
X161243569Y-80850500D01*
X161301194Y-80864703D01*
X161392635Y-80912696D01*
X161469325Y-80931598D01*
X161546014Y-80950500D01*
X161546015Y-80950500D01*
X161703985Y-80950500D01*
X161857365Y-80912696D01*
X161997240Y-80839283D01*
X162115483Y-80734530D01*
X162205220Y-80604523D01*
X162261237Y-80456818D01*
X162280278Y-80300000D01*
X162261237Y-80143182D01*
X162205220Y-79995477D01*
X162115483Y-79865470D01*
X161997240Y-79760717D01*
X161997238Y-79760716D01*
X161997237Y-79760715D01*
X161857365Y-79687303D01*
X161703986Y-79649500D01*
X161703985Y-79649500D01*
X161546015Y-79649500D01*
X161546014Y-79649500D01*
X161392636Y-79687303D01*
X161346763Y-79711379D01*
X161301194Y-79735296D01*
X161243569Y-79749500D01*
X158506431Y-79749500D01*
X158448805Y-79735296D01*
X158357365Y-79687304D01*
X158357364Y-79687303D01*
X158357363Y-79687303D01*
X158203986Y-79649500D01*
X158203985Y-79649500D01*
X158046015Y-79649500D01*
X158046014Y-79649500D01*
X157892634Y-79687303D01*
X157752762Y-79760715D01*
X157634516Y-79865471D01*
X157544781Y-79995475D01*
X157544780Y-79995476D01*
X157488762Y-80143181D01*
X157469722Y-80299999D01*
X151639318Y-80299999D01*
X151705220Y-80204523D01*
X151761237Y-80056818D01*
X151780278Y-79900000D01*
X151776086Y-79865471D01*
X151761237Y-79743181D01*
X151725708Y-79649500D01*
X151705220Y-79595477D01*
X151615483Y-79465470D01*
X151497240Y-79360717D01*
X151497238Y-79360716D01*
X151497237Y-79360715D01*
X151357366Y-79287304D01*
X151302626Y-79273812D01*
X151244620Y-79241096D01*
X150711819Y-78708294D01*
X150678334Y-78646971D01*
X150675500Y-78620613D01*
X150675500Y-74286219D01*
X150695185Y-74219180D01*
X150697434Y-74215802D01*
X150705220Y-74204523D01*
X150761237Y-74056818D01*
X150780278Y-73900000D01*
X150761237Y-73743182D01*
X150705220Y-73595477D01*
X150615483Y-73465470D01*
X150497240Y-73360717D01*
X150497238Y-73360716D01*
X150497237Y-73360715D01*
X150357365Y-73287303D01*
X150203986Y-73249500D01*
X150203985Y-73249500D01*
X150046015Y-73249500D01*
X150046014Y-73249500D01*
X149892634Y-73287303D01*
X149752762Y-73360715D01*
X149634516Y-73465471D01*
X149544781Y-73595475D01*
X149544780Y-73595476D01*
X149488762Y-73743181D01*
X149469722Y-73899999D01*
X79175000Y-73899999D01*
X79175000Y-64350882D01*
X79175012Y-64349144D01*
X79176490Y-64243713D01*
X80824500Y-64243713D01*
X80824500Y-64456286D01*
X80857753Y-64666239D01*
X80923444Y-64868414D01*
X81019951Y-65057820D01*
X81144890Y-65229786D01*
X81295213Y-65380109D01*
X81467179Y-65505048D01*
X81467181Y-65505049D01*
X81467184Y-65505051D01*
X81656588Y-65601557D01*
X81858757Y-65667246D01*
X82068713Y-65700500D01*
X82068714Y-65700500D01*
X82281286Y-65700500D01*
X82281287Y-65700500D01*
X82491243Y-65667246D01*
X82693412Y-65601557D01*
X82882816Y-65505051D01*
X82904789Y-65489086D01*
X83054786Y-65380109D01*
X83054788Y-65380106D01*
X83054792Y-65380104D01*
X83205104Y-65229792D01*
X83205106Y-65229788D01*
X83205109Y-65229786D01*
X83330048Y-65057820D01*
X83330047Y-65057820D01*
X83330051Y-65057816D01*
X83426557Y-64868412D01*
X83492246Y-64666243D01*
X83525500Y-64456287D01*
X83525500Y-64243713D01*
X215974500Y-64243713D01*
X215974500Y-64456286D01*
X216007753Y-64666239D01*
X216073444Y-64868414D01*
X216169951Y-65057820D01*
X216294890Y-65229786D01*
X216445213Y-65380109D01*
X216617179Y-65505048D01*
X216617181Y-65505049D01*
X216617184Y-65505051D01*
X216806588Y-65601557D01*
X217008757Y-65667246D01*
X217218713Y-65700500D01*
X217218714Y-65700500D01*
X217431286Y-65700500D01*
X217431287Y-65700500D01*
X217641243Y-65667246D01*
X217843412Y-65601557D01*
X218032816Y-65505051D01*
X218054789Y-65489086D01*
X218204786Y-65380109D01*
X218204788Y-65380106D01*
X218204792Y-65380104D01*
X218355104Y-65229792D01*
X218355106Y-65229788D01*
X218355109Y-65229786D01*
X218480048Y-65057820D01*
X218480047Y-65057820D01*
X218480051Y-65057816D01*
X218576557Y-64868412D01*
X218642246Y-64666243D01*
X218675500Y-64456287D01*
X218675500Y-64243713D01*
X218642246Y-64033757D01*
X218576557Y-63831588D01*
X218480051Y-63642184D01*
X218480049Y-63642181D01*
X218480048Y-63642179D01*
X218355109Y-63470213D01*
X218204786Y-63319890D01*
X218032820Y-63194951D01*
X217843414Y-63098444D01*
X217843413Y-63098443D01*
X217843412Y-63098443D01*
X217641243Y-63032754D01*
X217641241Y-63032753D01*
X217641240Y-63032753D01*
X217479957Y-63007208D01*
X217431287Y-62999500D01*
X217218713Y-62999500D01*
X217170042Y-63007208D01*
X217008760Y-63032753D01*
X216806585Y-63098444D01*
X216617179Y-63194951D01*
X216445213Y-63319890D01*
X216294890Y-63470213D01*
X216169951Y-63642179D01*
X216073444Y-63831585D01*
X216007753Y-64033760D01*
X215974500Y-64243713D01*
X83525500Y-64243713D01*
X83492246Y-64033757D01*
X83426557Y-63831588D01*
X83330051Y-63642184D01*
X83330049Y-63642181D01*
X83330048Y-63642179D01*
X83205109Y-63470213D01*
X83054786Y-63319890D01*
X82882820Y-63194951D01*
X82693414Y-63098444D01*
X82693413Y-63098443D01*
X82693412Y-63098443D01*
X82491243Y-63032754D01*
X82491241Y-63032753D01*
X82491240Y-63032753D01*
X82329957Y-63007208D01*
X82281287Y-62999500D01*
X82068713Y-62999500D01*
X82020042Y-63007208D01*
X81858760Y-63032753D01*
X81656585Y-63098444D01*
X81467179Y-63194951D01*
X81295213Y-63319890D01*
X81144890Y-63470213D01*
X81019951Y-63642179D01*
X80923444Y-63831585D01*
X80857753Y-64033760D01*
X80824500Y-64243713D01*
X79176490Y-64243713D01*
X79177274Y-64187729D01*
X79178041Y-64175610D01*
X79214277Y-63854005D01*
X79216606Y-63840299D01*
X79288426Y-63525633D01*
X79292272Y-63512279D01*
X79398883Y-63207601D01*
X79404196Y-63194777D01*
X79544243Y-62903965D01*
X79550959Y-62891813D01*
X79722693Y-62618501D01*
X79730723Y-62607183D01*
X79931979Y-62354816D01*
X79941228Y-62344467D01*
X80169467Y-62116228D01*
X80179816Y-62106979D01*
X80432183Y-61905723D01*
X80443501Y-61897693D01*
X80716813Y-61725959D01*
X80728965Y-61719243D01*
X81019777Y-61579196D01*
X81032601Y-61573883D01*
X81337279Y-61467272D01*
X81350627Y-61463427D01*
X81568293Y-61413746D01*
X81665299Y-61391606D01*
X81679005Y-61389277D01*
X82000610Y-61353041D01*
X82012729Y-61352274D01*
X82174144Y-61350011D01*
X82175882Y-61350000D01*
X217324118Y-61350000D01*
X217325855Y-61350011D01*
G37*
%TD.AperFunction*%
%TD*%
M02*
