M48
; DRILL file {KiCad 8.0.4-8.0.4-0~ubuntu22.04.1} date 2024-08-09T03:22:05-0400
; FORMAT={-:-/ absolute / metric / decimal}
; #@! TF.CreationDate,2024-08-09T03:22:05-04:00
; #@! TF.GenerationSoftware,Kicad,Pcbnew,8.0.4-8.0.4-0~ubuntu22.04.1
; #@! TF.FileFunction,Plated,1,2,PTH
FMAT,2
METRIC
; #@! TA.AperFunction,Plated,PTH,ViaDrill
T1C0.300
; #@! TA.AperFunction,Plated,PTH,ComponentDrill
T2C0.800
; #@! TA.AperFunction,Plated,PTH,ComponentDrill
T3C1.000
%
G90
G05
T1
X92.975Y-97.025
X96.75Y-127.175
X96.775Y-106.95
X96.775Y-119.05
X96.8Y-102.975
X96.8Y-111.0
X96.8Y-115.05
X96.8Y-123.025
X96.85Y-94.825
X105.525Y-107.65
X106.525Y-125.15
X107.325Y-115.5
X109.9Y-130.55
X110.475Y-122.1
X111.75Y-89.7
X112.825Y-117.75
X113.45Y-101.65
X114.1Y-125.725
X115.225Y-111.45
X115.225Y-113.2
X115.325Y-120.65
X117.025Y-115.8
X117.025Y-118.2
X117.7Y-129.325
X119.425Y-71.45
X120.325Y-87.15
X121.025Y-105.65
X121.5Y-101.675
X121.625Y-110.85
X122.05Y-133.825
X122.375Y-123.775
X123.625Y-68.75
X123.725Y-102.85
X124.275Y-124.15
X125.775Y-120.025
X126.525Y-133.85
X127.125Y-102.85
X128.425Y-79.45
X128.425Y-114.35
X128.425Y-117.175
X128.625Y-121.7
X128.725Y-119.4
X129.425Y-103.25
X129.825Y-122.9
X130.725Y-119.4
X132.025Y-87.0
X132.825Y-75.55
X133.025Y-100.65
X134.225Y-107.65
X136.025Y-77.55
X136.225Y-118.1
X137.125Y-121.65
X137.625Y-87.95
X137.925Y-116.4
X139.325Y-121.65
X140.325Y-123.55
X140.325Y-125.55
X140.975Y-112.85
X140.975Y-114.65
X141.225Y-90.85
X141.225Y-94.85
X141.725Y-122.05
X142.35Y-106.5
X142.625Y-99.35
X143.125Y-126.85
X144.325Y-106.5
X144.625Y-88.65
X144.975Y-126.35
X146.625Y-72.85
X150.125Y-73.9
X150.17Y-124.96
X150.47Y-103.975
X150.925Y-72.25
X151.125Y-79.9
X152.425Y-116.8
X152.425Y-118.7
X153.125Y-84.45
X154.525Y-107.65
X155.225Y-90.95
X155.625Y-108.75
X156.625Y-102.25
X156.925Y-123.05
X158.125Y-80.3
X160.8Y-102.3
X161.025Y-123.05
X161.625Y-80.3
X163.05Y-77.6
X164.75Y-112.425
X165.15Y-83.675
X169.15Y-99.275
X169.15Y-105.025
X169.35Y-125.95
X169.425Y-86.95
X169.625Y-120.425
X170.925Y-71.45
X172.97Y-120.85
X173.875Y-128.0
X173.975Y-106.85
X174.475Y-120.85
X176.095Y-102.94
X176.325Y-104.25
X180.375Y-124.975
X180.975Y-104.85
X181.9Y-94.275
X182.17Y-115.223
X182.475Y-106.35
X185.425Y-120.95
X185.575Y-127.175
X187.05Y-105.625
X188.225Y-86.35
X188.225Y-89.3
X192.525Y-81.175
X194.975Y-97.35
X194.975Y-99.1
X195.225Y-120.95
X196.725Y-100.6
X197.125Y-116.0
X197.525Y-95.1
X198.625Y-117.5
X198.825Y-102.4
X198.925Y-114.3
X200.325Y-104.0
X200.325Y-112.8
X200.425Y-115.8
X201.425Y-123.1
X201.925Y-99.4
X201.925Y-114.4
X202.975Y-124.65
X203.425Y-100.9
X207.025Y-108.55
X207.05Y-100.175
X207.075Y-104.525
X207.075Y-116.525
X207.15Y-112.425
X207.2Y-120.425
X207.25Y-126.55
T2
X114.995Y-97.6
X119.875Y-97.6
T3
X87.662Y-94.87
X87.662Y-97.41
X87.662Y-99.95
X87.662Y-102.49
X87.662Y-105.03
X87.662Y-107.57
X87.662Y-110.11
X87.662Y-112.65
X87.662Y-115.19
X87.662Y-117.73
X87.662Y-120.27
X87.662Y-122.81
X87.662Y-125.35
X87.662Y-127.89
X211.506Y-99.347
X211.506Y-101.887
X211.506Y-104.427
X211.506Y-106.968
X211.506Y-109.507
X211.506Y-112.047
X211.506Y-114.587
X211.506Y-117.127
X211.506Y-119.667
X211.506Y-122.207
X211.506Y-124.747
X211.506Y-127.287
M30
