G04 #@! TF.GenerationSoftware,KiCad,Pcbnew,8.0.4-8.0.4-0~ubuntu22.04.1*
G04 #@! TF.CreationDate,2024-08-18T20:01:01-04:00*
G04 #@! TF.ProjectId,CS4272-CZZ_Breakout_Board,43533432-3732-42d4-935a-5a5f42726561,rev?*
G04 #@! TF.SameCoordinates,Original*
G04 #@! TF.FileFunction,Legend,Bot*
G04 #@! TF.FilePolarity,Positive*
%FSLAX46Y46*%
G04 Gerber Fmt 4.6, Leading zero omitted, Abs format (unit mm)*
G04 Created by KiCad (PCBNEW 8.0.4-8.0.4-0~ubuntu22.04.1) date 2024-08-18 20:01:01*
%MOMM*%
%LPD*%
G01*
G04 APERTURE LIST*
%ADD10C,0.100000*%
%ADD11C,2.200000*%
%ADD12R,1.700000X1.700000*%
%ADD13O,1.700000X1.700000*%
%ADD14C,1.500000*%
G04 APERTURE END LIST*
D10*
G36*
X205775907Y-80253018D02*
G01*
X205775907Y-80881332D01*
X205779437Y-80961978D01*
X205794387Y-81046766D01*
X205829263Y-81125540D01*
X205884449Y-81179895D01*
X205961888Y-81210513D01*
X206044818Y-81218387D01*
X206124222Y-81208804D01*
X206199277Y-81176253D01*
X206255751Y-81123726D01*
X206291720Y-81054416D01*
X206294678Y-81044731D01*
X206305653Y-80971143D01*
X206307135Y-80927128D01*
X206307135Y-80916870D01*
X206314796Y-80843202D01*
X206315561Y-80841399D01*
X206379844Y-80803706D01*
X206382972Y-80803663D01*
X206445522Y-80843214D01*
X206450017Y-80910642D01*
X206450017Y-81151343D01*
X206436241Y-81224339D01*
X206393230Y-81258321D01*
X206318448Y-81293732D01*
X206242193Y-81320235D01*
X206163728Y-81337968D01*
X206082319Y-81347069D01*
X206034193Y-81348447D01*
X205952974Y-81344730D01*
X205859841Y-81328081D01*
X205783178Y-81297842D01*
X205722053Y-81253764D01*
X205675536Y-81195597D01*
X205642694Y-81123092D01*
X205622595Y-81036001D01*
X205615324Y-80960960D01*
X205613974Y-80906245D01*
X205613974Y-80253018D01*
X205481716Y-80253018D01*
X205404591Y-80246913D01*
X205360183Y-80185327D01*
X205360083Y-80179378D01*
X205394121Y-80113078D01*
X205433356Y-80105739D01*
X205481716Y-80105739D01*
X206053244Y-80105739D01*
X206128328Y-80110782D01*
X206176582Y-80167141D01*
X206177076Y-80179378D01*
X206140126Y-80244129D01*
X206061336Y-80252991D01*
X206053244Y-80253018D01*
X205775907Y-80253018D01*
G37*
G36*
X204281507Y-80910642D02*
G01*
X204281507Y-81180286D01*
X204827756Y-81180286D01*
X204827756Y-80253018D01*
X204655565Y-80253018D01*
X204578433Y-80247492D01*
X204531479Y-80185521D01*
X204531367Y-80179378D01*
X204567212Y-80113078D01*
X204607205Y-80105739D01*
X204655565Y-80105739D01*
X205117550Y-80105739D01*
X205191938Y-80110782D01*
X205239066Y-80173075D01*
X205239183Y-80179378D01*
X205203690Y-80244129D01*
X205125667Y-80252991D01*
X205117550Y-80253018D01*
X204989323Y-80253018D01*
X204989323Y-81180286D01*
X205117550Y-81180286D01*
X205194836Y-81185695D01*
X205239085Y-81245784D01*
X205239183Y-81251727D01*
X205205145Y-81317746D01*
X205165910Y-81325000D01*
X205117550Y-81325000D01*
X204208234Y-81325000D01*
X204142376Y-81288462D01*
X204134595Y-81249528D01*
X204134595Y-80910642D01*
X204139541Y-80834733D01*
X204201898Y-80788387D01*
X204208234Y-80788276D01*
X204272649Y-80824052D01*
X204281481Y-80902490D01*
X204281507Y-80910642D01*
G37*
G36*
X207281198Y-82515599D02*
G01*
X207359636Y-82536077D01*
X207428776Y-82568723D01*
X207500585Y-82624790D01*
X207554317Y-82695596D01*
X207588002Y-82778769D01*
X207599191Y-82852617D01*
X207599668Y-82871936D01*
X207590309Y-82954534D01*
X207562033Y-83027406D01*
X207514541Y-83090713D01*
X207447533Y-83144615D01*
X207400366Y-83171256D01*
X207470551Y-83209965D01*
X207527375Y-83258981D01*
X207575974Y-83327686D01*
X207604594Y-83407088D01*
X207612491Y-83482299D01*
X207604777Y-83564002D01*
X207582312Y-83638307D01*
X207546107Y-83704137D01*
X207497178Y-83760415D01*
X207436536Y-83806063D01*
X207365195Y-83840002D01*
X207284168Y-83861156D01*
X207194469Y-83868447D01*
X207105401Y-83861254D01*
X207024671Y-83840374D01*
X206953369Y-83806855D01*
X206892585Y-83761743D01*
X206843411Y-83706087D01*
X206806936Y-83640935D01*
X206784251Y-83567333D01*
X206776448Y-83486329D01*
X206944609Y-83486329D01*
X206954701Y-83562314D01*
X206990333Y-83635166D01*
X207048919Y-83688373D01*
X207127582Y-83719176D01*
X207194469Y-83725931D01*
X207274530Y-83715530D01*
X207350630Y-83679602D01*
X207405748Y-83622193D01*
X207437422Y-83547653D01*
X207444330Y-83486329D01*
X207433861Y-83409697D01*
X207397313Y-83336837D01*
X207338088Y-83284052D01*
X207259889Y-83253711D01*
X207194469Y-83247093D01*
X207116857Y-83256770D01*
X207041142Y-83290920D01*
X206984930Y-83347038D01*
X206951924Y-83422340D01*
X206944609Y-83486329D01*
X206776448Y-83486329D01*
X206784359Y-83408381D01*
X206807746Y-83338016D01*
X206853894Y-83266861D01*
X206909021Y-83216405D01*
X206977972Y-83176745D01*
X206990771Y-83171256D01*
X206923063Y-83132163D01*
X206861199Y-83076119D01*
X206818154Y-83009404D01*
X206794318Y-82932618D01*
X206789270Y-82871936D01*
X206789495Y-82869738D01*
X206955233Y-82869738D01*
X206965444Y-82942836D01*
X207000891Y-83013650D01*
X207057915Y-83065882D01*
X207132558Y-83096380D01*
X207194469Y-83103112D01*
X207268822Y-83093300D01*
X207341417Y-83059179D01*
X207395354Y-83004168D01*
X207427044Y-82931973D01*
X207434071Y-82871936D01*
X207420716Y-82790884D01*
X207382767Y-82723878D01*
X207323399Y-82674760D01*
X207245787Y-82647373D01*
X207194469Y-82642958D01*
X207118653Y-82653118D01*
X207045922Y-82687889D01*
X206992772Y-82742760D01*
X206961987Y-82812923D01*
X206955233Y-82869738D01*
X206789495Y-82869738D01*
X206796779Y-82798467D01*
X206826217Y-82714032D01*
X206876097Y-82640434D01*
X206944449Y-82580474D01*
X207011106Y-82544208D01*
X207087314Y-82519896D01*
X207172065Y-82508973D01*
X207194469Y-82508503D01*
X207281198Y-82515599D01*
G37*
G36*
X206162421Y-83873942D02*
G01*
X205517620Y-82480293D01*
X205506995Y-82442191D01*
X205549988Y-82379487D01*
X205580635Y-82372948D01*
X205644430Y-82411540D01*
X205672958Y-82463440D01*
X206313363Y-83848663D01*
X206323988Y-83890795D01*
X206285837Y-83953784D01*
X206252547Y-83962236D01*
X206187885Y-83923452D01*
X206162421Y-83873942D01*
G37*
G36*
X205025226Y-83845000D02*
G01*
X204348918Y-83845000D01*
X204293323Y-83797025D01*
X204289933Y-83777955D01*
X204279675Y-83698087D01*
X204277477Y-83677205D01*
X204305407Y-83606631D01*
X204350750Y-83592208D01*
X204414846Y-83631170D01*
X204428785Y-83683433D01*
X204896999Y-83683433D01*
X204770969Y-83560701D01*
X204697372Y-83488328D01*
X204627164Y-83420785D01*
X204561188Y-83357087D01*
X204500284Y-83296249D01*
X204445291Y-83237284D01*
X204397050Y-83179208D01*
X204344686Y-83101453D01*
X204307812Y-83021191D01*
X204288421Y-82936086D01*
X204285903Y-82890987D01*
X204293655Y-82812492D01*
X204316042Y-82740033D01*
X204351765Y-82674977D01*
X204399522Y-82618687D01*
X204458012Y-82572529D01*
X204525935Y-82537869D01*
X204601989Y-82516072D01*
X204684874Y-82508503D01*
X204762258Y-82514127D01*
X204837328Y-82530315D01*
X204908157Y-82556037D01*
X204982861Y-82596724D01*
X205046109Y-82647355D01*
X205079215Y-82714464D01*
X205079815Y-82738213D01*
X205071259Y-82812145D01*
X205018632Y-82846290D01*
X204948695Y-82815054D01*
X204907623Y-82751036D01*
X204853619Y-82700650D01*
X204783675Y-82666686D01*
X204705037Y-82651828D01*
X204688904Y-82651385D01*
X204608391Y-82665157D01*
X204542634Y-82704342D01*
X204494923Y-82765741D01*
X204468548Y-82846155D01*
X204464323Y-82899413D01*
X204476646Y-82979206D01*
X204512466Y-83057934D01*
X204556878Y-83122319D01*
X204614337Y-83189742D01*
X204665462Y-83243297D01*
X204723056Y-83300187D01*
X204786745Y-83361111D01*
X204856156Y-83426765D01*
X204905425Y-83473506D01*
X204968597Y-83534256D01*
X205022148Y-83586390D01*
X205073083Y-83639881D01*
X205117121Y-83700452D01*
X205132205Y-83754874D01*
X205105368Y-83823567D01*
X205031786Y-83844920D01*
X205025226Y-83845000D01*
G37*
G36*
X203381716Y-82570052D02*
G01*
X203814392Y-83299117D01*
X203848602Y-83365526D01*
X203852128Y-83397302D01*
X203852128Y-83468743D01*
X203809562Y-83530763D01*
X203797540Y-83531758D01*
X203318702Y-83531758D01*
X203318702Y-83700286D01*
X203438503Y-83700286D01*
X203507022Y-83732754D01*
X203513974Y-83771727D01*
X203480012Y-83838614D01*
X203430076Y-83845000D01*
X203098150Y-83845000D01*
X203027908Y-83816163D01*
X203016451Y-83771727D01*
X203059277Y-83707917D01*
X203131856Y-83700286D01*
X203167393Y-83700286D01*
X203167393Y-83531758D01*
X203081297Y-83531758D01*
X203020679Y-83487549D01*
X203016451Y-83468743D01*
X203008025Y-83426612D01*
X203003628Y-83391074D01*
X203051988Y-83340882D01*
X203115003Y-83376053D01*
X203167393Y-83376053D01*
X203318702Y-83376053D01*
X203707414Y-83376053D01*
X203318702Y-82686556D01*
X203318702Y-83376053D01*
X203167393Y-83376053D01*
X203167393Y-82603391D01*
X203198900Y-82551001D01*
X203304047Y-82534148D01*
X203331158Y-82531950D01*
X203381716Y-82570052D01*
G37*
G36*
X209652734Y-76861806D02*
G01*
X209658635Y-76895348D01*
X209620052Y-76958272D01*
X209574371Y-76964591D01*
X209536636Y-76964591D01*
X209478018Y-76964591D01*
X209478018Y-77900286D01*
X209536636Y-77900286D01*
X209570341Y-77900286D01*
X209643076Y-77919999D01*
X209658635Y-77971727D01*
X209624219Y-78037746D01*
X209587194Y-78045000D01*
X209242812Y-78045000D01*
X209167803Y-78033860D01*
X209139863Y-77971727D01*
X209181169Y-77906994D01*
X209249040Y-77898087D01*
X209318283Y-77900286D01*
X209318283Y-77525129D01*
X209183827Y-77525129D01*
X209109531Y-77536108D01*
X209046506Y-77579947D01*
X208999915Y-77638546D01*
X208980129Y-77667278D01*
X208780460Y-77961102D01*
X208734115Y-78022834D01*
X208673482Y-78045000D01*
X208559909Y-78045000D01*
X208494352Y-78006934D01*
X208488834Y-77971727D01*
X208528728Y-77906597D01*
X208587386Y-77900286D01*
X208621092Y-77900286D01*
X208826622Y-77591074D01*
X208875612Y-77535476D01*
X208914916Y-77506444D01*
X208838812Y-77480201D01*
X208774337Y-77443615D01*
X208713049Y-77387284D01*
X208670154Y-77318820D01*
X208646550Y-77239731D01*
X208641974Y-77181845D01*
X208642390Y-77177815D01*
X208818562Y-77177815D01*
X208832379Y-77258822D01*
X208873767Y-77320705D01*
X208942636Y-77362957D01*
X209023469Y-77383166D01*
X209106158Y-77388475D01*
X209318283Y-77388475D01*
X209318283Y-76964591D01*
X209099930Y-76964591D01*
X209018383Y-76969797D01*
X208939086Y-76989787D01*
X208871944Y-77032057D01*
X208831861Y-77094733D01*
X208818562Y-77177815D01*
X208642390Y-77177815D01*
X208649960Y-77104399D01*
X208672886Y-77032140D01*
X208709208Y-76967780D01*
X208757379Y-76914033D01*
X208824378Y-76870482D01*
X208901837Y-76844192D01*
X208977148Y-76832134D01*
X209061210Y-76826886D01*
X209138304Y-76825761D01*
X209154518Y-76825739D01*
X209587194Y-76825739D01*
X209652734Y-76861806D01*
G37*
G36*
X208264986Y-78045000D02*
G01*
X207418684Y-78045000D01*
X207354515Y-78008462D01*
X207347243Y-77969528D01*
X207347243Y-77709410D01*
X207358963Y-77635481D01*
X207418684Y-77607561D01*
X207484027Y-77645684D01*
X207492302Y-77724826D01*
X207492323Y-77732857D01*
X207492323Y-77900286D01*
X208038206Y-77900286D01*
X208038206Y-77442330D01*
X207769295Y-77442330D01*
X207769295Y-77472006D01*
X207764274Y-77546283D01*
X207709437Y-77599022D01*
X207704448Y-77599134D01*
X207643737Y-77552874D01*
X207639235Y-77478234D01*
X207639235Y-77286992D01*
X207644896Y-77211637D01*
X207704448Y-77165359D01*
X207765360Y-77206229D01*
X207771493Y-77263911D01*
X207769295Y-77318133D01*
X208038206Y-77318133D01*
X208038206Y-76973018D01*
X207492323Y-76973018D01*
X207492323Y-77119563D01*
X207492323Y-77152903D01*
X207473721Y-77224251D01*
X207418684Y-77243028D01*
X207353554Y-77203401D01*
X207347243Y-77148872D01*
X207347243Y-76907805D01*
X207375794Y-76837312D01*
X207418684Y-76825739D01*
X208264986Y-76825739D01*
X208340230Y-76830782D01*
X208388328Y-76887141D01*
X208388817Y-76899378D01*
X208352019Y-76964129D01*
X208273109Y-76972991D01*
X208264986Y-76973018D01*
X208199773Y-76973018D01*
X208199773Y-77900286D01*
X208264986Y-77900286D01*
X208342967Y-77905695D01*
X208388712Y-77965784D01*
X208388817Y-77971727D01*
X208353253Y-78037746D01*
X208313346Y-78045000D01*
X208264986Y-78045000D01*
G37*
G36*
X207071004Y-76973018D02*
G01*
X206692916Y-77951943D01*
X206664136Y-78020684D01*
X206605446Y-78066416D01*
X206581908Y-78068447D01*
X206525122Y-78068447D01*
X206461518Y-78030367D01*
X206428761Y-77958853D01*
X206426203Y-77951943D01*
X206056908Y-76973018D01*
X206044085Y-76973018D01*
X205969759Y-76956669D01*
X205947365Y-76899378D01*
X205981782Y-76833078D01*
X206018806Y-76825739D01*
X206340108Y-76825739D01*
X206415116Y-76837044D01*
X206443056Y-76899378D01*
X206403325Y-76964657D01*
X206348534Y-76973018D01*
X206212247Y-76973018D01*
X206552233Y-77879769D01*
X206901011Y-76973018D01*
X206787438Y-76973018D01*
X206715860Y-76955157D01*
X206692916Y-76899378D01*
X206728003Y-76833800D01*
X206795865Y-76825739D01*
X207106908Y-76825739D01*
X207172448Y-76864101D01*
X207178349Y-76899378D01*
X207143129Y-76963772D01*
X207071004Y-76973018D01*
G37*
G36*
X204282240Y-76951402D02*
G01*
X204088799Y-76905607D01*
X204088799Y-77900286D01*
X204259159Y-77900286D01*
X204334484Y-77903278D01*
X204396566Y-77944543D01*
X204399842Y-77971727D01*
X204364446Y-78036228D01*
X204317777Y-78045000D01*
X203704483Y-78045000D01*
X203634241Y-78016163D01*
X203622784Y-77971727D01*
X203661325Y-77909055D01*
X203737649Y-77900441D01*
X203763468Y-77900286D01*
X203927233Y-77900286D01*
X203927233Y-76798995D01*
X203960296Y-76733118D01*
X203969364Y-76731950D01*
X204013328Y-76738545D01*
X204317777Y-76819877D01*
X204378482Y-76862203D01*
X204385188Y-76890952D01*
X204340116Y-76951717D01*
X204313747Y-76955432D01*
X204282240Y-76951402D01*
G37*
G36*
X202974685Y-77885997D02*
G01*
X202960357Y-77958709D01*
X202912921Y-78022456D01*
X202846759Y-78057826D01*
X202773185Y-78068447D01*
X202699758Y-78058073D01*
X202633594Y-78023226D01*
X202586065Y-77959637D01*
X202571685Y-77885997D01*
X202586065Y-77812146D01*
X202633594Y-77748440D01*
X202699758Y-77713560D01*
X202773185Y-77703182D01*
X202846759Y-77713806D01*
X202912921Y-77749210D01*
X202960357Y-77813074D01*
X202974685Y-77885997D01*
G37*
G36*
X201599755Y-76719914D02*
G01*
X201681030Y-76753697D01*
X201752723Y-76809179D01*
X201813769Y-76885686D01*
X201851925Y-76956457D01*
X201883044Y-77038392D01*
X201906676Y-77131204D01*
X201922373Y-77234611D01*
X201928207Y-77309294D01*
X201930181Y-77388475D01*
X201928207Y-77467716D01*
X201922373Y-77542444D01*
X201906676Y-77645892D01*
X201883044Y-77738720D01*
X201851925Y-77820650D01*
X201813769Y-77891401D01*
X201769024Y-77950696D01*
X201699894Y-78011452D01*
X201620914Y-78050684D01*
X201533150Y-78067729D01*
X201509961Y-78068447D01*
X201420183Y-78057051D01*
X201338949Y-78023304D01*
X201267315Y-77967867D01*
X201206337Y-77891401D01*
X201168231Y-77820650D01*
X201137160Y-77738720D01*
X201113568Y-77645892D01*
X201097900Y-77542444D01*
X201092078Y-77467716D01*
X201090108Y-77388475D01*
X201262299Y-77388475D01*
X201264805Y-77483200D01*
X201272188Y-77568882D01*
X201284243Y-77645461D01*
X201307230Y-77733302D01*
X201337673Y-77804711D01*
X201385473Y-77870650D01*
X201455877Y-77915204D01*
X201509961Y-77923733D01*
X201589206Y-77904570D01*
X201655511Y-77847400D01*
X201699575Y-77771069D01*
X201726746Y-77691427D01*
X201746153Y-77595423D01*
X201755291Y-77512769D01*
X201759534Y-77421051D01*
X201759822Y-77388475D01*
X201757261Y-77293897D01*
X201749729Y-77208440D01*
X201737454Y-77132143D01*
X201714097Y-77044731D01*
X201683246Y-76973769D01*
X201634959Y-76908343D01*
X201564139Y-76864215D01*
X201509961Y-76855781D01*
X201430919Y-76874739D01*
X201365106Y-76931400D01*
X201321549Y-77007188D01*
X201294774Y-77086386D01*
X201275698Y-77181988D01*
X201266735Y-77264396D01*
X201262580Y-77355938D01*
X201262299Y-77388475D01*
X201090108Y-77388475D01*
X201092078Y-77309294D01*
X201097900Y-77234611D01*
X201113568Y-77131204D01*
X201137160Y-77038392D01*
X201168231Y-76956457D01*
X201206337Y-76885686D01*
X201251030Y-76826361D01*
X201320099Y-76765560D01*
X201399032Y-76726288D01*
X201486773Y-76709221D01*
X201509961Y-76708503D01*
X201599755Y-76719914D01*
G37*
%LPC*%
D11*
X217325000Y-136850000D03*
D12*
X211506250Y-99347500D03*
D13*
X211506250Y-101887500D03*
X211506250Y-104427500D03*
X211506250Y-106967500D03*
X211506250Y-109507500D03*
X211506250Y-112047500D03*
X211506250Y-114587500D03*
X211506250Y-117127500D03*
X211506250Y-119667500D03*
X211506250Y-122207500D03*
X211506250Y-124747500D03*
X211506250Y-127287500D03*
D11*
X217325000Y-64350000D03*
X82175000Y-64350000D03*
D12*
X91000000Y-94100000D03*
D13*
X91000000Y-96640000D03*
X91000000Y-99180000D03*
X91000000Y-101720000D03*
X91000000Y-104260000D03*
X91000000Y-106800000D03*
X91000000Y-109340000D03*
X91000000Y-111880000D03*
X91000000Y-114420000D03*
X91000000Y-116960000D03*
X91000000Y-119500000D03*
X91000000Y-122040000D03*
X91000000Y-124580000D03*
X91000000Y-127120000D03*
D11*
X82175000Y-136850000D03*
D14*
X119875000Y-97600000D03*
X114995000Y-97600000D03*
%LPD*%
M02*
