%TF.GenerationSoftware,KiCad,Pcbnew,8.0.4-8.0.4-0~ubuntu22.04.1*%
%TF.CreationDate,2024-08-09T03:22:31-04:00*%
%TF.ProjectId,CS4272-CZZ_Breakout_Board,43533432-3732-42d4-935a-5a5f42726561,rev?*%
%TF.SameCoordinates,Original*%
%TF.FileFunction,Soldermask,Top*%
%TF.FilePolarity,Negative*%
%FSLAX46Y46*%
G04 Gerber Fmt 4.6, Leading zero omitted, Abs format (unit mm)*
G04 Created by KiCad (PCBNEW 8.0.4-8.0.4-0~ubuntu22.04.1) date 2024-08-09 03:22:31*
%MOMM*%
%LPD*%
G01*
G04 APERTURE LIST*
G04 Aperture macros list*
%AMRoundRect*
0 Rectangle with rounded corners*
0 $1 Rounding radius*
0 $2 $3 $4 $5 $6 $7 $8 $9 X,Y pos of 4 corners*
0 Add a 4 corners polygon primitive as box body*
4,1,4,$2,$3,$4,$5,$6,$7,$8,$9,$2,$3,0*
0 Add four circle primitives for the rounded corners*
1,1,$1+$1,$2,$3*
1,1,$1+$1,$4,$5*
1,1,$1+$1,$6,$7*
1,1,$1+$1,$8,$9*
0 Add four rect primitives between the rounded corners*
20,1,$1+$1,$2,$3,$4,$5,0*
20,1,$1+$1,$4,$5,$6,$7,0*
20,1,$1+$1,$6,$7,$8,$9,0*
20,1,$1+$1,$8,$9,$2,$3,0*%
G04 Aperture macros list end*
%ADD10RoundRect,0.250000X0.250000X0.475000X-0.250000X0.475000X-0.250000X-0.475000X0.250000X-0.475000X0*%
%ADD11RoundRect,0.243750X0.456250X-0.243750X0.456250X0.243750X-0.456250X0.243750X-0.456250X-0.243750X0*%
%ADD12C,2.200000*%
%ADD13RoundRect,0.150000X0.150000X-0.825000X0.150000X0.825000X-0.150000X0.825000X-0.150000X-0.825000X0*%
%ADD14RoundRect,0.250000X0.475000X-0.250000X0.475000X0.250000X-0.475000X0.250000X-0.475000X-0.250000X0*%
%ADD15RoundRect,0.250000X0.450000X-0.262500X0.450000X0.262500X-0.450000X0.262500X-0.450000X-0.262500X0*%
%ADD16RoundRect,0.250000X-0.262500X-0.450000X0.262500X-0.450000X0.262500X0.450000X-0.262500X0.450000X0*%
%ADD17RoundRect,0.243750X-0.456250X0.243750X-0.456250X-0.243750X0.456250X-0.243750X0.456250X0.243750X0*%
%ADD18RoundRect,0.250000X-0.475000X0.250000X-0.475000X-0.250000X0.475000X-0.250000X0.475000X0.250000X0*%
%ADD19RoundRect,0.250000X-1.250000X-0.550000X1.250000X-0.550000X1.250000X0.550000X-1.250000X0.550000X0*%
%ADD20RoundRect,0.250000X0.550000X-1.050000X0.550000X1.050000X-0.550000X1.050000X-0.550000X-1.050000X0*%
%ADD21C,3.000000*%
%ADD22RoundRect,0.100000X-0.637500X-0.100000X0.637500X-0.100000X0.637500X0.100000X-0.637500X0.100000X0*%
%ADD23RoundRect,0.150000X-0.150000X0.825000X-0.150000X-0.825000X0.150000X-0.825000X0.150000X0.825000X0*%
%ADD24RoundRect,0.250000X0.262500X0.450000X-0.262500X0.450000X-0.262500X-0.450000X0.262500X-0.450000X0*%
%ADD25R,1.700000X1.700000*%
%ADD26O,1.700000X1.700000*%
%ADD27RoundRect,0.150000X-0.587500X-0.150000X0.587500X-0.150000X0.587500X0.150000X-0.587500X0.150000X0*%
%ADD28RoundRect,0.250000X-0.450000X0.262500X-0.450000X-0.262500X0.450000X-0.262500X0.450000X0.262500X0*%
%ADD29RoundRect,0.150000X0.825000X0.150000X-0.825000X0.150000X-0.825000X-0.150000X0.825000X-0.150000X0*%
%ADD30RoundRect,0.250000X-0.250000X-0.475000X0.250000X-0.475000X0.250000X0.475000X-0.250000X0.475000X0*%
%ADD31RoundRect,0.150000X-0.512500X-0.150000X0.512500X-0.150000X0.512500X0.150000X-0.512500X0.150000X0*%
%ADD32RoundRect,0.218750X0.218750X0.381250X-0.218750X0.381250X-0.218750X-0.381250X0.218750X-0.381250X0*%
%ADD33C,1.500000*%
%ADD34RoundRect,0.250000X-1.050000X-0.550000X1.050000X-0.550000X1.050000X0.550000X-1.050000X0.550000X0*%
G04 APERTURE END LIST*
D10*
%TO.C,C37*%
X150075000Y-98500000D03*
X148175000Y-98500000D03*
%TD*%
D11*
%TO.C,D1*%
X94912500Y-94812500D03*
X94912500Y-92937500D03*
%TD*%
D12*
%TO.C,H4*%
X217325000Y-136850000D03*
%TD*%
D13*
%TO.C,U6*%
X123120000Y-78425000D03*
X124390000Y-78425000D03*
X125660000Y-78425000D03*
X126930000Y-78425000D03*
X126930000Y-73475000D03*
X125660000Y-73475000D03*
X124390000Y-73475000D03*
X123120000Y-73475000D03*
%TD*%
D10*
%TO.C,C9*%
X129475000Y-107250000D03*
X127575000Y-107250000D03*
%TD*%
%TO.C,C47*%
X190075000Y-117107500D03*
X188175000Y-117107500D03*
%TD*%
D14*
%TO.C,C1*%
X130325000Y-111300000D03*
X130325000Y-109400000D03*
%TD*%
D15*
%TO.C,R65*%
X187520000Y-100050000D03*
X187520000Y-98225000D03*
%TD*%
D14*
%TO.C,C21*%
X142825000Y-125500000D03*
X142825000Y-123600000D03*
%TD*%
D16*
%TO.C,R37*%
X144212500Y-96000000D03*
X146037500Y-96000000D03*
%TD*%
%TO.C,R56*%
X180070000Y-123107500D03*
X181895000Y-123107500D03*
%TD*%
D17*
%TO.C,D10*%
X205225000Y-100550000D03*
X205225000Y-102425000D03*
%TD*%
D10*
%TO.C,C20*%
X145070000Y-121610000D03*
X143170000Y-121610000D03*
%TD*%
D18*
%TO.C,C35*%
X143725000Y-102800000D03*
X143725000Y-104700000D03*
%TD*%
D16*
%TO.C,R36*%
X153457500Y-105975000D03*
X155282500Y-105975000D03*
%TD*%
D19*
%TO.C,C24*%
X158670000Y-119460000D03*
X163070000Y-119460000D03*
%TD*%
D18*
%TO.C,C5*%
X111025000Y-114400000D03*
X111025000Y-116300000D03*
%TD*%
D15*
%TO.C,R53*%
X193325000Y-120962500D03*
X193325000Y-119137500D03*
%TD*%
D13*
%TO.C,U3*%
X146965000Y-126835000D03*
X148235000Y-126835000D03*
X149505000Y-126835000D03*
X150775000Y-126835000D03*
X150775000Y-121885000D03*
X149505000Y-121885000D03*
X148235000Y-121885000D03*
X146965000Y-121885000D03*
%TD*%
D11*
%TO.C,D4*%
X94912500Y-106937500D03*
X94912500Y-105062500D03*
%TD*%
D16*
%TO.C,R2*%
X97825000Y-97162500D03*
X99650000Y-97162500D03*
%TD*%
D20*
%TO.C,C42*%
X117775000Y-78750000D03*
X117775000Y-75150000D03*
%TD*%
D21*
%TO.C,FID2*%
X205525000Y-70850000D03*
%TD*%
D11*
%TO.C,D3*%
X94912500Y-102850000D03*
X94912500Y-100975000D03*
%TD*%
D18*
%TO.C,C6*%
X113425000Y-114400000D03*
X113425000Y-116300000D03*
%TD*%
D22*
%TO.C,U1*%
X117625000Y-105600000D03*
X117625000Y-106250000D03*
X117625000Y-106900000D03*
X117625000Y-107550000D03*
X117625000Y-108200000D03*
X117625000Y-108850000D03*
X117625000Y-109500000D03*
X117625000Y-110150000D03*
X117625000Y-110800000D03*
X117625000Y-111450000D03*
X117625000Y-112100000D03*
X117625000Y-112750000D03*
X117625000Y-113400000D03*
X117625000Y-114050000D03*
X123350000Y-114050000D03*
X123350000Y-113400000D03*
X123350000Y-112750000D03*
X123350000Y-112100000D03*
X123350000Y-111450000D03*
X123350000Y-110800000D03*
X123350000Y-110150000D03*
X123350000Y-109500000D03*
X123350000Y-108850000D03*
X123350000Y-108200000D03*
X123350000Y-107550000D03*
X123350000Y-106900000D03*
X123350000Y-106250000D03*
X123350000Y-105600000D03*
%TD*%
D15*
%TO.C,R64*%
X193020000Y-100050000D03*
X193020000Y-98225000D03*
%TD*%
D16*
%TO.C,R34*%
X143300000Y-108500000D03*
X145125000Y-108500000D03*
%TD*%
D23*
%TO.C,U4*%
X156535000Y-77400000D03*
X155265000Y-77400000D03*
X153995000Y-77400000D03*
X152725000Y-77400000D03*
X152725000Y-82350000D03*
X153995000Y-82350000D03*
X155265000Y-82350000D03*
X156535000Y-82350000D03*
%TD*%
D15*
%TO.C,R32*%
X146625000Y-83600000D03*
X146625000Y-81775000D03*
%TD*%
D17*
%TO.C,D2*%
X94912500Y-97052500D03*
X94912500Y-98927500D03*
%TD*%
D24*
%TO.C,R69*%
X175682500Y-101175000D03*
X173857500Y-101175000D03*
%TD*%
D16*
%TO.C,R10*%
X97912500Y-125350000D03*
X99737500Y-125350000D03*
%TD*%
D15*
%TO.C,R29*%
X149025000Y-88112500D03*
X149025000Y-86287500D03*
%TD*%
D16*
%TO.C,R1*%
X97912500Y-92950000D03*
X99737500Y-92950000D03*
%TD*%
D15*
%TO.C,R59*%
X173825000Y-119562500D03*
X173825000Y-117737500D03*
%TD*%
%TO.C,R63*%
X201780000Y-107352500D03*
X201780000Y-105527500D03*
%TD*%
%TO.C,R44*%
X117775000Y-70950000D03*
X117775000Y-69125000D03*
%TD*%
%TO.C,R22*%
X167470000Y-122260000D03*
X167470000Y-120435000D03*
%TD*%
D10*
%TO.C,C10*%
X129475000Y-105050000D03*
X127575000Y-105050000D03*
%TD*%
%TO.C,C32*%
X148775000Y-108500000D03*
X146875000Y-108500000D03*
%TD*%
D15*
%TO.C,R46*%
X127545000Y-85112500D03*
X127545000Y-83287500D03*
%TD*%
%TO.C,R19*%
X167470000Y-125960000D03*
X167470000Y-124135000D03*
%TD*%
D10*
%TO.C,C34*%
X145375000Y-100750000D03*
X143475000Y-100750000D03*
%TD*%
D25*
%TO.C,J2*%
X211506250Y-99347500D03*
D26*
X211506250Y-101887500D03*
X211506250Y-104427500D03*
X211506250Y-106967500D03*
X211506250Y-109507500D03*
X211506250Y-112047500D03*
X211506250Y-114587500D03*
X211506250Y-117127500D03*
X211506250Y-119667500D03*
X211506250Y-122207500D03*
X211506250Y-124747500D03*
X211506250Y-127287500D03*
%TD*%
D16*
%TO.C,R5*%
X97712500Y-109150000D03*
X99537500Y-109150000D03*
%TD*%
D15*
%TO.C,R41*%
X122055000Y-85112500D03*
X122055000Y-83287500D03*
%TD*%
D17*
%TO.C,D12*%
X205225000Y-108550000D03*
X205225000Y-110425000D03*
%TD*%
D24*
%TO.C,R13*%
X104625000Y-113105000D03*
X102800000Y-113105000D03*
%TD*%
D11*
%TO.C,D8*%
X94912500Y-122987500D03*
X94912500Y-121112500D03*
%TD*%
D14*
%TO.C,C43*%
X130325000Y-81400000D03*
X130325000Y-79500000D03*
%TD*%
D21*
%TO.C,FID3*%
X87725000Y-134650000D03*
%TD*%
D10*
%TO.C,C18*%
X148475000Y-129360000D03*
X146575000Y-129360000D03*
%TD*%
D15*
%TO.C,R50*%
X184070000Y-114607500D03*
X184070000Y-112782500D03*
%TD*%
%TO.C,R27*%
X158725000Y-86025000D03*
X158725000Y-84200000D03*
%TD*%
D11*
%TO.C,D7*%
X94912500Y-118987500D03*
X94912500Y-117112500D03*
%TD*%
D10*
%TO.C,C44*%
X131675000Y-89050000D03*
X129775000Y-89050000D03*
%TD*%
%TO.C,C51*%
X190445000Y-95887500D03*
X188545000Y-95887500D03*
%TD*%
D18*
%TO.C,C8*%
X122225000Y-116300000D03*
X122225000Y-118200000D03*
%TD*%
D15*
%TO.C,R38*%
X167270000Y-101175000D03*
X167270000Y-99350000D03*
%TD*%
%TO.C,R51*%
X186320000Y-117107500D03*
X186320000Y-115282500D03*
%TD*%
D18*
%TO.C,C7*%
X124525000Y-116300000D03*
X124525000Y-118200000D03*
%TD*%
D11*
%TO.C,D6*%
X94912500Y-114987500D03*
X94912500Y-113112500D03*
%TD*%
D16*
%TO.C,R17*%
X144382500Y-131610000D03*
X146207500Y-131610000D03*
%TD*%
D10*
%TO.C,C22*%
X152675000Y-129350000D03*
X150775000Y-129350000D03*
%TD*%
D18*
%TO.C,C52*%
X190270000Y-98187500D03*
X190270000Y-100087500D03*
%TD*%
D15*
%TO.C,R42*%
X124375000Y-90862500D03*
X124375000Y-89037500D03*
%TD*%
D18*
%TO.C,C50*%
X177925000Y-102100000D03*
X177925000Y-104000000D03*
%TD*%
D14*
%TO.C,C16*%
X115425000Y-103600000D03*
X115425000Y-101700000D03*
%TD*%
D16*
%TO.C,R24*%
X144207500Y-119360000D03*
X146032500Y-119360000D03*
%TD*%
D27*
%TO.C,Q1*%
X134687500Y-109400000D03*
X134687500Y-111300000D03*
X136562500Y-110350000D03*
%TD*%
D14*
%TO.C,C40*%
X121075000Y-73400000D03*
X121075000Y-71500000D03*
%TD*%
D19*
%TO.C,C38*%
X158470000Y-98775000D03*
X162870000Y-98775000D03*
%TD*%
D21*
%TO.C,FID1*%
X87725000Y-70850000D03*
%TD*%
D28*
%TO.C,R9*%
X119625000Y-123837500D03*
X119625000Y-125662500D03*
%TD*%
D29*
%TO.C,U7*%
X183545000Y-120762500D03*
X183545000Y-119492500D03*
X183545000Y-118222500D03*
X183545000Y-116952500D03*
X178595000Y-116952500D03*
X178595000Y-118222500D03*
X178595000Y-119492500D03*
X178595000Y-120762500D03*
%TD*%
D30*
%TO.C,C27*%
X158875000Y-81950000D03*
X160775000Y-81950000D03*
%TD*%
D11*
%TO.C,D17*%
X126725000Y-129887500D03*
X126725000Y-128012500D03*
%TD*%
D16*
%TO.C,R3*%
X97812500Y-100950000D03*
X99637500Y-100950000D03*
%TD*%
D24*
%TO.C,R39*%
X155282500Y-98775000D03*
X153457500Y-98775000D03*
%TD*%
D18*
%TO.C,C48*%
X190125000Y-119100000D03*
X190125000Y-121000000D03*
%TD*%
D24*
%TO.C,R23*%
X155582500Y-119460000D03*
X153757500Y-119460000D03*
%TD*%
%TO.C,R58*%
X175482500Y-122260000D03*
X173657500Y-122260000D03*
%TD*%
D10*
%TO.C,C41*%
X124675000Y-81050000D03*
X122775000Y-81050000D03*
%TD*%
D30*
%TO.C,C39*%
X120375000Y-88950000D03*
X122275000Y-88950000D03*
%TD*%
D14*
%TO.C,C30*%
X146625000Y-88137500D03*
X146625000Y-86237500D03*
%TD*%
D15*
%TO.C,R48*%
X130275000Y-85112500D03*
X130275000Y-83287500D03*
%TD*%
D16*
%TO.C,R68*%
X178695000Y-91752500D03*
X180520000Y-91752500D03*
%TD*%
D11*
%TO.C,D9*%
X94912500Y-127187500D03*
X94912500Y-125312500D03*
%TD*%
D16*
%TO.C,R4*%
X97812500Y-105050000D03*
X99637500Y-105050000D03*
%TD*%
D18*
%TO.C,C46*%
X178070000Y-122657500D03*
X178070000Y-124557500D03*
%TD*%
D24*
%TO.C,R16*%
X128337500Y-132050000D03*
X126512500Y-132050000D03*
%TD*%
D14*
%TO.C,C2*%
X128125000Y-111300000D03*
X128125000Y-109400000D03*
%TD*%
D16*
%TO.C,R67*%
X180512500Y-102250000D03*
X182337500Y-102250000D03*
%TD*%
%TO.C,R60*%
X186482500Y-91637500D03*
X188307500Y-91637500D03*
%TD*%
D29*
%TO.C,U8*%
X183745000Y-99792500D03*
X183745000Y-98522500D03*
X183745000Y-97252500D03*
X183745000Y-95982500D03*
X178795000Y-95982500D03*
X178795000Y-97252500D03*
X178795000Y-98522500D03*
X178795000Y-99792500D03*
%TD*%
D10*
%TO.C,C15*%
X123975000Y-132050000D03*
X122075000Y-132050000D03*
%TD*%
D17*
%TO.C,D14*%
X205225000Y-116512500D03*
X205225000Y-118387500D03*
%TD*%
D14*
%TO.C,C49*%
X176080000Y-119590000D03*
X176080000Y-117690000D03*
%TD*%
D15*
%TO.C,R25*%
X161025000Y-86025000D03*
X161025000Y-84200000D03*
%TD*%
D12*
%TO.C,H2*%
X217325000Y-64350000D03*
%TD*%
D18*
%TO.C,C4*%
X113425000Y-110200000D03*
X113425000Y-112100000D03*
%TD*%
D31*
%TO.C,U2*%
X122050000Y-128000000D03*
X122050000Y-128950000D03*
X122050000Y-129900000D03*
X124325000Y-129900000D03*
X124325000Y-128000000D03*
%TD*%
D24*
%TO.C,R47*%
X121937500Y-68700000D03*
X120112500Y-68700000D03*
%TD*%
%TO.C,R14*%
X104712500Y-121240000D03*
X102887500Y-121240000D03*
%TD*%
D15*
%TO.C,R66*%
X173970000Y-105087500D03*
X173970000Y-103262500D03*
%TD*%
D16*
%TO.C,R7*%
X97912500Y-117150000D03*
X99737500Y-117150000D03*
%TD*%
D12*
%TO.C,H1*%
X82175000Y-64350000D03*
%TD*%
D17*
%TO.C,D11*%
X205225000Y-104550000D03*
X205225000Y-106425000D03*
%TD*%
D15*
%TO.C,R70*%
X173770000Y-98765000D03*
X173770000Y-96940000D03*
%TD*%
D10*
%TO.C,C23*%
X149775000Y-119360000D03*
X147875000Y-119360000D03*
%TD*%
D16*
%TO.C,R21*%
X144207500Y-116860000D03*
X146032500Y-116860000D03*
%TD*%
%TO.C,R40*%
X144212500Y-98500000D03*
X146037500Y-98500000D03*
%TD*%
D32*
%TO.C,FB1*%
X132487500Y-113050000D03*
X130362500Y-113050000D03*
%TD*%
D21*
%TO.C,FID4*%
X205525000Y-134450000D03*
%TD*%
D14*
%TO.C,C11*%
X132525000Y-111300000D03*
X132525000Y-109400000D03*
%TD*%
D15*
%TO.C,R35*%
X167270000Y-104975000D03*
X167270000Y-103150000D03*
%TD*%
D16*
%TO.C,R6*%
X97912500Y-113150000D03*
X99737500Y-113150000D03*
%TD*%
D18*
%TO.C,C13*%
X119625000Y-127400000D03*
X119625000Y-129300000D03*
%TD*%
D16*
%TO.C,R28*%
X163062500Y-72900000D03*
X164887500Y-72900000D03*
%TD*%
D20*
%TO.C,C45*%
X136025000Y-83450000D03*
X136025000Y-79850000D03*
%TD*%
D16*
%TO.C,R8*%
X97912500Y-121150000D03*
X99737500Y-121150000D03*
%TD*%
D24*
%TO.C,R12*%
X104625000Y-117240000D03*
X102800000Y-117240000D03*
%TD*%
D25*
%TO.C,J1*%
X87662500Y-94870000D03*
D26*
X87662500Y-97410000D03*
X87662500Y-99950000D03*
X87662500Y-102490000D03*
X87662500Y-105030000D03*
X87662500Y-107570000D03*
X87662500Y-110110000D03*
X87662500Y-112650000D03*
X87662500Y-115190000D03*
X87662500Y-117730000D03*
X87662500Y-120270000D03*
X87662500Y-122810000D03*
X87662500Y-125350000D03*
X87662500Y-127890000D03*
%TD*%
D14*
%TO.C,C53*%
X176195000Y-98802500D03*
X176195000Y-96902500D03*
%TD*%
D16*
%TO.C,R11*%
X103000000Y-125240000D03*
X104825000Y-125240000D03*
%TD*%
D19*
%TO.C,C19*%
X158670000Y-126847500D03*
X163070000Y-126847500D03*
%TD*%
D20*
%TO.C,C31*%
X146625000Y-78687500D03*
X146625000Y-75087500D03*
%TD*%
D16*
%TO.C,R20*%
X153757500Y-126860000D03*
X155582500Y-126860000D03*
%TD*%
D15*
%TO.C,R62*%
X186520000Y-95800000D03*
X186520000Y-93975000D03*
%TD*%
D16*
%TO.C,R33*%
X144212500Y-110750000D03*
X146037500Y-110750000D03*
%TD*%
D10*
%TO.C,C36*%
X152675000Y-108450000D03*
X150775000Y-108450000D03*
%TD*%
D12*
%TO.C,H3*%
X82175000Y-136850000D03*
%TD*%
D11*
%TO.C,D5*%
X94912500Y-110987500D03*
X94912500Y-109112500D03*
%TD*%
D16*
%TO.C,R57*%
X178657500Y-112857500D03*
X180482500Y-112857500D03*
%TD*%
%TO.C,R49*%
X186332500Y-112857500D03*
X188157500Y-112857500D03*
%TD*%
D14*
%TO.C,C17*%
X119425000Y-103600000D03*
X119425000Y-101700000D03*
%TD*%
%TO.C,C25*%
X155225000Y-89400000D03*
X155225000Y-87500000D03*
%TD*%
D10*
%TO.C,C29*%
X154000000Y-74175000D03*
X152100000Y-74175000D03*
%TD*%
D33*
%TO.C,Y1*%
X119875000Y-97600000D03*
X114995000Y-97600000D03*
%TD*%
D16*
%TO.C,R18*%
X142957500Y-129360000D03*
X144782500Y-129360000D03*
%TD*%
D34*
%TO.C,C28*%
X156525000Y-72900000D03*
X160125000Y-72900000D03*
%TD*%
D15*
%TO.C,R26*%
X151825000Y-88112500D03*
X151825000Y-86287500D03*
%TD*%
D17*
%TO.C,D15*%
X205225000Y-120417500D03*
X205225000Y-122292500D03*
%TD*%
D15*
%TO.C,R55*%
X173870000Y-126172500D03*
X173870000Y-124347500D03*
%TD*%
D11*
%TO.C,D16*%
X205225000Y-126487500D03*
X205225000Y-124612500D03*
%TD*%
D15*
%TO.C,R43*%
X124825000Y-85112500D03*
X124825000Y-83287500D03*
%TD*%
D18*
%TO.C,C3*%
X111025000Y-110200000D03*
X111025000Y-112100000D03*
%TD*%
D10*
%TO.C,C14*%
X124275000Y-125850000D03*
X122375000Y-125850000D03*
%TD*%
D28*
%TO.C,R52*%
X201780000Y-109640000D03*
X201780000Y-111465000D03*
%TD*%
D13*
%TO.C,U5*%
X147220000Y-105975000D03*
X148490000Y-105975000D03*
X149760000Y-105975000D03*
X151030000Y-105975000D03*
X151030000Y-101025000D03*
X149760000Y-101025000D03*
X148490000Y-101025000D03*
X147220000Y-101025000D03*
%TD*%
D16*
%TO.C,R31*%
X163100000Y-75550000D03*
X164925000Y-75550000D03*
%TD*%
D24*
%TO.C,R15*%
X104337500Y-105050000D03*
X102512500Y-105050000D03*
%TD*%
D10*
%TO.C,C26*%
X156575000Y-84750000D03*
X154675000Y-84750000D03*
%TD*%
D15*
%TO.C,R30*%
X149025000Y-83612500D03*
X149025000Y-81787500D03*
%TD*%
%TO.C,R45*%
X127625000Y-90862500D03*
X127625000Y-89037500D03*
%TD*%
%TO.C,R54*%
X187070000Y-120985000D03*
X187070000Y-119160000D03*
%TD*%
D17*
%TO.C,D13*%
X205225000Y-112512500D03*
X205225000Y-114387500D03*
%TD*%
D15*
%TO.C,R61*%
X184020000Y-93550000D03*
X184020000Y-91725000D03*
%TD*%
D14*
%TO.C,C12*%
X125925000Y-111300000D03*
X125925000Y-109400000D03*
%TD*%
D19*
%TO.C,C33*%
X158470000Y-105975000D03*
X162870000Y-105975000D03*
%TD*%
M02*
