%TF.GenerationSoftware,KiCad,Pcbnew,8.0.4-8.0.4-0~ubuntu22.04.1*%
%TF.CreationDate,2024-08-18T20:01:04-04:00*%
%TF.ProjectId,CS4272-CZZ_Breakout_Board,43533432-3732-42d4-935a-5a5f42726561,rev?*%
%TF.SameCoordinates,Original*%
%TF.FileFunction,Drillmap*%
%TF.FilePolarity,Positive*%
%FSLAX45Y45*%
G04 Gerber Fmt 4.5, Leading zero omitted, Abs format (unit mm)*
G04 Created by KiCad (PCBNEW 8.0.4-8.0.4-0~ubuntu22.04.1) date 2024-08-18 20:01:04*
%MOMM*%
%LPD*%
G01*
G04 APERTURE LIST*
%ADD10C,0.050000*%
%ADD11C,0.200000*%
%ADD12C,0.100000*%
G04 APERTURE END LIST*
D10*
X21732500Y-6135000D02*
G75*
G02*
X22032500Y-6435000I0J-300000D01*
G01*
X8217500Y-6135000D02*
X21732500Y-6135000D01*
X22032500Y-13685000D02*
X22032500Y-6435000D01*
X22032500Y-13685000D02*
G75*
G02*
X21732500Y-13985000I-300000J0D01*
G01*
X8217500Y-13985000D02*
G75*
G02*
X7917500Y-13685000I0J300000D01*
G01*
X7917500Y-13685000D02*
X7917500Y-6435000D01*
X8217500Y-13985000D02*
X21732500Y-13985000D01*
X7917500Y-6435000D02*
G75*
G02*
X8217500Y-6135000I300000J0D01*
G01*
D11*
D12*
X9525000Y-11485000D02*
X9555000Y-11515000D01*
X9555000Y-11485000D02*
X9525000Y-11515000D01*
X9525000Y-12295000D02*
X9555000Y-12325000D01*
X9555000Y-12295000D02*
X9525000Y-12325000D01*
X9525000Y-12705000D02*
X9555000Y-12735000D01*
X9555000Y-12705000D02*
X9525000Y-12735000D01*
X9535000Y-11055000D02*
X9565000Y-11085000D01*
X9565000Y-11055000D02*
X9535000Y-11085000D01*
X9545000Y-10585000D02*
X9575000Y-10615000D01*
X9575000Y-10585000D02*
X9545000Y-10615000D01*
X10537500Y-10750000D02*
X10567500Y-10780000D01*
X10567500Y-10750000D02*
X10537500Y-10780000D01*
X10637500Y-12500000D02*
X10667500Y-12530000D01*
X10667500Y-12500000D02*
X10637500Y-12530000D01*
X10717500Y-11535000D02*
X10747500Y-11565000D01*
X10747500Y-11535000D02*
X10717500Y-11565000D01*
X10905000Y-11105000D02*
X10935000Y-11135000D01*
X10935000Y-11105000D02*
X10905000Y-11135000D01*
X10975000Y-13040000D02*
X11005000Y-13070000D01*
X11005000Y-13040000D02*
X10975000Y-13070000D01*
X11032500Y-12195000D02*
X11062500Y-12225000D01*
X11062500Y-12195000D02*
X11032500Y-12225000D01*
X11215000Y-11765000D02*
X11245000Y-11795000D01*
X11245000Y-11765000D02*
X11215000Y-11795000D01*
X11295000Y-9105000D02*
X11325000Y-9135000D01*
X11325000Y-9105000D02*
X11295000Y-9135000D01*
X11345000Y-10155000D02*
X11375000Y-10185000D01*
X11375000Y-10155000D02*
X11345000Y-10185000D01*
X11395000Y-12557500D02*
X11425000Y-12587500D01*
X11425000Y-12557500D02*
X11395000Y-12587500D01*
X11507500Y-11130000D02*
X11537500Y-11160000D01*
X11537500Y-11130000D02*
X11507500Y-11160000D01*
X11507500Y-11305000D02*
X11537500Y-11335000D01*
X11537500Y-11305000D02*
X11507500Y-11335000D01*
X11517500Y-12050000D02*
X11547500Y-12080000D01*
X11547500Y-12050000D02*
X11517500Y-12080000D01*
X11687500Y-11565000D02*
X11717500Y-11595000D01*
X11717500Y-11565000D02*
X11687500Y-11595000D01*
X11687500Y-11805000D02*
X11717500Y-11835000D01*
X11717500Y-11805000D02*
X11687500Y-11835000D01*
X11755000Y-12917500D02*
X11785000Y-12947500D01*
X11785000Y-12917500D02*
X11755000Y-12947500D01*
X11927500Y-7130000D02*
X11957500Y-7160000D01*
X11957500Y-7130000D02*
X11927500Y-7160000D01*
X12017500Y-8700000D02*
X12047500Y-8730000D01*
X12047500Y-8700000D02*
X12017500Y-8730000D01*
X12087500Y-10550000D02*
X12117500Y-10580000D01*
X12117500Y-10550000D02*
X12087500Y-10580000D01*
X12105000Y-10155000D02*
X12135000Y-10185000D01*
X12135000Y-10155000D02*
X12105000Y-10185000D01*
X12147500Y-11070000D02*
X12177500Y-11100000D01*
X12177500Y-11070000D02*
X12147500Y-11100000D01*
X12190000Y-13367500D02*
X12220000Y-13397500D01*
X12220000Y-13367500D02*
X12190000Y-13397500D01*
X12222500Y-12362500D02*
X12252500Y-12392500D01*
X12252500Y-12362500D02*
X12222500Y-12392500D01*
X12347500Y-6860000D02*
X12377500Y-6890000D01*
X12377500Y-6860000D02*
X12347500Y-6890000D01*
X12357500Y-10270000D02*
X12387500Y-10300000D01*
X12387500Y-10270000D02*
X12357500Y-10300000D01*
X12412500Y-12400000D02*
X12442500Y-12430000D01*
X12442500Y-12400000D02*
X12412500Y-12430000D01*
X12562500Y-11987500D02*
X12592500Y-12017500D01*
X12592500Y-11987500D02*
X12562500Y-12017500D01*
X12637500Y-13370000D02*
X12667500Y-13400000D01*
X12667500Y-13370000D02*
X12637500Y-13400000D01*
X12697500Y-10270000D02*
X12727500Y-10300000D01*
X12727500Y-10270000D02*
X12697500Y-10300000D01*
X12827500Y-7930000D02*
X12857500Y-7960000D01*
X12857500Y-7930000D02*
X12827500Y-7960000D01*
X12827500Y-11420000D02*
X12857500Y-11450000D01*
X12857500Y-11420000D02*
X12827500Y-11450000D01*
X12827500Y-11702500D02*
X12857500Y-11732500D01*
X12857500Y-11702500D02*
X12827500Y-11732500D01*
X12847500Y-12155000D02*
X12877500Y-12185000D01*
X12877500Y-12155000D02*
X12847500Y-12185000D01*
X12857500Y-11925000D02*
X12887500Y-11955000D01*
X12887500Y-11925000D02*
X12857500Y-11955000D01*
X12927500Y-10310000D02*
X12957500Y-10340000D01*
X12957500Y-10310000D02*
X12927500Y-10340000D01*
X12967500Y-12275000D02*
X12997500Y-12305000D01*
X12997500Y-12275000D02*
X12967500Y-12305000D01*
X13057500Y-11925000D02*
X13087500Y-11955000D01*
X13087500Y-11925000D02*
X13057500Y-11955000D01*
X13165000Y-8715000D02*
X13195000Y-8745000D01*
X13195000Y-8715000D02*
X13165000Y-8745000D01*
X13267500Y-7540000D02*
X13297500Y-7570000D01*
X13297500Y-7540000D02*
X13267500Y-7570000D01*
X13287500Y-10050000D02*
X13317500Y-10080000D01*
X13317500Y-10050000D02*
X13287500Y-10080000D01*
X13407500Y-10750000D02*
X13437500Y-10780000D01*
X13437500Y-10750000D02*
X13407500Y-10780000D01*
X13587500Y-7740000D02*
X13617500Y-7770000D01*
X13617500Y-7740000D02*
X13587500Y-7770000D01*
X13607500Y-11795000D02*
X13637500Y-11825000D01*
X13637500Y-11795000D02*
X13607500Y-11825000D01*
X13697500Y-12150000D02*
X13727500Y-12180000D01*
X13727500Y-12150000D02*
X13697500Y-12180000D01*
X13747500Y-8780000D02*
X13777500Y-8810000D01*
X13777500Y-8780000D02*
X13747500Y-8810000D01*
X13777500Y-11625000D02*
X13807500Y-11655000D01*
X13807500Y-11625000D02*
X13777500Y-11655000D01*
X13917500Y-12150000D02*
X13947500Y-12180000D01*
X13947500Y-12150000D02*
X13917500Y-12180000D01*
X14017500Y-12340000D02*
X14047500Y-12370000D01*
X14047500Y-12340000D02*
X14017500Y-12370000D01*
X14017500Y-12540000D02*
X14047500Y-12570000D01*
X14047500Y-12540000D02*
X14017500Y-12570000D01*
X14082500Y-11270000D02*
X14112500Y-11300000D01*
X14112500Y-11270000D02*
X14082500Y-11300000D01*
X14082500Y-11450000D02*
X14112500Y-11480000D01*
X14112500Y-11450000D02*
X14082500Y-11480000D01*
X14107500Y-9070000D02*
X14137500Y-9100000D01*
X14137500Y-9070000D02*
X14107500Y-9100000D01*
X14107500Y-9470000D02*
X14137500Y-9500000D01*
X14137500Y-9470000D02*
X14107500Y-9500000D01*
X14157500Y-12190000D02*
X14187500Y-12220000D01*
X14187500Y-12190000D02*
X14157500Y-12220000D01*
X14220000Y-10635000D02*
X14250000Y-10665000D01*
X14250000Y-10635000D02*
X14220000Y-10665000D01*
X14247500Y-9920000D02*
X14277500Y-9950000D01*
X14277500Y-9920000D02*
X14247500Y-9950000D01*
X14297500Y-12670000D02*
X14327500Y-12700000D01*
X14327500Y-12670000D02*
X14297500Y-12700000D01*
X14417500Y-10635000D02*
X14447500Y-10665000D01*
X14447500Y-10635000D02*
X14417500Y-10665000D01*
X14447500Y-8850000D02*
X14477500Y-8880000D01*
X14477500Y-8850000D02*
X14447500Y-8880000D01*
X14482500Y-12620000D02*
X14512500Y-12650000D01*
X14512500Y-12620000D02*
X14482500Y-12650000D01*
X14647500Y-7270000D02*
X14677500Y-7300000D01*
X14677500Y-7270000D02*
X14647500Y-7300000D01*
X14997500Y-7375000D02*
X15027500Y-7405000D01*
X15027500Y-7375000D02*
X14997500Y-7405000D01*
X15002000Y-12481000D02*
X15032000Y-12511000D01*
X15032000Y-12481000D02*
X15002000Y-12511000D01*
X15032000Y-10382500D02*
X15062000Y-10412500D01*
X15062000Y-10382500D02*
X15032000Y-10412500D01*
X15077500Y-7210000D02*
X15107500Y-7240000D01*
X15107500Y-7210000D02*
X15077500Y-7240000D01*
X15097500Y-7975000D02*
X15127500Y-8005000D01*
X15127500Y-7975000D02*
X15097500Y-8005000D01*
X15227500Y-11665000D02*
X15257500Y-11695000D01*
X15257500Y-11665000D02*
X15227500Y-11695000D01*
X15227500Y-11855000D02*
X15257500Y-11885000D01*
X15257500Y-11855000D02*
X15227500Y-11885000D01*
X15297500Y-8465000D02*
X15327500Y-8495000D01*
X15327500Y-8465000D02*
X15297500Y-8495000D01*
X15437500Y-10750000D02*
X15467500Y-10780000D01*
X15467500Y-10750000D02*
X15437500Y-10780000D01*
X15507500Y-9080000D02*
X15537500Y-9110000D01*
X15537500Y-9080000D02*
X15507500Y-9110000D01*
X15547500Y-10860000D02*
X15577500Y-10890000D01*
X15577500Y-10860000D02*
X15547500Y-10890000D01*
X15647500Y-10210000D02*
X15677500Y-10240000D01*
X15677500Y-10210000D02*
X15647500Y-10240000D01*
X15677500Y-12290000D02*
X15707500Y-12320000D01*
X15707500Y-12290000D02*
X15677500Y-12320000D01*
X15797500Y-8015000D02*
X15827500Y-8045000D01*
X15827500Y-8015000D02*
X15797500Y-8045000D01*
X16065000Y-10215000D02*
X16095000Y-10245000D01*
X16095000Y-10215000D02*
X16065000Y-10245000D01*
X16087500Y-12290000D02*
X16117500Y-12320000D01*
X16117500Y-12290000D02*
X16087500Y-12320000D01*
X16147500Y-8015000D02*
X16177500Y-8045000D01*
X16177500Y-8015000D02*
X16147500Y-8045000D01*
X16295000Y-7715000D02*
X16325000Y-7745000D01*
X16325000Y-7715000D02*
X16295000Y-7745000D01*
X16460000Y-11227500D02*
X16490000Y-11257500D01*
X16490000Y-11227500D02*
X16460000Y-11257500D01*
X16500000Y-8352500D02*
X16530000Y-8382500D01*
X16530000Y-8352500D02*
X16500000Y-8382500D01*
X16900000Y-9912500D02*
X16930000Y-9942500D01*
X16930000Y-9912500D02*
X16900000Y-9942500D01*
X16900000Y-10487500D02*
X16930000Y-10517500D01*
X16930000Y-10487500D02*
X16900000Y-10517500D01*
X16920000Y-12580000D02*
X16950000Y-12610000D01*
X16950000Y-12580000D02*
X16920000Y-12610000D01*
X16927500Y-8680000D02*
X16957500Y-8710000D01*
X16957500Y-8680000D02*
X16927500Y-8710000D01*
X16947500Y-12027500D02*
X16977500Y-12057500D01*
X16977500Y-12027500D02*
X16947500Y-12057500D01*
X17077500Y-7130000D02*
X17107500Y-7160000D01*
X17107500Y-7130000D02*
X17077500Y-7160000D01*
X17282000Y-12070000D02*
X17312000Y-12100000D01*
X17312000Y-12070000D02*
X17282000Y-12100000D01*
X17372500Y-12785000D02*
X17402500Y-12815000D01*
X17402500Y-12785000D02*
X17372500Y-12815000D01*
X17382500Y-10670000D02*
X17412500Y-10700000D01*
X17412500Y-10670000D02*
X17382500Y-10700000D01*
X17432500Y-12070000D02*
X17462500Y-12100000D01*
X17462500Y-12070000D02*
X17432500Y-12100000D01*
X17594500Y-10279000D02*
X17624500Y-10309000D01*
X17624500Y-10279000D02*
X17594500Y-10309000D01*
X17617500Y-10410000D02*
X17647500Y-10440000D01*
X17647500Y-10410000D02*
X17617500Y-10440000D01*
X18022500Y-12482500D02*
X18052500Y-12512500D01*
X18052500Y-12482500D02*
X18022500Y-12512500D01*
X18082500Y-10470000D02*
X18112500Y-10500000D01*
X18112500Y-10470000D02*
X18082500Y-10500000D01*
X18175000Y-9412500D02*
X18205000Y-9442500D01*
X18205000Y-9412500D02*
X18175000Y-9442500D01*
X18202000Y-11507250D02*
X18232000Y-11537250D01*
X18232000Y-11507250D02*
X18202000Y-11537250D01*
X18232500Y-10620000D02*
X18262500Y-10650000D01*
X18262500Y-10620000D02*
X18232500Y-10650000D01*
X18527500Y-12080000D02*
X18557500Y-12110000D01*
X18557500Y-12080000D02*
X18527500Y-12110000D01*
X18542500Y-12702500D02*
X18572500Y-12732500D01*
X18572500Y-12702500D02*
X18542500Y-12732500D01*
X18690000Y-10547500D02*
X18720000Y-10577500D01*
X18720000Y-10547500D02*
X18690000Y-10577500D01*
X18807500Y-8620000D02*
X18837500Y-8650000D01*
X18837500Y-8620000D02*
X18807500Y-8650000D01*
X18807500Y-8915000D02*
X18837500Y-8945000D01*
X18837500Y-8915000D02*
X18807500Y-8945000D01*
X19237500Y-8102500D02*
X19267500Y-8132500D01*
X19267500Y-8102500D02*
X19237500Y-8132500D01*
X19482500Y-9720000D02*
X19512500Y-9750000D01*
X19512500Y-9720000D02*
X19482500Y-9750000D01*
X19482500Y-9895000D02*
X19512500Y-9925000D01*
X19512500Y-9895000D02*
X19482500Y-9925000D01*
X19507500Y-12080000D02*
X19537500Y-12110000D01*
X19537500Y-12080000D02*
X19507500Y-12110000D01*
X19657500Y-10045000D02*
X19687500Y-10075000D01*
X19687500Y-10045000D02*
X19657500Y-10075000D01*
X19697500Y-11585000D02*
X19727500Y-11615000D01*
X19727500Y-11585000D02*
X19697500Y-11615000D01*
X19737500Y-9495000D02*
X19767500Y-9525000D01*
X19767500Y-9495000D02*
X19737500Y-9525000D01*
X19847500Y-11735000D02*
X19877500Y-11765000D01*
X19877500Y-11735000D02*
X19847500Y-11765000D01*
X19867500Y-10225000D02*
X19897500Y-10255000D01*
X19897500Y-10225000D02*
X19867500Y-10255000D01*
X19877500Y-11415000D02*
X19907500Y-11445000D01*
X19907500Y-11415000D02*
X19877500Y-11445000D01*
X20017500Y-10385000D02*
X20047500Y-10415000D01*
X20047500Y-10385000D02*
X20017500Y-10415000D01*
X20017500Y-11265000D02*
X20047500Y-11295000D01*
X20047500Y-11265000D02*
X20017500Y-11295000D01*
X20027500Y-11565000D02*
X20057500Y-11595000D01*
X20057500Y-11565000D02*
X20027500Y-11595000D01*
X20127500Y-12295000D02*
X20157500Y-12325000D01*
X20157500Y-12295000D02*
X20127500Y-12325000D01*
X20177500Y-9925000D02*
X20207500Y-9955000D01*
X20207500Y-9925000D02*
X20177500Y-9955000D01*
X20177500Y-11425000D02*
X20207500Y-11455000D01*
X20207500Y-11425000D02*
X20177500Y-11455000D01*
X20282500Y-12450000D02*
X20312500Y-12480000D01*
X20312500Y-12450000D02*
X20282500Y-12480000D01*
X20327500Y-10075000D02*
X20357500Y-10105000D01*
X20357500Y-10075000D02*
X20327500Y-10105000D01*
X20675000Y-12640000D02*
X20705000Y-12670000D01*
X20705000Y-12640000D02*
X20675000Y-12670000D01*
X20685000Y-11965000D02*
X20715000Y-11995000D01*
X20715000Y-11965000D02*
X20685000Y-11995000D01*
X20705000Y-9945000D02*
X20735000Y-9975000D01*
X20735000Y-9945000D02*
X20705000Y-9975000D01*
X20705000Y-10465000D02*
X20735000Y-10495000D01*
X20735000Y-10465000D02*
X20705000Y-10495000D01*
X20705000Y-11195000D02*
X20735000Y-11225000D01*
X20735000Y-11195000D02*
X20705000Y-11225000D01*
X11539500Y-9760000D02*
G75*
G02*
X11459500Y-9760000I-40000J0D01*
G01*
X11459500Y-9760000D02*
G75*
G02*
X11539500Y-9760000I40000J0D01*
G01*
X12027500Y-9760000D02*
G75*
G02*
X11947500Y-9760000I-40000J0D01*
G01*
X11947500Y-9760000D02*
G75*
G02*
X12027500Y-9760000I40000J0D01*
G01*
X9100000Y-9360000D02*
X9100000Y-9460000D01*
X9050000Y-9410000D02*
X9150000Y-9410000D01*
X9100000Y-9614000D02*
X9100000Y-9714000D01*
X9050000Y-9664000D02*
X9150000Y-9664000D01*
X9100000Y-9868000D02*
X9100000Y-9968000D01*
X9050000Y-9918000D02*
X9150000Y-9918000D01*
X9100000Y-10122000D02*
X9100000Y-10222000D01*
X9050000Y-10172000D02*
X9150000Y-10172000D01*
X9100000Y-10376000D02*
X9100000Y-10476000D01*
X9050000Y-10426000D02*
X9150000Y-10426000D01*
X9100000Y-10630000D02*
X9100000Y-10730000D01*
X9050000Y-10680000D02*
X9150000Y-10680000D01*
X9100000Y-10884000D02*
X9100000Y-10984000D01*
X9050000Y-10934000D02*
X9150000Y-10934000D01*
X9100000Y-11138000D02*
X9100000Y-11238000D01*
X9050000Y-11188000D02*
X9150000Y-11188000D01*
X9100000Y-11392000D02*
X9100000Y-11492000D01*
X9050000Y-11442000D02*
X9150000Y-11442000D01*
X9100000Y-11646000D02*
X9100000Y-11746000D01*
X9050000Y-11696000D02*
X9150000Y-11696000D01*
X9100000Y-11900000D02*
X9100000Y-12000000D01*
X9050000Y-11950000D02*
X9150000Y-11950000D01*
X9100000Y-12154000D02*
X9100000Y-12254000D01*
X9050000Y-12204000D02*
X9150000Y-12204000D01*
X9100000Y-12408000D02*
X9100000Y-12508000D01*
X9050000Y-12458000D02*
X9150000Y-12458000D01*
X9100000Y-12662000D02*
X9100000Y-12762000D01*
X9050000Y-12712000D02*
X9150000Y-12712000D01*
X21150625Y-9884750D02*
X21150625Y-9984750D01*
X21100625Y-9934750D02*
X21200625Y-9934750D01*
X21150625Y-10138750D02*
X21150625Y-10238750D01*
X21100625Y-10188750D02*
X21200625Y-10188750D01*
X21150625Y-10392750D02*
X21150625Y-10492750D01*
X21100625Y-10442750D02*
X21200625Y-10442750D01*
X21150625Y-10646750D02*
X21150625Y-10746750D01*
X21100625Y-10696750D02*
X21200625Y-10696750D01*
X21150625Y-10900750D02*
X21150625Y-11000750D01*
X21100625Y-10950750D02*
X21200625Y-10950750D01*
X21150625Y-11154750D02*
X21150625Y-11254750D01*
X21100625Y-11204750D02*
X21200625Y-11204750D01*
X21150625Y-11408750D02*
X21150625Y-11508750D01*
X21100625Y-11458750D02*
X21200625Y-11458750D01*
X21150625Y-11662750D02*
X21150625Y-11762750D01*
X21100625Y-11712750D02*
X21200625Y-11712750D01*
X21150625Y-11916750D02*
X21150625Y-12016750D01*
X21100625Y-11966750D02*
X21200625Y-11966750D01*
X21150625Y-12170750D02*
X21150625Y-12270750D01*
X21100625Y-12220750D02*
X21200625Y-12220750D01*
X21150625Y-12424750D02*
X21150625Y-12524750D01*
X21100625Y-12474750D02*
X21200625Y-12474750D01*
X21150625Y-12678750D02*
X21150625Y-12778750D01*
X21100625Y-12728750D02*
X21200625Y-12728750D01*
D11*
X8175777Y-14298984D02*
X8175777Y-14098984D01*
X8175777Y-14098984D02*
X8223396Y-14098984D01*
X8223396Y-14098984D02*
X8251967Y-14108508D01*
X8251967Y-14108508D02*
X8271015Y-14127555D01*
X8271015Y-14127555D02*
X8280539Y-14146603D01*
X8280539Y-14146603D02*
X8290062Y-14184698D01*
X8290062Y-14184698D02*
X8290062Y-14213269D01*
X8290062Y-14213269D02*
X8280539Y-14251365D01*
X8280539Y-14251365D02*
X8271015Y-14270412D01*
X8271015Y-14270412D02*
X8251967Y-14289460D01*
X8251967Y-14289460D02*
X8223396Y-14298984D01*
X8223396Y-14298984D02*
X8175777Y-14298984D01*
X8375777Y-14298984D02*
X8375777Y-14165650D01*
X8375777Y-14203746D02*
X8385301Y-14184698D01*
X8385301Y-14184698D02*
X8394824Y-14175174D01*
X8394824Y-14175174D02*
X8413872Y-14165650D01*
X8413872Y-14165650D02*
X8432920Y-14165650D01*
X8499586Y-14298984D02*
X8499586Y-14165650D01*
X8499586Y-14098984D02*
X8490063Y-14108508D01*
X8490063Y-14108508D02*
X8499586Y-14118031D01*
X8499586Y-14118031D02*
X8509110Y-14108508D01*
X8509110Y-14108508D02*
X8499586Y-14098984D01*
X8499586Y-14098984D02*
X8499586Y-14118031D01*
X8623396Y-14298984D02*
X8604348Y-14289460D01*
X8604348Y-14289460D02*
X8594824Y-14270412D01*
X8594824Y-14270412D02*
X8594824Y-14098984D01*
X8728158Y-14298984D02*
X8709110Y-14289460D01*
X8709110Y-14289460D02*
X8699586Y-14270412D01*
X8699586Y-14270412D02*
X8699586Y-14098984D01*
X8956729Y-14298984D02*
X8956729Y-14098984D01*
X8956729Y-14098984D02*
X9023396Y-14241841D01*
X9023396Y-14241841D02*
X9090063Y-14098984D01*
X9090063Y-14098984D02*
X9090063Y-14298984D01*
X9271015Y-14298984D02*
X9271015Y-14194222D01*
X9271015Y-14194222D02*
X9261491Y-14175174D01*
X9261491Y-14175174D02*
X9242444Y-14165650D01*
X9242444Y-14165650D02*
X9204348Y-14165650D01*
X9204348Y-14165650D02*
X9185301Y-14175174D01*
X9271015Y-14289460D02*
X9251967Y-14298984D01*
X9251967Y-14298984D02*
X9204348Y-14298984D01*
X9204348Y-14298984D02*
X9185301Y-14289460D01*
X9185301Y-14289460D02*
X9175777Y-14270412D01*
X9175777Y-14270412D02*
X9175777Y-14251365D01*
X9175777Y-14251365D02*
X9185301Y-14232317D01*
X9185301Y-14232317D02*
X9204348Y-14222793D01*
X9204348Y-14222793D02*
X9251967Y-14222793D01*
X9251967Y-14222793D02*
X9271015Y-14213269D01*
X9366253Y-14165650D02*
X9366253Y-14365650D01*
X9366253Y-14175174D02*
X9385301Y-14165650D01*
X9385301Y-14165650D02*
X9423396Y-14165650D01*
X9423396Y-14165650D02*
X9442444Y-14175174D01*
X9442444Y-14175174D02*
X9451967Y-14184698D01*
X9451967Y-14184698D02*
X9461491Y-14203746D01*
X9461491Y-14203746D02*
X9461491Y-14260888D01*
X9461491Y-14260888D02*
X9451967Y-14279936D01*
X9451967Y-14279936D02*
X9442444Y-14289460D01*
X9442444Y-14289460D02*
X9423396Y-14298984D01*
X9423396Y-14298984D02*
X9385301Y-14298984D01*
X9385301Y-14298984D02*
X9366253Y-14289460D01*
X9547205Y-14279936D02*
X9556729Y-14289460D01*
X9556729Y-14289460D02*
X9547205Y-14298984D01*
X9547205Y-14298984D02*
X9537682Y-14289460D01*
X9537682Y-14289460D02*
X9547205Y-14279936D01*
X9547205Y-14279936D02*
X9547205Y-14298984D01*
X9547205Y-14175174D02*
X9556729Y-14184698D01*
X9556729Y-14184698D02*
X9547205Y-14194222D01*
X9547205Y-14194222D02*
X9537682Y-14184698D01*
X9537682Y-14184698D02*
X9547205Y-14175174D01*
X9547205Y-14175174D02*
X9547205Y-14194222D01*
D12*
X7885000Y-14612500D02*
X7915000Y-14642500D01*
X7915000Y-14612500D02*
X7885000Y-14642500D01*
D11*
X8213872Y-14518984D02*
X8232920Y-14518984D01*
X8232920Y-14518984D02*
X8251967Y-14528508D01*
X8251967Y-14528508D02*
X8261491Y-14538031D01*
X8261491Y-14538031D02*
X8271015Y-14557079D01*
X8271015Y-14557079D02*
X8280539Y-14595174D01*
X8280539Y-14595174D02*
X8280539Y-14642793D01*
X8280539Y-14642793D02*
X8271015Y-14680888D01*
X8271015Y-14680888D02*
X8261491Y-14699936D01*
X8261491Y-14699936D02*
X8251967Y-14709460D01*
X8251967Y-14709460D02*
X8232920Y-14718984D01*
X8232920Y-14718984D02*
X8213872Y-14718984D01*
X8213872Y-14718984D02*
X8194824Y-14709460D01*
X8194824Y-14709460D02*
X8185301Y-14699936D01*
X8185301Y-14699936D02*
X8175777Y-14680888D01*
X8175777Y-14680888D02*
X8166253Y-14642793D01*
X8166253Y-14642793D02*
X8166253Y-14595174D01*
X8166253Y-14595174D02*
X8175777Y-14557079D01*
X8175777Y-14557079D02*
X8185301Y-14538031D01*
X8185301Y-14538031D02*
X8194824Y-14528508D01*
X8194824Y-14528508D02*
X8213872Y-14518984D01*
X8366253Y-14699936D02*
X8375777Y-14709460D01*
X8375777Y-14709460D02*
X8366253Y-14718984D01*
X8366253Y-14718984D02*
X8356729Y-14709460D01*
X8356729Y-14709460D02*
X8366253Y-14699936D01*
X8366253Y-14699936D02*
X8366253Y-14718984D01*
X8442444Y-14518984D02*
X8566253Y-14518984D01*
X8566253Y-14518984D02*
X8499586Y-14595174D01*
X8499586Y-14595174D02*
X8528158Y-14595174D01*
X8528158Y-14595174D02*
X8547205Y-14604698D01*
X8547205Y-14604698D02*
X8556729Y-14614222D01*
X8556729Y-14614222D02*
X8566253Y-14633269D01*
X8566253Y-14633269D02*
X8566253Y-14680888D01*
X8566253Y-14680888D02*
X8556729Y-14699936D01*
X8556729Y-14699936D02*
X8547205Y-14709460D01*
X8547205Y-14709460D02*
X8528158Y-14718984D01*
X8528158Y-14718984D02*
X8471015Y-14718984D01*
X8471015Y-14718984D02*
X8451967Y-14709460D01*
X8451967Y-14709460D02*
X8442444Y-14699936D01*
X8690063Y-14518984D02*
X8709110Y-14518984D01*
X8709110Y-14518984D02*
X8728158Y-14528508D01*
X8728158Y-14528508D02*
X8737682Y-14538031D01*
X8737682Y-14538031D02*
X8747205Y-14557079D01*
X8747205Y-14557079D02*
X8756729Y-14595174D01*
X8756729Y-14595174D02*
X8756729Y-14642793D01*
X8756729Y-14642793D02*
X8747205Y-14680888D01*
X8747205Y-14680888D02*
X8737682Y-14699936D01*
X8737682Y-14699936D02*
X8728158Y-14709460D01*
X8728158Y-14709460D02*
X8709110Y-14718984D01*
X8709110Y-14718984D02*
X8690063Y-14718984D01*
X8690063Y-14718984D02*
X8671015Y-14709460D01*
X8671015Y-14709460D02*
X8661491Y-14699936D01*
X8661491Y-14699936D02*
X8651967Y-14680888D01*
X8651967Y-14680888D02*
X8642444Y-14642793D01*
X8642444Y-14642793D02*
X8642444Y-14595174D01*
X8642444Y-14595174D02*
X8651967Y-14557079D01*
X8651967Y-14557079D02*
X8661491Y-14538031D01*
X8661491Y-14538031D02*
X8671015Y-14528508D01*
X8671015Y-14528508D02*
X8690063Y-14518984D01*
X8880539Y-14518984D02*
X8899586Y-14518984D01*
X8899586Y-14518984D02*
X8918634Y-14528508D01*
X8918634Y-14528508D02*
X8928158Y-14538031D01*
X8928158Y-14538031D02*
X8937682Y-14557079D01*
X8937682Y-14557079D02*
X8947205Y-14595174D01*
X8947205Y-14595174D02*
X8947205Y-14642793D01*
X8947205Y-14642793D02*
X8937682Y-14680888D01*
X8937682Y-14680888D02*
X8928158Y-14699936D01*
X8928158Y-14699936D02*
X8918634Y-14709460D01*
X8918634Y-14709460D02*
X8899586Y-14718984D01*
X8899586Y-14718984D02*
X8880539Y-14718984D01*
X8880539Y-14718984D02*
X8861491Y-14709460D01*
X8861491Y-14709460D02*
X8851967Y-14699936D01*
X8851967Y-14699936D02*
X8842444Y-14680888D01*
X8842444Y-14680888D02*
X8832920Y-14642793D01*
X8832920Y-14642793D02*
X8832920Y-14595174D01*
X8832920Y-14595174D02*
X8842444Y-14557079D01*
X8842444Y-14557079D02*
X8851967Y-14538031D01*
X8851967Y-14538031D02*
X8861491Y-14528508D01*
X8861491Y-14528508D02*
X8880539Y-14518984D01*
X9032920Y-14718984D02*
X9032920Y-14585650D01*
X9032920Y-14604698D02*
X9042444Y-14595174D01*
X9042444Y-14595174D02*
X9061491Y-14585650D01*
X9061491Y-14585650D02*
X9090063Y-14585650D01*
X9090063Y-14585650D02*
X9109110Y-14595174D01*
X9109110Y-14595174D02*
X9118634Y-14614222D01*
X9118634Y-14614222D02*
X9118634Y-14718984D01*
X9118634Y-14614222D02*
X9128158Y-14595174D01*
X9128158Y-14595174D02*
X9147205Y-14585650D01*
X9147205Y-14585650D02*
X9175777Y-14585650D01*
X9175777Y-14585650D02*
X9194825Y-14595174D01*
X9194825Y-14595174D02*
X9204348Y-14614222D01*
X9204348Y-14614222D02*
X9204348Y-14718984D01*
X9299586Y-14718984D02*
X9299586Y-14585650D01*
X9299586Y-14604698D02*
X9309110Y-14595174D01*
X9309110Y-14595174D02*
X9328158Y-14585650D01*
X9328158Y-14585650D02*
X9356729Y-14585650D01*
X9356729Y-14585650D02*
X9375777Y-14595174D01*
X9375777Y-14595174D02*
X9385301Y-14614222D01*
X9385301Y-14614222D02*
X9385301Y-14718984D01*
X9385301Y-14614222D02*
X9394825Y-14595174D01*
X9394825Y-14595174D02*
X9413872Y-14585650D01*
X9413872Y-14585650D02*
X9442444Y-14585650D01*
X9442444Y-14585650D02*
X9461491Y-14595174D01*
X9461491Y-14595174D02*
X9471015Y-14614222D01*
X9471015Y-14614222D02*
X9471015Y-14718984D01*
X9861491Y-14509460D02*
X9690063Y-14766603D01*
X10118634Y-14518984D02*
X10137682Y-14518984D01*
X10137682Y-14518984D02*
X10156729Y-14528508D01*
X10156729Y-14528508D02*
X10166253Y-14538031D01*
X10166253Y-14538031D02*
X10175777Y-14557079D01*
X10175777Y-14557079D02*
X10185301Y-14595174D01*
X10185301Y-14595174D02*
X10185301Y-14642793D01*
X10185301Y-14642793D02*
X10175777Y-14680888D01*
X10175777Y-14680888D02*
X10166253Y-14699936D01*
X10166253Y-14699936D02*
X10156729Y-14709460D01*
X10156729Y-14709460D02*
X10137682Y-14718984D01*
X10137682Y-14718984D02*
X10118634Y-14718984D01*
X10118634Y-14718984D02*
X10099587Y-14709460D01*
X10099587Y-14709460D02*
X10090063Y-14699936D01*
X10090063Y-14699936D02*
X10080539Y-14680888D01*
X10080539Y-14680888D02*
X10071015Y-14642793D01*
X10071015Y-14642793D02*
X10071015Y-14595174D01*
X10071015Y-14595174D02*
X10080539Y-14557079D01*
X10080539Y-14557079D02*
X10090063Y-14538031D01*
X10090063Y-14538031D02*
X10099587Y-14528508D01*
X10099587Y-14528508D02*
X10118634Y-14518984D01*
X10271015Y-14699936D02*
X10280539Y-14709460D01*
X10280539Y-14709460D02*
X10271015Y-14718984D01*
X10271015Y-14718984D02*
X10261491Y-14709460D01*
X10261491Y-14709460D02*
X10271015Y-14699936D01*
X10271015Y-14699936D02*
X10271015Y-14718984D01*
X10404348Y-14518984D02*
X10423396Y-14518984D01*
X10423396Y-14518984D02*
X10442444Y-14528508D01*
X10442444Y-14528508D02*
X10451968Y-14538031D01*
X10451968Y-14538031D02*
X10461491Y-14557079D01*
X10461491Y-14557079D02*
X10471015Y-14595174D01*
X10471015Y-14595174D02*
X10471015Y-14642793D01*
X10471015Y-14642793D02*
X10461491Y-14680888D01*
X10461491Y-14680888D02*
X10451968Y-14699936D01*
X10451968Y-14699936D02*
X10442444Y-14709460D01*
X10442444Y-14709460D02*
X10423396Y-14718984D01*
X10423396Y-14718984D02*
X10404348Y-14718984D01*
X10404348Y-14718984D02*
X10385301Y-14709460D01*
X10385301Y-14709460D02*
X10375777Y-14699936D01*
X10375777Y-14699936D02*
X10366253Y-14680888D01*
X10366253Y-14680888D02*
X10356729Y-14642793D01*
X10356729Y-14642793D02*
X10356729Y-14595174D01*
X10356729Y-14595174D02*
X10366253Y-14557079D01*
X10366253Y-14557079D02*
X10375777Y-14538031D01*
X10375777Y-14538031D02*
X10385301Y-14528508D01*
X10385301Y-14528508D02*
X10404348Y-14518984D01*
X10661491Y-14718984D02*
X10547206Y-14718984D01*
X10604348Y-14718984D02*
X10604348Y-14518984D01*
X10604348Y-14518984D02*
X10585301Y-14547555D01*
X10585301Y-14547555D02*
X10566253Y-14566603D01*
X10566253Y-14566603D02*
X10547206Y-14576127D01*
X10851968Y-14718984D02*
X10737682Y-14718984D01*
X10794825Y-14718984D02*
X10794825Y-14518984D01*
X10794825Y-14518984D02*
X10775777Y-14547555D01*
X10775777Y-14547555D02*
X10756729Y-14566603D01*
X10756729Y-14566603D02*
X10737682Y-14576127D01*
X10966253Y-14604698D02*
X10947206Y-14595174D01*
X10947206Y-14595174D02*
X10937682Y-14585650D01*
X10937682Y-14585650D02*
X10928158Y-14566603D01*
X10928158Y-14566603D02*
X10928158Y-14557079D01*
X10928158Y-14557079D02*
X10937682Y-14538031D01*
X10937682Y-14538031D02*
X10947206Y-14528508D01*
X10947206Y-14528508D02*
X10966253Y-14518984D01*
X10966253Y-14518984D02*
X11004349Y-14518984D01*
X11004349Y-14518984D02*
X11023396Y-14528508D01*
X11023396Y-14528508D02*
X11032920Y-14538031D01*
X11032920Y-14538031D02*
X11042444Y-14557079D01*
X11042444Y-14557079D02*
X11042444Y-14566603D01*
X11042444Y-14566603D02*
X11032920Y-14585650D01*
X11032920Y-14585650D02*
X11023396Y-14595174D01*
X11023396Y-14595174D02*
X11004349Y-14604698D01*
X11004349Y-14604698D02*
X10966253Y-14604698D01*
X10966253Y-14604698D02*
X10947206Y-14614222D01*
X10947206Y-14614222D02*
X10937682Y-14623746D01*
X10937682Y-14623746D02*
X10928158Y-14642793D01*
X10928158Y-14642793D02*
X10928158Y-14680888D01*
X10928158Y-14680888D02*
X10937682Y-14699936D01*
X10937682Y-14699936D02*
X10947206Y-14709460D01*
X10947206Y-14709460D02*
X10966253Y-14718984D01*
X10966253Y-14718984D02*
X11004349Y-14718984D01*
X11004349Y-14718984D02*
X11023396Y-14709460D01*
X11023396Y-14709460D02*
X11032920Y-14699936D01*
X11032920Y-14699936D02*
X11042444Y-14680888D01*
X11042444Y-14680888D02*
X11042444Y-14642793D01*
X11042444Y-14642793D02*
X11032920Y-14623746D01*
X11032920Y-14623746D02*
X11023396Y-14614222D01*
X11023396Y-14614222D02*
X11004349Y-14604698D01*
X11118634Y-14518984D02*
X11118634Y-14557079D01*
X11194825Y-14518984D02*
X11194825Y-14557079D01*
X11490063Y-14795174D02*
X11480539Y-14785650D01*
X11480539Y-14785650D02*
X11461491Y-14757079D01*
X11461491Y-14757079D02*
X11451968Y-14738031D01*
X11451968Y-14738031D02*
X11442444Y-14709460D01*
X11442444Y-14709460D02*
X11432920Y-14661841D01*
X11432920Y-14661841D02*
X11432920Y-14623746D01*
X11432920Y-14623746D02*
X11442444Y-14576127D01*
X11442444Y-14576127D02*
X11451968Y-14547555D01*
X11451968Y-14547555D02*
X11461491Y-14528508D01*
X11461491Y-14528508D02*
X11480539Y-14499936D01*
X11480539Y-14499936D02*
X11490063Y-14490412D01*
X11671015Y-14718984D02*
X11556729Y-14718984D01*
X11613872Y-14718984D02*
X11613872Y-14518984D01*
X11613872Y-14518984D02*
X11594825Y-14547555D01*
X11594825Y-14547555D02*
X11575777Y-14566603D01*
X11575777Y-14566603D02*
X11556729Y-14576127D01*
X11737682Y-14518984D02*
X11861491Y-14518984D01*
X11861491Y-14518984D02*
X11794825Y-14595174D01*
X11794825Y-14595174D02*
X11823396Y-14595174D01*
X11823396Y-14595174D02*
X11842444Y-14604698D01*
X11842444Y-14604698D02*
X11851968Y-14614222D01*
X11851968Y-14614222D02*
X11861491Y-14633269D01*
X11861491Y-14633269D02*
X11861491Y-14680888D01*
X11861491Y-14680888D02*
X11851968Y-14699936D01*
X11851968Y-14699936D02*
X11842444Y-14709460D01*
X11842444Y-14709460D02*
X11823396Y-14718984D01*
X11823396Y-14718984D02*
X11766253Y-14718984D01*
X11766253Y-14718984D02*
X11747206Y-14709460D01*
X11747206Y-14709460D02*
X11737682Y-14699936D01*
X12051968Y-14718984D02*
X11937682Y-14718984D01*
X11994825Y-14718984D02*
X11994825Y-14518984D01*
X11994825Y-14518984D02*
X11975777Y-14547555D01*
X11975777Y-14547555D02*
X11956729Y-14566603D01*
X11956729Y-14566603D02*
X11937682Y-14576127D01*
X12290063Y-14718984D02*
X12290063Y-14518984D01*
X12375777Y-14718984D02*
X12375777Y-14614222D01*
X12375777Y-14614222D02*
X12366253Y-14595174D01*
X12366253Y-14595174D02*
X12347206Y-14585650D01*
X12347206Y-14585650D02*
X12318634Y-14585650D01*
X12318634Y-14585650D02*
X12299587Y-14595174D01*
X12299587Y-14595174D02*
X12290063Y-14604698D01*
X12499587Y-14718984D02*
X12480539Y-14709460D01*
X12480539Y-14709460D02*
X12471015Y-14699936D01*
X12471015Y-14699936D02*
X12461491Y-14680888D01*
X12461491Y-14680888D02*
X12461491Y-14623746D01*
X12461491Y-14623746D02*
X12471015Y-14604698D01*
X12471015Y-14604698D02*
X12480539Y-14595174D01*
X12480539Y-14595174D02*
X12499587Y-14585650D01*
X12499587Y-14585650D02*
X12528158Y-14585650D01*
X12528158Y-14585650D02*
X12547206Y-14595174D01*
X12547206Y-14595174D02*
X12556730Y-14604698D01*
X12556730Y-14604698D02*
X12566253Y-14623746D01*
X12566253Y-14623746D02*
X12566253Y-14680888D01*
X12566253Y-14680888D02*
X12556730Y-14699936D01*
X12556730Y-14699936D02*
X12547206Y-14709460D01*
X12547206Y-14709460D02*
X12528158Y-14718984D01*
X12528158Y-14718984D02*
X12499587Y-14718984D01*
X12680539Y-14718984D02*
X12661491Y-14709460D01*
X12661491Y-14709460D02*
X12651968Y-14690412D01*
X12651968Y-14690412D02*
X12651968Y-14518984D01*
X12832920Y-14709460D02*
X12813872Y-14718984D01*
X12813872Y-14718984D02*
X12775777Y-14718984D01*
X12775777Y-14718984D02*
X12756730Y-14709460D01*
X12756730Y-14709460D02*
X12747206Y-14690412D01*
X12747206Y-14690412D02*
X12747206Y-14614222D01*
X12747206Y-14614222D02*
X12756730Y-14595174D01*
X12756730Y-14595174D02*
X12775777Y-14585650D01*
X12775777Y-14585650D02*
X12813872Y-14585650D01*
X12813872Y-14585650D02*
X12832920Y-14595174D01*
X12832920Y-14595174D02*
X12842444Y-14614222D01*
X12842444Y-14614222D02*
X12842444Y-14633269D01*
X12842444Y-14633269D02*
X12747206Y-14652317D01*
X12918634Y-14709460D02*
X12937682Y-14718984D01*
X12937682Y-14718984D02*
X12975777Y-14718984D01*
X12975777Y-14718984D02*
X12994825Y-14709460D01*
X12994825Y-14709460D02*
X13004349Y-14690412D01*
X13004349Y-14690412D02*
X13004349Y-14680888D01*
X13004349Y-14680888D02*
X12994825Y-14661841D01*
X12994825Y-14661841D02*
X12975777Y-14652317D01*
X12975777Y-14652317D02*
X12947206Y-14652317D01*
X12947206Y-14652317D02*
X12928158Y-14642793D01*
X12928158Y-14642793D02*
X12918634Y-14623746D01*
X12918634Y-14623746D02*
X12918634Y-14614222D01*
X12918634Y-14614222D02*
X12928158Y-14595174D01*
X12928158Y-14595174D02*
X12947206Y-14585650D01*
X12947206Y-14585650D02*
X12975777Y-14585650D01*
X12975777Y-14585650D02*
X12994825Y-14595174D01*
X13071015Y-14795174D02*
X13080539Y-14785650D01*
X13080539Y-14785650D02*
X13099587Y-14757079D01*
X13099587Y-14757079D02*
X13109111Y-14738031D01*
X13109111Y-14738031D02*
X13118634Y-14709460D01*
X13118634Y-14709460D02*
X13128158Y-14661841D01*
X13128158Y-14661841D02*
X13128158Y-14623746D01*
X13128158Y-14623746D02*
X13118634Y-14576127D01*
X13118634Y-14576127D02*
X13109111Y-14547555D01*
X13109111Y-14547555D02*
X13099587Y-14528508D01*
X13099587Y-14528508D02*
X13080539Y-14499936D01*
X13080539Y-14499936D02*
X13071015Y-14490412D01*
D12*
X7915000Y-14891500D02*
G75*
G02*
X7835000Y-14891500I-40000J0D01*
G01*
X7835000Y-14891500D02*
G75*
G02*
X7915000Y-14891500I40000J0D01*
G01*
D11*
X8213872Y-14782984D02*
X8232920Y-14782984D01*
X8232920Y-14782984D02*
X8251967Y-14792508D01*
X8251967Y-14792508D02*
X8261491Y-14802031D01*
X8261491Y-14802031D02*
X8271015Y-14821079D01*
X8271015Y-14821079D02*
X8280539Y-14859174D01*
X8280539Y-14859174D02*
X8280539Y-14906793D01*
X8280539Y-14906793D02*
X8271015Y-14944888D01*
X8271015Y-14944888D02*
X8261491Y-14963936D01*
X8261491Y-14963936D02*
X8251967Y-14973460D01*
X8251967Y-14973460D02*
X8232920Y-14982984D01*
X8232920Y-14982984D02*
X8213872Y-14982984D01*
X8213872Y-14982984D02*
X8194824Y-14973460D01*
X8194824Y-14973460D02*
X8185301Y-14963936D01*
X8185301Y-14963936D02*
X8175777Y-14944888D01*
X8175777Y-14944888D02*
X8166253Y-14906793D01*
X8166253Y-14906793D02*
X8166253Y-14859174D01*
X8166253Y-14859174D02*
X8175777Y-14821079D01*
X8175777Y-14821079D02*
X8185301Y-14802031D01*
X8185301Y-14802031D02*
X8194824Y-14792508D01*
X8194824Y-14792508D02*
X8213872Y-14782984D01*
X8366253Y-14963936D02*
X8375777Y-14973460D01*
X8375777Y-14973460D02*
X8366253Y-14982984D01*
X8366253Y-14982984D02*
X8356729Y-14973460D01*
X8356729Y-14973460D02*
X8366253Y-14963936D01*
X8366253Y-14963936D02*
X8366253Y-14982984D01*
X8490063Y-14868698D02*
X8471015Y-14859174D01*
X8471015Y-14859174D02*
X8461491Y-14849650D01*
X8461491Y-14849650D02*
X8451967Y-14830603D01*
X8451967Y-14830603D02*
X8451967Y-14821079D01*
X8451967Y-14821079D02*
X8461491Y-14802031D01*
X8461491Y-14802031D02*
X8471015Y-14792508D01*
X8471015Y-14792508D02*
X8490063Y-14782984D01*
X8490063Y-14782984D02*
X8528158Y-14782984D01*
X8528158Y-14782984D02*
X8547205Y-14792508D01*
X8547205Y-14792508D02*
X8556729Y-14802031D01*
X8556729Y-14802031D02*
X8566253Y-14821079D01*
X8566253Y-14821079D02*
X8566253Y-14830603D01*
X8566253Y-14830603D02*
X8556729Y-14849650D01*
X8556729Y-14849650D02*
X8547205Y-14859174D01*
X8547205Y-14859174D02*
X8528158Y-14868698D01*
X8528158Y-14868698D02*
X8490063Y-14868698D01*
X8490063Y-14868698D02*
X8471015Y-14878222D01*
X8471015Y-14878222D02*
X8461491Y-14887746D01*
X8461491Y-14887746D02*
X8451967Y-14906793D01*
X8451967Y-14906793D02*
X8451967Y-14944888D01*
X8451967Y-14944888D02*
X8461491Y-14963936D01*
X8461491Y-14963936D02*
X8471015Y-14973460D01*
X8471015Y-14973460D02*
X8490063Y-14982984D01*
X8490063Y-14982984D02*
X8528158Y-14982984D01*
X8528158Y-14982984D02*
X8547205Y-14973460D01*
X8547205Y-14973460D02*
X8556729Y-14963936D01*
X8556729Y-14963936D02*
X8566253Y-14944888D01*
X8566253Y-14944888D02*
X8566253Y-14906793D01*
X8566253Y-14906793D02*
X8556729Y-14887746D01*
X8556729Y-14887746D02*
X8547205Y-14878222D01*
X8547205Y-14878222D02*
X8528158Y-14868698D01*
X8690063Y-14782984D02*
X8709110Y-14782984D01*
X8709110Y-14782984D02*
X8728158Y-14792508D01*
X8728158Y-14792508D02*
X8737682Y-14802031D01*
X8737682Y-14802031D02*
X8747205Y-14821079D01*
X8747205Y-14821079D02*
X8756729Y-14859174D01*
X8756729Y-14859174D02*
X8756729Y-14906793D01*
X8756729Y-14906793D02*
X8747205Y-14944888D01*
X8747205Y-14944888D02*
X8737682Y-14963936D01*
X8737682Y-14963936D02*
X8728158Y-14973460D01*
X8728158Y-14973460D02*
X8709110Y-14982984D01*
X8709110Y-14982984D02*
X8690063Y-14982984D01*
X8690063Y-14982984D02*
X8671015Y-14973460D01*
X8671015Y-14973460D02*
X8661491Y-14963936D01*
X8661491Y-14963936D02*
X8651967Y-14944888D01*
X8651967Y-14944888D02*
X8642444Y-14906793D01*
X8642444Y-14906793D02*
X8642444Y-14859174D01*
X8642444Y-14859174D02*
X8651967Y-14821079D01*
X8651967Y-14821079D02*
X8661491Y-14802031D01*
X8661491Y-14802031D02*
X8671015Y-14792508D01*
X8671015Y-14792508D02*
X8690063Y-14782984D01*
X8880539Y-14782984D02*
X8899586Y-14782984D01*
X8899586Y-14782984D02*
X8918634Y-14792508D01*
X8918634Y-14792508D02*
X8928158Y-14802031D01*
X8928158Y-14802031D02*
X8937682Y-14821079D01*
X8937682Y-14821079D02*
X8947205Y-14859174D01*
X8947205Y-14859174D02*
X8947205Y-14906793D01*
X8947205Y-14906793D02*
X8937682Y-14944888D01*
X8937682Y-14944888D02*
X8928158Y-14963936D01*
X8928158Y-14963936D02*
X8918634Y-14973460D01*
X8918634Y-14973460D02*
X8899586Y-14982984D01*
X8899586Y-14982984D02*
X8880539Y-14982984D01*
X8880539Y-14982984D02*
X8861491Y-14973460D01*
X8861491Y-14973460D02*
X8851967Y-14963936D01*
X8851967Y-14963936D02*
X8842444Y-14944888D01*
X8842444Y-14944888D02*
X8832920Y-14906793D01*
X8832920Y-14906793D02*
X8832920Y-14859174D01*
X8832920Y-14859174D02*
X8842444Y-14821079D01*
X8842444Y-14821079D02*
X8851967Y-14802031D01*
X8851967Y-14802031D02*
X8861491Y-14792508D01*
X8861491Y-14792508D02*
X8880539Y-14782984D01*
X9032920Y-14982984D02*
X9032920Y-14849650D01*
X9032920Y-14868698D02*
X9042444Y-14859174D01*
X9042444Y-14859174D02*
X9061491Y-14849650D01*
X9061491Y-14849650D02*
X9090063Y-14849650D01*
X9090063Y-14849650D02*
X9109110Y-14859174D01*
X9109110Y-14859174D02*
X9118634Y-14878222D01*
X9118634Y-14878222D02*
X9118634Y-14982984D01*
X9118634Y-14878222D02*
X9128158Y-14859174D01*
X9128158Y-14859174D02*
X9147205Y-14849650D01*
X9147205Y-14849650D02*
X9175777Y-14849650D01*
X9175777Y-14849650D02*
X9194825Y-14859174D01*
X9194825Y-14859174D02*
X9204348Y-14878222D01*
X9204348Y-14878222D02*
X9204348Y-14982984D01*
X9299586Y-14982984D02*
X9299586Y-14849650D01*
X9299586Y-14868698D02*
X9309110Y-14859174D01*
X9309110Y-14859174D02*
X9328158Y-14849650D01*
X9328158Y-14849650D02*
X9356729Y-14849650D01*
X9356729Y-14849650D02*
X9375777Y-14859174D01*
X9375777Y-14859174D02*
X9385301Y-14878222D01*
X9385301Y-14878222D02*
X9385301Y-14982984D01*
X9385301Y-14878222D02*
X9394825Y-14859174D01*
X9394825Y-14859174D02*
X9413872Y-14849650D01*
X9413872Y-14849650D02*
X9442444Y-14849650D01*
X9442444Y-14849650D02*
X9461491Y-14859174D01*
X9461491Y-14859174D02*
X9471015Y-14878222D01*
X9471015Y-14878222D02*
X9471015Y-14982984D01*
X9861491Y-14773460D02*
X9690063Y-15030603D01*
X10118634Y-14782984D02*
X10137682Y-14782984D01*
X10137682Y-14782984D02*
X10156729Y-14792508D01*
X10156729Y-14792508D02*
X10166253Y-14802031D01*
X10166253Y-14802031D02*
X10175777Y-14821079D01*
X10175777Y-14821079D02*
X10185301Y-14859174D01*
X10185301Y-14859174D02*
X10185301Y-14906793D01*
X10185301Y-14906793D02*
X10175777Y-14944888D01*
X10175777Y-14944888D02*
X10166253Y-14963936D01*
X10166253Y-14963936D02*
X10156729Y-14973460D01*
X10156729Y-14973460D02*
X10137682Y-14982984D01*
X10137682Y-14982984D02*
X10118634Y-14982984D01*
X10118634Y-14982984D02*
X10099587Y-14973460D01*
X10099587Y-14973460D02*
X10090063Y-14963936D01*
X10090063Y-14963936D02*
X10080539Y-14944888D01*
X10080539Y-14944888D02*
X10071015Y-14906793D01*
X10071015Y-14906793D02*
X10071015Y-14859174D01*
X10071015Y-14859174D02*
X10080539Y-14821079D01*
X10080539Y-14821079D02*
X10090063Y-14802031D01*
X10090063Y-14802031D02*
X10099587Y-14792508D01*
X10099587Y-14792508D02*
X10118634Y-14782984D01*
X10271015Y-14963936D02*
X10280539Y-14973460D01*
X10280539Y-14973460D02*
X10271015Y-14982984D01*
X10271015Y-14982984D02*
X10261491Y-14973460D01*
X10261491Y-14973460D02*
X10271015Y-14963936D01*
X10271015Y-14963936D02*
X10271015Y-14982984D01*
X10404348Y-14782984D02*
X10423396Y-14782984D01*
X10423396Y-14782984D02*
X10442444Y-14792508D01*
X10442444Y-14792508D02*
X10451968Y-14802031D01*
X10451968Y-14802031D02*
X10461491Y-14821079D01*
X10461491Y-14821079D02*
X10471015Y-14859174D01*
X10471015Y-14859174D02*
X10471015Y-14906793D01*
X10471015Y-14906793D02*
X10461491Y-14944888D01*
X10461491Y-14944888D02*
X10451968Y-14963936D01*
X10451968Y-14963936D02*
X10442444Y-14973460D01*
X10442444Y-14973460D02*
X10423396Y-14982984D01*
X10423396Y-14982984D02*
X10404348Y-14982984D01*
X10404348Y-14982984D02*
X10385301Y-14973460D01*
X10385301Y-14973460D02*
X10375777Y-14963936D01*
X10375777Y-14963936D02*
X10366253Y-14944888D01*
X10366253Y-14944888D02*
X10356729Y-14906793D01*
X10356729Y-14906793D02*
X10356729Y-14859174D01*
X10356729Y-14859174D02*
X10366253Y-14821079D01*
X10366253Y-14821079D02*
X10375777Y-14802031D01*
X10375777Y-14802031D02*
X10385301Y-14792508D01*
X10385301Y-14792508D02*
X10404348Y-14782984D01*
X10537682Y-14782984D02*
X10661491Y-14782984D01*
X10661491Y-14782984D02*
X10594825Y-14859174D01*
X10594825Y-14859174D02*
X10623396Y-14859174D01*
X10623396Y-14859174D02*
X10642444Y-14868698D01*
X10642444Y-14868698D02*
X10651968Y-14878222D01*
X10651968Y-14878222D02*
X10661491Y-14897269D01*
X10661491Y-14897269D02*
X10661491Y-14944888D01*
X10661491Y-14944888D02*
X10651968Y-14963936D01*
X10651968Y-14963936D02*
X10642444Y-14973460D01*
X10642444Y-14973460D02*
X10623396Y-14982984D01*
X10623396Y-14982984D02*
X10566253Y-14982984D01*
X10566253Y-14982984D02*
X10547206Y-14973460D01*
X10547206Y-14973460D02*
X10537682Y-14963936D01*
X10851968Y-14982984D02*
X10737682Y-14982984D01*
X10794825Y-14982984D02*
X10794825Y-14782984D01*
X10794825Y-14782984D02*
X10775777Y-14811555D01*
X10775777Y-14811555D02*
X10756729Y-14830603D01*
X10756729Y-14830603D02*
X10737682Y-14840127D01*
X11032920Y-14782984D02*
X10937682Y-14782984D01*
X10937682Y-14782984D02*
X10928158Y-14878222D01*
X10928158Y-14878222D02*
X10937682Y-14868698D01*
X10937682Y-14868698D02*
X10956729Y-14859174D01*
X10956729Y-14859174D02*
X11004349Y-14859174D01*
X11004349Y-14859174D02*
X11023396Y-14868698D01*
X11023396Y-14868698D02*
X11032920Y-14878222D01*
X11032920Y-14878222D02*
X11042444Y-14897269D01*
X11042444Y-14897269D02*
X11042444Y-14944888D01*
X11042444Y-14944888D02*
X11032920Y-14963936D01*
X11032920Y-14963936D02*
X11023396Y-14973460D01*
X11023396Y-14973460D02*
X11004349Y-14982984D01*
X11004349Y-14982984D02*
X10956729Y-14982984D01*
X10956729Y-14982984D02*
X10937682Y-14973460D01*
X10937682Y-14973460D02*
X10928158Y-14963936D01*
X11118634Y-14782984D02*
X11118634Y-14821079D01*
X11194825Y-14782984D02*
X11194825Y-14821079D01*
X11490063Y-15059174D02*
X11480539Y-15049650D01*
X11480539Y-15049650D02*
X11461491Y-15021079D01*
X11461491Y-15021079D02*
X11451968Y-15002031D01*
X11451968Y-15002031D02*
X11442444Y-14973460D01*
X11442444Y-14973460D02*
X11432920Y-14925841D01*
X11432920Y-14925841D02*
X11432920Y-14887746D01*
X11432920Y-14887746D02*
X11442444Y-14840127D01*
X11442444Y-14840127D02*
X11451968Y-14811555D01*
X11451968Y-14811555D02*
X11461491Y-14792508D01*
X11461491Y-14792508D02*
X11480539Y-14763936D01*
X11480539Y-14763936D02*
X11490063Y-14754412D01*
X11556729Y-14802031D02*
X11566253Y-14792508D01*
X11566253Y-14792508D02*
X11585301Y-14782984D01*
X11585301Y-14782984D02*
X11632920Y-14782984D01*
X11632920Y-14782984D02*
X11651968Y-14792508D01*
X11651968Y-14792508D02*
X11661491Y-14802031D01*
X11661491Y-14802031D02*
X11671015Y-14821079D01*
X11671015Y-14821079D02*
X11671015Y-14840127D01*
X11671015Y-14840127D02*
X11661491Y-14868698D01*
X11661491Y-14868698D02*
X11547206Y-14982984D01*
X11547206Y-14982984D02*
X11671015Y-14982984D01*
X11909110Y-14982984D02*
X11909110Y-14782984D01*
X11994825Y-14982984D02*
X11994825Y-14878222D01*
X11994825Y-14878222D02*
X11985301Y-14859174D01*
X11985301Y-14859174D02*
X11966253Y-14849650D01*
X11966253Y-14849650D02*
X11937682Y-14849650D01*
X11937682Y-14849650D02*
X11918634Y-14859174D01*
X11918634Y-14859174D02*
X11909110Y-14868698D01*
X12118634Y-14982984D02*
X12099587Y-14973460D01*
X12099587Y-14973460D02*
X12090063Y-14963936D01*
X12090063Y-14963936D02*
X12080539Y-14944888D01*
X12080539Y-14944888D02*
X12080539Y-14887746D01*
X12080539Y-14887746D02*
X12090063Y-14868698D01*
X12090063Y-14868698D02*
X12099587Y-14859174D01*
X12099587Y-14859174D02*
X12118634Y-14849650D01*
X12118634Y-14849650D02*
X12147206Y-14849650D01*
X12147206Y-14849650D02*
X12166253Y-14859174D01*
X12166253Y-14859174D02*
X12175777Y-14868698D01*
X12175777Y-14868698D02*
X12185301Y-14887746D01*
X12185301Y-14887746D02*
X12185301Y-14944888D01*
X12185301Y-14944888D02*
X12175777Y-14963936D01*
X12175777Y-14963936D02*
X12166253Y-14973460D01*
X12166253Y-14973460D02*
X12147206Y-14982984D01*
X12147206Y-14982984D02*
X12118634Y-14982984D01*
X12299587Y-14982984D02*
X12280539Y-14973460D01*
X12280539Y-14973460D02*
X12271015Y-14954412D01*
X12271015Y-14954412D02*
X12271015Y-14782984D01*
X12451968Y-14973460D02*
X12432920Y-14982984D01*
X12432920Y-14982984D02*
X12394825Y-14982984D01*
X12394825Y-14982984D02*
X12375777Y-14973460D01*
X12375777Y-14973460D02*
X12366253Y-14954412D01*
X12366253Y-14954412D02*
X12366253Y-14878222D01*
X12366253Y-14878222D02*
X12375777Y-14859174D01*
X12375777Y-14859174D02*
X12394825Y-14849650D01*
X12394825Y-14849650D02*
X12432920Y-14849650D01*
X12432920Y-14849650D02*
X12451968Y-14859174D01*
X12451968Y-14859174D02*
X12461491Y-14878222D01*
X12461491Y-14878222D02*
X12461491Y-14897269D01*
X12461491Y-14897269D02*
X12366253Y-14916317D01*
X12537682Y-14973460D02*
X12556730Y-14982984D01*
X12556730Y-14982984D02*
X12594825Y-14982984D01*
X12594825Y-14982984D02*
X12613872Y-14973460D01*
X12613872Y-14973460D02*
X12623396Y-14954412D01*
X12623396Y-14954412D02*
X12623396Y-14944888D01*
X12623396Y-14944888D02*
X12613872Y-14925841D01*
X12613872Y-14925841D02*
X12594825Y-14916317D01*
X12594825Y-14916317D02*
X12566253Y-14916317D01*
X12566253Y-14916317D02*
X12547206Y-14906793D01*
X12547206Y-14906793D02*
X12537682Y-14887746D01*
X12537682Y-14887746D02*
X12537682Y-14878222D01*
X12537682Y-14878222D02*
X12547206Y-14859174D01*
X12547206Y-14859174D02*
X12566253Y-14849650D01*
X12566253Y-14849650D02*
X12594825Y-14849650D01*
X12594825Y-14849650D02*
X12613872Y-14859174D01*
X12690063Y-15059174D02*
X12699587Y-15049650D01*
X12699587Y-15049650D02*
X12718634Y-15021079D01*
X12718634Y-15021079D02*
X12728158Y-15002031D01*
X12728158Y-15002031D02*
X12737682Y-14973460D01*
X12737682Y-14973460D02*
X12747206Y-14925841D01*
X12747206Y-14925841D02*
X12747206Y-14887746D01*
X12747206Y-14887746D02*
X12737682Y-14840127D01*
X12737682Y-14840127D02*
X12728158Y-14811555D01*
X12728158Y-14811555D02*
X12718634Y-14792508D01*
X12718634Y-14792508D02*
X12699587Y-14763936D01*
X12699587Y-14763936D02*
X12690063Y-14754412D01*
D12*
X7865000Y-15105500D02*
X7865000Y-15205500D01*
X7815000Y-15155500D02*
X7915000Y-15155500D01*
D11*
X8280539Y-15246984D02*
X8166253Y-15246984D01*
X8223396Y-15246984D02*
X8223396Y-15046984D01*
X8223396Y-15046984D02*
X8204348Y-15075555D01*
X8204348Y-15075555D02*
X8185301Y-15094603D01*
X8185301Y-15094603D02*
X8166253Y-15104127D01*
X8366253Y-15227936D02*
X8375777Y-15237460D01*
X8375777Y-15237460D02*
X8366253Y-15246984D01*
X8366253Y-15246984D02*
X8356729Y-15237460D01*
X8356729Y-15237460D02*
X8366253Y-15227936D01*
X8366253Y-15227936D02*
X8366253Y-15246984D01*
X8499586Y-15046984D02*
X8518634Y-15046984D01*
X8518634Y-15046984D02*
X8537682Y-15056508D01*
X8537682Y-15056508D02*
X8547205Y-15066031D01*
X8547205Y-15066031D02*
X8556729Y-15085079D01*
X8556729Y-15085079D02*
X8566253Y-15123174D01*
X8566253Y-15123174D02*
X8566253Y-15170793D01*
X8566253Y-15170793D02*
X8556729Y-15208888D01*
X8556729Y-15208888D02*
X8547205Y-15227936D01*
X8547205Y-15227936D02*
X8537682Y-15237460D01*
X8537682Y-15237460D02*
X8518634Y-15246984D01*
X8518634Y-15246984D02*
X8499586Y-15246984D01*
X8499586Y-15246984D02*
X8480539Y-15237460D01*
X8480539Y-15237460D02*
X8471015Y-15227936D01*
X8471015Y-15227936D02*
X8461491Y-15208888D01*
X8461491Y-15208888D02*
X8451967Y-15170793D01*
X8451967Y-15170793D02*
X8451967Y-15123174D01*
X8451967Y-15123174D02*
X8461491Y-15085079D01*
X8461491Y-15085079D02*
X8471015Y-15066031D01*
X8471015Y-15066031D02*
X8480539Y-15056508D01*
X8480539Y-15056508D02*
X8499586Y-15046984D01*
X8690063Y-15046984D02*
X8709110Y-15046984D01*
X8709110Y-15046984D02*
X8728158Y-15056508D01*
X8728158Y-15056508D02*
X8737682Y-15066031D01*
X8737682Y-15066031D02*
X8747205Y-15085079D01*
X8747205Y-15085079D02*
X8756729Y-15123174D01*
X8756729Y-15123174D02*
X8756729Y-15170793D01*
X8756729Y-15170793D02*
X8747205Y-15208888D01*
X8747205Y-15208888D02*
X8737682Y-15227936D01*
X8737682Y-15227936D02*
X8728158Y-15237460D01*
X8728158Y-15237460D02*
X8709110Y-15246984D01*
X8709110Y-15246984D02*
X8690063Y-15246984D01*
X8690063Y-15246984D02*
X8671015Y-15237460D01*
X8671015Y-15237460D02*
X8661491Y-15227936D01*
X8661491Y-15227936D02*
X8651967Y-15208888D01*
X8651967Y-15208888D02*
X8642444Y-15170793D01*
X8642444Y-15170793D02*
X8642444Y-15123174D01*
X8642444Y-15123174D02*
X8651967Y-15085079D01*
X8651967Y-15085079D02*
X8661491Y-15066031D01*
X8661491Y-15066031D02*
X8671015Y-15056508D01*
X8671015Y-15056508D02*
X8690063Y-15046984D01*
X8880539Y-15046984D02*
X8899586Y-15046984D01*
X8899586Y-15046984D02*
X8918634Y-15056508D01*
X8918634Y-15056508D02*
X8928158Y-15066031D01*
X8928158Y-15066031D02*
X8937682Y-15085079D01*
X8937682Y-15085079D02*
X8947205Y-15123174D01*
X8947205Y-15123174D02*
X8947205Y-15170793D01*
X8947205Y-15170793D02*
X8937682Y-15208888D01*
X8937682Y-15208888D02*
X8928158Y-15227936D01*
X8928158Y-15227936D02*
X8918634Y-15237460D01*
X8918634Y-15237460D02*
X8899586Y-15246984D01*
X8899586Y-15246984D02*
X8880539Y-15246984D01*
X8880539Y-15246984D02*
X8861491Y-15237460D01*
X8861491Y-15237460D02*
X8851967Y-15227936D01*
X8851967Y-15227936D02*
X8842444Y-15208888D01*
X8842444Y-15208888D02*
X8832920Y-15170793D01*
X8832920Y-15170793D02*
X8832920Y-15123174D01*
X8832920Y-15123174D02*
X8842444Y-15085079D01*
X8842444Y-15085079D02*
X8851967Y-15066031D01*
X8851967Y-15066031D02*
X8861491Y-15056508D01*
X8861491Y-15056508D02*
X8880539Y-15046984D01*
X9032920Y-15246984D02*
X9032920Y-15113650D01*
X9032920Y-15132698D02*
X9042444Y-15123174D01*
X9042444Y-15123174D02*
X9061491Y-15113650D01*
X9061491Y-15113650D02*
X9090063Y-15113650D01*
X9090063Y-15113650D02*
X9109110Y-15123174D01*
X9109110Y-15123174D02*
X9118634Y-15142222D01*
X9118634Y-15142222D02*
X9118634Y-15246984D01*
X9118634Y-15142222D02*
X9128158Y-15123174D01*
X9128158Y-15123174D02*
X9147205Y-15113650D01*
X9147205Y-15113650D02*
X9175777Y-15113650D01*
X9175777Y-15113650D02*
X9194825Y-15123174D01*
X9194825Y-15123174D02*
X9204348Y-15142222D01*
X9204348Y-15142222D02*
X9204348Y-15246984D01*
X9299586Y-15246984D02*
X9299586Y-15113650D01*
X9299586Y-15132698D02*
X9309110Y-15123174D01*
X9309110Y-15123174D02*
X9328158Y-15113650D01*
X9328158Y-15113650D02*
X9356729Y-15113650D01*
X9356729Y-15113650D02*
X9375777Y-15123174D01*
X9375777Y-15123174D02*
X9385301Y-15142222D01*
X9385301Y-15142222D02*
X9385301Y-15246984D01*
X9385301Y-15142222D02*
X9394825Y-15123174D01*
X9394825Y-15123174D02*
X9413872Y-15113650D01*
X9413872Y-15113650D02*
X9442444Y-15113650D01*
X9442444Y-15113650D02*
X9461491Y-15123174D01*
X9461491Y-15123174D02*
X9471015Y-15142222D01*
X9471015Y-15142222D02*
X9471015Y-15246984D01*
X9861491Y-15037460D02*
X9690063Y-15294603D01*
X10118634Y-15046984D02*
X10137682Y-15046984D01*
X10137682Y-15046984D02*
X10156729Y-15056508D01*
X10156729Y-15056508D02*
X10166253Y-15066031D01*
X10166253Y-15066031D02*
X10175777Y-15085079D01*
X10175777Y-15085079D02*
X10185301Y-15123174D01*
X10185301Y-15123174D02*
X10185301Y-15170793D01*
X10185301Y-15170793D02*
X10175777Y-15208888D01*
X10175777Y-15208888D02*
X10166253Y-15227936D01*
X10166253Y-15227936D02*
X10156729Y-15237460D01*
X10156729Y-15237460D02*
X10137682Y-15246984D01*
X10137682Y-15246984D02*
X10118634Y-15246984D01*
X10118634Y-15246984D02*
X10099587Y-15237460D01*
X10099587Y-15237460D02*
X10090063Y-15227936D01*
X10090063Y-15227936D02*
X10080539Y-15208888D01*
X10080539Y-15208888D02*
X10071015Y-15170793D01*
X10071015Y-15170793D02*
X10071015Y-15123174D01*
X10071015Y-15123174D02*
X10080539Y-15085079D01*
X10080539Y-15085079D02*
X10090063Y-15066031D01*
X10090063Y-15066031D02*
X10099587Y-15056508D01*
X10099587Y-15056508D02*
X10118634Y-15046984D01*
X10271015Y-15227936D02*
X10280539Y-15237460D01*
X10280539Y-15237460D02*
X10271015Y-15246984D01*
X10271015Y-15246984D02*
X10261491Y-15237460D01*
X10261491Y-15237460D02*
X10271015Y-15227936D01*
X10271015Y-15227936D02*
X10271015Y-15246984D01*
X10404348Y-15046984D02*
X10423396Y-15046984D01*
X10423396Y-15046984D02*
X10442444Y-15056508D01*
X10442444Y-15056508D02*
X10451968Y-15066031D01*
X10451968Y-15066031D02*
X10461491Y-15085079D01*
X10461491Y-15085079D02*
X10471015Y-15123174D01*
X10471015Y-15123174D02*
X10471015Y-15170793D01*
X10471015Y-15170793D02*
X10461491Y-15208888D01*
X10461491Y-15208888D02*
X10451968Y-15227936D01*
X10451968Y-15227936D02*
X10442444Y-15237460D01*
X10442444Y-15237460D02*
X10423396Y-15246984D01*
X10423396Y-15246984D02*
X10404348Y-15246984D01*
X10404348Y-15246984D02*
X10385301Y-15237460D01*
X10385301Y-15237460D02*
X10375777Y-15227936D01*
X10375777Y-15227936D02*
X10366253Y-15208888D01*
X10366253Y-15208888D02*
X10356729Y-15170793D01*
X10356729Y-15170793D02*
X10356729Y-15123174D01*
X10356729Y-15123174D02*
X10366253Y-15085079D01*
X10366253Y-15085079D02*
X10375777Y-15066031D01*
X10375777Y-15066031D02*
X10385301Y-15056508D01*
X10385301Y-15056508D02*
X10404348Y-15046984D01*
X10537682Y-15046984D02*
X10661491Y-15046984D01*
X10661491Y-15046984D02*
X10594825Y-15123174D01*
X10594825Y-15123174D02*
X10623396Y-15123174D01*
X10623396Y-15123174D02*
X10642444Y-15132698D01*
X10642444Y-15132698D02*
X10651968Y-15142222D01*
X10651968Y-15142222D02*
X10661491Y-15161269D01*
X10661491Y-15161269D02*
X10661491Y-15208888D01*
X10661491Y-15208888D02*
X10651968Y-15227936D01*
X10651968Y-15227936D02*
X10642444Y-15237460D01*
X10642444Y-15237460D02*
X10623396Y-15246984D01*
X10623396Y-15246984D02*
X10566253Y-15246984D01*
X10566253Y-15246984D02*
X10547206Y-15237460D01*
X10547206Y-15237460D02*
X10537682Y-15227936D01*
X10756729Y-15246984D02*
X10794825Y-15246984D01*
X10794825Y-15246984D02*
X10813872Y-15237460D01*
X10813872Y-15237460D02*
X10823396Y-15227936D01*
X10823396Y-15227936D02*
X10842444Y-15199365D01*
X10842444Y-15199365D02*
X10851968Y-15161269D01*
X10851968Y-15161269D02*
X10851968Y-15085079D01*
X10851968Y-15085079D02*
X10842444Y-15066031D01*
X10842444Y-15066031D02*
X10832920Y-15056508D01*
X10832920Y-15056508D02*
X10813872Y-15046984D01*
X10813872Y-15046984D02*
X10775777Y-15046984D01*
X10775777Y-15046984D02*
X10756729Y-15056508D01*
X10756729Y-15056508D02*
X10747206Y-15066031D01*
X10747206Y-15066031D02*
X10737682Y-15085079D01*
X10737682Y-15085079D02*
X10737682Y-15132698D01*
X10737682Y-15132698D02*
X10747206Y-15151746D01*
X10747206Y-15151746D02*
X10756729Y-15161269D01*
X10756729Y-15161269D02*
X10775777Y-15170793D01*
X10775777Y-15170793D02*
X10813872Y-15170793D01*
X10813872Y-15170793D02*
X10832920Y-15161269D01*
X10832920Y-15161269D02*
X10842444Y-15151746D01*
X10842444Y-15151746D02*
X10851968Y-15132698D01*
X11023396Y-15113650D02*
X11023396Y-15246984D01*
X10975777Y-15037460D02*
X10928158Y-15180317D01*
X10928158Y-15180317D02*
X11051968Y-15180317D01*
X11118634Y-15046984D02*
X11118634Y-15085079D01*
X11194825Y-15046984D02*
X11194825Y-15085079D01*
X11490063Y-15323174D02*
X11480539Y-15313650D01*
X11480539Y-15313650D02*
X11461491Y-15285079D01*
X11461491Y-15285079D02*
X11451968Y-15266031D01*
X11451968Y-15266031D02*
X11442444Y-15237460D01*
X11442444Y-15237460D02*
X11432920Y-15189841D01*
X11432920Y-15189841D02*
X11432920Y-15151746D01*
X11432920Y-15151746D02*
X11442444Y-15104127D01*
X11442444Y-15104127D02*
X11451968Y-15075555D01*
X11451968Y-15075555D02*
X11461491Y-15056508D01*
X11461491Y-15056508D02*
X11480539Y-15027936D01*
X11480539Y-15027936D02*
X11490063Y-15018412D01*
X11556729Y-15066031D02*
X11566253Y-15056508D01*
X11566253Y-15056508D02*
X11585301Y-15046984D01*
X11585301Y-15046984D02*
X11632920Y-15046984D01*
X11632920Y-15046984D02*
X11651968Y-15056508D01*
X11651968Y-15056508D02*
X11661491Y-15066031D01*
X11661491Y-15066031D02*
X11671015Y-15085079D01*
X11671015Y-15085079D02*
X11671015Y-15104127D01*
X11671015Y-15104127D02*
X11661491Y-15132698D01*
X11661491Y-15132698D02*
X11547206Y-15246984D01*
X11547206Y-15246984D02*
X11671015Y-15246984D01*
X11842444Y-15046984D02*
X11804348Y-15046984D01*
X11804348Y-15046984D02*
X11785301Y-15056508D01*
X11785301Y-15056508D02*
X11775777Y-15066031D01*
X11775777Y-15066031D02*
X11756729Y-15094603D01*
X11756729Y-15094603D02*
X11747206Y-15132698D01*
X11747206Y-15132698D02*
X11747206Y-15208888D01*
X11747206Y-15208888D02*
X11756729Y-15227936D01*
X11756729Y-15227936D02*
X11766253Y-15237460D01*
X11766253Y-15237460D02*
X11785301Y-15246984D01*
X11785301Y-15246984D02*
X11823396Y-15246984D01*
X11823396Y-15246984D02*
X11842444Y-15237460D01*
X11842444Y-15237460D02*
X11851968Y-15227936D01*
X11851968Y-15227936D02*
X11861491Y-15208888D01*
X11861491Y-15208888D02*
X11861491Y-15161269D01*
X11861491Y-15161269D02*
X11851968Y-15142222D01*
X11851968Y-15142222D02*
X11842444Y-15132698D01*
X11842444Y-15132698D02*
X11823396Y-15123174D01*
X11823396Y-15123174D02*
X11785301Y-15123174D01*
X11785301Y-15123174D02*
X11766253Y-15132698D01*
X11766253Y-15132698D02*
X11756729Y-15142222D01*
X11756729Y-15142222D02*
X11747206Y-15161269D01*
X12099587Y-15246984D02*
X12099587Y-15046984D01*
X12185301Y-15246984D02*
X12185301Y-15142222D01*
X12185301Y-15142222D02*
X12175777Y-15123174D01*
X12175777Y-15123174D02*
X12156730Y-15113650D01*
X12156730Y-15113650D02*
X12128158Y-15113650D01*
X12128158Y-15113650D02*
X12109110Y-15123174D01*
X12109110Y-15123174D02*
X12099587Y-15132698D01*
X12309110Y-15246984D02*
X12290063Y-15237460D01*
X12290063Y-15237460D02*
X12280539Y-15227936D01*
X12280539Y-15227936D02*
X12271015Y-15208888D01*
X12271015Y-15208888D02*
X12271015Y-15151746D01*
X12271015Y-15151746D02*
X12280539Y-15132698D01*
X12280539Y-15132698D02*
X12290063Y-15123174D01*
X12290063Y-15123174D02*
X12309110Y-15113650D01*
X12309110Y-15113650D02*
X12337682Y-15113650D01*
X12337682Y-15113650D02*
X12356730Y-15123174D01*
X12356730Y-15123174D02*
X12366253Y-15132698D01*
X12366253Y-15132698D02*
X12375777Y-15151746D01*
X12375777Y-15151746D02*
X12375777Y-15208888D01*
X12375777Y-15208888D02*
X12366253Y-15227936D01*
X12366253Y-15227936D02*
X12356730Y-15237460D01*
X12356730Y-15237460D02*
X12337682Y-15246984D01*
X12337682Y-15246984D02*
X12309110Y-15246984D01*
X12490063Y-15246984D02*
X12471015Y-15237460D01*
X12471015Y-15237460D02*
X12461491Y-15218412D01*
X12461491Y-15218412D02*
X12461491Y-15046984D01*
X12642444Y-15237460D02*
X12623396Y-15246984D01*
X12623396Y-15246984D02*
X12585301Y-15246984D01*
X12585301Y-15246984D02*
X12566253Y-15237460D01*
X12566253Y-15237460D02*
X12556730Y-15218412D01*
X12556730Y-15218412D02*
X12556730Y-15142222D01*
X12556730Y-15142222D02*
X12566253Y-15123174D01*
X12566253Y-15123174D02*
X12585301Y-15113650D01*
X12585301Y-15113650D02*
X12623396Y-15113650D01*
X12623396Y-15113650D02*
X12642444Y-15123174D01*
X12642444Y-15123174D02*
X12651968Y-15142222D01*
X12651968Y-15142222D02*
X12651968Y-15161269D01*
X12651968Y-15161269D02*
X12556730Y-15180317D01*
X12728158Y-15237460D02*
X12747206Y-15246984D01*
X12747206Y-15246984D02*
X12785301Y-15246984D01*
X12785301Y-15246984D02*
X12804349Y-15237460D01*
X12804349Y-15237460D02*
X12813872Y-15218412D01*
X12813872Y-15218412D02*
X12813872Y-15208888D01*
X12813872Y-15208888D02*
X12804349Y-15189841D01*
X12804349Y-15189841D02*
X12785301Y-15180317D01*
X12785301Y-15180317D02*
X12756730Y-15180317D01*
X12756730Y-15180317D02*
X12737682Y-15170793D01*
X12737682Y-15170793D02*
X12728158Y-15151746D01*
X12728158Y-15151746D02*
X12728158Y-15142222D01*
X12728158Y-15142222D02*
X12737682Y-15123174D01*
X12737682Y-15123174D02*
X12756730Y-15113650D01*
X12756730Y-15113650D02*
X12785301Y-15113650D01*
X12785301Y-15113650D02*
X12804349Y-15123174D01*
X12880539Y-15323174D02*
X12890063Y-15313650D01*
X12890063Y-15313650D02*
X12909111Y-15285079D01*
X12909111Y-15285079D02*
X12918634Y-15266031D01*
X12918634Y-15266031D02*
X12928158Y-15237460D01*
X12928158Y-15237460D02*
X12937682Y-15189841D01*
X12937682Y-15189841D02*
X12937682Y-15151746D01*
X12937682Y-15151746D02*
X12928158Y-15104127D01*
X12928158Y-15104127D02*
X12918634Y-15075555D01*
X12918634Y-15075555D02*
X12909111Y-15056508D01*
X12909111Y-15056508D02*
X12890063Y-15027936D01*
X12890063Y-15027936D02*
X12880539Y-15018412D01*
M02*
