M48
; DRILL file {KiCad 8.0.6-8.0.6-0~ubuntu22.04.1} date 2024-11-10T19:06:26-0500
; FORMAT={-:-/ absolute / metric / decimal}
; #@! TF.CreationDate,2024-11-10T19:06:26-05:00
; #@! TF.GenerationSoftware,Kicad,Pcbnew,8.0.6-8.0.6-0~ubuntu22.04.1
; #@! TF.FileFunction,Plated,1,4,PTH
FMAT,2
METRIC
; #@! TA.AperFunction,Plated,PTH,ViaDrill
T1C0.300
; #@! TA.AperFunction,Plated,PTH,ViaDrill
T2C0.400
; #@! TA.AperFunction,Plated,PTH,ComponentDrill
T3C0.500
; #@! TA.AperFunction,Plated,PTH,ComponentDrill
T4C0.600
; #@! TA.AperFunction,Plated,PTH,ComponentDrill
T5C0.950
; #@! TA.AperFunction,Plated,PTH,ComponentDrill
T6C1.000
; #@! TA.AperFunction,Plated,PTH,ComponentDrill
T7C1.100
; #@! TA.AperFunction,Plated,PTH,ComponentDrill
T8C1.200
; #@! TA.AperFunction,Plated,PTH,ComponentDrill
T9C1.450
; #@! TA.AperFunction,Plated,PTH,ComponentDrill
T10C2.100
; #@! TA.AperFunction,Plated,PTH,ComponentDrill
T11C4.300
%
G90
G05
T1
X255.306Y-186.675
X255.34Y-200.95
X259.965Y-180.25
X260.022Y-176.243
X261.831Y-192.287
X262.7Y-216.96
X265.7Y-225.43
X267.78Y-201.35
X270.484Y-192.102
X276.236Y-180.617
X293.62Y-203.2
X293.62Y-206.97
X295.68Y-203.06
X295.68Y-205.88
X301.29Y-228.3
X301.37Y-229.85
X302.57Y-231.05
X302.78Y-228.29
X304.05Y-229.56
X305.42Y-230.3
X317.97Y-215.6
X320.22Y-213.38
T2
X198.145Y-155.0
X198.145Y-176.0
X198.145Y-197.0
X198.145Y-218.0
X198.145Y-239.0
X198.145Y-260.0
X198.145Y-281.0
X208.14Y-174.4
X209.27Y-172.175
X210.89Y-195.512
X211.015Y-209.712
X211.04Y-190.41
X211.065Y-214.637
X211.34Y-188.162
X211.49Y-207.312
X212.145Y-162.0
X212.145Y-204.0
X212.145Y-225.0
X212.145Y-246.0
X212.145Y-267.0
X213.778Y-177.565
X213.787Y-183.935
X217.59Y-193.1
X218.29Y-198.912
X218.465Y-217.912
X219.145Y-176.0
X219.145Y-281.0
X219.29Y-196.462
X219.365Y-215.612
X219.39Y-194.55
X223.1Y-216.06
X225.32Y-218.24
X226.145Y-155.0
X226.145Y-190.0
X226.145Y-211.0
X226.145Y-232.0
X226.145Y-253.0
X230.54Y-238.4
X233.145Y-169.0
X233.145Y-267.0
X240.145Y-225.0
X240.145Y-246.0
X240.145Y-281.0
X242.315Y-219.117
X242.515Y-213.4
X242.64Y-207.625
X243.557Y-194.1
X244.492Y-211.675
X245.45Y-204.475
X245.64Y-229.225
X246.265Y-209.525
X247.145Y-155.0
X247.145Y-183.0
X247.145Y-260.0
X247.947Y-202.282
X249.93Y-229.23
X250.322Y-221.305
X250.81Y-215.72
X252.04Y-238.375
X254.145Y-211.0
X255.032Y-194.325
X255.032Y-196.625
X261.145Y-162.0
X261.145Y-197.0
X261.145Y-253.0
X263.842Y-221.035
X264.04Y-238.375
X268.145Y-239.0
X268.145Y-267.0
X268.89Y-216.45
X270.832Y-198.15
X270.832Y-204.05
X271.08Y-214.09
X271.14Y-205.74
X271.39Y-207.98
X271.39Y-209.97
X272.915Y-205.68
X272.915Y-214.125
X274.6Y-207.97
X274.6Y-209.98
X274.68Y-205.76
X274.74Y-214.125
X275.145Y-155.0
X275.145Y-176.0
X275.145Y-204.0
X275.145Y-281.0
X276.04Y-238.375
X282.145Y-190.0
X282.145Y-218.0
X282.145Y-246.0
X288.04Y-238.35
X289.145Y-162.0
X289.145Y-260.0
X289.52Y-204.625
X292.02Y-203.08
X293.705Y-211.26
X295.94Y-207.71
X296.02Y-191.835
X296.145Y-183.0
X296.145Y-274.0
X296.32Y-176.235
X297.24Y-206.1
X297.645Y-173.61
X298.29Y-211.625
X298.29Y-213.925
X298.92Y-173.61
X300.015Y-238.225
X300.18Y-206.235
X301.725Y-175.31
X302.12Y-180.985
X302.415Y-222.725
X303.145Y-155.0
X303.145Y-225.0
X303.145Y-246.0
X303.82Y-193.535
X304.495Y-185.11
X306.565Y-205.375
X306.565Y-209.275
X307.415Y-222.75
X308.175Y-193.785
X308.91Y-211.4
X309.24Y-209.275
X309.715Y-222.75
X310.145Y-190.0
X310.145Y-260.0
X312.04Y-238.175
X313.13Y-218.09
X315.53Y-218.09
X316.815Y-203.44
X316.815Y-205.74
X316.84Y-208.04
X316.84Y-210.44
X317.43Y-197.107
X317.645Y-192.715
X319.03Y-216.86
X319.42Y-184.94
X321.86Y-213.66
X324.04Y-238.225
X324.145Y-155.0
X324.145Y-176.0
X324.145Y-204.0
X324.145Y-253.0
X326.22Y-193.24
X330.37Y-190.89
X331.145Y-267.0
X336.02Y-190.49
X336.04Y-238.225
X337.02Y-185.09
X337.97Y-186.49
X337.97Y-187.765
X338.145Y-190.0
X338.145Y-239.0
X338.145Y-281.0
X345.145Y-155.0
X345.145Y-176.0
X345.145Y-225.0
X345.145Y-253.0
X345.35Y-197.63
X346.525Y-194.43
X347.675Y-194.43
X348.04Y-238.25
X348.425Y-221.455
X352.145Y-267.0
X353.025Y-198.955
X353.225Y-230.43
X353.8Y-224.23
X353.8Y-225.305
X354.825Y-198.955
X359.145Y-183.0
X359.145Y-232.0
X359.145Y-281.0
X360.0Y-222.83
X360.04Y-238.225
X367.065Y-219.355
X367.45Y-198.63
X367.725Y-230.055
X367.743Y-188.43
X368.345Y-218.255
X368.9Y-195.38
X369.2Y-221.35
X369.2Y-223.55
X369.225Y-207.93
X369.805Y-219.715
X370.05Y-195.38
X370.225Y-230.055
X370.243Y-188.43
X371.525Y-207.955
X373.145Y-176.0
X373.145Y-260.0
X374.535Y-216.34
X375.325Y-203.595
X377.74Y-235.91
X379.245Y-225.085
X379.295Y-210.925
X380.145Y-190.0
X380.145Y-274.0
X380.395Y-225.085
X381.475Y-193.33
X383.585Y-223.25
X384.915Y-210.92
X385.575Y-194.88
X386.945Y-235.92
X386.96Y-219.77
X387.145Y-204.0
X387.575Y-197.255
X389.16Y-219.77
X389.875Y-197.255
X391.46Y-219.77
X392.175Y-197.255
X394.145Y-267.0
X398.14Y-218.11
X398.15Y-214.81
X398.27Y-216.44
X400.29Y-216.44
X400.39Y-218.11
X400.4Y-214.81
X401.145Y-155.0
X401.145Y-281.0
X402.08Y-232.245
X402.08Y-241.987
X408.145Y-169.0
X408.145Y-232.0
X408.145Y-260.0
X415.145Y-183.0
X415.145Y-204.0
X415.145Y-246.0
X415.145Y-274.0
X422.145Y-155.0
X422.145Y-218.0
T3
X198.433Y-181.725
X202.83Y-181.71
X226.54Y-240.08
X230.028Y-201.225
X233.94Y-201.3
X238.515Y-215.3
X239.047Y-212.295
X239.377Y-243.675
X247.94Y-240.08
X251.632Y-191.8
X251.727Y-187.525
X259.69Y-240.08
X267.827Y-243.125
X271.89Y-240.08
X282.945Y-201.575
X282.945Y-204.625
X282.945Y-207.675
X282.945Y-210.725
X282.945Y-213.775
X283.94Y-240.08
X284.51Y-231.45
X284.58Y-224.58
X284.58Y-227.6
X289.137Y-215.675
X289.277Y-229.325
X291.777Y-242.475
X295.95Y-239.99
X307.83Y-239.97
X315.777Y-242.375
X319.98Y-239.96
X331.73Y-240.08
X339.777Y-242.675
X343.94Y-240.08
X355.8Y-240.08
T4
X211.105Y-257.33
X212.05Y-255.05
X212.05Y-259.61
X214.33Y-254.105
X214.33Y-260.555
X216.61Y-255.05
X216.61Y-259.61
X217.555Y-257.33
X228.275Y-180.03
X229.22Y-177.75
X229.22Y-182.31
X231.5Y-176.805
X231.5Y-183.255
X233.78Y-177.75
X233.78Y-182.31
X234.725Y-180.03
X398.295Y-186.11
X399.24Y-183.83
X399.24Y-188.39
X401.105Y-249.43
X401.52Y-182.885
X401.52Y-189.335
X402.05Y-247.15
X402.05Y-251.71
X403.8Y-183.83
X403.8Y-188.39
X404.33Y-246.205
X404.33Y-252.655
X404.745Y-186.11
X406.61Y-247.15
X406.61Y-251.71
X407.555Y-249.43
T5
X381.1Y-245.16
X383.6Y-245.16
X386.1Y-245.16
X388.6Y-245.16
X391.1Y-245.16
X393.6Y-245.16
T7
X233.94Y-193.0
X233.94Y-197.5
X240.44Y-193.0
X240.44Y-197.5
T8
X226.952Y-246.525
X226.952Y-280.025
X230.452Y-246.525
X248.452Y-246.525
X248.452Y-280.025
X251.952Y-246.525
X260.452Y-246.525
X260.452Y-280.025
X263.952Y-246.525
X272.452Y-246.525
X272.452Y-280.025
X275.952Y-246.525
X284.452Y-246.525
X284.452Y-280.025
X287.952Y-246.525
X296.452Y-246.525
X296.452Y-280.025
X299.952Y-246.525
X308.452Y-246.525
X308.452Y-280.025
X311.952Y-246.525
X320.452Y-246.525
X320.452Y-280.025
X323.952Y-246.525
X332.452Y-246.525
X332.452Y-280.025
X335.952Y-246.525
X344.452Y-246.525
X344.452Y-280.025
X347.952Y-246.525
X356.452Y-246.525
X356.452Y-280.025
X359.952Y-246.525
T9
X351.75Y-155.4
X351.75Y-161.75
X351.75Y-168.1
X363.15Y-155.4
X363.15Y-161.75
X363.15Y-168.1
X384.01Y-155.4
X384.01Y-161.75
X384.01Y-168.1
X395.41Y-155.4
X395.41Y-161.75
X395.41Y-168.1
T10
X357.45Y-172.73
X389.71Y-172.73
T11
X214.33Y-257.33
X231.5Y-180.03
X401.52Y-186.11
X404.33Y-249.43
T6
G00X207.37Y-160.96
M15
G01X207.37Y-162.96
M16
G05
G00X213.07Y-158.96
M15
G01X211.07Y-158.96
M16
G05
G00X213.07Y-164.96
M15
G01X211.07Y-164.96
M16
G05
M30
