%TF.GenerationSoftware,KiCad,Pcbnew,8.0.6-8.0.6-0~ubuntu22.04.1*%
%TF.CreationDate,2024-11-15T16:44:39-05:00*%
%TF.ProjectId,multi-band-equalizer,6d756c74-692d-4626-916e-642d65717561,rev?*%
%TF.SameCoordinates,Original*%
%TF.FileFunction,Legend,Bot*%
%TF.FilePolarity,Positive*%
%FSLAX46Y46*%
G04 Gerber Fmt 4.6, Leading zero omitted, Abs format (unit mm)*
G04 Created by KiCad (PCBNEW 8.0.6-8.0.6-0~ubuntu22.04.1) date 2024-11-15 16:44:39*
%MOMM*%
%LPD*%
G01*
G04 APERTURE LIST*
%ADD10C,0.120000*%
%ADD11C,0.100000*%
G04 APERTURE END LIST*
D10*
%TO.C,R21*%
X334815436Y-241590000D02*
X335269564Y-241590000D01*
X334815436Y-243060000D02*
X335269564Y-243060000D01*
%TO.C,TP31*%
X272590000Y-240080000D02*
G75*
G02*
X271190000Y-240080000I-700000J0D01*
G01*
X271190000Y-240080000D02*
G75*
G02*
X272590000Y-240080000I700000J0D01*
G01*
%TO.C,R19*%
X358815436Y-241590000D02*
X359269564Y-241590000D01*
X358815436Y-243060000D02*
X359269564Y-243060000D01*
%TO.C,RV3*%
D11*
X340002500Y-245025000D02*
X328502500Y-245025000D01*
X328502500Y-281525000D01*
X340002500Y-281525000D01*
X340002500Y-245025000D01*
D10*
%TO.C,TP26*%
X332430000Y-240080000D02*
G75*
G02*
X331030000Y-240080000I-700000J0D01*
G01*
X331030000Y-240080000D02*
G75*
G02*
X332430000Y-240080000I700000J0D01*
G01*
%TO.C,TP27*%
X320680000Y-239960000D02*
G75*
G02*
X319280000Y-239960000I-700000J0D01*
G01*
X319280000Y-239960000D02*
G75*
G02*
X320680000Y-239960000I700000J0D01*
G01*
%TO.C,TP28*%
X308530000Y-239970000D02*
G75*
G02*
X307130000Y-239970000I-700000J0D01*
G01*
X307130000Y-239970000D02*
G75*
G02*
X308530000Y-239970000I700000J0D01*
G01*
%TO.C,RV9*%
D11*
X268002500Y-245025000D02*
X256502500Y-245025000D01*
X256502500Y-281525000D01*
X268002500Y-281525000D01*
X268002500Y-245025000D01*
%TO.C,RV11*%
X234502500Y-245025000D02*
X223002500Y-245025000D01*
X223002500Y-281525000D01*
X234502500Y-281525000D01*
X234502500Y-245025000D01*
D10*
%TO.C,R24*%
X298792936Y-241590000D02*
X299247064Y-241590000D01*
X298792936Y-243060000D02*
X299247064Y-243060000D01*
%TO.C,R29*%
X229325436Y-241590000D02*
X229779564Y-241590000D01*
X229325436Y-243060000D02*
X229779564Y-243060000D01*
%TO.C,C38*%
X323351252Y-239190000D02*
X322828748Y-239190000D01*
X323351252Y-240660000D02*
X322828748Y-240660000D01*
%TO.C,RV7*%
D11*
X292002500Y-245025000D02*
X280502500Y-245025000D01*
X280502500Y-281525000D01*
X292002500Y-281525000D01*
X292002500Y-245025000D01*
D10*
%TO.C,C41*%
X287351252Y-239315000D02*
X286828748Y-239315000D01*
X287351252Y-240785000D02*
X286828748Y-240785000D01*
%TO.C,TP33*%
X248640000Y-240080000D02*
G75*
G02*
X247240000Y-240080000I-700000J0D01*
G01*
X247240000Y-240080000D02*
G75*
G02*
X248640000Y-240080000I700000J0D01*
G01*
%TO.C,C40*%
X299326252Y-239190000D02*
X298803748Y-239190000D01*
X299326252Y-240660000D02*
X298803748Y-240660000D01*
%TO.C,C42*%
X275351252Y-239340000D02*
X274828748Y-239340000D01*
X275351252Y-240810000D02*
X274828748Y-240810000D01*
%TO.C,R25*%
X286825436Y-241590000D02*
X287279564Y-241590000D01*
X286825436Y-243060000D02*
X287279564Y-243060000D01*
%TO.C,C37*%
X335351252Y-239190000D02*
X334828748Y-239190000D01*
X335351252Y-240660000D02*
X334828748Y-240660000D01*
%TO.C,RV5*%
D11*
X316002500Y-245025000D02*
X304502500Y-245025000D01*
X304502500Y-281525000D01*
X316002500Y-281525000D01*
X316002500Y-245025000D01*
D10*
%TO.C,R22*%
X322825436Y-241590000D02*
X323279564Y-241590000D01*
X322825436Y-243060000D02*
X323279564Y-243060000D01*
%TO.C,RV4*%
D11*
X328002500Y-245025000D02*
X316502500Y-245025000D01*
X316502500Y-281525000D01*
X328002500Y-281525000D01*
X328002500Y-245025000D01*
D10*
%TO.C,R27*%
X262825436Y-241590000D02*
X263279564Y-241590000D01*
X262825436Y-243060000D02*
X263279564Y-243060000D01*
%TO.C,C43*%
X263351252Y-239340000D02*
X262828748Y-239340000D01*
X263351252Y-240810000D02*
X262828748Y-240810000D01*
%TO.C,TP25*%
X344640000Y-240080000D02*
G75*
G02*
X343240000Y-240080000I-700000J0D01*
G01*
X343240000Y-240080000D02*
G75*
G02*
X344640000Y-240080000I700000J0D01*
G01*
%TO.C,R26*%
X274825436Y-241590000D02*
X275279564Y-241590000D01*
X274825436Y-243060000D02*
X275279564Y-243060000D01*
%TO.C,TP32*%
X260390000Y-240080000D02*
G75*
G02*
X258990000Y-240080000I-700000J0D01*
G01*
X258990000Y-240080000D02*
G75*
G02*
X260390000Y-240080000I700000J0D01*
G01*
%TO.C,RV8*%
D11*
X280002500Y-245025000D02*
X268502500Y-245025000D01*
X268502500Y-281525000D01*
X280002500Y-281525000D01*
X280002500Y-245025000D01*
%TO.C,RV1*%
X364002500Y-245025000D02*
X352502500Y-245025000D01*
X352502500Y-281525000D01*
X364002500Y-281525000D01*
X364002500Y-245025000D01*
D10*
%TO.C,C45*%
X229851252Y-239365000D02*
X229328748Y-239365000D01*
X229851252Y-240835000D02*
X229328748Y-240835000D01*
%TO.C,C35*%
X359351252Y-239190000D02*
X358828748Y-239190000D01*
X359351252Y-240660000D02*
X358828748Y-240660000D01*
%TO.C,TP24*%
X356500000Y-240080000D02*
G75*
G02*
X355100000Y-240080000I-700000J0D01*
G01*
X355100000Y-240080000D02*
G75*
G02*
X356500000Y-240080000I700000J0D01*
G01*
%TO.C,R20*%
X346825436Y-241590000D02*
X347279564Y-241590000D01*
X346825436Y-243060000D02*
X347279564Y-243060000D01*
%TO.C,C44*%
X251351252Y-239340000D02*
X250828748Y-239340000D01*
X251351252Y-240810000D02*
X250828748Y-240810000D01*
%TO.C,R23*%
X310825436Y-241590000D02*
X311279564Y-241590000D01*
X310825436Y-243060000D02*
X311279564Y-243060000D01*
%TO.C,C36*%
X347351252Y-239215000D02*
X346828748Y-239215000D01*
X347351252Y-240685000D02*
X346828748Y-240685000D01*
%TO.C,RV10*%
D11*
X256002500Y-245025000D02*
X244502500Y-245025000D01*
X244502500Y-281525000D01*
X256002500Y-281525000D01*
X256002500Y-245025000D01*
D10*
%TO.C,C39*%
X311351252Y-239140000D02*
X310828748Y-239140000D01*
X311351252Y-240610000D02*
X310828748Y-240610000D01*
%TO.C,TP34*%
X227240000Y-240080000D02*
G75*
G02*
X225840000Y-240080000I-700000J0D01*
G01*
X225840000Y-240080000D02*
G75*
G02*
X227240000Y-240080000I700000J0D01*
G01*
%TO.C,R28*%
X250825436Y-241590000D02*
X251279564Y-241590000D01*
X250825436Y-243060000D02*
X251279564Y-243060000D01*
%TO.C,TP29*%
X296650000Y-239990000D02*
G75*
G02*
X295250000Y-239990000I-700000J0D01*
G01*
X295250000Y-239990000D02*
G75*
G02*
X296650000Y-239990000I700000J0D01*
G01*
%TO.C,RV6*%
D11*
X304002500Y-245025000D02*
X292502500Y-245025000D01*
X292502500Y-281525000D01*
X304002500Y-281525000D01*
X304002500Y-245025000D01*
%TO.C,RV2*%
X352002500Y-245025000D02*
X340502500Y-245025000D01*
X340502500Y-281525000D01*
X352002500Y-281525000D01*
X352002500Y-245025000D01*
D10*
%TO.C,TP30*%
X284640000Y-240080000D02*
G75*
G02*
X283240000Y-240080000I-700000J0D01*
G01*
X283240000Y-240080000D02*
G75*
G02*
X284640000Y-240080000I700000J0D01*
G01*
%TD*%
M02*
