%TF.GenerationSoftware,KiCad,Pcbnew,8.0.6-8.0.6-0~ubuntu22.04.1*%
%TF.CreationDate,2024-11-15T16:44:39-05:00*%
%TF.ProjectId,multi-band-equalizer,6d756c74-692d-4626-916e-642d65717561,rev?*%
%TF.SameCoordinates,Original*%
%TF.FileFunction,Paste,Top*%
%TF.FilePolarity,Positive*%
%FSLAX46Y46*%
G04 Gerber Fmt 4.6, Leading zero omitted, Abs format (unit mm)*
G04 Created by KiCad (PCBNEW 8.0.6-8.0.6-0~ubuntu22.04.1) date 2024-11-15 16:44:39*
%MOMM*%
%LPD*%
G01*
G04 APERTURE LIST*
G04 Aperture macros list*
%AMRoundRect*
0 Rectangle with rounded corners*
0 $1 Rounding radius*
0 $2 $3 $4 $5 $6 $7 $8 $9 X,Y pos of 4 corners*
0 Add a 4 corners polygon primitive as box body*
4,1,4,$2,$3,$4,$5,$6,$7,$8,$9,$2,$3,0*
0 Add four circle primitives for the rounded corners*
1,1,$1+$1,$2,$3*
1,1,$1+$1,$4,$5*
1,1,$1+$1,$6,$7*
1,1,$1+$1,$8,$9*
0 Add four rect primitives between the rounded corners*
20,1,$1+$1,$2,$3,$4,$5,0*
20,1,$1+$1,$4,$5,$6,$7,0*
20,1,$1+$1,$6,$7,$8,$9,0*
20,1,$1+$1,$8,$9,$2,$3,0*%
G04 Aperture macros list end*
%ADD10RoundRect,0.250000X0.262500X0.450000X-0.262500X0.450000X-0.262500X-0.450000X0.262500X-0.450000X0*%
%ADD11RoundRect,0.250000X0.450000X-0.262500X0.450000X0.262500X-0.450000X0.262500X-0.450000X-0.262500X0*%
%ADD12RoundRect,0.250000X-0.262500X-0.450000X0.262500X-0.450000X0.262500X0.450000X-0.262500X0.450000X0*%
%ADD13RoundRect,0.250000X0.250000X0.475000X-0.250000X0.475000X-0.250000X-0.475000X0.250000X-0.475000X0*%
%ADD14RoundRect,0.250000X-0.475000X0.250000X-0.475000X-0.250000X0.475000X-0.250000X0.475000X0.250000X0*%
%ADD15RoundRect,0.250000X-0.250000X-0.475000X0.250000X-0.475000X0.250000X0.475000X-0.250000X0.475000X0*%
%ADD16RoundRect,0.250000X-0.450000X0.262500X-0.450000X-0.262500X0.450000X-0.262500X0.450000X0.262500X0*%
%ADD17RoundRect,0.150000X0.150000X-0.825000X0.150000X0.825000X-0.150000X0.825000X-0.150000X-0.825000X0*%
%ADD18RoundRect,0.250000X0.475000X-0.250000X0.475000X0.250000X-0.475000X0.250000X-0.475000X-0.250000X0*%
%ADD19RoundRect,0.150000X-0.512500X-0.150000X0.512500X-0.150000X0.512500X0.150000X-0.512500X0.150000X0*%
%ADD20RoundRect,0.250000X-0.550000X1.050000X-0.550000X-1.050000X0.550000X-1.050000X0.550000X1.050000X0*%
%ADD21RoundRect,0.250000X-1.250000X-0.550000X1.250000X-0.550000X1.250000X0.550000X-1.250000X0.550000X0*%
%ADD22RoundRect,0.112500X0.187500X0.112500X-0.187500X0.112500X-0.187500X-0.112500X0.187500X-0.112500X0*%
%ADD23RoundRect,0.150000X-0.150000X0.825000X-0.150000X-0.825000X0.150000X-0.825000X0.150000X0.825000X0*%
%ADD24RoundRect,0.218750X-0.381250X0.218750X-0.381250X-0.218750X0.381250X-0.218750X0.381250X0.218750X0*%
%ADD25RoundRect,0.112500X-0.187500X-0.112500X0.187500X-0.112500X0.187500X0.112500X-0.187500X0.112500X0*%
%ADD26RoundRect,0.243750X-0.456250X0.243750X-0.456250X-0.243750X0.456250X-0.243750X0.456250X0.243750X0*%
%ADD27R,1.000000X1.150000*%
%ADD28RoundRect,0.112500X-0.112500X0.187500X-0.112500X-0.187500X0.112500X-0.187500X0.112500X0.187500X0*%
%ADD29RoundRect,0.250000X-1.050000X-0.550000X1.050000X-0.550000X1.050000X0.550000X-1.050000X0.550000X0*%
%ADD30RoundRect,0.243750X0.456250X-0.243750X0.456250X0.243750X-0.456250X0.243750X-0.456250X-0.243750X0*%
%ADD31RoundRect,0.250000X0.550000X-1.050000X0.550000X1.050000X-0.550000X1.050000X-0.550000X-1.050000X0*%
%ADD32RoundRect,0.150000X-0.825000X-0.150000X0.825000X-0.150000X0.825000X0.150000X-0.825000X0.150000X0*%
%ADD33RoundRect,0.075000X-0.725000X-0.075000X0.725000X-0.075000X0.725000X0.075000X-0.725000X0.075000X0*%
%ADD34RoundRect,0.075000X-0.075000X-0.725000X0.075000X-0.725000X0.075000X0.725000X-0.075000X0.725000X0*%
%ADD35RoundRect,0.100000X-0.637500X-0.100000X0.637500X-0.100000X0.637500X0.100000X-0.637500X0.100000X0*%
%ADD36RoundRect,0.250000X-0.300000X-0.300000X0.300000X-0.300000X0.300000X0.300000X-0.300000X0.300000X0*%
%ADD37RoundRect,0.250000X1.050000X0.550000X-1.050000X0.550000X-1.050000X-0.550000X1.050000X-0.550000X0*%
G04 APERTURE END LIST*
D10*
%TO.C,R18*%
X214652500Y-188162500D03*
X212827500Y-188162500D03*
%TD*%
D11*
%TO.C,R62*%
X371520000Y-206392500D03*
X371520000Y-204567500D03*
%TD*%
D12*
%TO.C,R10*%
X262487500Y-225430000D03*
X264312500Y-225430000D03*
%TD*%
D13*
%TO.C,C16*%
X301705000Y-213925000D03*
X299805000Y-213925000D03*
%TD*%
D11*
%TO.C,R8*%
X297505000Y-221225000D03*
X297505000Y-219400000D03*
%TD*%
D14*
%TO.C,C64*%
X340320000Y-197630000D03*
X340320000Y-199530000D03*
%TD*%
D13*
%TO.C,C7*%
X252230000Y-219630000D03*
X250330000Y-219630000D03*
%TD*%
D15*
%TO.C,C46*%
X380135000Y-223245000D03*
X382035000Y-223245000D03*
%TD*%
D11*
%TO.C,R72*%
X301910016Y-195782500D03*
X301910016Y-193957500D03*
%TD*%
D16*
%TO.C,R67*%
X348095000Y-190982500D03*
X348095000Y-192807500D03*
%TD*%
D15*
%TO.C,C30*%
X211890000Y-179240000D03*
X213790000Y-179240000D03*
%TD*%
D10*
%TO.C,R5*%
X295517500Y-209610000D03*
X293692500Y-209610000D03*
%TD*%
D14*
%TO.C,C79*%
X326220000Y-189835000D03*
X326220000Y-191735000D03*
%TD*%
D16*
%TO.C,R63*%
X356720000Y-202767500D03*
X356720000Y-204592500D03*
%TD*%
D17*
%TO.C,U9*%
X298310000Y-182685000D03*
X299580000Y-182685000D03*
X300850000Y-182685000D03*
X302120000Y-182685000D03*
X302120000Y-177735000D03*
X300850000Y-177735000D03*
X299580000Y-177735000D03*
X298310000Y-177735000D03*
%TD*%
D15*
%TO.C,C15*%
X313430000Y-208040000D03*
X315330000Y-208040000D03*
%TD*%
D11*
%TO.C,R35*%
X386955000Y-218270000D03*
X386955000Y-216445000D03*
%TD*%
%TO.C,R47*%
X369220000Y-206392500D03*
X369220000Y-204567500D03*
%TD*%
D18*
%TO.C,C1*%
X247947500Y-205625000D03*
X247947500Y-203725000D03*
%TD*%
D19*
%TO.C,Q1*%
X209790000Y-174400000D03*
X209790000Y-176300000D03*
X212065000Y-175350000D03*
%TD*%
D18*
%TO.C,C57*%
X341120000Y-222980000D03*
X341120000Y-221080000D03*
%TD*%
D14*
%TO.C,C76*%
X336020000Y-187085000D03*
X336020000Y-188985000D03*
%TD*%
D10*
%TO.C,R15*%
X381102500Y-235910000D03*
X379277500Y-235910000D03*
%TD*%
D11*
%TO.C,R39*%
X367720000Y-228542500D03*
X367720000Y-226717500D03*
%TD*%
D12*
%TO.C,R60*%
X349020000Y-205580000D03*
X350845000Y-205580000D03*
%TD*%
D20*
%TO.C,C74*%
X308170000Y-187910000D03*
X308170000Y-191510000D03*
%TD*%
D21*
%TO.C,C60*%
X360020000Y-226730000D03*
X364420000Y-226730000D03*
%TD*%
D14*
%TO.C,C28*%
X217665000Y-213712500D03*
X217665000Y-215612500D03*
%TD*%
D15*
%TO.C,C68*%
X297562508Y-191825000D03*
X299462508Y-191825000D03*
%TD*%
D14*
%TO.C,C56*%
X353220000Y-227030000D03*
X353220000Y-228930000D03*
%TD*%
D12*
%TO.C,R82*%
X337007500Y-183385000D03*
X338832500Y-183385000D03*
%TD*%
%TO.C,R80*%
X315345000Y-190802508D03*
X317170000Y-190802508D03*
%TD*%
D14*
%TO.C,C18*%
X297680000Y-207710000D03*
X297680000Y-209610000D03*
%TD*%
D15*
%TO.C,C29*%
X215077500Y-217912500D03*
X216977500Y-217912500D03*
%TD*%
D17*
%TO.C,U8*%
X349205000Y-200680000D03*
X350475000Y-200680000D03*
X351745000Y-200680000D03*
X353015000Y-200680000D03*
X353015000Y-195730000D03*
X351745000Y-195730000D03*
X350475000Y-195730000D03*
X349205000Y-195730000D03*
%TD*%
D13*
%TO.C,C61*%
X350870000Y-203280000D03*
X348970000Y-203280000D03*
%TD*%
D14*
%TO.C,C63*%
X347085000Y-195730000D03*
X347085000Y-197630000D03*
%TD*%
D11*
%TO.C,R43*%
X381470000Y-200592500D03*
X381470000Y-198767500D03*
%TD*%
D13*
%TO.C,C73*%
X303802508Y-191815000D03*
X301902508Y-191815000D03*
%TD*%
D12*
%TO.C,R76*%
X321495000Y-186022508D03*
X323320000Y-186022508D03*
%TD*%
D15*
%TO.C,C14*%
X313430000Y-210440000D03*
X315330000Y-210440000D03*
%TD*%
D16*
%TO.C,R4*%
X257840000Y-183375000D03*
X257840000Y-185200000D03*
%TD*%
D11*
%TO.C,R30*%
X380955000Y-212747500D03*
X380955000Y-210922500D03*
%TD*%
D18*
%TO.C,C52*%
X389870000Y-200630000D03*
X389870000Y-198730000D03*
%TD*%
D16*
%TO.C,R31*%
X383235000Y-210917500D03*
X383235000Y-212742500D03*
%TD*%
D13*
%TO.C,C10*%
X247850000Y-211675000D03*
X245950000Y-211675000D03*
%TD*%
D15*
%TO.C,C53*%
X372475000Y-194080000D03*
X374375000Y-194080000D03*
%TD*%
D19*
%TO.C,U3*%
X212777500Y-213700000D03*
X212777500Y-214650000D03*
X212777500Y-215600000D03*
X215052500Y-215600000D03*
X215052500Y-213700000D03*
%TD*%
D11*
%TO.C,R70*%
X299462508Y-189725000D03*
X299462508Y-187900000D03*
%TD*%
D21*
%TO.C,C62*%
X360020000Y-204580000D03*
X364420000Y-204580000D03*
%TD*%
D15*
%TO.C,C34*%
X214915000Y-198912500D03*
X216815000Y-198912500D03*
%TD*%
D22*
%TO.C,D2*%
X263315000Y-176237500D03*
X261215000Y-176237500D03*
%TD*%
D16*
%TO.C,R66*%
X356720000Y-191767500D03*
X356720000Y-193592500D03*
%TD*%
D14*
%TO.C,C2*%
X247947500Y-207625000D03*
X247947500Y-209525000D03*
%TD*%
D11*
%TO.C,R71*%
X292215000Y-176222500D03*
X292215000Y-174397500D03*
%TD*%
%TO.C,R41*%
X381470000Y-196692500D03*
X381470000Y-194867500D03*
%TD*%
D16*
%TO.C,R3*%
X268102500Y-189025000D03*
X268102500Y-190850000D03*
%TD*%
D13*
%TO.C,C49*%
X377415000Y-225700000D03*
X375515000Y-225700000D03*
%TD*%
D12*
%TO.C,R16*%
X383607500Y-235920000D03*
X385432500Y-235920000D03*
%TD*%
D23*
%TO.C,U7*%
X352225000Y-219780000D03*
X350955000Y-219780000D03*
X349685000Y-219780000D03*
X348415000Y-219780000D03*
X348415000Y-224730000D03*
X349685000Y-224730000D03*
X350955000Y-224730000D03*
X352225000Y-224730000D03*
%TD*%
D24*
%TO.C,FB1*%
X246340000Y-215187500D03*
X246340000Y-217312500D03*
%TD*%
D12*
%TO.C,R49*%
X377457500Y-196680000D03*
X379282500Y-196680000D03*
%TD*%
D16*
%TO.C,R2*%
X264365000Y-189025000D03*
X264365000Y-190850000D03*
%TD*%
D14*
%TO.C,C33*%
X217590000Y-194562500D03*
X217590000Y-196462500D03*
%TD*%
%TO.C,C48*%
X389155000Y-216407500D03*
X389155000Y-218307500D03*
%TD*%
D11*
%TO.C,R17*%
X402080000Y-235632500D03*
X402080000Y-233807500D03*
%TD*%
%TO.C,R75*%
X304210016Y-189727500D03*
X304210016Y-187902500D03*
%TD*%
D25*
%TO.C,D1*%
X272912500Y-180610000D03*
X275012500Y-180610000D03*
%TD*%
D13*
%TO.C,C17*%
X301705000Y-211625000D03*
X299805000Y-211625000D03*
%TD*%
D16*
%TO.C,R9*%
X309705000Y-219387500D03*
X309705000Y-221212500D03*
%TD*%
%TO.C,R48*%
X377670000Y-198667500D03*
X377670000Y-200492500D03*
%TD*%
D10*
%TO.C,R40*%
X377377500Y-227800000D03*
X375552500Y-227800000D03*
%TD*%
D13*
%TO.C,C47*%
X384855000Y-216445000D03*
X382955000Y-216445000D03*
%TD*%
D26*
%TO.C,D9*%
X215040000Y-190487500D03*
X215040000Y-192362500D03*
%TD*%
D13*
%TO.C,C65*%
X356720000Y-200680000D03*
X354820000Y-200680000D03*
%TD*%
D15*
%TO.C,C26*%
X268940000Y-202350000D03*
X270840000Y-202350000D03*
%TD*%
D11*
%TO.C,R65*%
X370225000Y-191792500D03*
X370225000Y-189967500D03*
%TD*%
D12*
%TO.C,R51*%
X372512500Y-191805000D03*
X374337500Y-191805000D03*
%TD*%
D10*
%TO.C,R33*%
X395417500Y-216445000D03*
X393592500Y-216445000D03*
%TD*%
D16*
%TO.C,R14*%
X402080000Y-238587500D03*
X402080000Y-240412500D03*
%TD*%
D14*
%TO.C,C22*%
X315520000Y-214640000D03*
X315520000Y-216540000D03*
%TD*%
D27*
%TO.C,Y1*%
X244047500Y-205875000D03*
X244047500Y-207625000D03*
X245447500Y-207625000D03*
X245447500Y-205875000D03*
%TD*%
D12*
%TO.C,R77*%
X315445000Y-188322508D03*
X317270000Y-188322508D03*
%TD*%
D28*
%TO.C,D5*%
X255315000Y-183387500D03*
X255315000Y-185487500D03*
%TD*%
D13*
%TO.C,C66*%
X352120000Y-193180000D03*
X350220000Y-193180000D03*
%TD*%
D16*
%TO.C,R50*%
X367725000Y-189967500D03*
X367725000Y-191792500D03*
%TD*%
D12*
%TO.C,R83*%
X321487500Y-193102508D03*
X323312500Y-193102508D03*
%TD*%
D18*
%TO.C,C13*%
X243565000Y-197500000D03*
X243565000Y-195600000D03*
%TD*%
D26*
%TO.C,D7*%
X215102500Y-209675000D03*
X215102500Y-211550000D03*
%TD*%
D11*
%TO.C,R34*%
X391455000Y-218270000D03*
X391455000Y-216445000D03*
%TD*%
D28*
%TO.C,D3*%
X261840000Y-189025000D03*
X261840000Y-191125000D03*
%TD*%
D14*
%TO.C,C21*%
X313120000Y-214640000D03*
X313120000Y-216540000D03*
%TD*%
D11*
%TO.C,R73*%
X301910016Y-189722500D03*
X301910016Y-187897500D03*
%TD*%
D15*
%TO.C,C3*%
X251640000Y-194350000D03*
X253540000Y-194350000D03*
%TD*%
D21*
%TO.C,C67*%
X360020000Y-191780000D03*
X364420000Y-191780000D03*
%TD*%
D11*
%TO.C,R32*%
X380955000Y-216447500D03*
X380955000Y-214622500D03*
%TD*%
D13*
%TO.C,C24*%
X315330000Y-203440000D03*
X313430000Y-203440000D03*
%TD*%
D11*
%TO.C,R61*%
X346935000Y-205317500D03*
X346935000Y-203492500D03*
%TD*%
%TO.C,R68*%
X297272508Y-189717500D03*
X297272508Y-187892500D03*
%TD*%
D15*
%TO.C,C58*%
X356620000Y-222830000D03*
X358520000Y-222830000D03*
%TD*%
D14*
%TO.C,C12*%
X243990000Y-217225000D03*
X243990000Y-219125000D03*
%TD*%
D11*
%TO.C,R55*%
X356620000Y-219342500D03*
X356620000Y-217517500D03*
%TD*%
D19*
%TO.C,U4*%
X212627500Y-194562500D03*
X212627500Y-195512500D03*
X212627500Y-196462500D03*
X214902500Y-196462500D03*
X214902500Y-194562500D03*
%TD*%
D11*
%TO.C,R37*%
X380490000Y-220732500D03*
X380490000Y-218907500D03*
%TD*%
D12*
%TO.C,R81*%
X321487500Y-190802508D03*
X323312500Y-190802508D03*
%TD*%
D14*
%TO.C,C19*%
X300180000Y-207710000D03*
X300180000Y-209610000D03*
%TD*%
D11*
%TO.C,R38*%
X372295000Y-218377500D03*
X372295000Y-216552500D03*
%TD*%
D10*
%TO.C,R44*%
X396182500Y-200580000D03*
X394357500Y-200580000D03*
%TD*%
D11*
%TO.C,R74*%
X294615000Y-176222500D03*
X294615000Y-174397500D03*
%TD*%
D13*
%TO.C,C70*%
X299315000Y-185110000D03*
X297415000Y-185110000D03*
%TD*%
D12*
%TO.C,R79*%
X337007500Y-181085000D03*
X338832500Y-181085000D03*
%TD*%
D29*
%TO.C,C78*%
X330520000Y-181085000D03*
X334120000Y-181085000D03*
%TD*%
D15*
%TO.C,C72*%
X301065000Y-185110000D03*
X302965000Y-185110000D03*
%TD*%
D13*
%TO.C,C23*%
X315330000Y-205740000D03*
X313430000Y-205740000D03*
%TD*%
D18*
%TO.C,C77*%
X326220000Y-188135000D03*
X326220000Y-186235000D03*
%TD*%
D10*
%TO.C,R13*%
X214815000Y-207312500D03*
X212990000Y-207312500D03*
%TD*%
D18*
%TO.C,C11*%
X244015000Y-215300000D03*
X244015000Y-213400000D03*
%TD*%
D16*
%TO.C,R57*%
X370220000Y-226717500D03*
X370220000Y-228542500D03*
%TD*%
D30*
%TO.C,D6*%
X260350000Y-225427500D03*
X260350000Y-223552500D03*
%TD*%
D13*
%TO.C,C51*%
X385520000Y-200580000D03*
X383620000Y-200580000D03*
%TD*%
D16*
%TO.C,R45*%
X392170000Y-198767500D03*
X392170000Y-200592500D03*
%TD*%
D13*
%TO.C,C4*%
X265750000Y-216960000D03*
X263850000Y-216960000D03*
%TD*%
D15*
%TO.C,C69*%
X298320000Y-175310000D03*
X300220000Y-175310000D03*
%TD*%
D16*
%TO.C,R42*%
X383870000Y-194867500D03*
X383870000Y-196692500D03*
%TD*%
D31*
%TO.C,C71*%
X292215000Y-182510000D03*
X292215000Y-178910000D03*
%TD*%
D11*
%TO.C,R7*%
X300005000Y-221237500D03*
X300005000Y-219412500D03*
%TD*%
D12*
%TO.C,R78*%
X321495000Y-188322508D03*
X323320000Y-188322508D03*
%TD*%
D15*
%TO.C,C31*%
X211890000Y-182250000D03*
X213790000Y-182250000D03*
%TD*%
D18*
%TO.C,C80*%
X319347500Y-192702508D03*
X319347500Y-190802508D03*
%TD*%
D12*
%TO.C,R54*%
X370732500Y-223550000D03*
X372557500Y-223550000D03*
%TD*%
%TO.C,R59*%
X347607500Y-229630000D03*
X349432500Y-229630000D03*
%TD*%
D13*
%TO.C,C5*%
X265750000Y-219360000D03*
X263850000Y-219360000D03*
%TD*%
D15*
%TO.C,C8*%
X268940000Y-199850000D03*
X270840000Y-199850000D03*
%TD*%
D14*
%TO.C,C50*%
X369220000Y-196730000D03*
X369220000Y-198630000D03*
%TD*%
D23*
%TO.C,U5*%
X378345000Y-218295000D03*
X377075000Y-218295000D03*
X375805000Y-218295000D03*
X374535000Y-218295000D03*
X374535000Y-223245000D03*
X375805000Y-223245000D03*
X377075000Y-223245000D03*
X378345000Y-223245000D03*
%TD*%
D15*
%TO.C,C9*%
X251640000Y-196650000D03*
X253540000Y-196650000D03*
%TD*%
D13*
%TO.C,C6*%
X252230000Y-217230000D03*
X250330000Y-217230000D03*
%TD*%
D32*
%TO.C,U10*%
X328645000Y-187080000D03*
X328645000Y-188350000D03*
X328645000Y-189620000D03*
X328645000Y-190890000D03*
X333595000Y-190890000D03*
X333595000Y-189620000D03*
X333595000Y-188350000D03*
X333595000Y-187080000D03*
%TD*%
D18*
%TO.C,C32*%
X212540000Y-192312500D03*
X212540000Y-190412500D03*
%TD*%
D33*
%TO.C,U2*%
X250672500Y-200850000D03*
X250672500Y-201350000D03*
X250672500Y-201850000D03*
X250672500Y-202350000D03*
X250672500Y-202850000D03*
X250672500Y-203350000D03*
X250672500Y-203850000D03*
X250672500Y-204350000D03*
X250672500Y-204850000D03*
X250672500Y-205350000D03*
X250672500Y-205850000D03*
X250672500Y-206350000D03*
X250672500Y-206850000D03*
X250672500Y-207350000D03*
X250672500Y-207850000D03*
X250672500Y-208350000D03*
X250672500Y-208850000D03*
X250672500Y-209350000D03*
X250672500Y-209850000D03*
X250672500Y-210350000D03*
X250672500Y-210850000D03*
X250672500Y-211350000D03*
X250672500Y-211850000D03*
X250672500Y-212350000D03*
X250672500Y-212850000D03*
D34*
X252347500Y-214525000D03*
X252847500Y-214525000D03*
X253347500Y-214525000D03*
X253847500Y-214525000D03*
X254347500Y-214525000D03*
X254847500Y-214525000D03*
X255347500Y-214525000D03*
X255847500Y-214525000D03*
X256347500Y-214525000D03*
X256847500Y-214525000D03*
X257347500Y-214525000D03*
X257847500Y-214525000D03*
X258347500Y-214525000D03*
X258847500Y-214525000D03*
X259347500Y-214525000D03*
X259847500Y-214525000D03*
X260347500Y-214525000D03*
X260847500Y-214525000D03*
X261347500Y-214525000D03*
X261847500Y-214525000D03*
X262347500Y-214525000D03*
X262847500Y-214525000D03*
X263347500Y-214525000D03*
X263847500Y-214525000D03*
X264347500Y-214525000D03*
D33*
X266022500Y-212850000D03*
X266022500Y-212350000D03*
X266022500Y-211850000D03*
X266022500Y-211350000D03*
X266022500Y-210850000D03*
X266022500Y-210350000D03*
X266022500Y-209850000D03*
X266022500Y-209350000D03*
X266022500Y-208850000D03*
X266022500Y-208350000D03*
X266022500Y-207850000D03*
X266022500Y-207350000D03*
X266022500Y-206850000D03*
X266022500Y-206350000D03*
X266022500Y-205850000D03*
X266022500Y-205350000D03*
X266022500Y-204850000D03*
X266022500Y-204350000D03*
X266022500Y-203850000D03*
X266022500Y-203350000D03*
X266022500Y-202850000D03*
X266022500Y-202350000D03*
X266022500Y-201850000D03*
X266022500Y-201350000D03*
X266022500Y-200850000D03*
D34*
X264347500Y-199175000D03*
X263847500Y-199175000D03*
X263347500Y-199175000D03*
X262847500Y-199175000D03*
X262347500Y-199175000D03*
X261847500Y-199175000D03*
X261347500Y-199175000D03*
X260847500Y-199175000D03*
X260347500Y-199175000D03*
X259847500Y-199175000D03*
X259347500Y-199175000D03*
X258847500Y-199175000D03*
X258347500Y-199175000D03*
X257847500Y-199175000D03*
X257347500Y-199175000D03*
X256847500Y-199175000D03*
X256347500Y-199175000D03*
X255847500Y-199175000D03*
X255347500Y-199175000D03*
X254847500Y-199175000D03*
X254347500Y-199175000D03*
X253847500Y-199175000D03*
X253347500Y-199175000D03*
X252847500Y-199175000D03*
X252347500Y-199175000D03*
%TD*%
D16*
%TO.C,R46*%
X387570000Y-198767500D03*
X387570000Y-200592500D03*
%TD*%
D24*
%TO.C,FB2*%
X209790000Y-179587500D03*
X209790000Y-181712500D03*
%TD*%
D35*
%TO.C,U1*%
X305085000Y-204725000D03*
X305085000Y-205375000D03*
X305085000Y-206025000D03*
X305085000Y-206675000D03*
X305085000Y-207325000D03*
X305085000Y-207975000D03*
X305085000Y-208625000D03*
X305085000Y-209275000D03*
X305085000Y-209925000D03*
X305085000Y-210575000D03*
X305085000Y-211225000D03*
X305085000Y-211875000D03*
X305085000Y-212525000D03*
X305085000Y-213175000D03*
X310810000Y-213175000D03*
X310810000Y-212525000D03*
X310810000Y-211875000D03*
X310810000Y-211225000D03*
X310810000Y-210575000D03*
X310810000Y-209925000D03*
X310810000Y-209275000D03*
X310810000Y-208625000D03*
X310810000Y-207975000D03*
X310810000Y-207325000D03*
X310810000Y-206675000D03*
X310810000Y-206025000D03*
X310810000Y-205375000D03*
X310810000Y-204725000D03*
%TD*%
D12*
%TO.C,R64*%
X350292500Y-190985000D03*
X352117500Y-190985000D03*
%TD*%
D11*
%TO.C,R58*%
X356620000Y-226755000D03*
X356620000Y-224930000D03*
%TD*%
D15*
%TO.C,C59*%
X349370000Y-227330000D03*
X351270000Y-227330000D03*
%TD*%
D11*
%TO.C,R6*%
X305105000Y-221212500D03*
X305105000Y-219387500D03*
%TD*%
D12*
%TO.C,R53*%
X348907500Y-215030000D03*
X350732500Y-215030000D03*
%TD*%
%TO.C,R52*%
X347095000Y-217230000D03*
X348920000Y-217230000D03*
%TD*%
D36*
%TO.C,D8*%
X209270000Y-170300000D03*
X212070000Y-170300000D03*
%TD*%
D16*
%TO.C,R11*%
X302405000Y-219400000D03*
X302405000Y-221225000D03*
%TD*%
D15*
%TO.C,C25*%
X266997500Y-214775000D03*
X268897500Y-214775000D03*
%TD*%
D12*
%TO.C,R36*%
X370732500Y-221350000D03*
X372557500Y-221350000D03*
%TD*%
D28*
%TO.C,D4*%
X270490000Y-189025000D03*
X270490000Y-191125000D03*
%TD*%
D14*
%TO.C,C75*%
X319407500Y-186422508D03*
X319407500Y-188322508D03*
%TD*%
D15*
%TO.C,C54*%
X350682500Y-217230000D03*
X352582500Y-217230000D03*
%TD*%
D18*
%TO.C,C27*%
X212702500Y-211612500D03*
X212702500Y-209712500D03*
%TD*%
D12*
%TO.C,R1*%
X266452500Y-176237500D03*
X268277500Y-176237500D03*
%TD*%
D14*
%TO.C,C20*%
X307405000Y-219350000D03*
X307405000Y-221250000D03*
%TD*%
D12*
%TO.C,R56*%
X345807500Y-227330000D03*
X347632500Y-227330000D03*
%TD*%
D37*
%TO.C,C81*%
X323320000Y-197090000D03*
X319720000Y-197090000D03*
%TD*%
D11*
%TO.C,R69*%
X299470016Y-195787500D03*
X299470016Y-193962500D03*
%TD*%
D12*
%TO.C,R12*%
X286157500Y-204625000D03*
X287982500Y-204625000D03*
%TD*%
D21*
%TO.C,C55*%
X360020000Y-217530000D03*
X364420000Y-217530000D03*
%TD*%
D17*
%TO.C,U6*%
X371515000Y-201655000D03*
X372785000Y-201655000D03*
X374055000Y-201655000D03*
X375325000Y-201655000D03*
X375325000Y-196705000D03*
X374055000Y-196705000D03*
X372785000Y-196705000D03*
X371515000Y-196705000D03*
%TD*%
M02*
