M48
; DRILL file {KiCad 8.0.6-8.0.6-0~ubuntu22.04.1} date 2024-11-15T16:44:28-0500
; FORMAT={-:-/ absolute / metric / decimal}
; #@! TF.CreationDate,2024-11-15T16:44:28-05:00
; #@! TF.GenerationSoftware,Kicad,Pcbnew,8.0.6-8.0.6-0~ubuntu22.04.1
; #@! TF.FileFunction,NonPlated,1,4,NPTH
FMAT,2
METRIC
; #@! TA.AperFunction,NonPlated,NPTH,ComponentDrill
T1C0.991
; #@! TA.AperFunction,NonPlated,NPTH,ComponentDrill
T2C1.700
; #@! TA.AperFunction,NonPlated,NPTH,ComponentDrill
T3C2.375
%
G90
G05
T1
X261.86Y-181.721
X261.86Y-183.754
X266.94Y-182.737
T2
X224.452Y-251.875
X224.452Y-274.675
X232.952Y-250.675
X232.952Y-275.875
X245.952Y-251.875
X245.952Y-274.675
X254.452Y-250.675
X254.452Y-275.875
X257.952Y-251.875
X257.952Y-274.675
X266.452Y-250.675
X266.452Y-275.875
X269.952Y-251.875
X269.952Y-274.675
X278.452Y-250.675
X278.452Y-275.875
X281.952Y-251.875
X281.952Y-274.675
X290.452Y-250.675
X290.452Y-275.875
X293.952Y-251.875
X293.952Y-274.675
X302.452Y-250.675
X302.452Y-275.875
X305.952Y-251.875
X305.952Y-274.675
X314.452Y-250.675
X314.452Y-275.875
X317.952Y-251.875
X317.952Y-274.675
X326.452Y-250.675
X326.452Y-275.875
X329.952Y-251.875
X329.952Y-274.675
X338.452Y-250.675
X338.452Y-275.875
X341.952Y-251.875
X341.952Y-274.675
X350.452Y-250.675
X350.452Y-275.875
X353.952Y-251.875
X353.952Y-274.675
X362.452Y-250.675
X362.452Y-275.875
T3
X263.765Y-180.197
X263.765Y-185.278
X266.94Y-180.197
X266.94Y-185.278
M30
