%TF.GenerationSoftware,KiCad,Pcbnew,8.0.6-8.0.6-0~ubuntu22.04.1*%
%TF.CreationDate,2024-11-10T19:06:55-05:00*%
%TF.ProjectId,multi-band-equalizer,6d756c74-692d-4626-916e-642d65717561,rev?*%
%TF.SameCoordinates,Original*%
%TF.FileFunction,Legend,Bot*%
%TF.FilePolarity,Positive*%
%FSLAX46Y46*%
G04 Gerber Fmt 4.6, Leading zero omitted, Abs format (unit mm)*
G04 Created by KiCad (PCBNEW 8.0.6-8.0.6-0~ubuntu22.04.1) date 2024-11-10 19:06:55*
%MOMM*%
%LPD*%
G01*
G04 APERTURE LIST*
%ADD10C,0.125000*%
%ADD11C,0.120000*%
%ADD12C,0.100000*%
G04 APERTURE END LIST*
D10*
G36*
X405059420Y-257564528D02*
G01*
X405230146Y-258387383D01*
X405289110Y-258523257D01*
X405361304Y-258601339D01*
X405492352Y-258675367D01*
X405590648Y-258690000D01*
X405594312Y-258690000D01*
X405735582Y-258647401D01*
X405782623Y-258599874D01*
X405832967Y-258459296D01*
X405825854Y-258383719D01*
X405432379Y-256489616D01*
X405374493Y-256345818D01*
X405273643Y-256230638D01*
X405265317Y-256223635D01*
X405135422Y-256142642D01*
X404987640Y-256110905D01*
X404978087Y-256110795D01*
X403969853Y-256110795D01*
X403829501Y-256164004D01*
X403808652Y-256191395D01*
X403792532Y-256326217D01*
X403810118Y-256409016D01*
X403909036Y-256524054D01*
X404045551Y-256578382D01*
X404068771Y-256579741D01*
X404854256Y-256579741D01*
X404971493Y-257142477D01*
X404186740Y-257142477D01*
X404050856Y-257198505D01*
X404043858Y-257206224D01*
X404005756Y-257352037D01*
X404006489Y-257354968D01*
X404084870Y-257483137D01*
X404109804Y-257502979D01*
X404245765Y-257562365D01*
X404276866Y-257564528D01*
X405059420Y-257564528D01*
G37*
G36*
X402889802Y-256730394D02*
G01*
X403040384Y-256767225D01*
X403190195Y-256831193D01*
X403317990Y-256907623D01*
X403445219Y-257003991D01*
X403486544Y-257039921D01*
X403598634Y-257153514D01*
X403692898Y-257275813D01*
X403769337Y-257406820D01*
X403827949Y-257546534D01*
X403868736Y-257694954D01*
X403884925Y-257795029D01*
X403889783Y-257961619D01*
X403864769Y-258117341D01*
X403809882Y-258262193D01*
X403725121Y-258396175D01*
X403665541Y-258465040D01*
X403549596Y-258563460D01*
X403418784Y-258633760D01*
X403273105Y-258675940D01*
X403112560Y-258690000D01*
X403059071Y-258690000D01*
X402931396Y-258679850D01*
X402781986Y-258642354D01*
X402632085Y-258577228D01*
X402503208Y-258499416D01*
X402373970Y-258401304D01*
X402331761Y-258364754D01*
X402217395Y-258249538D01*
X402121422Y-258125976D01*
X402043841Y-257994068D01*
X401984653Y-257853813D01*
X401943858Y-257705212D01*
X401927418Y-257605218D01*
X401921788Y-257439153D01*
X401925377Y-257415848D01*
X402458370Y-257415848D01*
X402477285Y-257569658D01*
X402516311Y-257739433D01*
X402564642Y-257905468D01*
X402623569Y-258052975D01*
X402711025Y-258182219D01*
X402752046Y-258218283D01*
X402885208Y-258302282D01*
X403038555Y-258336092D01*
X403171926Y-258293078D01*
X403274493Y-258183684D01*
X403321137Y-258042453D01*
X403325694Y-257893949D01*
X403309395Y-257732378D01*
X403280355Y-257570390D01*
X403246184Y-257457748D01*
X403169969Y-257320001D01*
X403069329Y-257206224D01*
X403051606Y-257190253D01*
X402924982Y-257107306D01*
X402774772Y-257074333D01*
X402627973Y-257101864D01*
X402510257Y-257199630D01*
X402476872Y-257270017D01*
X402458370Y-257415848D01*
X401925377Y-257415848D01*
X401945610Y-257284449D01*
X401998884Y-257141104D01*
X402081611Y-257009120D01*
X402139943Y-256941457D01*
X402255633Y-256844756D01*
X402388644Y-256775683D01*
X402538976Y-256734240D01*
X402706629Y-256720425D01*
X402760118Y-256720425D01*
X402889802Y-256730394D01*
G37*
G36*
X400738511Y-256730394D02*
G01*
X400889093Y-256767225D01*
X401038904Y-256831193D01*
X401166699Y-256907623D01*
X401293928Y-257003991D01*
X401335253Y-257039921D01*
X401447343Y-257153514D01*
X401541607Y-257275813D01*
X401618046Y-257406820D01*
X401676658Y-257546534D01*
X401717445Y-257694954D01*
X401733634Y-257795029D01*
X401738492Y-257961619D01*
X401713478Y-258117341D01*
X401658591Y-258262193D01*
X401573830Y-258396175D01*
X401514250Y-258465040D01*
X401398305Y-258563460D01*
X401267493Y-258633760D01*
X401121814Y-258675940D01*
X400961269Y-258690000D01*
X400907780Y-258690000D01*
X400780105Y-258679850D01*
X400630695Y-258642354D01*
X400480794Y-258577228D01*
X400351917Y-258499416D01*
X400222679Y-258401304D01*
X400180470Y-258364754D01*
X400066104Y-258249538D01*
X399970131Y-258125976D01*
X399892550Y-257994068D01*
X399833362Y-257853813D01*
X399792567Y-257705212D01*
X399776127Y-257605218D01*
X399770497Y-257439153D01*
X399774086Y-257415848D01*
X400307079Y-257415848D01*
X400325994Y-257569658D01*
X400365020Y-257739433D01*
X400413351Y-257905468D01*
X400472278Y-258052975D01*
X400559734Y-258182219D01*
X400600755Y-258218283D01*
X400733917Y-258302282D01*
X400887264Y-258336092D01*
X401020635Y-258293078D01*
X401123202Y-258183684D01*
X401169846Y-258042453D01*
X401174403Y-257893949D01*
X401158104Y-257732378D01*
X401129064Y-257570390D01*
X401094893Y-257457748D01*
X401018678Y-257320001D01*
X400918038Y-257206224D01*
X400900315Y-257190253D01*
X400773691Y-257107306D01*
X400623481Y-257074333D01*
X400476682Y-257101864D01*
X400358966Y-257199630D01*
X400325581Y-257270017D01*
X400307079Y-257415848D01*
X399774086Y-257415848D01*
X399794319Y-257284449D01*
X399847593Y-257141104D01*
X399930320Y-257009120D01*
X399988652Y-256941457D01*
X400104342Y-256844756D01*
X400237353Y-256775683D01*
X400387685Y-256734240D01*
X400555338Y-256720425D01*
X400608827Y-256720425D01*
X400738511Y-256730394D01*
G37*
G36*
X398804116Y-257784347D02*
G01*
X398823992Y-257929839D01*
X398807352Y-258083381D01*
X398722051Y-258195408D01*
X398665004Y-258331010D01*
X398717654Y-258476775D01*
X398807334Y-258606709D01*
X398933633Y-258684794D01*
X398979239Y-258690000D01*
X399128459Y-258654934D01*
X399240622Y-258549736D01*
X399304829Y-258411502D01*
X399310432Y-258393244D01*
X399339006Y-258239625D01*
X399343872Y-258084584D01*
X399332276Y-257934648D01*
X399305884Y-257771388D01*
X399300906Y-257746978D01*
X399195393Y-257236266D01*
X399270864Y-257236266D01*
X399401290Y-257184975D01*
X399432065Y-257052351D01*
X399431332Y-257048688D01*
X399351276Y-256920253D01*
X399347068Y-256916796D01*
X399209115Y-256861599D01*
X399193195Y-256861109D01*
X399116991Y-256861109D01*
X399075226Y-256658876D01*
X399011547Y-256521756D01*
X398918422Y-256439790D01*
X398775838Y-256393837D01*
X398735240Y-256392163D01*
X398726447Y-256392163D01*
X398604814Y-256479357D01*
X398565782Y-256624435D01*
X398570376Y-256658876D01*
X398612142Y-256861109D01*
X398459734Y-256861109D01*
X398354221Y-256918262D01*
X398330041Y-257048688D01*
X398330774Y-257052351D01*
X398401184Y-257180894D01*
X398408443Y-257187173D01*
X398538136Y-257236266D01*
X398690543Y-257236266D01*
X398804116Y-257784347D01*
G37*
G36*
X398302197Y-258363203D02*
G01*
X398203917Y-258247669D01*
X398176901Y-258231311D01*
X398029443Y-258213101D01*
X397981262Y-258226915D01*
X397833858Y-258262178D01*
X397740195Y-258267948D01*
X397589413Y-258247237D01*
X397476697Y-258146990D01*
X397469085Y-258120669D01*
X397498394Y-258011493D01*
X397625369Y-257936145D01*
X397683042Y-257911842D01*
X397817527Y-257850529D01*
X397943442Y-257765006D01*
X398041440Y-257648755D01*
X398088953Y-257494172D01*
X398079448Y-257363028D01*
X398033582Y-257222063D01*
X397947544Y-257083789D01*
X397838540Y-256975861D01*
X397780495Y-256932916D01*
X397652862Y-256860468D01*
X397513232Y-256808719D01*
X397361603Y-256777670D01*
X397197975Y-256767320D01*
X397050972Y-256778107D01*
X396903968Y-256810468D01*
X396884368Y-256816413D01*
X396786182Y-256910202D01*
X396796231Y-257060375D01*
X396798638Y-257065540D01*
X396799371Y-257067739D01*
X396894179Y-257184826D01*
X396914409Y-257197431D01*
X397059541Y-257222258D01*
X397087333Y-257215750D01*
X397233788Y-257190299D01*
X397267585Y-257189371D01*
X397420235Y-257217281D01*
X397513049Y-257335184D01*
X397473481Y-257443628D01*
X397345703Y-257516042D01*
X397266852Y-257547676D01*
X397119007Y-257618919D01*
X396993013Y-257720985D01*
X396910329Y-257862619D01*
X396891626Y-258008413D01*
X396903419Y-258100886D01*
X396948698Y-258240730D01*
X397033678Y-258378031D01*
X397141361Y-258485328D01*
X397198708Y-258528066D01*
X397327623Y-258598912D01*
X397475496Y-258649516D01*
X397620439Y-258677190D01*
X397779896Y-258689367D01*
X397828122Y-258690000D01*
X397978389Y-258681859D01*
X398124740Y-258657439D01*
X398220132Y-258632114D01*
X398314654Y-258528066D01*
X398308257Y-258379775D01*
X398303663Y-258369797D01*
X398302197Y-258363203D01*
G37*
G36*
X393987892Y-256814214D02*
G01*
X393979832Y-256814214D01*
X393836883Y-256862180D01*
X393792986Y-256925589D01*
X393780619Y-257078696D01*
X393815700Y-257165191D01*
X394528645Y-258429881D01*
X394619063Y-258546805D01*
X394711827Y-258618192D01*
X394852337Y-258678148D01*
X394949964Y-258690000D01*
X394955093Y-258690000D01*
X395101014Y-258660810D01*
X395181506Y-258607201D01*
X395259931Y-258476139D01*
X395274563Y-258388848D01*
X395309001Y-257852491D01*
X395563258Y-258388848D01*
X395648774Y-258516526D01*
X395753767Y-258607201D01*
X395888245Y-258671807D01*
X396006559Y-258690000D01*
X396010955Y-258690000D01*
X396157074Y-258660021D01*
X396220516Y-258620390D01*
X396307224Y-258500466D01*
X396326028Y-258430614D01*
X396513607Y-257165191D01*
X396495606Y-257018509D01*
X396434472Y-256925589D01*
X396311932Y-256835532D01*
X396202197Y-256814214D01*
X396199266Y-256814214D01*
X396055285Y-256857445D01*
X395994102Y-256987138D01*
X395916433Y-257569658D01*
X395907273Y-257723659D01*
X395899535Y-257870259D01*
X395891060Y-258034539D01*
X395887857Y-258097222D01*
X395828506Y-257961473D01*
X395769155Y-257825700D01*
X395709804Y-257689905D01*
X395650453Y-257554087D01*
X395591102Y-257418246D01*
X395531751Y-257282382D01*
X395472400Y-257146495D01*
X395413049Y-257010586D01*
X395322853Y-256892823D01*
X395287019Y-256867704D01*
X395147761Y-256815520D01*
X395122888Y-256814214D01*
X395065003Y-256814214D01*
X394919126Y-256862514D01*
X394857935Y-257007414D01*
X394856175Y-257034033D01*
X394851424Y-257185716D01*
X394846650Y-257355518D01*
X394841569Y-257542159D01*
X394836783Y-257721020D01*
X394832774Y-257872400D01*
X394828403Y-258038554D01*
X394826866Y-258097222D01*
X394758802Y-257949141D01*
X394690621Y-257800828D01*
X394622325Y-257652283D01*
X394584333Y-257569658D01*
X394267061Y-256987138D01*
X394166022Y-256868929D01*
X394021347Y-256815734D01*
X393987892Y-256814214D01*
G37*
G36*
X393535065Y-258690000D02*
G01*
X393679012Y-258647747D01*
X393727040Y-258600607D01*
X393776062Y-258459682D01*
X393768806Y-258383719D01*
X393516747Y-257169588D01*
X393456913Y-257031362D01*
X393384123Y-256951967D01*
X393250248Y-256876104D01*
X393154779Y-256861109D01*
X393151848Y-256861109D01*
X393011176Y-256904054D01*
X392962804Y-256951967D01*
X392912807Y-257093553D01*
X392920306Y-257169588D01*
X393172365Y-258382254D01*
X393232104Y-258520479D01*
X393305721Y-258599874D01*
X393437150Y-258675125D01*
X393532135Y-258690000D01*
X393535065Y-258690000D01*
G37*
G36*
X392799406Y-256367250D02*
G01*
X392859661Y-256505829D01*
X392934228Y-256584870D01*
X393066336Y-256658898D01*
X393163572Y-256673531D01*
X393307834Y-256631625D01*
X393355547Y-256584870D01*
X393403561Y-256444261D01*
X393395847Y-256367983D01*
X393336367Y-256229825D01*
X393263223Y-256152561D01*
X393133046Y-256078533D01*
X393035345Y-256063900D01*
X392892657Y-256104075D01*
X392843370Y-256148897D01*
X392792050Y-256289255D01*
X392799406Y-256367250D01*
G37*
G36*
X392054221Y-257784347D02*
G01*
X392074096Y-257929839D01*
X392057457Y-258083381D01*
X391972155Y-258195408D01*
X391915109Y-258331010D01*
X391967759Y-258476775D01*
X392057438Y-258606709D01*
X392183737Y-258684794D01*
X392229343Y-258690000D01*
X392378564Y-258654934D01*
X392490727Y-258549736D01*
X392554934Y-258411502D01*
X392560537Y-258393244D01*
X392589111Y-258239625D01*
X392593977Y-258084584D01*
X392582381Y-257934648D01*
X392555989Y-257771388D01*
X392551011Y-257746978D01*
X392445498Y-257236266D01*
X392520969Y-257236266D01*
X392651395Y-257184975D01*
X392682169Y-257052351D01*
X392681437Y-257048688D01*
X392601381Y-256920253D01*
X392597173Y-256916796D01*
X392459220Y-256861599D01*
X392443300Y-256861109D01*
X392367096Y-256861109D01*
X392325331Y-256658876D01*
X392261652Y-256521756D01*
X392168527Y-256439790D01*
X392025942Y-256393837D01*
X391985345Y-256392163D01*
X391976552Y-256392163D01*
X391854919Y-256479357D01*
X391815887Y-256624435D01*
X391820481Y-256658876D01*
X391862246Y-256861109D01*
X391709839Y-256861109D01*
X391604326Y-256918262D01*
X391580146Y-257048688D01*
X391580878Y-257052351D01*
X391651289Y-257180894D01*
X391658548Y-257187173D01*
X391788241Y-257236266D01*
X391940648Y-257236266D01*
X392054221Y-257784347D01*
G37*
G36*
X390152791Y-258430614D02*
G01*
X390154989Y-258438674D01*
X390218736Y-258572030D01*
X390351532Y-258652673D01*
X390495158Y-258682626D01*
X390639322Y-258690000D01*
X390789709Y-258680340D01*
X390949402Y-258644651D01*
X391092126Y-258582666D01*
X391217879Y-258494385D01*
X391297312Y-258415226D01*
X391387102Y-258289578D01*
X391446177Y-258153061D01*
X391474537Y-258005675D01*
X391472183Y-257847419D01*
X391457047Y-257752107D01*
X391417188Y-257610470D01*
X391346332Y-257455320D01*
X391264725Y-257330985D01*
X391163849Y-257214636D01*
X391043704Y-257106272D01*
X391021807Y-257088988D01*
X390886601Y-256995608D01*
X390746965Y-256921548D01*
X390602898Y-256866808D01*
X390454400Y-256831388D01*
X390301471Y-256815288D01*
X390249511Y-256814214D01*
X390097577Y-256824347D01*
X389971074Y-256850118D01*
X389864460Y-256957769D01*
X389866294Y-257049420D01*
X389868492Y-257062609D01*
X389941049Y-257195613D01*
X389975470Y-257223077D01*
X390119681Y-257262462D01*
X390213607Y-257253119D01*
X390362618Y-257247978D01*
X390513900Y-257280768D01*
X390564584Y-257297815D01*
X390691988Y-257370633D01*
X390767550Y-257450223D01*
X390844587Y-257577463D01*
X390884054Y-257699351D01*
X390888450Y-257721332D01*
X390897948Y-257878121D01*
X390852186Y-258026144D01*
X390821772Y-258073775D01*
X390710314Y-258174453D01*
X390568282Y-258218752D01*
X390522086Y-258221053D01*
X390373903Y-258216245D01*
X390349894Y-258212260D01*
X390208283Y-258252332D01*
X390192358Y-258267948D01*
X390149777Y-258412500D01*
X390152791Y-258430614D01*
G37*
G36*
X387851290Y-257757969D02*
G01*
X387885179Y-257921184D01*
X387915361Y-258066548D01*
X387947794Y-258222750D01*
X387978505Y-258370664D01*
X387986845Y-258410830D01*
X388051715Y-258548910D01*
X388112142Y-258609399D01*
X388247276Y-258680475D01*
X388325366Y-258690000D01*
X388331227Y-258690000D01*
X388475346Y-258643838D01*
X388510746Y-258607934D01*
X388554710Y-258463678D01*
X388547382Y-258405701D01*
X388385449Y-257626810D01*
X388367089Y-257468438D01*
X388393292Y-257322728D01*
X388482902Y-257223810D01*
X388624863Y-257187075D01*
X388773292Y-257214776D01*
X388867585Y-257258248D01*
X388998631Y-257345176D01*
X389095234Y-257457733D01*
X389123307Y-257532288D01*
X389303558Y-258402037D01*
X389365096Y-258539824D01*
X389430320Y-258607934D01*
X389561467Y-258678459D01*
X389646475Y-258690000D01*
X389647941Y-258690000D01*
X389789510Y-258648361D01*
X389829657Y-258609399D01*
X389874033Y-258465693D01*
X389867026Y-258407166D01*
X389438380Y-256347466D01*
X389375403Y-256207493D01*
X389317480Y-256144501D01*
X389184329Y-256075235D01*
X389100592Y-256063900D01*
X389096196Y-256063900D01*
X388950704Y-256109238D01*
X388913747Y-256144501D01*
X388868684Y-256286146D01*
X388875645Y-256343070D01*
X389023656Y-257054549D01*
X388893001Y-256964653D01*
X388755102Y-256890342D01*
X388613164Y-256841083D01*
X388546650Y-256829602D01*
X388381021Y-256822629D01*
X388215723Y-256843406D01*
X388063648Y-256905276D01*
X387950865Y-257007812D01*
X387918701Y-257056748D01*
X387855687Y-257202240D01*
X387825794Y-257345850D01*
X387819462Y-257504677D01*
X387832789Y-257652925D01*
X387851290Y-257757969D01*
G37*
G36*
X385315317Y-258690000D02*
G01*
X385376133Y-258690000D01*
X385523160Y-258684550D01*
X385691294Y-258662411D01*
X385842040Y-258623241D01*
X385999983Y-258553758D01*
X386132887Y-258459751D01*
X386240753Y-258341221D01*
X386324086Y-258202040D01*
X386381196Y-258048278D01*
X386412083Y-257879937D01*
X386417789Y-257728514D01*
X386405285Y-257566967D01*
X386382169Y-257430439D01*
X386338106Y-257260634D01*
X386278729Y-257101098D01*
X386204039Y-256951829D01*
X386114037Y-256812829D01*
X386008721Y-256684097D01*
X385888093Y-256565633D01*
X385835554Y-256521123D01*
X385697480Y-256418759D01*
X385552538Y-256331029D01*
X385400725Y-256257931D01*
X385242044Y-256199467D01*
X385076493Y-256155635D01*
X384904073Y-256126437D01*
X384833181Y-256118855D01*
X384744521Y-256110795D01*
X384592114Y-256122519D01*
X384440155Y-256148897D01*
X384305617Y-256189930D01*
X384195021Y-256291138D01*
X384195707Y-256398025D01*
X384261287Y-256529549D01*
X384393544Y-256609050D01*
X384541199Y-256607709D01*
X384589915Y-256586336D01*
X384733656Y-256540369D01*
X384838310Y-256532847D01*
X384994840Y-256548646D01*
X385145690Y-256596045D01*
X385290862Y-256675042D01*
X385413229Y-256770085D01*
X385430355Y-256785638D01*
X385541532Y-256904639D01*
X385633355Y-257032756D01*
X385705824Y-257169990D01*
X385758938Y-257316340D01*
X385780599Y-257404061D01*
X385801301Y-257555234D01*
X385796367Y-257715896D01*
X385760932Y-257863644D01*
X385694998Y-257998478D01*
X385684612Y-258014424D01*
X385577167Y-258136977D01*
X385446074Y-258219422D01*
X385291334Y-258261758D01*
X385195149Y-258267948D01*
X385044140Y-258254093D01*
X384922574Y-258218855D01*
X384774157Y-258185985D01*
X384721807Y-258193942D01*
X384715945Y-258193942D01*
X384598608Y-258293067D01*
X384593579Y-258424019D01*
X384660287Y-258561685D01*
X384791716Y-258639458D01*
X384814130Y-258645303D01*
X384966222Y-258674242D01*
X385123634Y-258688428D01*
X385198080Y-258690000D01*
X385256698Y-258690000D01*
X385315317Y-258690000D01*
G37*
G36*
X383223368Y-256730394D02*
G01*
X383373950Y-256767225D01*
X383523761Y-256831193D01*
X383651556Y-256907623D01*
X383778785Y-257003991D01*
X383820110Y-257039921D01*
X383932200Y-257153514D01*
X384026464Y-257275813D01*
X384102903Y-257406820D01*
X384161515Y-257546534D01*
X384202302Y-257694954D01*
X384218491Y-257795029D01*
X384223349Y-257961619D01*
X384198335Y-258117341D01*
X384143448Y-258262193D01*
X384058687Y-258396175D01*
X383999107Y-258465040D01*
X383883162Y-258563460D01*
X383752349Y-258633760D01*
X383606671Y-258675940D01*
X383446126Y-258690000D01*
X383392637Y-258690000D01*
X383264962Y-258679850D01*
X383115552Y-258642354D01*
X382965651Y-258577228D01*
X382836774Y-258499416D01*
X382707536Y-258401304D01*
X382665327Y-258364754D01*
X382550961Y-258249538D01*
X382454988Y-258125976D01*
X382377407Y-257994068D01*
X382318219Y-257853813D01*
X382277424Y-257705212D01*
X382260984Y-257605218D01*
X382255354Y-257439153D01*
X382258943Y-257415848D01*
X382791936Y-257415848D01*
X382810851Y-257569658D01*
X382849877Y-257739433D01*
X382898208Y-257905468D01*
X382957135Y-258052975D01*
X383044591Y-258182219D01*
X383085612Y-258218283D01*
X383218774Y-258302282D01*
X383372121Y-258336092D01*
X383505491Y-258293078D01*
X383608059Y-258183684D01*
X383654703Y-258042453D01*
X383659260Y-257893949D01*
X383642961Y-257732378D01*
X383613921Y-257570390D01*
X383579750Y-257457748D01*
X383503535Y-257320001D01*
X383402895Y-257206224D01*
X383385172Y-257190253D01*
X383258548Y-257107306D01*
X383108338Y-257074333D01*
X382961539Y-257101864D01*
X382843823Y-257199630D01*
X382810438Y-257270017D01*
X382791936Y-257415848D01*
X382258943Y-257415848D01*
X382279176Y-257284449D01*
X382332450Y-257141104D01*
X382415177Y-257009120D01*
X382473509Y-256941457D01*
X382589199Y-256844756D01*
X382722210Y-256775683D01*
X382872542Y-256734240D01*
X383040195Y-256720425D01*
X383093684Y-256720425D01*
X383223368Y-256730394D01*
G37*
G36*
X380130530Y-257727194D02*
G01*
X380164662Y-257891575D01*
X380197428Y-258049381D01*
X380233077Y-258221068D01*
X380267057Y-258384718D01*
X380285868Y-258475310D01*
X380346146Y-258609834D01*
X380411165Y-258679009D01*
X380548027Y-258732315D01*
X380622190Y-258736894D01*
X380624389Y-258736894D01*
X380771484Y-258710573D01*
X380809036Y-258681207D01*
X380855546Y-258542122D01*
X380848603Y-258476775D01*
X380685205Y-257692756D01*
X380668442Y-257543709D01*
X380700367Y-257395469D01*
X380784123Y-257310272D01*
X380937636Y-257274148D01*
X381091097Y-257308151D01*
X381175400Y-257347641D01*
X381308713Y-257433278D01*
X381408737Y-257550057D01*
X381422330Y-257596769D01*
X381604779Y-258475310D01*
X381663970Y-258611552D01*
X381726412Y-258679009D01*
X381868333Y-258733276D01*
X381933774Y-258736894D01*
X381943300Y-258736894D01*
X382090395Y-258710573D01*
X382127948Y-258681207D01*
X382174161Y-258540641D01*
X382167515Y-258476775D01*
X381861234Y-257006922D01*
X381785285Y-256877693D01*
X381776971Y-256870635D01*
X381640683Y-256814214D01*
X381437717Y-256814214D01*
X381323412Y-256874298D01*
X381298499Y-257001793D01*
X381299232Y-257006189D01*
X381164563Y-256937332D01*
X381016765Y-256869719D01*
X380874849Y-256819037D01*
X380824423Y-256807620D01*
X380674597Y-256791803D01*
X380515160Y-256799977D01*
X380357215Y-256846955D01*
X380229493Y-256934255D01*
X380131995Y-257061877D01*
X380088403Y-257207449D01*
X380081763Y-257364711D01*
X380096539Y-257532068D01*
X380124497Y-257697619D01*
X380130530Y-257727194D01*
G37*
G36*
X377944068Y-257727194D02*
G01*
X377978200Y-257891575D01*
X378010966Y-258049381D01*
X378046615Y-258221068D01*
X378080595Y-258384718D01*
X378099406Y-258475310D01*
X378159684Y-258609834D01*
X378224703Y-258679009D01*
X378361565Y-258732315D01*
X378435728Y-258736894D01*
X378437927Y-258736894D01*
X378585022Y-258710573D01*
X378622574Y-258681207D01*
X378669084Y-258542122D01*
X378662142Y-258476775D01*
X378498743Y-257692756D01*
X378481980Y-257543709D01*
X378513905Y-257395469D01*
X378597661Y-257310272D01*
X378751174Y-257274148D01*
X378904635Y-257308151D01*
X378988938Y-257347641D01*
X379122251Y-257433278D01*
X379222275Y-257550057D01*
X379235868Y-257596769D01*
X379418317Y-258475310D01*
X379477508Y-258611552D01*
X379539950Y-258679009D01*
X379681871Y-258733276D01*
X379747312Y-258736894D01*
X379756838Y-258736894D01*
X379903933Y-258710573D01*
X379941486Y-258681207D01*
X379987699Y-258540641D01*
X379981053Y-258476775D01*
X379674772Y-257006922D01*
X379598823Y-256877693D01*
X379590509Y-256870635D01*
X379454221Y-256814214D01*
X379251255Y-256814214D01*
X379136950Y-256874298D01*
X379112037Y-257001793D01*
X379112770Y-257006189D01*
X378978101Y-256937332D01*
X378830303Y-256869719D01*
X378688387Y-256819037D01*
X378637961Y-256807620D01*
X378488135Y-256791803D01*
X378328698Y-256799977D01*
X378170753Y-256846955D01*
X378043031Y-256934255D01*
X377945533Y-257061877D01*
X377901941Y-257207449D01*
X377895301Y-257364711D01*
X377910077Y-257532068D01*
X377938035Y-257697619D01*
X377944068Y-257727194D01*
G37*
G36*
X376711731Y-256820923D02*
G01*
X376865835Y-256852854D01*
X377016432Y-256911083D01*
X377163523Y-256995608D01*
X377286810Y-257088988D01*
X377399235Y-257196819D01*
X377494710Y-257312584D01*
X377584675Y-257457672D01*
X377651569Y-257613558D01*
X377690543Y-257755771D01*
X377703028Y-257827699D01*
X377711724Y-257987568D01*
X377691809Y-258136286D01*
X377634015Y-258292598D01*
X377552791Y-258417424D01*
X377466778Y-258510057D01*
X377343519Y-258603755D01*
X377193139Y-258668438D01*
X377030355Y-258690000D01*
X376952978Y-258688802D01*
X376806301Y-258679219D01*
X376648787Y-258655928D01*
X376486716Y-258613338D01*
X376343788Y-258553712D01*
X376218655Y-258479173D01*
X376121039Y-258369797D01*
X376116643Y-258367599D01*
X376096850Y-258299092D01*
X376120306Y-258152909D01*
X376171826Y-258097714D01*
X376318143Y-258109678D01*
X376543823Y-258203468D01*
X376569017Y-258213767D01*
X376710835Y-258259963D01*
X376856037Y-258280064D01*
X377010681Y-258252430D01*
X377129273Y-258164633D01*
X377172226Y-258065590D01*
X377197417Y-257918436D01*
X376093195Y-257918436D01*
X375971866Y-257880923D01*
X375899755Y-257747711D01*
X375899022Y-257745512D01*
X375889557Y-257694894D01*
X375878017Y-257564528D01*
X376269783Y-257564528D01*
X377137333Y-257564528D01*
X377132813Y-257553043D01*
X377062769Y-257413435D01*
X376960746Y-257297083D01*
X376930184Y-257274036D01*
X376802660Y-257200362D01*
X376656664Y-257168122D01*
X376534887Y-257182708D01*
X376397278Y-257244326D01*
X376358414Y-257278802D01*
X376291460Y-257416607D01*
X376269783Y-257564528D01*
X375878017Y-257564528D01*
X375874685Y-257526881D01*
X375888214Y-257373103D01*
X375938452Y-257214788D01*
X376025784Y-257075066D01*
X376039121Y-257059017D01*
X376156484Y-256948971D01*
X376292806Y-256871530D01*
X376448087Y-256826697D01*
X376599511Y-256814214D01*
X376711731Y-256820923D01*
G37*
G36*
X374352232Y-258430614D02*
G01*
X374354430Y-258438674D01*
X374418178Y-258572030D01*
X374550973Y-258652673D01*
X374694600Y-258682626D01*
X374838764Y-258690000D01*
X374989151Y-258680340D01*
X375148844Y-258644651D01*
X375291567Y-258582666D01*
X375417320Y-258494385D01*
X375496754Y-258415226D01*
X375586544Y-258289578D01*
X375645618Y-258153061D01*
X375673979Y-258005675D01*
X375671624Y-257847419D01*
X375656489Y-257752107D01*
X375616630Y-257610470D01*
X375545774Y-257455320D01*
X375464166Y-257330985D01*
X375363290Y-257214636D01*
X375243146Y-257106272D01*
X375221248Y-257088988D01*
X375086043Y-256995608D01*
X374946406Y-256921548D01*
X374802339Y-256866808D01*
X374653842Y-256831388D01*
X374500913Y-256815288D01*
X374448952Y-256814214D01*
X374297019Y-256824347D01*
X374170516Y-256850118D01*
X374063901Y-256957769D01*
X374065735Y-257049420D01*
X374067934Y-257062609D01*
X374140491Y-257195613D01*
X374174912Y-257223077D01*
X374319123Y-257262462D01*
X374413049Y-257253119D01*
X374562060Y-257247978D01*
X374713341Y-257280768D01*
X374764026Y-257297815D01*
X374891430Y-257370633D01*
X374966991Y-257450223D01*
X375044029Y-257577463D01*
X375083495Y-257699351D01*
X375087892Y-257721332D01*
X375097389Y-257878121D01*
X375051628Y-258026144D01*
X375021213Y-258073775D01*
X374909756Y-258174453D01*
X374767724Y-258218752D01*
X374721527Y-258221053D01*
X374573345Y-258216245D01*
X374549336Y-258212260D01*
X374407725Y-258252332D01*
X374391800Y-258267948D01*
X374349218Y-258412500D01*
X374352232Y-258430614D01*
G37*
G36*
X373202581Y-257784347D02*
G01*
X373222456Y-257929839D01*
X373205817Y-258083381D01*
X373120516Y-258195408D01*
X373063469Y-258331010D01*
X373116119Y-258476775D01*
X373205798Y-258606709D01*
X373332097Y-258684794D01*
X373377703Y-258690000D01*
X373526924Y-258654934D01*
X373639087Y-258549736D01*
X373703294Y-258411502D01*
X373708897Y-258393244D01*
X373737471Y-258239625D01*
X373742337Y-258084584D01*
X373730741Y-257934648D01*
X373704349Y-257771388D01*
X373699371Y-257746978D01*
X373593858Y-257236266D01*
X373669329Y-257236266D01*
X373799755Y-257184975D01*
X373830530Y-257052351D01*
X373829797Y-257048688D01*
X373749741Y-256920253D01*
X373745533Y-256916796D01*
X373607580Y-256861599D01*
X373591660Y-256861109D01*
X373515456Y-256861109D01*
X373473691Y-256658876D01*
X373410012Y-256521756D01*
X373316887Y-256439790D01*
X373174302Y-256393837D01*
X373133705Y-256392163D01*
X373124912Y-256392163D01*
X373003279Y-256479357D01*
X372964247Y-256624435D01*
X372968841Y-256658876D01*
X373010606Y-256861109D01*
X372858199Y-256861109D01*
X372752686Y-256918262D01*
X372728506Y-257048688D01*
X372729239Y-257052351D01*
X372799649Y-257180894D01*
X372806908Y-257187173D01*
X372936601Y-257236266D01*
X373089008Y-257236266D01*
X373202581Y-257784347D01*
G37*
G36*
X371660912Y-256730394D02*
G01*
X371811494Y-256767225D01*
X371961305Y-256831193D01*
X372089100Y-256907623D01*
X372216329Y-257003991D01*
X372257653Y-257039921D01*
X372369744Y-257153514D01*
X372464008Y-257275813D01*
X372540446Y-257406820D01*
X372599059Y-257546534D01*
X372639846Y-257694954D01*
X372656034Y-257795029D01*
X372660893Y-257961619D01*
X372635879Y-258117341D01*
X372580991Y-258262193D01*
X372496231Y-258396175D01*
X372436651Y-258465040D01*
X372320705Y-258563460D01*
X372189893Y-258633760D01*
X372044215Y-258675940D01*
X371883670Y-258690000D01*
X371830181Y-258690000D01*
X371702506Y-258679850D01*
X371553095Y-258642354D01*
X371403194Y-258577228D01*
X371274317Y-258499416D01*
X371145079Y-258401304D01*
X371102870Y-258364754D01*
X370988504Y-258249538D01*
X370892531Y-258125976D01*
X370814951Y-257994068D01*
X370755763Y-257853813D01*
X370714968Y-257705212D01*
X370698527Y-257605218D01*
X370692897Y-257439153D01*
X370696486Y-257415848D01*
X371229480Y-257415848D01*
X371248394Y-257569658D01*
X371287421Y-257739433D01*
X371335751Y-257905468D01*
X371394679Y-258052975D01*
X371482135Y-258182219D01*
X371523156Y-258218283D01*
X371656317Y-258302282D01*
X371809664Y-258336092D01*
X371943035Y-258293078D01*
X372045603Y-258183684D01*
X372092247Y-258042453D01*
X372096804Y-257893949D01*
X372080505Y-257732378D01*
X372051465Y-257570390D01*
X372017294Y-257457748D01*
X371941079Y-257320001D01*
X371840439Y-257206224D01*
X371822716Y-257190253D01*
X371696091Y-257107306D01*
X371545882Y-257074333D01*
X371399082Y-257101864D01*
X371281367Y-257199630D01*
X371247982Y-257270017D01*
X371229480Y-257415848D01*
X370696486Y-257415848D01*
X370716719Y-257284449D01*
X370769994Y-257141104D01*
X370852721Y-257009120D01*
X370911053Y-256941457D01*
X371026743Y-256844756D01*
X371159754Y-256775683D01*
X371310086Y-256734240D01*
X371477738Y-256720425D01*
X371531227Y-256720425D01*
X371660912Y-256730394D01*
G37*
G36*
X369588031Y-256897745D02*
G01*
X369451372Y-256843662D01*
X369290589Y-256819435D01*
X369147661Y-256814214D01*
X369069992Y-256855247D01*
X369068527Y-256944640D01*
X369148394Y-257134417D01*
X369224048Y-257266491D01*
X369320585Y-257299281D01*
X369474919Y-257298159D01*
X369614462Y-257343330D01*
X369667166Y-257372554D01*
X369787199Y-257469486D01*
X369860928Y-257603027D01*
X369862804Y-257611423D01*
X369863537Y-257615819D01*
X370027668Y-258404235D01*
X370091261Y-258541955D01*
X370150767Y-258604270D01*
X370282200Y-258677944D01*
X370367654Y-258690000D01*
X370372784Y-258690000D01*
X370516902Y-258643838D01*
X370552302Y-258607934D01*
X370596678Y-258461617D01*
X370589671Y-258403503D01*
X370319294Y-257102909D01*
X370258959Y-256967412D01*
X370194730Y-256898478D01*
X370063412Y-256826064D01*
X369980774Y-256814214D01*
X369971248Y-256814214D01*
X369832452Y-256876460D01*
X369748081Y-257008058D01*
X369736775Y-257034766D01*
X369631208Y-256928443D01*
X369588031Y-256897745D01*
G37*
D11*
%TO.C,R21*%
X334815436Y-241590000D02*
X335269564Y-241590000D01*
X334815436Y-243060000D02*
X335269564Y-243060000D01*
%TO.C,TP31*%
X272590000Y-240080000D02*
G75*
G02*
X271190000Y-240080000I-700000J0D01*
G01*
X271190000Y-240080000D02*
G75*
G02*
X272590000Y-240080000I700000J0D01*
G01*
%TO.C,R19*%
X358815436Y-241590000D02*
X359269564Y-241590000D01*
X358815436Y-243060000D02*
X359269564Y-243060000D01*
%TO.C,RV3*%
D12*
X340002500Y-245025000D02*
X328502500Y-245025000D01*
X328502500Y-281525000D01*
X340002500Y-281525000D01*
X340002500Y-245025000D01*
D11*
%TO.C,TP26*%
X332430000Y-240080000D02*
G75*
G02*
X331030000Y-240080000I-700000J0D01*
G01*
X331030000Y-240080000D02*
G75*
G02*
X332430000Y-240080000I700000J0D01*
G01*
%TO.C,TP27*%
X320680000Y-239960000D02*
G75*
G02*
X319280000Y-239960000I-700000J0D01*
G01*
X319280000Y-239960000D02*
G75*
G02*
X320680000Y-239960000I700000J0D01*
G01*
%TO.C,TP28*%
X308530000Y-239970000D02*
G75*
G02*
X307130000Y-239970000I-700000J0D01*
G01*
X307130000Y-239970000D02*
G75*
G02*
X308530000Y-239970000I700000J0D01*
G01*
%TO.C,RV9*%
D12*
X268002500Y-245025000D02*
X256502500Y-245025000D01*
X256502500Y-281525000D01*
X268002500Y-281525000D01*
X268002500Y-245025000D01*
%TO.C,RV11*%
X234502500Y-245025000D02*
X223002500Y-245025000D01*
X223002500Y-281525000D01*
X234502500Y-281525000D01*
X234502500Y-245025000D01*
D11*
%TO.C,R24*%
X298792936Y-241590000D02*
X299247064Y-241590000D01*
X298792936Y-243060000D02*
X299247064Y-243060000D01*
%TO.C,R29*%
X229325436Y-241590000D02*
X229779564Y-241590000D01*
X229325436Y-243060000D02*
X229779564Y-243060000D01*
%TO.C,C38*%
X323351252Y-239190000D02*
X322828748Y-239190000D01*
X323351252Y-240660000D02*
X322828748Y-240660000D01*
%TO.C,RV7*%
D12*
X292002500Y-245025000D02*
X280502500Y-245025000D01*
X280502500Y-281525000D01*
X292002500Y-281525000D01*
X292002500Y-245025000D01*
D11*
%TO.C,C41*%
X287351252Y-239315000D02*
X286828748Y-239315000D01*
X287351252Y-240785000D02*
X286828748Y-240785000D01*
%TO.C,TP33*%
X248640000Y-240080000D02*
G75*
G02*
X247240000Y-240080000I-700000J0D01*
G01*
X247240000Y-240080000D02*
G75*
G02*
X248640000Y-240080000I700000J0D01*
G01*
%TO.C,C40*%
X299326252Y-239190000D02*
X298803748Y-239190000D01*
X299326252Y-240660000D02*
X298803748Y-240660000D01*
%TO.C,C42*%
X275351252Y-239340000D02*
X274828748Y-239340000D01*
X275351252Y-240810000D02*
X274828748Y-240810000D01*
%TO.C,R25*%
X286825436Y-241590000D02*
X287279564Y-241590000D01*
X286825436Y-243060000D02*
X287279564Y-243060000D01*
%TO.C,C37*%
X335351252Y-239190000D02*
X334828748Y-239190000D01*
X335351252Y-240660000D02*
X334828748Y-240660000D01*
%TO.C,RV5*%
D12*
X316002500Y-245025000D02*
X304502500Y-245025000D01*
X304502500Y-281525000D01*
X316002500Y-281525000D01*
X316002500Y-245025000D01*
D11*
%TO.C,R22*%
X322825436Y-241590000D02*
X323279564Y-241590000D01*
X322825436Y-243060000D02*
X323279564Y-243060000D01*
%TO.C,RV4*%
D12*
X328002500Y-245025000D02*
X316502500Y-245025000D01*
X316502500Y-281525000D01*
X328002500Y-281525000D01*
X328002500Y-245025000D01*
D11*
%TO.C,R27*%
X262825436Y-241590000D02*
X263279564Y-241590000D01*
X262825436Y-243060000D02*
X263279564Y-243060000D01*
%TO.C,C43*%
X263351252Y-239340000D02*
X262828748Y-239340000D01*
X263351252Y-240810000D02*
X262828748Y-240810000D01*
%TO.C,TP25*%
X344640000Y-240080000D02*
G75*
G02*
X343240000Y-240080000I-700000J0D01*
G01*
X343240000Y-240080000D02*
G75*
G02*
X344640000Y-240080000I700000J0D01*
G01*
%TO.C,R26*%
X274825436Y-241590000D02*
X275279564Y-241590000D01*
X274825436Y-243060000D02*
X275279564Y-243060000D01*
%TO.C,TP32*%
X260390000Y-240080000D02*
G75*
G02*
X258990000Y-240080000I-700000J0D01*
G01*
X258990000Y-240080000D02*
G75*
G02*
X260390000Y-240080000I700000J0D01*
G01*
%TO.C,RV8*%
D12*
X280002500Y-245025000D02*
X268502500Y-245025000D01*
X268502500Y-281525000D01*
X280002500Y-281525000D01*
X280002500Y-245025000D01*
%TO.C,RV1*%
X364002500Y-245025000D02*
X352502500Y-245025000D01*
X352502500Y-281525000D01*
X364002500Y-281525000D01*
X364002500Y-245025000D01*
D11*
%TO.C,C45*%
X229851252Y-239365000D02*
X229328748Y-239365000D01*
X229851252Y-240835000D02*
X229328748Y-240835000D01*
%TO.C,C35*%
X359351252Y-239190000D02*
X358828748Y-239190000D01*
X359351252Y-240660000D02*
X358828748Y-240660000D01*
%TO.C,TP24*%
X356500000Y-240080000D02*
G75*
G02*
X355100000Y-240080000I-700000J0D01*
G01*
X355100000Y-240080000D02*
G75*
G02*
X356500000Y-240080000I700000J0D01*
G01*
%TO.C,R20*%
X346825436Y-241590000D02*
X347279564Y-241590000D01*
X346825436Y-243060000D02*
X347279564Y-243060000D01*
%TO.C,J5*%
X378540000Y-242750000D02*
X378540000Y-254470000D01*
X378540000Y-254470000D02*
X387350000Y-254470000D01*
X379960000Y-242750000D02*
X378540000Y-242750000D01*
X379960000Y-247250000D02*
X379960000Y-242750000D01*
X380850000Y-248360000D02*
X380850000Y-253860000D01*
X380850000Y-253860000D02*
X381350000Y-253860000D01*
X381350000Y-248360000D02*
X380850000Y-248360000D01*
X381350000Y-253860000D02*
X381350000Y-248360000D01*
X383350000Y-248360000D02*
X383350000Y-253860000D01*
X383350000Y-253860000D02*
X383850000Y-253860000D01*
X383850000Y-248360000D02*
X383350000Y-248360000D01*
X383850000Y-253860000D02*
X383850000Y-248360000D01*
X385850000Y-248360000D02*
X385850000Y-253860000D01*
X385850000Y-253860000D02*
X386350000Y-253860000D01*
X386350000Y-248360000D02*
X385850000Y-248360000D01*
X386350000Y-253860000D02*
X386350000Y-248360000D01*
X387350000Y-247250000D02*
X379960000Y-247250000D01*
X387350000Y-247250000D02*
X394740000Y-247250000D01*
X388350000Y-248360000D02*
X388350000Y-253860000D01*
X388350000Y-253860000D02*
X388850000Y-253860000D01*
X388850000Y-248360000D02*
X388350000Y-248360000D01*
X388850000Y-253860000D02*
X388850000Y-248360000D01*
X390850000Y-248360000D02*
X390850000Y-253860000D01*
X390850000Y-253860000D02*
X391350000Y-253860000D01*
X391350000Y-248360000D02*
X390850000Y-248360000D01*
X391350000Y-253860000D02*
X391350000Y-248360000D01*
X393300000Y-243060000D02*
X393900000Y-243060000D01*
X393350000Y-248360000D02*
X393350000Y-253860000D01*
X393350000Y-253860000D02*
X393850000Y-253860000D01*
X393600000Y-243660000D02*
X393300000Y-243060000D01*
X393850000Y-248360000D02*
X393350000Y-248360000D01*
X393850000Y-253860000D02*
X393850000Y-248360000D01*
X393900000Y-243060000D02*
X393600000Y-243660000D01*
X394740000Y-242750000D02*
X396160000Y-242750000D01*
X394740000Y-247250000D02*
X394740000Y-242750000D01*
X396160000Y-242750000D02*
X396160000Y-254470000D01*
X396160000Y-254470000D02*
X387350000Y-254470000D01*
%TO.C,C44*%
X251351252Y-239340000D02*
X250828748Y-239340000D01*
X251351252Y-240810000D02*
X250828748Y-240810000D01*
%TO.C,R23*%
X310825436Y-241590000D02*
X311279564Y-241590000D01*
X310825436Y-243060000D02*
X311279564Y-243060000D01*
%TO.C,C36*%
X347351252Y-239215000D02*
X346828748Y-239215000D01*
X347351252Y-240685000D02*
X346828748Y-240685000D01*
%TO.C,RV10*%
D12*
X256002500Y-245025000D02*
X244502500Y-245025000D01*
X244502500Y-281525000D01*
X256002500Y-281525000D01*
X256002500Y-245025000D01*
D11*
%TO.C,C39*%
X311351252Y-239140000D02*
X310828748Y-239140000D01*
X311351252Y-240610000D02*
X310828748Y-240610000D01*
%TO.C,TP34*%
X227240000Y-240080000D02*
G75*
G02*
X225840000Y-240080000I-700000J0D01*
G01*
X225840000Y-240080000D02*
G75*
G02*
X227240000Y-240080000I700000J0D01*
G01*
%TO.C,R28*%
X250825436Y-241590000D02*
X251279564Y-241590000D01*
X250825436Y-243060000D02*
X251279564Y-243060000D01*
%TO.C,TP29*%
X296650000Y-239990000D02*
G75*
G02*
X295250000Y-239990000I-700000J0D01*
G01*
X295250000Y-239990000D02*
G75*
G02*
X296650000Y-239990000I700000J0D01*
G01*
%TO.C,RV6*%
D12*
X304002500Y-245025000D02*
X292502500Y-245025000D01*
X292502500Y-281525000D01*
X304002500Y-281525000D01*
X304002500Y-245025000D01*
%TO.C,RV2*%
X352002500Y-245025000D02*
X340502500Y-245025000D01*
X340502500Y-281525000D01*
X352002500Y-281525000D01*
X352002500Y-245025000D01*
D11*
%TO.C,TP30*%
X284640000Y-240080000D02*
G75*
G02*
X283240000Y-240080000I-700000J0D01*
G01*
X283240000Y-240080000D02*
G75*
G02*
X284640000Y-240080000I700000J0D01*
G01*
%TD*%
M02*
