%TF.GenerationSoftware,KiCad,Pcbnew,8.0.6-8.0.6-0~ubuntu22.04.1*%
%TF.CreationDate,2024-11-15T16:44:39-05:00*%
%TF.ProjectId,multi-band-equalizer,6d756c74-692d-4626-916e-642d65717561,rev?*%
%TF.SameCoordinates,Original*%
%TF.FileFunction,Copper,L1,Top*%
%TF.FilePolarity,Positive*%
%FSLAX46Y46*%
G04 Gerber Fmt 4.6, Leading zero omitted, Abs format (unit mm)*
G04 Created by KiCad (PCBNEW 8.0.6-8.0.6-0~ubuntu22.04.1) date 2024-11-15 16:44:39*
%MOMM*%
%LPD*%
G01*
G04 APERTURE LIST*
G04 Aperture macros list*
%AMRoundRect*
0 Rectangle with rounded corners*
0 $1 Rounding radius*
0 $2 $3 $4 $5 $6 $7 $8 $9 X,Y pos of 4 corners*
0 Add a 4 corners polygon primitive as box body*
4,1,4,$2,$3,$4,$5,$6,$7,$8,$9,$2,$3,0*
0 Add four circle primitives for the rounded corners*
1,1,$1+$1,$2,$3*
1,1,$1+$1,$4,$5*
1,1,$1+$1,$6,$7*
1,1,$1+$1,$8,$9*
0 Add four rect primitives between the rounded corners*
20,1,$1+$1,$2,$3,$4,$5,0*
20,1,$1+$1,$4,$5,$6,$7,0*
20,1,$1+$1,$6,$7,$8,$9,0*
20,1,$1+$1,$8,$9,$2,$3,0*%
G04 Aperture macros list end*
%TA.AperFunction,SMDPad,CuDef*%
%ADD10RoundRect,0.250000X0.262500X0.450000X-0.262500X0.450000X-0.262500X-0.450000X0.262500X-0.450000X0*%
%TD*%
%TA.AperFunction,SMDPad,CuDef*%
%ADD11RoundRect,0.250000X0.450000X-0.262500X0.450000X0.262500X-0.450000X0.262500X-0.450000X-0.262500X0*%
%TD*%
%TA.AperFunction,ComponentPad*%
%ADD12C,1.000000*%
%TD*%
%TA.AperFunction,SMDPad,CuDef*%
%ADD13RoundRect,0.250000X-0.262500X-0.450000X0.262500X-0.450000X0.262500X0.450000X-0.262500X0.450000X0*%
%TD*%
%TA.AperFunction,SMDPad,CuDef*%
%ADD14RoundRect,0.250000X0.250000X0.475000X-0.250000X0.475000X-0.250000X-0.475000X0.250000X-0.475000X0*%
%TD*%
%TA.AperFunction,SMDPad,CuDef*%
%ADD15RoundRect,0.250000X-0.475000X0.250000X-0.475000X-0.250000X0.475000X-0.250000X0.475000X0.250000X0*%
%TD*%
%TA.AperFunction,SMDPad,CuDef*%
%ADD16RoundRect,0.250000X-0.250000X-0.475000X0.250000X-0.475000X0.250000X0.475000X-0.250000X0.475000X0*%
%TD*%
%TA.AperFunction,SMDPad,CuDef*%
%ADD17RoundRect,0.250000X-0.450000X0.262500X-0.450000X-0.262500X0.450000X-0.262500X0.450000X0.262500X0*%
%TD*%
%TA.AperFunction,SMDPad,CuDef*%
%ADD18RoundRect,0.150000X0.150000X-0.825000X0.150000X0.825000X-0.150000X0.825000X-0.150000X-0.825000X0*%
%TD*%
%TA.AperFunction,SMDPad,CuDef*%
%ADD19RoundRect,0.250000X0.475000X-0.250000X0.475000X0.250000X-0.475000X0.250000X-0.475000X-0.250000X0*%
%TD*%
%TA.AperFunction,SMDPad,CuDef*%
%ADD20RoundRect,0.150000X-0.512500X-0.150000X0.512500X-0.150000X0.512500X0.150000X-0.512500X0.150000X0*%
%TD*%
%TA.AperFunction,SMDPad,CuDef*%
%ADD21RoundRect,0.250000X-0.550000X1.050000X-0.550000X-1.050000X0.550000X-1.050000X0.550000X1.050000X0*%
%TD*%
%TA.AperFunction,SMDPad,CuDef*%
%ADD22RoundRect,0.250000X-1.250000X-0.550000X1.250000X-0.550000X1.250000X0.550000X-1.250000X0.550000X0*%
%TD*%
%TA.AperFunction,SMDPad,CuDef*%
%ADD23C,1.000000*%
%TD*%
%TA.AperFunction,ComponentPad*%
%ADD24C,0.900000*%
%TD*%
%TA.AperFunction,ComponentPad*%
%ADD25C,8.600000*%
%TD*%
%TA.AperFunction,SMDPad,CuDef*%
%ADD26RoundRect,0.112500X0.187500X0.112500X-0.187500X0.112500X-0.187500X-0.112500X0.187500X-0.112500X0*%
%TD*%
%TA.AperFunction,SMDPad,CuDef*%
%ADD27RoundRect,0.150000X-0.150000X0.825000X-0.150000X-0.825000X0.150000X-0.825000X0.150000X0.825000X0*%
%TD*%
%TA.AperFunction,SMDPad,CuDef*%
%ADD28RoundRect,0.218750X-0.381250X0.218750X-0.381250X-0.218750X0.381250X-0.218750X0.381250X0.218750X0*%
%TD*%
%TA.AperFunction,SMDPad,CuDef*%
%ADD29RoundRect,0.112500X-0.187500X-0.112500X0.187500X-0.112500X0.187500X0.112500X-0.187500X0.112500X0*%
%TD*%
%TA.AperFunction,SMDPad,CuDef*%
%ADD30RoundRect,0.243750X-0.456250X0.243750X-0.456250X-0.243750X0.456250X-0.243750X0.456250X0.243750X0*%
%TD*%
%TA.AperFunction,SMDPad,CuDef*%
%ADD31R,1.000000X1.150000*%
%TD*%
%TA.AperFunction,SMDPad,CuDef*%
%ADD32RoundRect,0.112500X-0.112500X0.187500X-0.112500X-0.187500X0.112500X-0.187500X0.112500X0.187500X0*%
%TD*%
%TA.AperFunction,ComponentPad*%
%ADD33R,3.500000X3.500000*%
%TD*%
%TA.AperFunction,ComponentPad*%
%ADD34RoundRect,0.750000X-1.000000X0.750000X-1.000000X-0.750000X1.000000X-0.750000X1.000000X0.750000X0*%
%TD*%
%TA.AperFunction,ComponentPad*%
%ADD35RoundRect,0.875000X-0.875000X0.875000X-0.875000X-0.875000X0.875000X-0.875000X0.875000X0.875000X0*%
%TD*%
%TA.AperFunction,ComponentPad*%
%ADD36C,2.000000*%
%TD*%
%TA.AperFunction,ComponentPad*%
%ADD37RoundRect,0.250000X-0.600000X-0.725000X0.600000X-0.725000X0.600000X0.725000X-0.600000X0.725000X0*%
%TD*%
%TA.AperFunction,ComponentPad*%
%ADD38O,1.700000X1.950000*%
%TD*%
%TA.AperFunction,SMDPad,CuDef*%
%ADD39RoundRect,0.250000X-1.050000X-0.550000X1.050000X-0.550000X1.050000X0.550000X-1.050000X0.550000X0*%
%TD*%
%TA.AperFunction,SMDPad,CuDef*%
%ADD40RoundRect,0.243750X0.456250X-0.243750X0.456250X0.243750X-0.456250X0.243750X-0.456250X-0.243750X0*%
%TD*%
%TA.AperFunction,SMDPad,CuDef*%
%ADD41RoundRect,0.250000X0.550000X-1.050000X0.550000X1.050000X-0.550000X1.050000X-0.550000X-1.050000X0*%
%TD*%
%TA.AperFunction,ComponentPad*%
%ADD42C,2.175000*%
%TD*%
%TA.AperFunction,ComponentPad*%
%ADD43C,3.150000*%
%TD*%
%TA.AperFunction,ConnectorPad*%
%ADD44C,0.787400*%
%TD*%
%TA.AperFunction,SMDPad,CuDef*%
%ADD45RoundRect,0.150000X-0.825000X-0.150000X0.825000X-0.150000X0.825000X0.150000X-0.825000X0.150000X0*%
%TD*%
%TA.AperFunction,SMDPad,CuDef*%
%ADD46RoundRect,0.075000X-0.725000X-0.075000X0.725000X-0.075000X0.725000X0.075000X-0.725000X0.075000X0*%
%TD*%
%TA.AperFunction,SMDPad,CuDef*%
%ADD47RoundRect,0.075000X-0.075000X-0.725000X0.075000X-0.725000X0.075000X0.725000X-0.075000X0.725000X0*%
%TD*%
%TA.AperFunction,SMDPad,CuDef*%
%ADD48RoundRect,0.100000X-0.637500X-0.100000X0.637500X-0.100000X0.637500X0.100000X-0.637500X0.100000X0*%
%TD*%
%TA.AperFunction,SMDPad,CuDef*%
%ADD49RoundRect,0.250000X-0.300000X-0.300000X0.300000X-0.300000X0.300000X0.300000X-0.300000X0.300000X0*%
%TD*%
%TA.AperFunction,SMDPad,CuDef*%
%ADD50RoundRect,0.250000X1.050000X0.550000X-1.050000X0.550000X-1.050000X-0.550000X1.050000X-0.550000X0*%
%TD*%
%TA.AperFunction,ViaPad*%
%ADD51C,0.900000*%
%TD*%
%TA.AperFunction,ViaPad*%
%ADD52C,0.700000*%
%TD*%
%TA.AperFunction,Conductor*%
%ADD53C,0.300000*%
%TD*%
%TA.AperFunction,Conductor*%
%ADD54C,0.600000*%
%TD*%
%TA.AperFunction,Conductor*%
%ADD55C,0.200000*%
%TD*%
%TA.AperFunction,Conductor*%
%ADD56C,1.000000*%
%TD*%
G04 APERTURE END LIST*
D10*
%TO.P,R18,1*%
%TO.N,Net-(D9-K)*%
X214652500Y-188162500D03*
%TO.P,R18,2*%
%TO.N,GND*%
X212827500Y-188162500D03*
%TD*%
D11*
%TO.P,R62,1*%
%TO.N,GND*%
X371520000Y-206392500D03*
%TO.P,R62,2*%
%TO.N,/ASIGNAL_IN_R+*%
X371520000Y-204567500D03*
%TD*%
D12*
%TO.P,TP22,1,1*%
%TO.N,GND*%
X291777500Y-242475000D03*
%TD*%
D13*
%TO.P,R10,1*%
%TO.N,Net-(D6-K)*%
X262487500Y-225430000D03*
%TO.P,R10,2*%
%TO.N,GND*%
X264312500Y-225430000D03*
%TD*%
D14*
%TO.P,C16,1*%
%TO.N,+3.3V*%
X301705000Y-213925000D03*
%TO.P,C16,2*%
%TO.N,GND*%
X299805000Y-213925000D03*
%TD*%
D11*
%TO.P,R8,1*%
%TO.N,+3.3V*%
X297505000Y-221225000D03*
%TO.P,R8,2*%
%TO.N,/I2C_SCL*%
X297505000Y-219400000D03*
%TD*%
D15*
%TO.P,C64,1*%
%TO.N,/CODEC_AINB_BUFF-*%
X340320000Y-197630000D03*
%TO.P,C64,2*%
%TO.N,/CODEC_AINB_BUFF+*%
X340320000Y-199530000D03*
%TD*%
D12*
%TO.P,TP20,1,1*%
%TO.N,GND*%
X289137500Y-215675000D03*
%TD*%
D14*
%TO.P,C7,1*%
%TO.N,+3.3V*%
X252230000Y-219630000D03*
%TO.P,C7,2*%
%TO.N,GND*%
X250330000Y-219630000D03*
%TD*%
D16*
%TO.P,C46,1*%
%TO.N,+5V*%
X380135000Y-223245000D03*
%TO.P,C46,2*%
%TO.N,GND*%
X382035000Y-223245000D03*
%TD*%
D11*
%TO.P,R72,1*%
%TO.N,/CODEC_AOUTA+*%
X301910016Y-195782500D03*
%TO.P,R72,2*%
%TO.N,Net-(C73-Pad2)*%
X301910016Y-193957500D03*
%TD*%
D17*
%TO.P,R67,1*%
%TO.N,/CODEC_AINB_BUFF-*%
X348095000Y-190982500D03*
%TO.P,R67,2*%
%TO.N,Net-(C66-Pad2)*%
X348095000Y-192807500D03*
%TD*%
D16*
%TO.P,C30,1*%
%TO.N,Net-(Q1-S)*%
X211890000Y-179240000D03*
%TO.P,C30,2*%
%TO.N,GND*%
X213790000Y-179240000D03*
%TD*%
D10*
%TO.P,R5,1*%
%TO.N,Net-(U1-VD)*%
X295517500Y-209610000D03*
%TO.P,R5,2*%
%TO.N,+5V*%
X293692500Y-209610000D03*
%TD*%
D15*
%TO.P,C79,1*%
%TO.N,Net-(U10A-+)*%
X326220000Y-189835000D03*
%TO.P,C79,2*%
%TO.N,GND*%
X326220000Y-191735000D03*
%TD*%
D17*
%TO.P,R63,1*%
%TO.N,/CODEC_VCOM*%
X356720000Y-202767500D03*
%TO.P,R63,2*%
%TO.N,Net-(U8A-+)*%
X356720000Y-204592500D03*
%TD*%
D18*
%TO.P,U9,1*%
%TO.N,Net-(C70-Pad2)*%
X298310000Y-182685000D03*
%TO.P,U9,2,-*%
%TO.N,Net-(U9A--)*%
X299580000Y-182685000D03*
%TO.P,U9,3,+*%
%TO.N,Net-(U9A-+)*%
X300850000Y-182685000D03*
%TO.P,U9,4,V-*%
%TO.N,GND*%
X302120000Y-182685000D03*
%TO.P,U9,5,+*%
%TO.N,unconnected-(U9B-+-Pad5)*%
X302120000Y-177735000D03*
%TO.P,U9,6,-*%
%TO.N,unconnected-(U9B---Pad6)*%
X300850000Y-177735000D03*
%TO.P,U9,7*%
%TO.N,unconnected-(U9-Pad7)*%
X299580000Y-177735000D03*
%TO.P,U9,8,V+*%
%TO.N,+5V*%
X298310000Y-177735000D03*
%TD*%
D16*
%TO.P,C15,1*%
%TO.N,+5V*%
X313430000Y-208040000D03*
%TO.P,C15,2*%
%TO.N,GND*%
X315330000Y-208040000D03*
%TD*%
D11*
%TO.P,R35,1*%
%TO.N,GND*%
X386955000Y-218270000D03*
%TO.P,R35,2*%
%TO.N,Net-(C47-Pad1)*%
X386955000Y-216445000D03*
%TD*%
%TO.P,R47,1*%
%TO.N,GND*%
X369220000Y-206392500D03*
%TO.P,R47,2*%
%TO.N,/ASIGNAL_IN_R+*%
X369220000Y-204567500D03*
%TD*%
D19*
%TO.P,C1,1*%
%TO.N,/MCU_XTI*%
X247947500Y-205625000D03*
%TO.P,C1,2*%
%TO.N,GND*%
X247947500Y-203725000D03*
%TD*%
D20*
%TO.P,Q1,1,G*%
%TO.N,GND*%
X209790000Y-174400000D03*
%TO.P,Q1,2,S*%
%TO.N,Net-(Q1-S)*%
X209790000Y-176300000D03*
%TO.P,Q1,3,D*%
%TO.N,Net-(D8-A2)*%
X212065000Y-175350000D03*
%TD*%
D19*
%TO.P,C57,1*%
%TO.N,/CODEC_AINA_BUFF-*%
X341120000Y-222980000D03*
%TO.P,C57,2*%
%TO.N,/CODEC_AINA_BUFF+*%
X341120000Y-221080000D03*
%TD*%
D15*
%TO.P,C76,1*%
%TO.N,+5V*%
X336020000Y-187085000D03*
%TO.P,C76,2*%
%TO.N,GND*%
X336020000Y-188985000D03*
%TD*%
D12*
%TO.P,TP10,1,1*%
%TO.N,/I2S_SDO*%
X282945000Y-204625000D03*
%TD*%
D10*
%TO.P,R15,1*%
%TO.N,/ASIGNAL_IN_L*%
X381102500Y-235910000D03*
%TO.P,R15,2*%
%TO.N,GND*%
X379277500Y-235910000D03*
%TD*%
D11*
%TO.P,R39,1*%
%TO.N,GND*%
X367720000Y-228542500D03*
%TO.P,R39,2*%
%TO.N,/ASIGNAL_IN_L-*%
X367720000Y-226717500D03*
%TD*%
D13*
%TO.P,R60,1*%
%TO.N,/CODEC_AINB_BUFF+*%
X349020000Y-205580000D03*
%TO.P,R60,2*%
%TO.N,Net-(U8A--)*%
X350845000Y-205580000D03*
%TD*%
D21*
%TO.P,C74,1*%
%TO.N,Net-(C74-Pad1)*%
X308170000Y-187910000D03*
%TO.P,C74,2*%
%TO.N,GND*%
X308170000Y-191510000D03*
%TD*%
D22*
%TO.P,C60,1*%
%TO.N,Net-(U7B-+)*%
X360020000Y-226730000D03*
%TO.P,C60,2*%
%TO.N,/ASIGNAL_IN_L-*%
X364420000Y-226730000D03*
%TD*%
D15*
%TO.P,C28,1*%
%TO.N,+3.3V*%
X217665000Y-213712500D03*
%TO.P,C28,2*%
%TO.N,GND*%
X217665000Y-215612500D03*
%TD*%
D16*
%TO.P,C68,1*%
%TO.N,GND*%
X297562508Y-191825000D03*
%TO.P,C68,2*%
%TO.N,Net-(C68-Pad2)*%
X299462508Y-191825000D03*
%TD*%
D12*
%TO.P,TP8,1,1*%
%TO.N,/I2S_SCLK*%
X282945000Y-210725000D03*
%TD*%
D15*
%TO.P,C56,1*%
%TO.N,+5V*%
X353220000Y-227030000D03*
%TO.P,C56,2*%
%TO.N,GND*%
X353220000Y-228930000D03*
%TD*%
D13*
%TO.P,R82,1*%
%TO.N,GND*%
X337007500Y-183385000D03*
%TO.P,R82,2*%
%TO.N,/CODEC_AOUT_R*%
X338832500Y-183385000D03*
%TD*%
%TO.P,R80,1*%
%TO.N,/CODEC_AOUTB+*%
X315345000Y-190802508D03*
%TO.P,R80,2*%
%TO.N,Net-(C80-Pad2)*%
X317170000Y-190802508D03*
%TD*%
D15*
%TO.P,C18,1*%
%TO.N,GND*%
X297680000Y-207710000D03*
%TO.P,C18,2*%
%TO.N,Net-(U1-VD)*%
X297680000Y-209610000D03*
%TD*%
D23*
%TO.P,FID3,*%
%TO.N,*%
X370190000Y-252460000D03*
%TD*%
D16*
%TO.P,C29,1*%
%TO.N,Net-(U3-BP)*%
X215077500Y-217912500D03*
%TO.P,C29,2*%
%TO.N,GND*%
X216977500Y-217912500D03*
%TD*%
D18*
%TO.P,U8,1*%
%TO.N,Net-(C61-Pad2)*%
X349205000Y-200680000D03*
%TO.P,U8,2,-*%
%TO.N,Net-(U8A--)*%
X350475000Y-200680000D03*
%TO.P,U8,3,+*%
%TO.N,Net-(U8A-+)*%
X351745000Y-200680000D03*
%TO.P,U8,4,V-*%
%TO.N,GND*%
X353015000Y-200680000D03*
%TO.P,U8,5,+*%
%TO.N,Net-(U8B-+)*%
X353015000Y-195730000D03*
%TO.P,U8,6,-*%
%TO.N,Net-(U8B--)*%
X351745000Y-195730000D03*
%TO.P,U8,7*%
%TO.N,Net-(C66-Pad2)*%
X350475000Y-195730000D03*
%TO.P,U8,8,V+*%
%TO.N,+5V*%
X349205000Y-195730000D03*
%TD*%
D14*
%TO.P,C61,1*%
%TO.N,Net-(U8A--)*%
X350870000Y-203280000D03*
%TO.P,C61,2*%
%TO.N,Net-(C61-Pad2)*%
X348970000Y-203280000D03*
%TD*%
D15*
%TO.P,C63,1*%
%TO.N,+5V*%
X347085000Y-195730000D03*
%TO.P,C63,2*%
%TO.N,GND*%
X347085000Y-197630000D03*
%TD*%
D11*
%TO.P,R43,1*%
%TO.N,Net-(U6A-+)*%
X381470000Y-200592500D03*
%TO.P,R43,2*%
%TO.N,/Single-Ended to Differential Converter Channel B/+2V5_VOLT_DIV*%
X381470000Y-198767500D03*
%TD*%
D14*
%TO.P,C73,1*%
%TO.N,GND*%
X303802508Y-191815000D03*
%TO.P,C73,2*%
%TO.N,Net-(C73-Pad2)*%
X301902508Y-191815000D03*
%TD*%
D13*
%TO.P,R76,1*%
%TO.N,Net-(C75-Pad2)*%
X321495000Y-186022508D03*
%TO.P,R76,2*%
%TO.N,Net-(C77-Pad2)*%
X323320000Y-186022508D03*
%TD*%
D16*
%TO.P,C14,1*%
%TO.N,+5V*%
X313430000Y-210440000D03*
%TO.P,C14,2*%
%TO.N,GND*%
X315330000Y-210440000D03*
%TD*%
D12*
%TO.P,TP12,1,1*%
%TO.N,+9V*%
X202830000Y-181710000D03*
%TD*%
D17*
%TO.P,R4,1*%
%TO.N,Net-(D5-K)*%
X257840000Y-183375000D03*
%TO.P,R4,2*%
%TO.N,/MCU_SWO*%
X257840000Y-185200000D03*
%TD*%
D11*
%TO.P,R30,1*%
%TO.N,/Single-Ended to Differential Converter Channel A/+2V5_VOLT_DIV*%
X380955000Y-212747500D03*
%TO.P,R30,2*%
%TO.N,+5V*%
X380955000Y-210922500D03*
%TD*%
D12*
%TO.P,TP19,1,1*%
%TO.N,GND*%
X239047500Y-212295000D03*
%TD*%
D19*
%TO.P,C52,1*%
%TO.N,Net-(C51-Pad1)*%
X389870000Y-200630000D03*
%TO.P,C52,2*%
%TO.N,GND*%
X389870000Y-198730000D03*
%TD*%
D17*
%TO.P,R31,1*%
%TO.N,GND*%
X383235000Y-210917500D03*
%TO.P,R31,2*%
%TO.N,/Single-Ended to Differential Converter Channel A/+2V5_VOLT_DIV*%
X383235000Y-212742500D03*
%TD*%
D14*
%TO.P,C10,1*%
%TO.N,/VDDA*%
X247850000Y-211675000D03*
%TO.P,C10,2*%
%TO.N,GND*%
X245950000Y-211675000D03*
%TD*%
D16*
%TO.P,C53,1*%
%TO.N,/ASIGNAL_IN_R-*%
X372475000Y-194080000D03*
%TO.P,C53,2*%
%TO.N,Net-(U6B--)*%
X374375000Y-194080000D03*
%TD*%
D20*
%TO.P,U3,1,IN*%
%TO.N,+9V*%
X212777500Y-213700000D03*
%TO.P,U3,2,GND*%
%TO.N,GND*%
X212777500Y-214650000D03*
%TO.P,U3,3,EN*%
%TO.N,+9V*%
X212777500Y-215600000D03*
%TO.P,U3,4,BP*%
%TO.N,Net-(U3-BP)*%
X215052500Y-215600000D03*
%TO.P,U3,5,OUT*%
%TO.N,+3.3V*%
X215052500Y-213700000D03*
%TD*%
D11*
%TO.P,R70,1*%
%TO.N,Net-(C68-Pad2)*%
X299462508Y-189725000D03*
%TO.P,R70,2*%
%TO.N,Net-(U9A--)*%
X299462508Y-187900000D03*
%TD*%
D24*
%TO.P,H2,1,1*%
%TO.N,GND*%
X398295000Y-186110000D03*
X399239581Y-183829581D03*
X399239581Y-188390419D03*
X401520000Y-182885000D03*
D25*
X401520000Y-186110000D03*
D24*
X401520000Y-189335000D03*
X403800419Y-183829581D03*
X403800419Y-188390419D03*
X404745000Y-186110000D03*
%TD*%
D22*
%TO.P,C62,1*%
%TO.N,Net-(U8A-+)*%
X360020000Y-204580000D03*
%TO.P,C62,2*%
%TO.N,/ASIGNAL_IN_R+*%
X364420000Y-204580000D03*
%TD*%
D16*
%TO.P,C34,1*%
%TO.N,Net-(U4-BP)*%
X214915000Y-198912500D03*
%TO.P,C34,2*%
%TO.N,GND*%
X216815000Y-198912500D03*
%TD*%
D26*
%TO.P,D2,1,K*%
%TO.N,Net-(D2-K)*%
X263315000Y-176237500D03*
%TO.P,D2,2,A*%
%TO.N,GND*%
X261215000Y-176237500D03*
%TD*%
D17*
%TO.P,R66,1*%
%TO.N,Net-(U8B-+)*%
X356720000Y-191767500D03*
%TO.P,R66,2*%
%TO.N,/CODEC_VCOM*%
X356720000Y-193592500D03*
%TD*%
D15*
%TO.P,C2,1*%
%TO.N,/MCU_XTO*%
X247947500Y-207625000D03*
%TO.P,C2,2*%
%TO.N,GND*%
X247947500Y-209525000D03*
%TD*%
D11*
%TO.P,R71,1*%
%TO.N,Net-(C71-Pad2)*%
X292215000Y-176222500D03*
%TO.P,R71,2*%
%TO.N,/CODEC_AOUT_L*%
X292215000Y-174397500D03*
%TD*%
%TO.P,R41,1*%
%TO.N,/Single-Ended to Differential Converter Channel B/+2V5_VOLT_DIV*%
X381470000Y-196692500D03*
%TO.P,R41,2*%
%TO.N,+5V*%
X381470000Y-194867500D03*
%TD*%
D17*
%TO.P,R3,1*%
%TO.N,Net-(D4-K)*%
X268102500Y-189025000D03*
%TO.P,R3,2*%
%TO.N,/MCU_SWDIO*%
X268102500Y-190850000D03*
%TD*%
D14*
%TO.P,C49,1*%
%TO.N,/ASIGNAL_IN_L-*%
X377415000Y-225700000D03*
%TO.P,C49,2*%
%TO.N,Net-(U5B--)*%
X375515000Y-225700000D03*
%TD*%
D12*
%TO.P,TP23,1,1*%
%TO.N,GND*%
X339777500Y-242675000D03*
%TD*%
D13*
%TO.P,R16,1*%
%TO.N,/ASIGNAL_IN_R*%
X383607500Y-235920000D03*
%TO.P,R16,2*%
%TO.N,GND*%
X385432500Y-235920000D03*
%TD*%
D27*
%TO.P,U7,1*%
%TO.N,Net-(C54-Pad2)*%
X352225000Y-219780000D03*
%TO.P,U7,2,-*%
%TO.N,Net-(U7A--)*%
X350955000Y-219780000D03*
%TO.P,U7,3,+*%
%TO.N,Net-(U7A-+)*%
X349685000Y-219780000D03*
%TO.P,U7,4,V-*%
%TO.N,GND*%
X348415000Y-219780000D03*
%TO.P,U7,5,+*%
%TO.N,Net-(U7B-+)*%
X348415000Y-224730000D03*
%TO.P,U7,6,-*%
%TO.N,Net-(U7B--)*%
X349685000Y-224730000D03*
%TO.P,U7,7*%
%TO.N,Net-(C59-Pad2)*%
X350955000Y-224730000D03*
%TO.P,U7,8,V+*%
%TO.N,+5V*%
X352225000Y-224730000D03*
%TD*%
D28*
%TO.P,FB1,1*%
%TO.N,/VDDA*%
X246340000Y-215187500D03*
%TO.P,FB1,2*%
%TO.N,+3.3V*%
X246340000Y-217312500D03*
%TD*%
D13*
%TO.P,R49,1*%
%TO.N,Net-(U6B-+)*%
X377457500Y-196680000D03*
%TO.P,R49,2*%
%TO.N,/Single-Ended to Differential Converter Channel B/+2V5_VOLT_DIV*%
X379282500Y-196680000D03*
%TD*%
D17*
%TO.P,R2,1*%
%TO.N,Net-(D3-K)*%
X264365000Y-189025000D03*
%TO.P,R2,2*%
%TO.N,/MCU_SWCLK*%
X264365000Y-190850000D03*
%TD*%
D15*
%TO.P,C33,1*%
%TO.N,+5V*%
X217590000Y-194562500D03*
%TO.P,C33,2*%
%TO.N,GND*%
X217590000Y-196462500D03*
%TD*%
%TO.P,C48,1*%
%TO.N,Net-(C47-Pad1)*%
X389155000Y-216407500D03*
%TO.P,C48,2*%
%TO.N,GND*%
X389155000Y-218307500D03*
%TD*%
D11*
%TO.P,R17,1*%
%TO.N,/CODEC_AOUT_R*%
X402080000Y-235632500D03*
%TO.P,R17,2*%
%TO.N,GND*%
X402080000Y-233807500D03*
%TD*%
%TO.P,R75,1*%
%TO.N,Net-(C73-Pad2)*%
X304210016Y-189727500D03*
%TO.P,R75,2*%
%TO.N,Net-(C74-Pad1)*%
X304210016Y-187902500D03*
%TD*%
D29*
%TO.P,D1,1,K*%
%TO.N,+3.3V*%
X272912500Y-180610000D03*
%TO.P,D1,2,A*%
%TO.N,GND*%
X275012500Y-180610000D03*
%TD*%
D23*
%TO.P,FID1,*%
%TO.N,*%
X243320000Y-186360000D03*
%TD*%
D14*
%TO.P,C17,1*%
%TO.N,+3.3V*%
X301705000Y-211625000D03*
%TO.P,C17,2*%
%TO.N,GND*%
X299805000Y-211625000D03*
%TD*%
D17*
%TO.P,R9,1*%
%TO.N,/CODEC_NRST_FILT*%
X309705000Y-219387500D03*
%TO.P,R9,2*%
%TO.N,GND*%
X309705000Y-221212500D03*
%TD*%
%TO.P,R48,1*%
%TO.N,Net-(U6B--)*%
X377670000Y-198667500D03*
%TO.P,R48,2*%
%TO.N,/ASIGNAL_IN_R+*%
X377670000Y-200492500D03*
%TD*%
D10*
%TO.P,R40,1*%
%TO.N,/ASIGNAL_IN_L-*%
X377377500Y-227800000D03*
%TO.P,R40,2*%
%TO.N,Net-(U5B--)*%
X375552500Y-227800000D03*
%TD*%
D14*
%TO.P,C47,1*%
%TO.N,Net-(C47-Pad1)*%
X384855000Y-216445000D03*
%TO.P,C47,2*%
%TO.N,Net-(U5A-+)*%
X382955000Y-216445000D03*
%TD*%
D30*
%TO.P,D9,1,K*%
%TO.N,Net-(D9-K)*%
X215040000Y-190487500D03*
%TO.P,D9,2,A*%
%TO.N,+5V*%
X215040000Y-192362500D03*
%TD*%
D14*
%TO.P,C65,1*%
%TO.N,/CODEC_VCOM*%
X356720000Y-200680000D03*
%TO.P,C65,2*%
%TO.N,GND*%
X354820000Y-200680000D03*
%TD*%
D16*
%TO.P,C26,1*%
%TO.N,Net-(C26-Pad1)*%
X268940000Y-202350000D03*
%TO.P,C26,2*%
%TO.N,GND*%
X270840000Y-202350000D03*
%TD*%
D12*
%TO.P,TP21,1,1*%
%TO.N,GND*%
X237897500Y-243885000D03*
%TD*%
%TO.P,TP6,1,1*%
%TO.N,/I2C_SDA*%
X284580000Y-224580000D03*
%TD*%
D11*
%TO.P,R65,1*%
%TO.N,/ASIGNAL_IN_R-*%
X370225000Y-191792500D03*
%TO.P,R65,2*%
%TO.N,GND*%
X370225000Y-189967500D03*
%TD*%
D13*
%TO.P,R51,1*%
%TO.N,/ASIGNAL_IN_R-*%
X372512500Y-191805000D03*
%TO.P,R51,2*%
%TO.N,Net-(U6B--)*%
X374337500Y-191805000D03*
%TD*%
D10*
%TO.P,R33,1*%
%TO.N,/ASIGNAL_IN_L*%
X395417500Y-216445000D03*
%TO.P,R33,2*%
%TO.N,Net-(C47-Pad1)*%
X393592500Y-216445000D03*
%TD*%
D17*
%TO.P,R14,1*%
%TO.N,/CODEC_AOUT_L*%
X402080000Y-238587500D03*
%TO.P,R14,2*%
%TO.N,GND*%
X402080000Y-240412500D03*
%TD*%
D24*
%TO.P,H3,1,1*%
%TO.N,GND*%
X212885000Y-255920000D03*
X213829581Y-253639581D03*
X213829581Y-258200419D03*
X216110000Y-252695000D03*
D25*
X216110000Y-255920000D03*
D24*
X216110000Y-259145000D03*
X218390419Y-253639581D03*
X218390419Y-258200419D03*
X219335000Y-255920000D03*
%TD*%
D12*
%TO.P,TP1,1,1*%
%TO.N,+3.3V*%
X251632500Y-191800000D03*
%TD*%
D15*
%TO.P,C22,1*%
%TO.N,/CODEC_VCOM*%
X315520000Y-214640000D03*
%TO.P,C22,2*%
%TO.N,GND*%
X315520000Y-216540000D03*
%TD*%
D31*
%TO.P,Y1,1,1*%
%TO.N,/MCU_XTI*%
X244047500Y-205875000D03*
%TO.P,Y1,2,2*%
%TO.N,GND*%
X244047500Y-207625000D03*
%TO.P,Y1,3,3*%
%TO.N,/MCU_XTO*%
X245447500Y-207625000D03*
%TO.P,Y1,4,4*%
%TO.N,GND*%
X245447500Y-205875000D03*
%TD*%
D13*
%TO.P,R77,1*%
%TO.N,/CODEC_AOUTB-*%
X315445000Y-188322508D03*
%TO.P,R77,2*%
%TO.N,Net-(C75-Pad2)*%
X317270000Y-188322508D03*
%TD*%
D32*
%TO.P,D5,1,K*%
%TO.N,Net-(D5-K)*%
X255315000Y-183387500D03*
%TO.P,D5,2,A*%
%TO.N,GND*%
X255315000Y-185487500D03*
%TD*%
D14*
%TO.P,C66,1*%
%TO.N,Net-(U8B--)*%
X352120000Y-193180000D03*
%TO.P,C66,2*%
%TO.N,Net-(C66-Pad2)*%
X350220000Y-193180000D03*
%TD*%
D17*
%TO.P,R50,1*%
%TO.N,GND*%
X367725000Y-189967500D03*
%TO.P,R50,2*%
%TO.N,/ASIGNAL_IN_R-*%
X367725000Y-191792500D03*
%TD*%
D13*
%TO.P,R83,1*%
%TO.N,Net-(C80-Pad2)*%
X321487500Y-193102508D03*
%TO.P,R83,2*%
%TO.N,Net-(C81-Pad1)*%
X323312500Y-193102508D03*
%TD*%
D19*
%TO.P,C13,1*%
%TO.N,/MCU_NRST*%
X243565000Y-197500000D03*
%TO.P,C13,2*%
%TO.N,GND*%
X243565000Y-195600000D03*
%TD*%
D30*
%TO.P,D7,1,K*%
%TO.N,Net-(D7-K)*%
X215102500Y-209675000D03*
%TO.P,D7,2,A*%
%TO.N,+3.3V*%
X215102500Y-211550000D03*
%TD*%
D12*
%TO.P,TP16,1,1*%
%TO.N,GND*%
X288147500Y-229005000D03*
%TD*%
D11*
%TO.P,R34,1*%
%TO.N,GND*%
X391455000Y-218270000D03*
%TO.P,R34,2*%
%TO.N,Net-(C47-Pad1)*%
X391455000Y-216445000D03*
%TD*%
D32*
%TO.P,D3,1,K*%
%TO.N,Net-(D3-K)*%
X261840000Y-189025000D03*
%TO.P,D3,2,A*%
%TO.N,GND*%
X261840000Y-191125000D03*
%TD*%
D15*
%TO.P,C21,1*%
%TO.N,/CODEC_VCOM*%
X313120000Y-214640000D03*
%TO.P,C21,2*%
%TO.N,GND*%
X313120000Y-216540000D03*
%TD*%
D11*
%TO.P,R73,1*%
%TO.N,Net-(C73-Pad2)*%
X301910016Y-189722500D03*
%TO.P,R73,2*%
%TO.N,Net-(U9A-+)*%
X301910016Y-187897500D03*
%TD*%
D24*
%TO.P,H1,1,1*%
%TO.N,GND*%
X228275000Y-180030000D03*
X229219581Y-177749581D03*
X229219581Y-182310419D03*
X231500000Y-176805000D03*
D25*
X231500000Y-180030000D03*
D24*
X231500000Y-183255000D03*
X233780419Y-177749581D03*
X233780419Y-182310419D03*
X234725000Y-180030000D03*
%TD*%
D16*
%TO.P,C3,1*%
%TO.N,+3.3V*%
X251640000Y-194350000D03*
%TO.P,C3,2*%
%TO.N,GND*%
X253540000Y-194350000D03*
%TD*%
D22*
%TO.P,C67,1*%
%TO.N,Net-(U8B-+)*%
X360020000Y-191780000D03*
%TO.P,C67,2*%
%TO.N,/ASIGNAL_IN_R-*%
X364420000Y-191780000D03*
%TD*%
D11*
%TO.P,R32,1*%
%TO.N,Net-(U5A-+)*%
X380955000Y-216447500D03*
%TO.P,R32,2*%
%TO.N,/Single-Ended to Differential Converter Channel A/+2V5_VOLT_DIV*%
X380955000Y-214622500D03*
%TD*%
D14*
%TO.P,C24,1*%
%TO.N,GND*%
X315330000Y-203440000D03*
%TO.P,C24,2*%
%TO.N,/CODEC_VFILT*%
X313430000Y-203440000D03*
%TD*%
D11*
%TO.P,R61,1*%
%TO.N,/CODEC_AINB_BUFF+*%
X346935000Y-205317500D03*
%TO.P,R61,2*%
%TO.N,Net-(C61-Pad2)*%
X346935000Y-203492500D03*
%TD*%
%TO.P,R68,1*%
%TO.N,Net-(C68-Pad2)*%
X297272508Y-189717500D03*
%TO.P,R68,2*%
%TO.N,Net-(C70-Pad2)*%
X297272508Y-187892500D03*
%TD*%
D12*
%TO.P,TP2,1,1*%
%TO.N,/VDDA*%
X238515000Y-215300000D03*
%TD*%
D33*
%TO.P,J3,1*%
%TO.N,Net-(D8-A2)*%
X212070000Y-164960000D03*
D34*
%TO.P,J3,2*%
%TO.N,GND*%
X212070000Y-158960000D03*
D35*
%TO.P,J3,3*%
%TO.N,unconnected-(J3-Pad3)*%
X207370000Y-161960000D03*
%TD*%
D16*
%TO.P,C58,1*%
%TO.N,/CODEC_VCOM*%
X356620000Y-222830000D03*
%TO.P,C58,2*%
%TO.N,GND*%
X358520000Y-222830000D03*
%TD*%
D12*
%TO.P,TP15,1,1*%
%TO.N,GND*%
X251727500Y-189255000D03*
%TD*%
D15*
%TO.P,C12,1*%
%TO.N,+3.3V*%
X243990000Y-217225000D03*
%TO.P,C12,2*%
%TO.N,GND*%
X243990000Y-219125000D03*
%TD*%
D11*
%TO.P,R55,1*%
%TO.N,/CODEC_VCOM*%
X356620000Y-219342500D03*
%TO.P,R55,2*%
%TO.N,Net-(U7A-+)*%
X356620000Y-217517500D03*
%TD*%
D20*
%TO.P,U4,1,IN*%
%TO.N,+9V*%
X212627500Y-194562500D03*
%TO.P,U4,2,GND*%
%TO.N,GND*%
X212627500Y-195512500D03*
%TO.P,U4,3,EN*%
%TO.N,+9V*%
X212627500Y-196462500D03*
%TO.P,U4,4,BP*%
%TO.N,Net-(U4-BP)*%
X214902500Y-196462500D03*
%TO.P,U4,5,OUT*%
%TO.N,+5V*%
X214902500Y-194562500D03*
%TD*%
D12*
%TO.P,TP9,1,1*%
%TO.N,/I2S_SDI*%
X282945000Y-207675000D03*
%TD*%
D11*
%TO.P,R37,1*%
%TO.N,Net-(U5B--)*%
X380490000Y-220732500D03*
%TO.P,R37,2*%
%TO.N,/ASIGNAL_IN_L+*%
X380490000Y-218907500D03*
%TD*%
D13*
%TO.P,R81,1*%
%TO.N,Net-(C80-Pad2)*%
X321487500Y-190802508D03*
%TO.P,R81,2*%
%TO.N,Net-(U10A-+)*%
X323312500Y-190802508D03*
%TD*%
D15*
%TO.P,C19,1*%
%TO.N,GND*%
X300180000Y-207710000D03*
%TO.P,C19,2*%
%TO.N,Net-(U1-VD)*%
X300180000Y-209610000D03*
%TD*%
D11*
%TO.P,R38,1*%
%TO.N,Net-(U5B-+)*%
X372295000Y-218377500D03*
%TO.P,R38,2*%
%TO.N,/Single-Ended to Differential Converter Channel A/+2V5_VOLT_DIV*%
X372295000Y-216552500D03*
%TD*%
D10*
%TO.P,R44,1*%
%TO.N,/ASIGNAL_IN_R*%
X396182500Y-200580000D03*
%TO.P,R44,2*%
%TO.N,Net-(C51-Pad1)*%
X394357500Y-200580000D03*
%TD*%
D12*
%TO.P,TP4,1,1*%
%TO.N,/CODEC_NRST*%
X284510000Y-231450000D03*
%TD*%
D11*
%TO.P,R74,1*%
%TO.N,GND*%
X294615000Y-176222500D03*
%TO.P,R74,2*%
%TO.N,/CODEC_AOUT_L*%
X294615000Y-174397500D03*
%TD*%
D14*
%TO.P,C70,1*%
%TO.N,Net-(U9A--)*%
X299315000Y-185110000D03*
%TO.P,C70,2*%
%TO.N,Net-(C70-Pad2)*%
X297415000Y-185110000D03*
%TD*%
D36*
%TO.P,SW1,1,1*%
%TO.N,GND*%
X233940000Y-193000000D03*
X240440000Y-193000000D03*
%TO.P,SW1,2,2*%
%TO.N,/MCU_NRST*%
X233940000Y-197500000D03*
X240440000Y-197500000D03*
%TD*%
D37*
%TO.P,J5,1,Pin_1*%
%TO.N,/ASIGNAL_IN_L*%
X381100000Y-245150000D03*
D38*
%TO.P,J5,2,Pin_2*%
%TO.N,/ASIGNAL_IN_R*%
X383600000Y-245150000D03*
%TO.P,J5,3,Pin_3*%
%TO.N,/ASIGNAL_OUT_L*%
X386100000Y-245150000D03*
%TO.P,J5,4,Pin_4*%
%TO.N,/ASIGNAL_OUT_R*%
X388600000Y-245150000D03*
%TO.P,J5,5,Pin_5*%
%TO.N,/CODEC_AOUT_R*%
X391100000Y-245150000D03*
%TO.P,J5,6,Pin_6*%
%TO.N,/CODEC_AOUT_L*%
X393600000Y-245150000D03*
%TD*%
D13*
%TO.P,R79,1*%
%TO.N,Net-(C78-Pad2)*%
X337007500Y-181085000D03*
%TO.P,R79,2*%
%TO.N,/CODEC_AOUT_R*%
X338832500Y-181085000D03*
%TD*%
D39*
%TO.P,C78,1*%
%TO.N,Net-(C77-Pad2)*%
X330520000Y-181085000D03*
%TO.P,C78,2*%
%TO.N,Net-(C78-Pad2)*%
X334120000Y-181085000D03*
%TD*%
D16*
%TO.P,C72,1*%
%TO.N,Net-(U9A-+)*%
X301065000Y-185110000D03*
%TO.P,C72,2*%
%TO.N,GND*%
X302965000Y-185110000D03*
%TD*%
D14*
%TO.P,C23,1*%
%TO.N,GND*%
X315330000Y-205740000D03*
%TO.P,C23,2*%
%TO.N,/CODEC_VFILT*%
X313430000Y-205740000D03*
%TD*%
D19*
%TO.P,C77,1*%
%TO.N,Net-(U10A--)*%
X326220000Y-188135000D03*
%TO.P,C77,2*%
%TO.N,Net-(C77-Pad2)*%
X326220000Y-186235000D03*
%TD*%
D10*
%TO.P,R13,1*%
%TO.N,Net-(D7-K)*%
X214815000Y-207312500D03*
%TO.P,R13,2*%
%TO.N,GND*%
X212990000Y-207312500D03*
%TD*%
D19*
%TO.P,C11,1*%
%TO.N,/VDDA*%
X244015000Y-215300000D03*
%TO.P,C11,2*%
%TO.N,GND*%
X244015000Y-213400000D03*
%TD*%
D12*
%TO.P,TP3,1,1*%
%TO.N,/MCU_NRST*%
X233940000Y-201300000D03*
%TD*%
D17*
%TO.P,R57,1*%
%TO.N,/ASIGNAL_IN_L-*%
X370220000Y-226717500D03*
%TO.P,R57,2*%
%TO.N,GND*%
X370220000Y-228542500D03*
%TD*%
D40*
%TO.P,D6,1,K*%
%TO.N,Net-(D6-K)*%
X260350000Y-225427500D03*
%TO.P,D6,2,A*%
%TO.N,/MCU_LED_STATUS_RED*%
X260350000Y-223552500D03*
%TD*%
D14*
%TO.P,C51,1*%
%TO.N,Net-(C51-Pad1)*%
X385520000Y-200580000D03*
%TO.P,C51,2*%
%TO.N,Net-(U6A-+)*%
X383620000Y-200580000D03*
%TD*%
D17*
%TO.P,R45,1*%
%TO.N,GND*%
X392170000Y-198767500D03*
%TO.P,R45,2*%
%TO.N,Net-(C51-Pad1)*%
X392170000Y-200592500D03*
%TD*%
D14*
%TO.P,C4,1*%
%TO.N,+3.3V*%
X265750000Y-216960000D03*
%TO.P,C4,2*%
%TO.N,GND*%
X263850000Y-216960000D03*
%TD*%
D16*
%TO.P,C69,1*%
%TO.N,+5V*%
X298320000Y-175310000D03*
%TO.P,C69,2*%
%TO.N,GND*%
X300220000Y-175310000D03*
%TD*%
D17*
%TO.P,R42,1*%
%TO.N,GND*%
X383870000Y-194867500D03*
%TO.P,R42,2*%
%TO.N,/Single-Ended to Differential Converter Channel B/+2V5_VOLT_DIV*%
X383870000Y-196692500D03*
%TD*%
D41*
%TO.P,C71,1*%
%TO.N,Net-(C70-Pad2)*%
X292215000Y-182510000D03*
%TO.P,C71,2*%
%TO.N,Net-(C71-Pad2)*%
X292215000Y-178910000D03*
%TD*%
D11*
%TO.P,R7,1*%
%TO.N,+3.3V*%
X300005000Y-221237500D03*
%TO.P,R7,2*%
%TO.N,/I2C_SDA*%
X300005000Y-219412500D03*
%TD*%
D13*
%TO.P,R78,1*%
%TO.N,Net-(C75-Pad2)*%
X321495000Y-188322508D03*
%TO.P,R78,2*%
%TO.N,Net-(U10A--)*%
X323320000Y-188322508D03*
%TD*%
D16*
%TO.P,C31,1*%
%TO.N,+9V*%
X211890000Y-182250000D03*
%TO.P,C31,2*%
%TO.N,GND*%
X213790000Y-182250000D03*
%TD*%
D19*
%TO.P,C80,1*%
%TO.N,GND*%
X319347500Y-192702508D03*
%TO.P,C80,2*%
%TO.N,Net-(C80-Pad2)*%
X319347500Y-190802508D03*
%TD*%
D42*
%TO.P,J4,1,S*%
%TO.N,GND*%
X363150000Y-155400000D03*
%TO.P,J4,2,R*%
%TO.N,/ASIGNAL_IN_R*%
X363150000Y-161750000D03*
%TO.P,J4,3,T*%
%TO.N,/ASIGNAL_IN_L*%
X363150000Y-168100000D03*
%TO.P,J4,4,S*%
%TO.N,GND*%
X351750000Y-155400000D03*
%TO.P,J4,5,R*%
%TO.N,/ASIGNAL_IN_R*%
X351750000Y-161750000D03*
%TO.P,J4,6,T*%
%TO.N,/ASIGNAL_IN_L*%
X351750000Y-168100000D03*
D43*
%TO.P,J4,7,7*%
%TO.N,unconnected-(J4-Pad7)*%
X357450000Y-172730000D03*
%TD*%
D12*
%TO.P,TP14,1,1*%
%TO.N,GND*%
X230067500Y-200655000D03*
%TD*%
D23*
%TO.P,FID7,*%
%TO.N,*%
X265950000Y-196690000D03*
%TD*%
D13*
%TO.P,R54,1*%
%TO.N,GND*%
X370732500Y-223550000D03*
%TO.P,R54,2*%
%TO.N,/ASIGNAL_IN_L+*%
X372557500Y-223550000D03*
%TD*%
%TO.P,R59,1*%
%TO.N,/CODEC_AINA_BUFF-*%
X347607500Y-229630000D03*
%TO.P,R59,2*%
%TO.N,Net-(C59-Pad2)*%
X349432500Y-229630000D03*
%TD*%
D12*
%TO.P,TP7,1,1*%
%TO.N,/I2S_LRCK*%
X282945000Y-213775000D03*
%TD*%
D14*
%TO.P,C5,1*%
%TO.N,+3.3V*%
X265750000Y-219360000D03*
%TO.P,C5,2*%
%TO.N,GND*%
X263850000Y-219360000D03*
%TD*%
D16*
%TO.P,C8,1*%
%TO.N,+3.3V*%
X268940000Y-199850000D03*
%TO.P,C8,2*%
%TO.N,GND*%
X270840000Y-199850000D03*
%TD*%
D44*
%TO.P,J1,1,VCC*%
%TO.N,+3.3V*%
X265670000Y-182102500D03*
%TO.P,J1,2,SWDIO*%
%TO.N,Net-(D4-K)*%
X265670000Y-183372500D03*
%TO.P,J1,3,~{RESET}*%
%TO.N,Net-(D2-K)*%
X264400000Y-182102500D03*
%TO.P,J1,4,SWCLK*%
%TO.N,Net-(D3-K)*%
X264400000Y-183372500D03*
%TO.P,J1,5,GND*%
%TO.N,GND*%
X263130000Y-182102500D03*
%TO.P,J1,6,SWO*%
%TO.N,Net-(D5-K)*%
X263130000Y-183372500D03*
%TD*%
D15*
%TO.P,C50,1*%
%TO.N,+5V*%
X369220000Y-196730000D03*
%TO.P,C50,2*%
%TO.N,GND*%
X369220000Y-198630000D03*
%TD*%
D23*
%TO.P,FID2,*%
%TO.N,*%
X379200000Y-186270000D03*
%TD*%
D27*
%TO.P,U5,1*%
%TO.N,/ASIGNAL_IN_L+*%
X378345000Y-218295000D03*
%TO.P,U5,2,-*%
X377075000Y-218295000D03*
%TO.P,U5,3,+*%
%TO.N,Net-(U5A-+)*%
X375805000Y-218295000D03*
%TO.P,U5,4,V-*%
%TO.N,GND*%
X374535000Y-218295000D03*
%TO.P,U5,5,+*%
%TO.N,Net-(U5B-+)*%
X374535000Y-223245000D03*
%TO.P,U5,6,-*%
%TO.N,Net-(U5B--)*%
X375805000Y-223245000D03*
%TO.P,U5,7*%
%TO.N,/ASIGNAL_IN_L-*%
X377075000Y-223245000D03*
%TO.P,U5,8,V+*%
%TO.N,+5V*%
X378345000Y-223245000D03*
%TD*%
D16*
%TO.P,C9,1*%
%TO.N,+3.3V*%
X251640000Y-196650000D03*
%TO.P,C9,2*%
%TO.N,GND*%
X253540000Y-196650000D03*
%TD*%
D14*
%TO.P,C6,1*%
%TO.N,+3.3V*%
X252230000Y-217230000D03*
%TO.P,C6,2*%
%TO.N,GND*%
X250330000Y-217230000D03*
%TD*%
D45*
%TO.P,U10,1*%
%TO.N,Net-(C77-Pad2)*%
X328645000Y-187080000D03*
%TO.P,U10,2,-*%
%TO.N,Net-(U10A--)*%
X328645000Y-188350000D03*
%TO.P,U10,3,+*%
%TO.N,Net-(U10A-+)*%
X328645000Y-189620000D03*
%TO.P,U10,4,V-*%
%TO.N,GND*%
X328645000Y-190890000D03*
%TO.P,U10,5,+*%
%TO.N,unconnected-(U10B-+-Pad5)*%
X333595000Y-190890000D03*
%TO.P,U10,6,-*%
%TO.N,unconnected-(U10B---Pad6)*%
X333595000Y-189620000D03*
%TO.P,U10,7*%
%TO.N,unconnected-(U10-Pad7)*%
X333595000Y-188350000D03*
%TO.P,U10,8,V+*%
%TO.N,+5V*%
X333595000Y-187080000D03*
%TD*%
D24*
%TO.P,H4,1,1*%
%TO.N,GND*%
X401575000Y-250340000D03*
X402519581Y-248059581D03*
X402519581Y-252620419D03*
X404800000Y-247115000D03*
D25*
X404800000Y-250340000D03*
D24*
X404800000Y-253565000D03*
X407080419Y-248059581D03*
X407080419Y-252620419D03*
X408025000Y-250340000D03*
%TD*%
D19*
%TO.P,C32,1*%
%TO.N,+9V*%
X212540000Y-192312500D03*
%TO.P,C32,2*%
%TO.N,GND*%
X212540000Y-190412500D03*
%TD*%
D46*
%TO.P,U2,1,PE2*%
%TO.N,unconnected-(U2-PE2-Pad1)*%
X250672500Y-200850000D03*
%TO.P,U2,2,PE3*%
%TO.N,unconnected-(U2-PE3-Pad2)*%
X250672500Y-201350000D03*
%TO.P,U2,3,PE4*%
%TO.N,unconnected-(U2-PE4-Pad3)*%
X250672500Y-201850000D03*
%TO.P,U2,4,PE5*%
%TO.N,unconnected-(U2-PE5-Pad4)*%
X250672500Y-202350000D03*
%TO.P,U2,5,PE6*%
%TO.N,unconnected-(U2-PE6-Pad5)*%
X250672500Y-202850000D03*
%TO.P,U2,6,VBAT*%
%TO.N,+3.3V*%
X250672500Y-203350000D03*
%TO.P,U2,7,PC13*%
%TO.N,unconnected-(U2-PC13-Pad7)*%
X250672500Y-203850000D03*
%TO.P,U2,8,PC14*%
%TO.N,unconnected-(U2-PC14-Pad8)*%
X250672500Y-204350000D03*
%TO.P,U2,9,PC15*%
%TO.N,unconnected-(U2-PC15-Pad9)*%
X250672500Y-204850000D03*
%TO.P,U2,10,VSS*%
%TO.N,GND*%
X250672500Y-205350000D03*
%TO.P,U2,11,VDD*%
%TO.N,+3.3V*%
X250672500Y-205850000D03*
%TO.P,U2,12,PH0*%
%TO.N,/MCU_XTI*%
X250672500Y-206350000D03*
%TO.P,U2,13,PH1*%
%TO.N,/MCU_XTO*%
X250672500Y-206850000D03*
%TO.P,U2,14,NRST*%
%TO.N,/MCU_NRST*%
X250672500Y-207350000D03*
%TO.P,U2,15,PC0*%
%TO.N,unconnected-(U2-PC0-Pad15)*%
X250672500Y-207850000D03*
%TO.P,U2,16,PC1*%
%TO.N,unconnected-(U2-PC1-Pad16)*%
X250672500Y-208350000D03*
%TO.P,U2,17,PC2_C*%
%TO.N,unconnected-(U2-PC2_C-Pad17)*%
X250672500Y-208850000D03*
%TO.P,U2,18,PC3_C*%
%TO.N,unconnected-(U2-PC3_C-Pad18)*%
X250672500Y-209350000D03*
%TO.P,U2,19,VSSA*%
%TO.N,GND*%
X250672500Y-209850000D03*
%TO.P,U2,20,VREF+*%
%TO.N,/VDDA*%
X250672500Y-210350000D03*
%TO.P,U2,21,VDDA*%
X250672500Y-210850000D03*
%TO.P,U2,22,PA0*%
%TO.N,unconnected-(U2-PA0-Pad22)*%
X250672500Y-211350000D03*
%TO.P,U2,23,PA1*%
%TO.N,/CTRL_KNB_VOL_LVL*%
X250672500Y-211850000D03*
%TO.P,U2,24,PA2*%
%TO.N,/CTRL_KNB_12800_HZ*%
X250672500Y-212350000D03*
%TO.P,U2,25,PA3*%
%TO.N,/CTRL_KNB_6400_HZ*%
X250672500Y-212850000D03*
D47*
%TO.P,U2,26,VSS*%
%TO.N,GND*%
X252347500Y-214525000D03*
%TO.P,U2,27,VDD*%
%TO.N,+3.3V*%
X252847500Y-214525000D03*
%TO.P,U2,28,PA4*%
%TO.N,/CTRL_KNB_3200_HZ*%
X253347500Y-214525000D03*
%TO.P,U2,29,PA5*%
%TO.N,/CTRL_KNB_1600_HZ*%
X253847500Y-214525000D03*
%TO.P,U2,30,PA6*%
%TO.N,/CTRL_KNB_800_HZ*%
X254347500Y-214525000D03*
%TO.P,U2,31,PA7*%
%TO.N,/CTRL_KNB_400_HZ*%
X254847500Y-214525000D03*
%TO.P,U2,32,PC4*%
%TO.N,/CTRL_KNB_200_HZ*%
X255347500Y-214525000D03*
%TO.P,U2,33,PC5*%
%TO.N,/CTRL_KNB_120_HZ*%
X255847500Y-214525000D03*
%TO.P,U2,34,PB0*%
%TO.N,/CTRL_KNB_60_HZ*%
X256347500Y-214525000D03*
%TO.P,U2,35,PB1*%
%TO.N,/CTRL_KNB_30_HZ*%
X256847500Y-214525000D03*
%TO.P,U2,36,PB2*%
%TO.N,unconnected-(U2-PB2-Pad36)*%
X257347500Y-214525000D03*
%TO.P,U2,37,PE7*%
%TO.N,unconnected-(U2-PE7-Pad37)*%
X257847500Y-214525000D03*
%TO.P,U2,38,PE8*%
%TO.N,/CODEC_NRST*%
X258347500Y-214525000D03*
%TO.P,U2,39,PE9*%
%TO.N,unconnected-(U2-PE9-Pad39)*%
X258847500Y-214525000D03*
%TO.P,U2,40,PE10*%
%TO.N,unconnected-(U2-PE10-Pad40)*%
X259347500Y-214525000D03*
%TO.P,U2,41,PE11*%
%TO.N,unconnected-(U2-PE11-Pad41)*%
X259847500Y-214525000D03*
%TO.P,U2,42,PE12*%
%TO.N,/MCU_LED_STATUS_RED*%
X260347500Y-214525000D03*
%TO.P,U2,43,PE13*%
%TO.N,unconnected-(U2-PE13-Pad43)*%
X260847500Y-214525000D03*
%TO.P,U2,44,PE14*%
%TO.N,unconnected-(U2-PE14-Pad44)*%
X261347500Y-214525000D03*
%TO.P,U2,45,PE15*%
%TO.N,unconnected-(U2-PE15-Pad45)*%
X261847500Y-214525000D03*
%TO.P,U2,46,PB10*%
%TO.N,/I2C_SCL*%
X262347500Y-214525000D03*
%TO.P,U2,47,PB11*%
%TO.N,/I2C_SDA*%
X262847500Y-214525000D03*
%TO.P,U2,48,VCAP*%
%TO.N,Net-(C25-Pad1)*%
X263347500Y-214525000D03*
%TO.P,U2,49,VSS*%
%TO.N,GND*%
X263847500Y-214525000D03*
%TO.P,U2,50,VDD*%
%TO.N,+3.3V*%
X264347500Y-214525000D03*
D46*
%TO.P,U2,51,PB12*%
%TO.N,/I2S_LRCK*%
X266022500Y-212850000D03*
%TO.P,U2,52,PB13*%
%TO.N,/I2S_SCLK*%
X266022500Y-212350000D03*
%TO.P,U2,53,PB14*%
%TO.N,/I2S_SDI*%
X266022500Y-211850000D03*
%TO.P,U2,54,PB15*%
%TO.N,/I2S_SDO*%
X266022500Y-211350000D03*
%TO.P,U2,55,PD8*%
%TO.N,unconnected-(U2-PD8-Pad55)*%
X266022500Y-210850000D03*
%TO.P,U2,56,PD9*%
%TO.N,unconnected-(U2-PD9-Pad56)*%
X266022500Y-210350000D03*
%TO.P,U2,57,PD10*%
%TO.N,unconnected-(U2-PD10-Pad57)*%
X266022500Y-209850000D03*
%TO.P,U2,58,PD11*%
%TO.N,unconnected-(U2-PD11-Pad58)*%
X266022500Y-209350000D03*
%TO.P,U2,59,PD12*%
%TO.N,unconnected-(U2-PD12-Pad59)*%
X266022500Y-208850000D03*
%TO.P,U2,60,PD13*%
%TO.N,unconnected-(U2-PD13-Pad60)*%
X266022500Y-208350000D03*
%TO.P,U2,61,PD14*%
%TO.N,unconnected-(U2-PD14-Pad61)*%
X266022500Y-207850000D03*
%TO.P,U2,62,PD15*%
%TO.N,unconnected-(U2-PD15-Pad62)*%
X266022500Y-207350000D03*
%TO.P,U2,63,PC6*%
%TO.N,/I2S_MCLK*%
X266022500Y-206850000D03*
%TO.P,U2,64,PC7*%
%TO.N,unconnected-(U2-PC7-Pad64)*%
X266022500Y-206350000D03*
%TO.P,U2,65,PC8*%
%TO.N,unconnected-(U2-PC8-Pad65)*%
X266022500Y-205850000D03*
%TO.P,U2,66,PC9*%
%TO.N,unconnected-(U2-PC9-Pad66)*%
X266022500Y-205350000D03*
%TO.P,U2,67,PA8*%
%TO.N,unconnected-(U2-PA8-Pad67)*%
X266022500Y-204850000D03*
%TO.P,U2,68,PA9*%
%TO.N,unconnected-(U2-PA9-Pad68)*%
X266022500Y-204350000D03*
%TO.P,U2,69,PA10*%
%TO.N,unconnected-(U2-PA10-Pad69)*%
X266022500Y-203850000D03*
%TO.P,U2,70,PA11*%
%TO.N,unconnected-(U2-PA11-Pad70)*%
X266022500Y-203350000D03*
%TO.P,U2,71,PA12*%
%TO.N,unconnected-(U2-PA12-Pad71)*%
X266022500Y-202850000D03*
%TO.P,U2,72,PA13*%
%TO.N,/MCU_SWDIO*%
X266022500Y-202350000D03*
%TO.P,U2,73,VCAP*%
%TO.N,Net-(C26-Pad1)*%
X266022500Y-201850000D03*
%TO.P,U2,74,VSS*%
%TO.N,GND*%
X266022500Y-201350000D03*
%TO.P,U2,75,VDD*%
%TO.N,+3.3V*%
X266022500Y-200850000D03*
D47*
%TO.P,U2,76,PA14*%
%TO.N,/MCU_SWCLK*%
X264347500Y-199175000D03*
%TO.P,U2,77,PA15*%
%TO.N,unconnected-(U2-PA15-Pad77)*%
X263847500Y-199175000D03*
%TO.P,U2,78,PC10*%
%TO.N,unconnected-(U2-PC10-Pad78)*%
X263347500Y-199175000D03*
%TO.P,U2,79,PC11*%
%TO.N,unconnected-(U2-PC11-Pad79)*%
X262847500Y-199175000D03*
%TO.P,U2,80,PC12*%
%TO.N,unconnected-(U2-PC12-Pad80)*%
X262347500Y-199175000D03*
%TO.P,U2,81,PD0*%
%TO.N,unconnected-(U2-PD0-Pad81)*%
X261847500Y-199175000D03*
%TO.P,U2,82,PD1*%
%TO.N,unconnected-(U2-PD1-Pad82)*%
X261347500Y-199175000D03*
%TO.P,U2,83,PD2*%
%TO.N,unconnected-(U2-PD2-Pad83)*%
X260847500Y-199175000D03*
%TO.P,U2,84,PD3*%
%TO.N,unconnected-(U2-PD3-Pad84)*%
X260347500Y-199175000D03*
%TO.P,U2,85,PD4*%
%TO.N,unconnected-(U2-PD4-Pad85)*%
X259847500Y-199175000D03*
%TO.P,U2,86,PD5*%
%TO.N,unconnected-(U2-PD5-Pad86)*%
X259347500Y-199175000D03*
%TO.P,U2,87,PD6*%
%TO.N,unconnected-(U2-PD6-Pad87)*%
X258847500Y-199175000D03*
%TO.P,U2,88,PD7*%
%TO.N,unconnected-(U2-PD7-Pad88)*%
X258347500Y-199175000D03*
%TO.P,U2,89,PB3*%
%TO.N,/MCU_SWO*%
X257847500Y-199175000D03*
%TO.P,U2,90,PB4*%
%TO.N,unconnected-(U2-PB4-Pad90)*%
X257347500Y-199175000D03*
%TO.P,U2,91,PB5*%
%TO.N,unconnected-(U2-PB5-Pad91)*%
X256847500Y-199175000D03*
%TO.P,U2,92,PB6*%
%TO.N,unconnected-(U2-PB6-Pad92)*%
X256347500Y-199175000D03*
%TO.P,U2,93,PB7*%
%TO.N,unconnected-(U2-PB7-Pad93)*%
X255847500Y-199175000D03*
%TO.P,U2,94,BOOT0*%
%TO.N,GND*%
X255347500Y-199175000D03*
%TO.P,U2,95,PB8*%
%TO.N,unconnected-(U2-PB8-Pad95)*%
X254847500Y-199175000D03*
%TO.P,U2,96,PB9*%
%TO.N,unconnected-(U2-PB9-Pad96)*%
X254347500Y-199175000D03*
%TO.P,U2,97,PE0*%
%TO.N,unconnected-(U2-PE0-Pad97)*%
X253847500Y-199175000D03*
%TO.P,U2,98,PE1*%
%TO.N,unconnected-(U2-PE1-Pad98)*%
X253347500Y-199175000D03*
%TO.P,U2,99,VSS*%
%TO.N,GND*%
X252847500Y-199175000D03*
%TO.P,U2,100,VDD*%
%TO.N,+3.3V*%
X252347500Y-199175000D03*
%TD*%
D17*
%TO.P,R46,1*%
%TO.N,GND*%
X387570000Y-198767500D03*
%TO.P,R46,2*%
%TO.N,Net-(C51-Pad1)*%
X387570000Y-200592500D03*
%TD*%
D12*
%TO.P,TP18,1,1*%
%TO.N,GND*%
X315777500Y-242375000D03*
%TD*%
D28*
%TO.P,FB2,1*%
%TO.N,Net-(Q1-S)*%
X209790000Y-179587500D03*
%TO.P,FB2,2*%
%TO.N,+9V*%
X209790000Y-181712500D03*
%TD*%
D12*
%TO.P,TP5,1,1*%
%TO.N,/I2C_SCL*%
X284580000Y-227600000D03*
%TD*%
D42*
%TO.P,J2,1,S*%
%TO.N,GND*%
X395410000Y-155400000D03*
%TO.P,J2,2,R*%
%TO.N,/ASIGNAL_OUT_R*%
X395410000Y-161750000D03*
%TO.P,J2,3,T*%
%TO.N,/ASIGNAL_OUT_L*%
X395410000Y-168100000D03*
%TO.P,J2,4,S*%
%TO.N,GND*%
X384010000Y-155400000D03*
%TO.P,J2,5,R*%
%TO.N,/ASIGNAL_OUT_R*%
X384010000Y-161750000D03*
%TO.P,J2,6,T*%
%TO.N,/ASIGNAL_OUT_L*%
X384010000Y-168100000D03*
D43*
%TO.P,J2,7,7*%
%TO.N,unconnected-(J2-Pad7)*%
X389710000Y-172730000D03*
%TD*%
D12*
%TO.P,TP17,1,1*%
%TO.N,GND*%
X267827500Y-243125000D03*
%TD*%
D48*
%TO.P,U1,1,XT0*%
%TO.N,/CODEC_XTO*%
X305085000Y-204725000D03*
%TO.P,U1,2,XTI*%
%TO.N,GND*%
X305085000Y-205375000D03*
%TO.P,U1,3,MCLK*%
%TO.N,/I2S_MCLK*%
X305085000Y-206025000D03*
%TO.P,U1,4,LRCK*%
%TO.N,/I2S_LRCK*%
X305085000Y-206675000D03*
%TO.P,U1,5,SCLK*%
%TO.N,/I2S_SCLK*%
X305085000Y-207325000D03*
%TO.P,U1,6,SDOUT(M/~{S})*%
%TO.N,/I2S_SDO*%
X305085000Y-207975000D03*
%TO.P,U1,7,SDIN*%
%TO.N,/I2S_SDI*%
X305085000Y-208625000D03*
%TO.P,U1,8,DGND*%
%TO.N,GND*%
X305085000Y-209275000D03*
%TO.P,U1,9,VD*%
%TO.N,Net-(U1-VD)*%
X305085000Y-209925000D03*
%TO.P,U1,10,VL*%
%TO.N,+3.3V*%
X305085000Y-210575000D03*
%TO.P,U1,11,SCL/CCLK(M0)*%
%TO.N,/I2C_SCL*%
X305085000Y-211225000D03*
%TO.P,U1,12,SDA/CDIN(M1)*%
%TO.N,/I2C_SDA*%
X305085000Y-211875000D03*
%TO.P,U1,13,AD0/~{CS}(I2S/~{LJ})*%
%TO.N,/I2C_AD0*%
X305085000Y-212525000D03*
%TO.P,U1,14,~{RST}*%
%TO.N,/CODEC_NRST_FILT*%
X305085000Y-213175000D03*
%TO.P,U1,15,VCOM*%
%TO.N,/CODEC_VCOM*%
X310810000Y-213175000D03*
%TO.P,U1,16,AINA-*%
%TO.N,/CODEC_AINA_BUFF-*%
X310810000Y-212525000D03*
%TO.P,U1,17,AINA+*%
%TO.N,/CODEC_AINA_BUFF+*%
X310810000Y-211875000D03*
%TO.P,U1,18,AINB+*%
%TO.N,/CODEC_AINB_BUFF+*%
X310810000Y-211225000D03*
%TO.P,U1,19,AINB-*%
%TO.N,/CODEC_AINB_BUFF-*%
X310810000Y-210575000D03*
%TO.P,U1,20,VA*%
%TO.N,+5V*%
X310810000Y-209925000D03*
%TO.P,U1,21,AGND*%
%TO.N,GND*%
X310810000Y-209275000D03*
%TO.P,U1,22,FILT+*%
%TO.N,/CODEC_VFILT*%
X310810000Y-208625000D03*
%TO.P,U1,23,~{AMUTEC}*%
%TO.N,/CODEC_AMUTEC*%
X310810000Y-207975000D03*
%TO.P,U1,24,AOUTA-*%
%TO.N,/CODEC_AOUTA-*%
X310810000Y-207325000D03*
%TO.P,U1,25,AOUTA+*%
%TO.N,/CODEC_AOUTA+*%
X310810000Y-206675000D03*
%TO.P,U1,26,AOUTB+*%
%TO.N,/CODEC_AOUTB+*%
X310810000Y-206025000D03*
%TO.P,U1,27,AOUTB-*%
%TO.N,/CODEC_AOUTB-*%
X310810000Y-205375000D03*
%TO.P,U1,28,~{BMUTEC}*%
%TO.N,/CODEC_BMUTEC*%
X310810000Y-204725000D03*
%TD*%
D13*
%TO.P,R64,1*%
%TO.N,/CODEC_AINB_BUFF-*%
X350292500Y-190985000D03*
%TO.P,R64,2*%
%TO.N,Net-(U8B--)*%
X352117500Y-190985000D03*
%TD*%
D11*
%TO.P,R58,1*%
%TO.N,Net-(U7B-+)*%
X356620000Y-226755000D03*
%TO.P,R58,2*%
%TO.N,/CODEC_VCOM*%
X356620000Y-224930000D03*
%TD*%
D16*
%TO.P,C59,1*%
%TO.N,Net-(U7B--)*%
X349370000Y-227330000D03*
%TO.P,C59,2*%
%TO.N,Net-(C59-Pad2)*%
X351270000Y-227330000D03*
%TD*%
D12*
%TO.P,TP13,1,1*%
%TO.N,GND*%
X198432500Y-181725000D03*
%TD*%
D11*
%TO.P,R6,1*%
%TO.N,/CODEC_NRST*%
X305105000Y-221212500D03*
%TO.P,R6,2*%
%TO.N,/CODEC_NRST_FILT*%
X305105000Y-219387500D03*
%TD*%
D13*
%TO.P,R53,1*%
%TO.N,/CODEC_AINA_BUFF+*%
X348907500Y-215030000D03*
%TO.P,R53,2*%
%TO.N,Net-(C54-Pad2)*%
X350732500Y-215030000D03*
%TD*%
%TO.P,R52,1*%
%TO.N,/CODEC_AINA_BUFF+*%
X347095000Y-217230000D03*
%TO.P,R52,2*%
%TO.N,Net-(U7A--)*%
X348920000Y-217230000D03*
%TD*%
D49*
%TO.P,D8,1,A1*%
%TO.N,GND*%
X209270000Y-170300000D03*
%TO.P,D8,2,A2*%
%TO.N,Net-(D8-A2)*%
X212070000Y-170300000D03*
%TD*%
D17*
%TO.P,R11,1*%
%TO.N,/I2C_AD0*%
X302405000Y-219400000D03*
%TO.P,R11,2*%
%TO.N,+5V*%
X302405000Y-221225000D03*
%TD*%
D16*
%TO.P,C25,1*%
%TO.N,Net-(C25-Pad1)*%
X266997500Y-214775000D03*
%TO.P,C25,2*%
%TO.N,GND*%
X268897500Y-214775000D03*
%TD*%
D12*
%TO.P,TP11,1,1*%
%TO.N,/I2S_MCLK*%
X282945000Y-201575000D03*
%TD*%
D13*
%TO.P,R36,1*%
%TO.N,GND*%
X370732500Y-221350000D03*
%TO.P,R36,2*%
%TO.N,/ASIGNAL_IN_L+*%
X372557500Y-221350000D03*
%TD*%
D32*
%TO.P,D4,1,K*%
%TO.N,Net-(D4-K)*%
X270490000Y-189025000D03*
%TO.P,D4,2,A*%
%TO.N,GND*%
X270490000Y-191125000D03*
%TD*%
D15*
%TO.P,C75,1*%
%TO.N,GND*%
X319407500Y-186422508D03*
%TO.P,C75,2*%
%TO.N,Net-(C75-Pad2)*%
X319407500Y-188322508D03*
%TD*%
D16*
%TO.P,C54,1*%
%TO.N,Net-(U7A--)*%
X350682500Y-217230000D03*
%TO.P,C54,2*%
%TO.N,Net-(C54-Pad2)*%
X352582500Y-217230000D03*
%TD*%
D19*
%TO.P,C27,1*%
%TO.N,+9V*%
X212702500Y-211612500D03*
%TO.P,C27,2*%
%TO.N,GND*%
X212702500Y-209712500D03*
%TD*%
D13*
%TO.P,R1,1*%
%TO.N,Net-(D2-K)*%
X266452500Y-176237500D03*
%TO.P,R1,2*%
%TO.N,/MCU_NRST*%
X268277500Y-176237500D03*
%TD*%
D15*
%TO.P,C20,1*%
%TO.N,/CODEC_NRST_FILT*%
X307405000Y-219350000D03*
%TO.P,C20,2*%
%TO.N,GND*%
X307405000Y-221250000D03*
%TD*%
D13*
%TO.P,R56,1*%
%TO.N,/CODEC_AINA_BUFF-*%
X345807500Y-227330000D03*
%TO.P,R56,2*%
%TO.N,Net-(U7B--)*%
X347632500Y-227330000D03*
%TD*%
D50*
%TO.P,C81,1*%
%TO.N,Net-(C81-Pad1)*%
X323320000Y-197090000D03*
%TO.P,C81,2*%
%TO.N,GND*%
X319720000Y-197090000D03*
%TD*%
D11*
%TO.P,R69,1*%
%TO.N,/CODEC_AOUTA-*%
X299470016Y-195787500D03*
%TO.P,R69,2*%
%TO.N,Net-(C68-Pad2)*%
X299470016Y-193962500D03*
%TD*%
D13*
%TO.P,R12,1*%
%TO.N,/I2S_SDO*%
X286157500Y-204625000D03*
%TO.P,R12,2*%
%TO.N,GND*%
X287982500Y-204625000D03*
%TD*%
D22*
%TO.P,C55,1*%
%TO.N,Net-(U7A-+)*%
X360020000Y-217530000D03*
%TO.P,C55,2*%
%TO.N,/ASIGNAL_IN_L+*%
X364420000Y-217530000D03*
%TD*%
D18*
%TO.P,U6,1*%
%TO.N,/ASIGNAL_IN_R+*%
X371515000Y-201655000D03*
%TO.P,U6,2,-*%
X372785000Y-201655000D03*
%TO.P,U6,3,+*%
%TO.N,Net-(U6A-+)*%
X374055000Y-201655000D03*
%TO.P,U6,4,V-*%
%TO.N,GND*%
X375325000Y-201655000D03*
%TO.P,U6,5,+*%
%TO.N,Net-(U6B-+)*%
X375325000Y-196705000D03*
%TO.P,U6,6,-*%
%TO.N,Net-(U6B--)*%
X374055000Y-196705000D03*
%TO.P,U6,7*%
%TO.N,/ASIGNAL_IN_R-*%
X372785000Y-196705000D03*
%TO.P,U6,8,V+*%
%TO.N,+5V*%
X371515000Y-196705000D03*
%TD*%
D12*
%TO.P,TP31,1,1*%
%TO.N,/CTRL_KNB_3200_HZ*%
X271890000Y-240080000D03*
%TD*%
D36*
%TO.P,RV3,1*%
%TO.N,/VDDA*%
X332452500Y-246525000D03*
%TO.P,RV3,2*%
%TO.N,Net-(R21-Pad1)*%
X335952500Y-246525000D03*
%TO.P,RV3,3*%
%TO.N,GND*%
X332452500Y-280025000D03*
%TD*%
D12*
%TO.P,TP26,1,1*%
%TO.N,/CTRL_KNB_120_HZ*%
X331730000Y-240080000D03*
%TD*%
%TO.P,TP27,1,1*%
%TO.N,/CTRL_KNB_200_HZ*%
X319980000Y-239960000D03*
%TD*%
%TO.P,TP28,1,1*%
%TO.N,/CTRL_KNB_400_HZ*%
X307830000Y-239970000D03*
%TD*%
D36*
%TO.P,RV9,1*%
%TO.N,/VDDA*%
X260452500Y-246525000D03*
%TO.P,RV9,2*%
%TO.N,Net-(R27-Pad1)*%
X263952500Y-246525000D03*
%TO.P,RV9,3*%
%TO.N,GND*%
X260452500Y-280025000D03*
%TD*%
%TO.P,RV11,1*%
%TO.N,/VDDA*%
X226952500Y-246525000D03*
%TO.P,RV11,2*%
%TO.N,Net-(R29-Pad1)*%
X230452500Y-246525000D03*
%TO.P,RV11,3*%
%TO.N,GND*%
X226952500Y-280025000D03*
%TD*%
%TO.P,RV7,1*%
%TO.N,/VDDA*%
X284452500Y-246525000D03*
%TO.P,RV7,2*%
%TO.N,Net-(R25-Pad1)*%
X287952500Y-246525000D03*
%TO.P,RV7,3*%
%TO.N,GND*%
X284452500Y-280025000D03*
%TD*%
D12*
%TO.P,TP33,1,1*%
%TO.N,/CTRL_KNB_12800_HZ*%
X247940000Y-240080000D03*
%TD*%
D36*
%TO.P,RV5,1*%
%TO.N,/VDDA*%
X308452500Y-246525000D03*
%TO.P,RV5,2*%
%TO.N,Net-(R23-Pad1)*%
X311952500Y-246525000D03*
%TO.P,RV5,3*%
%TO.N,GND*%
X308452500Y-280025000D03*
%TD*%
%TO.P,RV4,1*%
%TO.N,/VDDA*%
X320452500Y-246525000D03*
%TO.P,RV4,2*%
%TO.N,Net-(R22-Pad1)*%
X323952500Y-246525000D03*
%TO.P,RV4,3*%
%TO.N,GND*%
X320452500Y-280025000D03*
%TD*%
D12*
%TO.P,TP25,1,1*%
%TO.N,/CTRL_KNB_60_HZ*%
X343940000Y-240080000D03*
%TD*%
%TO.P,TP32,1,1*%
%TO.N,/CTRL_KNB_6400_HZ*%
X259690000Y-240080000D03*
%TD*%
D36*
%TO.P,RV8,1*%
%TO.N,/VDDA*%
X272452500Y-246525000D03*
%TO.P,RV8,2*%
%TO.N,Net-(R26-Pad1)*%
X275952500Y-246525000D03*
%TO.P,RV8,3*%
%TO.N,GND*%
X272452500Y-280025000D03*
%TD*%
%TO.P,RV1,1*%
%TO.N,/VDDA*%
X356452500Y-246525000D03*
%TO.P,RV1,2*%
%TO.N,Net-(R19-Pad1)*%
X359952500Y-246525000D03*
%TO.P,RV1,3*%
%TO.N,GND*%
X356452500Y-280025000D03*
%TD*%
D12*
%TO.P,TP24,1,1*%
%TO.N,/CTRL_KNB_30_HZ*%
X355800000Y-240080000D03*
%TD*%
D36*
%TO.P,RV10,1*%
%TO.N,/VDDA*%
X248452500Y-246525000D03*
%TO.P,RV10,2*%
%TO.N,Net-(R28-Pad1)*%
X251952500Y-246525000D03*
%TO.P,RV10,3*%
%TO.N,GND*%
X248452500Y-280025000D03*
%TD*%
D12*
%TO.P,TP34,1,1*%
%TO.N,/CTRL_KNB_VOL_LVL*%
X226540000Y-240080000D03*
%TD*%
%TO.P,TP29,1,1*%
%TO.N,/CTRL_KNB_800_HZ*%
X295950000Y-239990000D03*
%TD*%
D36*
%TO.P,RV6,1*%
%TO.N,/VDDA*%
X296452500Y-246525000D03*
%TO.P,RV6,2*%
%TO.N,Net-(R24-Pad1)*%
X299952500Y-246525000D03*
%TO.P,RV6,3*%
%TO.N,GND*%
X296452500Y-280025000D03*
%TD*%
%TO.P,RV2,1*%
%TO.N,/VDDA*%
X344452500Y-246525000D03*
%TO.P,RV2,2*%
%TO.N,Net-(R20-Pad1)*%
X347952500Y-246525000D03*
%TO.P,RV2,3*%
%TO.N,GND*%
X344452500Y-280025000D03*
%TD*%
D12*
%TO.P,TP30,1,1*%
%TO.N,/CTRL_KNB_1600_HZ*%
X283940000Y-240080000D03*
%TD*%
D51*
%TO.N,GND*%
X261740000Y-206810000D03*
%TO.N,+5V*%
X217590000Y-193100000D03*
X381475000Y-193330000D03*
X380395000Y-225085000D03*
X302415000Y-222725000D03*
X346525000Y-194430000D03*
X337970000Y-187765000D03*
X347675000Y-194430000D03*
X219390000Y-194550000D03*
X293705000Y-211260000D03*
X308910000Y-211400000D03*
X337970000Y-186490000D03*
X298920000Y-173610000D03*
X297645000Y-173610000D03*
X353800000Y-224230000D03*
X353800000Y-225305000D03*
X379245000Y-225085000D03*
X370050000Y-195380000D03*
X379295000Y-210925000D03*
X368900000Y-195380000D03*
%TO.N,GND*%
X250322500Y-221305000D03*
D52*
X261831000Y-192287500D03*
D51*
X218465000Y-217912500D03*
X336040000Y-238225000D03*
X367742500Y-188430000D03*
X300180000Y-206235000D03*
X386960000Y-219770000D03*
X387575000Y-197255000D03*
X353225000Y-230430000D03*
D52*
X270484000Y-192102500D03*
D51*
X370225000Y-230055000D03*
X384915000Y-210920000D03*
X242515000Y-213400000D03*
X330370000Y-190890000D03*
X369200000Y-221350000D03*
X271390000Y-209970000D03*
D52*
X260022500Y-176243500D03*
D51*
X337020000Y-185090000D03*
X219365000Y-215612500D03*
X321860000Y-213660000D03*
X336020000Y-190490000D03*
X312040000Y-238175000D03*
X316815000Y-203440000D03*
X288040000Y-238350000D03*
X250810000Y-215720000D03*
X243557500Y-194100000D03*
X389875000Y-197255000D03*
X274680000Y-205760000D03*
X303820000Y-193535000D03*
D52*
X255306000Y-186675000D03*
D51*
X211065000Y-214637500D03*
X383585000Y-223250000D03*
X371525000Y-207955000D03*
X263842500Y-221035000D03*
X246265000Y-209525000D03*
X219290000Y-196462500D03*
X296320000Y-176235000D03*
X301725000Y-175310000D03*
X317430000Y-197107492D03*
X316815000Y-205740000D03*
X306565000Y-205375000D03*
X296020000Y-191835000D03*
X255032500Y-194325000D03*
X400390000Y-218110000D03*
D52*
X265700000Y-225430000D03*
D51*
X367450000Y-198630000D03*
X367065000Y-219355000D03*
X367725000Y-230055000D03*
D52*
X259965000Y-180250000D03*
D51*
X345350000Y-197630000D03*
X210890000Y-195512500D03*
X389160000Y-219770000D03*
X270832500Y-198150000D03*
X316840000Y-208040000D03*
X213777500Y-177565000D03*
X375325000Y-203595000D03*
X270832500Y-204050000D03*
X369200000Y-223550000D03*
X264040000Y-238375000D03*
X370242500Y-188430000D03*
X211015000Y-209712500D03*
X289520000Y-204625000D03*
X360000000Y-222830000D03*
X230540000Y-238400000D03*
X271390000Y-207980000D03*
X225320000Y-218240000D03*
D52*
X262700000Y-216960000D03*
D51*
X319030000Y-216860000D03*
X304495000Y-185110000D03*
X308174984Y-193785000D03*
X353025000Y-198955000D03*
X377740000Y-235910000D03*
X298290000Y-213925000D03*
X317645000Y-192715000D03*
X292160000Y-202570000D03*
D52*
X305420000Y-230300000D03*
D51*
X298290000Y-211625000D03*
X297240000Y-206100000D03*
X274600000Y-209980000D03*
X245450000Y-204475000D03*
X255032500Y-196625000D03*
X306565000Y-209275000D03*
X211490000Y-207312500D03*
X309715000Y-222750000D03*
X307415000Y-222750000D03*
X391460000Y-219770000D03*
X398140000Y-218110000D03*
X295940000Y-207710000D03*
X252040000Y-238375000D03*
X313130000Y-218090000D03*
X223100000Y-216060000D03*
D52*
X276236500Y-180617500D03*
D51*
X271080000Y-214090000D03*
X348040000Y-238250000D03*
X244492500Y-211675000D03*
X302120000Y-180985000D03*
X402080000Y-232245000D03*
X242315000Y-219117500D03*
X315530000Y-218090000D03*
X271140000Y-205740000D03*
X316840000Y-210440000D03*
X392175000Y-197255000D03*
X300015000Y-238225000D03*
X385575000Y-194880000D03*
X402080000Y-241987500D03*
X213787500Y-183935000D03*
X209270000Y-172175000D03*
X324040000Y-238225000D03*
X274600000Y-207970000D03*
X242640000Y-207625000D03*
D52*
X255340000Y-200950000D03*
X301290000Y-228300000D03*
D51*
X369225000Y-207930000D03*
X309240000Y-209275000D03*
X354825000Y-198955000D03*
X374535000Y-216340000D03*
X208140000Y-174400000D03*
X326220000Y-193240000D03*
X348425000Y-221455000D03*
X400400000Y-214810000D03*
X268890000Y-216450000D03*
X211040000Y-190410000D03*
D52*
X267780000Y-201350000D03*
D51*
X247947500Y-202282500D03*
X319420000Y-184940000D03*
X386945000Y-235920000D03*
X218290000Y-198912500D03*
X360040000Y-238225000D03*
X211340000Y-188162500D03*
X276040000Y-238375000D03*
X398150000Y-214810000D03*
X274740000Y-214125000D03*
%TO.N,+3.3V*%
X272915000Y-214125000D03*
X249930000Y-229230000D03*
X245640000Y-229225000D03*
X272915000Y-205680000D03*
D52*
%TO.N,/CODEC_VCOM*%
X320220000Y-213380000D03*
X317970000Y-215600000D03*
D51*
%TO.N,/ASIGNAL_IN_L+*%
X368345000Y-218255000D03*
X369805000Y-219715000D03*
%TO.N,/ASIGNAL_IN_L*%
X400290000Y-216440000D03*
X398270000Y-216440000D03*
D52*
%TO.N,/I2C_SDA*%
X302780000Y-228290000D03*
X304050000Y-229560000D03*
%TO.N,/I2C_SCL*%
X301370000Y-229850000D03*
X302570000Y-231050000D03*
%TO.N,/I2S_LRCK*%
X293620000Y-203200000D03*
X293620000Y-206970000D03*
%TO.N,/I2S_SCLK*%
X295680000Y-203250000D03*
X295680000Y-205880000D03*
D51*
%TO.N,GND*%
X296145000Y-274000000D03*
X359145000Y-211000000D03*
X296145000Y-183000000D03*
X331145000Y-267000000D03*
X380145000Y-274000000D03*
X422145000Y-155000000D03*
X289145000Y-260000000D03*
X289145000Y-162000000D03*
X282145000Y-246000000D03*
X198145000Y-176000000D03*
X282145000Y-218000000D03*
X345145000Y-225000000D03*
X282145000Y-190000000D03*
X275145000Y-204000000D03*
X324145000Y-225000000D03*
X380145000Y-162000000D03*
X275145000Y-176000000D03*
X261145000Y-162000000D03*
X310145000Y-190000000D03*
X212145000Y-246000000D03*
X310145000Y-169000000D03*
X212145000Y-225000000D03*
X345145000Y-253000000D03*
X310145000Y-260000000D03*
X212145000Y-267000000D03*
X198145000Y-239000000D03*
X345145000Y-176000000D03*
X338145000Y-190000000D03*
X303145000Y-225000000D03*
X212145000Y-162000000D03*
X240145000Y-246000000D03*
X345145000Y-155000000D03*
X240145000Y-225000000D03*
X303145000Y-155000000D03*
X198145000Y-218000000D03*
X198145000Y-281000000D03*
X254145000Y-211000000D03*
X324145000Y-204000000D03*
X219145000Y-176000000D03*
X198145000Y-197000000D03*
X303145000Y-246000000D03*
X212145000Y-204000000D03*
X240145000Y-281000000D03*
X373145000Y-260000000D03*
X261145000Y-253000000D03*
X338145000Y-211000000D03*
X233145000Y-267000000D03*
X198145000Y-260000000D03*
X359145000Y-183000000D03*
X198145000Y-155000000D03*
X275145000Y-155000000D03*
X324145000Y-155000000D03*
X219145000Y-281000000D03*
X324145000Y-176000000D03*
X226145000Y-155000000D03*
X226145000Y-190000000D03*
X226145000Y-211000000D03*
X366145000Y-246000000D03*
X226145000Y-232000000D03*
X247145000Y-155000000D03*
X226145000Y-253000000D03*
X247145000Y-183000000D03*
X261145000Y-197000000D03*
X233145000Y-169000000D03*
X247145000Y-260000000D03*
X324145000Y-253000000D03*
X380145000Y-190000000D03*
X359145000Y-232000000D03*
X373145000Y-176000000D03*
X387145000Y-204000000D03*
X422145000Y-218000000D03*
X401145000Y-155000000D03*
X401145000Y-281000000D03*
X408145000Y-169000000D03*
X408145000Y-232000000D03*
X408145000Y-260000000D03*
X415145000Y-183000000D03*
X415145000Y-204000000D03*
X415145000Y-274000000D03*
X422145000Y-239000000D03*
%TD*%
D53*
%TO.N,/CODEC_AINB_BUFF+*%
X310810000Y-211225000D02*
X311907894Y-211225000D01*
X311907894Y-211225000D02*
X313052894Y-212370000D01*
X319290000Y-212370000D02*
X321120000Y-210540000D01*
X313052894Y-212370000D02*
X319290000Y-212370000D01*
X321120000Y-210540000D02*
X325430000Y-210540000D01*
X325430000Y-210540000D02*
X336440000Y-199530000D01*
X336440000Y-199530000D02*
X340320000Y-199530000D01*
D54*
%TO.N,+5V*%
X302405000Y-221225000D02*
X302405000Y-222715000D01*
X219377500Y-194562500D02*
X219390000Y-194550000D01*
D53*
X310810000Y-209925000D02*
X310815000Y-209930000D01*
X309785000Y-209925000D02*
X310810000Y-209925000D01*
D54*
X293692500Y-211247500D02*
X293705000Y-211260000D01*
X381470000Y-194867500D02*
X381470000Y-193335000D01*
D53*
X309430000Y-210280000D02*
X309785000Y-209925000D01*
X310815000Y-209930000D02*
X312340000Y-209930000D01*
D54*
X308910000Y-210800000D02*
X309430000Y-210280000D01*
X313430000Y-210440000D02*
X312915000Y-209925000D01*
X217590000Y-194562500D02*
X217590000Y-193100000D01*
X347085000Y-195730000D02*
X349205000Y-195730000D01*
X217590000Y-194562500D02*
X219377500Y-194562500D01*
X381470000Y-193335000D02*
X381475000Y-193330000D01*
X312915000Y-209925000D02*
X312080000Y-209925000D01*
X378345000Y-223245000D02*
X380135000Y-223245000D01*
X371515000Y-196705000D02*
X369245000Y-196705000D01*
X380955000Y-210922500D02*
X379297500Y-210922500D01*
X293692500Y-209610000D02*
X293692500Y-211247500D01*
X379297500Y-210922500D02*
X379295000Y-210925000D01*
X313430000Y-208040000D02*
X313430000Y-210440000D01*
X308910000Y-211400000D02*
X308910000Y-210800000D01*
X302405000Y-222715000D02*
X302415000Y-222725000D01*
%TO.N,GND*%
X369220000Y-198630000D02*
X367450000Y-198630000D01*
X302965000Y-185110000D02*
X304495000Y-185110000D01*
X383235000Y-210917500D02*
X384912500Y-210917500D01*
X212702500Y-209712500D02*
X211015000Y-209712500D01*
X383585000Y-223250000D02*
X383590000Y-223245000D01*
X244015000Y-213400000D02*
X242515000Y-213400000D01*
X270840000Y-204042500D02*
X270832500Y-204050000D01*
X375325000Y-201655000D02*
X375325000Y-203595000D01*
D55*
X262890000Y-181556065D02*
X261583935Y-180250000D01*
D53*
X255347500Y-199175000D02*
X255347500Y-200942500D01*
D54*
X328645000Y-190890000D02*
X330370000Y-190890000D01*
X382035000Y-223245000D02*
X383580000Y-223245000D01*
D53*
X255347500Y-200942500D02*
X255340000Y-200950000D01*
D54*
X319407500Y-186422508D02*
X319407500Y-184952500D01*
X370732500Y-223550000D02*
X369200000Y-223550000D01*
X211077500Y-214650000D02*
X211065000Y-214637500D01*
X212827500Y-188162500D02*
X211340000Y-188162500D01*
X213790000Y-183932500D02*
X213787500Y-183935000D01*
X309705000Y-221212500D02*
X309705000Y-222740000D01*
D53*
X248815000Y-203725000D02*
X247947500Y-203725000D01*
D54*
X319407500Y-184952500D02*
X319420000Y-184940000D01*
X315520000Y-216540000D02*
X315520000Y-218080000D01*
X247947500Y-202282500D02*
X247947500Y-203725000D01*
X386955000Y-219765000D02*
X386960000Y-219770000D01*
X217590000Y-196462500D02*
X219290000Y-196462500D01*
X212777500Y-214650000D02*
X211077500Y-214650000D01*
D53*
X260028500Y-176237500D02*
X260022500Y-176243500D01*
D54*
X212990000Y-207312500D02*
X211490000Y-207312500D01*
X287982500Y-204625000D02*
X289520000Y-204625000D01*
X250322500Y-219637500D02*
X250330000Y-219630000D01*
D53*
X250672500Y-205350000D02*
X249769380Y-205350000D01*
D54*
X370220000Y-230050000D02*
X370225000Y-230055000D01*
D53*
X270490000Y-191125000D02*
X270490000Y-192096500D01*
D54*
X348415000Y-219780000D02*
X348415000Y-221445000D01*
D53*
X255315000Y-185487500D02*
X255315000Y-186666000D01*
D54*
X326220000Y-191735000D02*
X326220000Y-193240000D01*
X315330000Y-208040000D02*
X316840000Y-208040000D01*
X367725000Y-188447500D02*
X367742500Y-188430000D01*
X354820000Y-198960000D02*
X354825000Y-198955000D01*
X303802508Y-193517508D02*
X303820000Y-193535000D01*
X246265000Y-209525000D02*
X247947500Y-209525000D01*
X391455000Y-218270000D02*
X391455000Y-219765000D01*
X315330000Y-210440000D02*
X316840000Y-210440000D01*
X385562500Y-194867500D02*
X385575000Y-194880000D01*
X244492500Y-211675000D02*
X245950000Y-211675000D01*
X389155000Y-218307500D02*
X389155000Y-219765000D01*
X216815000Y-198912500D02*
X218290000Y-198912500D01*
X313120000Y-216540000D02*
X313120000Y-218080000D01*
D53*
X263850000Y-215642752D02*
X263847500Y-215640252D01*
D54*
X315330000Y-203440000D02*
X316815000Y-203440000D01*
X242315000Y-219117500D02*
X243982500Y-219117500D01*
X263850000Y-221027500D02*
X263842500Y-221035000D01*
X353220000Y-228930000D02*
X353220000Y-230425000D01*
D53*
X261215000Y-176237500D02*
X260028500Y-176237500D01*
X252030000Y-215720000D02*
X250810000Y-215720000D01*
X252347500Y-215402500D02*
X252030000Y-215720000D01*
D54*
X347085000Y-197630000D02*
X345350000Y-197630000D01*
X308190016Y-193980016D02*
X308195000Y-193985000D01*
X217665000Y-215612500D02*
X219365000Y-215612500D01*
X392170000Y-197260000D02*
X392175000Y-197255000D01*
X268897500Y-216442500D02*
X268890000Y-216450000D01*
X392170000Y-198767500D02*
X392170000Y-197260000D01*
D53*
X250672500Y-209850000D02*
X249365000Y-209850000D01*
D54*
X250322500Y-221305000D02*
X250322500Y-219637500D01*
X297680000Y-207710000D02*
X295940000Y-207710000D01*
D55*
X262890000Y-181862500D02*
X262890000Y-181556065D01*
D54*
X370225000Y-188447500D02*
X370242500Y-188430000D01*
X299805000Y-211625000D02*
X298290000Y-211625000D01*
X370732500Y-221350000D02*
X369200000Y-221350000D01*
X317447492Y-197090000D02*
X317430000Y-197107492D01*
X369220000Y-207925000D02*
X369225000Y-207930000D01*
X370220000Y-228542500D02*
X370220000Y-230050000D01*
D53*
X305085000Y-205375000D02*
X306565000Y-205375000D01*
D54*
X243982500Y-219117500D02*
X243990000Y-219125000D01*
X245450000Y-204475000D02*
X245450000Y-205872500D01*
X367725000Y-189967500D02*
X367725000Y-188447500D01*
D53*
X310810000Y-209275000D02*
X309240000Y-209275000D01*
D54*
X384912500Y-210917500D02*
X384915000Y-210920000D01*
X389870000Y-198730000D02*
X389870000Y-197260000D01*
X243565000Y-194057500D02*
X243557500Y-194050000D01*
X367720000Y-228542500D02*
X367720000Y-230050000D01*
X337007500Y-183385000D02*
X337007500Y-185077500D01*
D55*
X263130000Y-182102500D02*
X262890000Y-181862500D01*
D54*
X209790000Y-174400000D02*
X208140000Y-174400000D01*
X389870000Y-197260000D02*
X389875000Y-197255000D01*
D55*
X261583935Y-180250000D02*
X259965000Y-180250000D01*
D53*
X270490000Y-192096500D02*
X270484000Y-192102500D01*
X276229000Y-180610000D02*
X276236500Y-180617500D01*
D54*
X270840000Y-199850000D02*
X270840000Y-198157500D01*
X253540000Y-194350000D02*
X255007500Y-194350000D01*
X270840000Y-202350000D02*
X270840000Y-204042500D01*
X317657492Y-192702508D02*
X317645000Y-192715000D01*
X213762500Y-177572500D02*
X213750000Y-177560000D01*
X263850000Y-219360000D02*
X263850000Y-221027500D01*
X212540000Y-190412500D02*
X211042500Y-190412500D01*
D53*
X255315000Y-186666000D02*
X255306000Y-186675000D01*
D54*
X319720000Y-197090000D02*
X317447492Y-197090000D01*
X371520000Y-207950000D02*
X371525000Y-207955000D01*
X296030000Y-191825000D02*
X296020000Y-191835000D01*
X309705000Y-222740000D02*
X309715000Y-222750000D01*
X402080000Y-240412500D02*
X402080000Y-241987500D01*
X297562508Y-191825000D02*
X296030000Y-191825000D01*
X354820000Y-200680000D02*
X354820000Y-198960000D01*
X319347500Y-192702508D02*
X317657492Y-192702508D01*
X379277500Y-235910000D02*
X377740000Y-235910000D01*
X300220000Y-175310000D02*
X301725000Y-175310000D01*
X383580000Y-223245000D02*
X383585000Y-223250000D01*
X209270000Y-170300000D02*
X209270000Y-172175000D01*
X315330000Y-205740000D02*
X316815000Y-205740000D01*
X296307500Y-176222500D02*
X296320000Y-176235000D01*
X253540000Y-196650000D02*
X255007500Y-196650000D01*
X255007500Y-194350000D02*
X255032500Y-194325000D01*
X216977500Y-217912500D02*
X218465000Y-217912500D01*
D53*
X249769380Y-205350000D02*
X249140000Y-204720620D01*
D54*
X213790000Y-182250000D02*
X213790000Y-183932500D01*
X213790000Y-179240000D02*
X213790000Y-177577500D01*
D53*
X252847500Y-198242500D02*
X253540000Y-197550000D01*
D54*
X250330000Y-217230000D02*
X250330000Y-216200000D01*
X385432500Y-235920000D02*
X386945000Y-235920000D01*
X303802508Y-191815000D02*
X303802508Y-193517508D01*
X315520000Y-218080000D02*
X315530000Y-218090000D01*
X307405000Y-222740000D02*
X307415000Y-222750000D01*
D53*
X263850000Y-215750000D02*
X263850000Y-215642752D01*
D54*
X353015000Y-198965000D02*
X353025000Y-198955000D01*
D53*
X249140000Y-204050000D02*
X248815000Y-203725000D01*
D54*
X243565000Y-195600000D02*
X243565000Y-194107500D01*
X299805000Y-213925000D02*
X298290000Y-213925000D01*
X307405000Y-221250000D02*
X307405000Y-222740000D01*
X402080000Y-233807500D02*
X402080000Y-232245000D01*
X263850000Y-216960000D02*
X262700000Y-216960000D01*
X302120000Y-182685000D02*
X302120000Y-180985000D01*
X337007500Y-185077500D02*
X337020000Y-185090000D01*
X212627500Y-195512500D02*
X210890000Y-195512500D01*
X358520000Y-222830000D02*
X360000000Y-222830000D01*
D53*
X249040000Y-209525000D02*
X247947500Y-209525000D01*
D54*
X211042500Y-190412500D02*
X211040000Y-190410000D01*
X387570000Y-197260000D02*
X387575000Y-197255000D01*
X300180000Y-207710000D02*
X300180000Y-206235000D01*
X268897500Y-214775000D02*
X268897500Y-216442500D01*
D53*
X305085000Y-209275000D02*
X306565000Y-209275000D01*
D54*
X353220000Y-230425000D02*
X353225000Y-230430000D01*
D53*
X275012500Y-180610000D02*
X276229000Y-180610000D01*
D54*
X348415000Y-221445000D02*
X348425000Y-221455000D01*
X336020000Y-188985000D02*
X336020000Y-190490000D01*
D53*
X266022500Y-201350000D02*
X267780000Y-201350000D01*
D54*
X367720000Y-230050000D02*
X367725000Y-230055000D01*
X374535000Y-218295000D02*
X374535000Y-216340000D01*
X255007500Y-196650000D02*
X255032500Y-196625000D01*
X383870000Y-194867500D02*
X385562500Y-194867500D01*
X244047500Y-207625000D02*
X242640000Y-207625000D01*
X386955000Y-218270000D02*
X386955000Y-219765000D01*
D53*
X261840000Y-192278500D02*
X261831000Y-192287500D01*
D54*
X387570000Y-198767500D02*
X387570000Y-197260000D01*
D53*
X249365000Y-209850000D02*
X249040000Y-209525000D01*
D54*
X313120000Y-218080000D02*
X313130000Y-218090000D01*
X263850000Y-216960000D02*
X263850000Y-215750000D01*
D53*
X261840000Y-191125000D02*
X261840000Y-192278500D01*
X249140000Y-204720620D02*
X249140000Y-204050000D01*
D54*
X353015000Y-200680000D02*
X353015000Y-198965000D01*
D53*
X253540000Y-197550000D02*
X253540000Y-196650000D01*
D54*
X369220000Y-206392500D02*
X369220000Y-207925000D01*
X391455000Y-219765000D02*
X391460000Y-219770000D01*
X371520000Y-206392500D02*
X371520000Y-207950000D01*
X250330000Y-216200000D02*
X250810000Y-215720000D01*
D53*
X263847500Y-215640252D02*
X263847500Y-214525000D01*
X252347500Y-214525000D02*
X252347500Y-215402500D01*
D54*
X294615000Y-176222500D02*
X296307500Y-176222500D01*
X264312500Y-225430000D02*
X265700000Y-225430000D01*
X389155000Y-219765000D02*
X389160000Y-219770000D01*
X270840000Y-198157500D02*
X270832500Y-198150000D01*
D53*
X252847500Y-199175000D02*
X252847500Y-198242500D01*
D54*
X308170000Y-191510000D02*
X308170000Y-193780016D01*
X370225000Y-189967500D02*
X370225000Y-188447500D01*
D53*
%TO.N,/MCU_NRST*%
X248715000Y-197500000D02*
X248715000Y-177875000D01*
X240440000Y-197500000D02*
X233940000Y-197500000D01*
X248715000Y-177875000D02*
X254440000Y-172150000D01*
X268277500Y-173962500D02*
X268277500Y-176237500D01*
X252990000Y-206200000D02*
X251840000Y-207350000D01*
X248715000Y-197500000D02*
X251565000Y-200350000D01*
X243565000Y-197500000D02*
X248715000Y-197500000D01*
X252990000Y-201764380D02*
X252990000Y-206200000D01*
X251565000Y-200350000D02*
X251575620Y-200350000D01*
X251840000Y-207350000D02*
X250672500Y-207350000D01*
X254440000Y-172150000D02*
X266465000Y-172150000D01*
X266465000Y-172150000D02*
X268277500Y-173962500D01*
X233940000Y-197500000D02*
X233940000Y-201300000D01*
X243565000Y-197500000D02*
X240440000Y-197500000D01*
X251575620Y-200350000D02*
X252990000Y-201764380D01*
%TO.N,/VDDA*%
X249615000Y-210850000D02*
X250672500Y-210850000D01*
D54*
X247850000Y-211040000D02*
X247850000Y-211675000D01*
X248290000Y-210600000D02*
X247850000Y-211040000D01*
X247192500Y-215187500D02*
X247850000Y-214530000D01*
D53*
X249365000Y-210600000D02*
X249615000Y-210850000D01*
D54*
X247850000Y-214530000D02*
X247850000Y-211675000D01*
X246340000Y-215187500D02*
X247192500Y-215187500D01*
X244127500Y-215187500D02*
X244015000Y-215300000D01*
X246340000Y-215187500D02*
X244127500Y-215187500D01*
X249365000Y-210600000D02*
X248290000Y-210600000D01*
D53*
X249615000Y-210350000D02*
X250672500Y-210350000D01*
D54*
X244015000Y-215300000D02*
X238515000Y-215300000D01*
D53*
X249365000Y-210600000D02*
X249615000Y-210350000D01*
D54*
%TO.N,Net-(U1-VD)*%
X297680000Y-209610000D02*
X300180000Y-209610000D01*
X297680000Y-209610000D02*
X295517500Y-209610000D01*
D53*
X303690000Y-209925000D02*
X305085000Y-209925000D01*
D54*
X303690000Y-209925000D02*
X303375000Y-209610000D01*
X303375000Y-209610000D02*
X300180000Y-209610000D01*
%TO.N,/ASIGNAL_IN_L-*%
X377075000Y-223245000D02*
X377075000Y-224415000D01*
X376905000Y-229535000D02*
X377377500Y-229062500D01*
X377377500Y-227800000D02*
X377377500Y-225737500D01*
X377415000Y-224755000D02*
X377415000Y-225700000D01*
X377075000Y-224415000D02*
X377415000Y-224755000D01*
X377377500Y-229062500D02*
X377377500Y-227800000D01*
X364420000Y-226730000D02*
X370207500Y-226730000D01*
X371447500Y-226717500D02*
X374265000Y-229535000D01*
X374265000Y-229535000D02*
X376905000Y-229535000D01*
X370220000Y-226717500D02*
X371447500Y-226717500D01*
D53*
%TO.N,+3.3V*%
X251840000Y-203614380D02*
X251840000Y-205585620D01*
X265987550Y-181784950D02*
X269095050Y-181784950D01*
D54*
X294240000Y-221225000D02*
X272915000Y-221225000D01*
D53*
X252847500Y-215749607D02*
X252230000Y-216367107D01*
D54*
X294240000Y-216610000D02*
X294240000Y-221225000D01*
X236290000Y-217225000D02*
X243990000Y-217225000D01*
D53*
X249390000Y-203250000D02*
X249490000Y-203350000D01*
D54*
X294240000Y-221225000D02*
X297505000Y-221225000D01*
X241525000Y-229225000D02*
X236280000Y-223980000D01*
X270390000Y-196450000D02*
X272915000Y-196450000D01*
X267965000Y-199850000D02*
X268940000Y-199850000D01*
D53*
X251575620Y-205850000D02*
X250672500Y-205850000D01*
D54*
X251640000Y-197400000D02*
X251640000Y-196650000D01*
X301705000Y-215285000D02*
X301240000Y-215750000D01*
X272912500Y-196447500D02*
X272912500Y-180610000D01*
X251990000Y-197750000D02*
X251640000Y-197400000D01*
X266300000Y-169040000D02*
X272912500Y-175652500D01*
D53*
X251990000Y-197750000D02*
X252347500Y-198107500D01*
D54*
X272912500Y-175652500D02*
X272912500Y-180610000D01*
D53*
X265420000Y-215680000D02*
X264700000Y-215680000D01*
D54*
X301240000Y-215750000D02*
X295100000Y-215750000D01*
X268940000Y-197900000D02*
X270390000Y-196450000D01*
X217665000Y-213712500D02*
X222352500Y-213712500D01*
D53*
X303227196Y-210593566D02*
X303245762Y-210575000D01*
D54*
X244077500Y-217312500D02*
X243990000Y-217225000D01*
X252230000Y-219630000D02*
X252230000Y-217230000D01*
X236290000Y-208275000D02*
X243515000Y-201050000D01*
D53*
X272912500Y-180610000D02*
X270270000Y-180610000D01*
X264700000Y-215680000D02*
X264347500Y-215327500D01*
D54*
X236290000Y-217225000D02*
X236290000Y-208275000D01*
X249930000Y-229230000D02*
X249930000Y-223470000D01*
X271690000Y-221225000D02*
X269775000Y-221225000D01*
X265750000Y-219360000D02*
X265750000Y-216960000D01*
D53*
X252347500Y-198107500D02*
X252347500Y-199175000D01*
X250672500Y-203350000D02*
X251575620Y-203350000D01*
X249490000Y-203350000D02*
X250672500Y-203350000D01*
D54*
X249930000Y-223470000D02*
X252230000Y-221170000D01*
X272915000Y-214125000D02*
X272915000Y-221225000D01*
D53*
X251575620Y-203350000D02*
X251840000Y-203614380D01*
D54*
X301705000Y-211625000D02*
X301705000Y-210885000D01*
X267277500Y-200537500D02*
X267965000Y-199850000D01*
X297517500Y-221237500D02*
X297505000Y-221225000D01*
X245640000Y-229225000D02*
X241525000Y-229225000D01*
D53*
X303245762Y-210575000D02*
X305085000Y-210575000D01*
D54*
X269775000Y-221225000D02*
X267910000Y-219360000D01*
X249165000Y-201650000D02*
X249165000Y-203025000D01*
D53*
X265750000Y-216010000D02*
X265420000Y-215680000D01*
D54*
X272915000Y-196450000D02*
X272915000Y-205680000D01*
X251632500Y-196642500D02*
X251640000Y-196650000D01*
D53*
X254390000Y-207550000D02*
X254390000Y-202250000D01*
D54*
X236280000Y-217235000D02*
X236290000Y-217225000D01*
D53*
X267277500Y-200537500D02*
X266965000Y-200850000D01*
D54*
X272915000Y-221225000D02*
X271690000Y-221225000D01*
X225865000Y-217225000D02*
X236290000Y-217225000D01*
X243515000Y-201050000D02*
X248565000Y-201050000D01*
X248565000Y-201050000D02*
X249165000Y-201650000D01*
D53*
X269095050Y-181784950D02*
X270270000Y-180610000D01*
D54*
X252480000Y-169040000D02*
X266300000Y-169040000D01*
X265750000Y-216010000D02*
X265750000Y-216960000D01*
D53*
X252847500Y-209092500D02*
X254390000Y-207550000D01*
D54*
X252230000Y-221170000D02*
X252230000Y-219630000D01*
D53*
X264347500Y-215327500D02*
X264347500Y-214525000D01*
D54*
X222352500Y-199167500D02*
X252480000Y-169040000D01*
D53*
X266965000Y-200850000D02*
X266022500Y-200850000D01*
X251840000Y-205585620D02*
X251575620Y-205850000D01*
D54*
X295100000Y-215750000D02*
X294240000Y-216610000D01*
X301705000Y-210885000D02*
X301996434Y-210593566D01*
X301705000Y-213925000D02*
X301705000Y-215285000D01*
X301705000Y-213925000D02*
X301705000Y-211625000D01*
X222352500Y-213712500D02*
X225865000Y-217225000D01*
X268940000Y-199850000D02*
X268940000Y-197900000D01*
D53*
X252847500Y-214525000D02*
X252847500Y-215749607D01*
D54*
X301996434Y-210593566D02*
X303227196Y-210593566D01*
D53*
X265670000Y-182102500D02*
X265987550Y-181784950D01*
X252347500Y-200207500D02*
X252347500Y-199175000D01*
X254390000Y-202250000D02*
X252347500Y-200207500D01*
X252847500Y-214525000D02*
X252847500Y-209092500D01*
D54*
X236280000Y-223980000D02*
X236280000Y-217235000D01*
X246340000Y-217312500D02*
X244077500Y-217312500D01*
D53*
X252230000Y-216367107D02*
X252230000Y-217230000D01*
D54*
X222352500Y-213712500D02*
X222352500Y-199167500D01*
X267910000Y-219360000D02*
X265750000Y-219360000D01*
X300005000Y-221237500D02*
X297517500Y-221237500D01*
X249165000Y-203025000D02*
X249390000Y-203250000D01*
X251632500Y-191800000D02*
X251632500Y-196642500D01*
%TO.N,Net-(Q1-S)*%
X209790000Y-179587500D02*
X209790000Y-176300000D01*
X210652500Y-179587500D02*
X211000000Y-179240000D01*
X211000000Y-179240000D02*
X211890000Y-179240000D01*
X209790000Y-179587500D02*
X210652500Y-179587500D01*
%TO.N,/ASIGNAL_IN_R-*%
X372475000Y-195055000D02*
X372785000Y-195365000D01*
X372512500Y-194042500D02*
X372475000Y-194080000D01*
X372785000Y-195365000D02*
X372785000Y-196705000D01*
X372512500Y-191805000D02*
X372512500Y-194042500D01*
X364420000Y-191780000D02*
X372487500Y-191780000D01*
X372487500Y-191780000D02*
X372512500Y-191805000D01*
X372475000Y-194080000D02*
X372475000Y-195055000D01*
D56*
%TO.N,+9V*%
X211027500Y-192312500D02*
X212540000Y-192312500D01*
D54*
X212777500Y-213700000D02*
X212690000Y-213612500D01*
X212627500Y-196462500D02*
X212627500Y-198187500D01*
X209787500Y-181710000D02*
X209790000Y-181712500D01*
X210427500Y-181712500D02*
X210965000Y-182250000D01*
X212690000Y-212650000D02*
X212702500Y-212637500D01*
X212627500Y-198187500D02*
X212252500Y-198562500D01*
D56*
X211640000Y-211612500D02*
X212702500Y-211612500D01*
D54*
X212252500Y-198562500D02*
X209802500Y-198562500D01*
X212627500Y-194562500D02*
X212540000Y-194475000D01*
D56*
X212702500Y-211612500D02*
X212702500Y-212637500D01*
D54*
X209790000Y-192300000D02*
X211015000Y-192300000D01*
X210527500Y-211612500D02*
X209790000Y-210875000D01*
X209802500Y-198562500D02*
X209790000Y-198550000D01*
X209790000Y-181712500D02*
X209790000Y-192300000D01*
X213413394Y-213700000D02*
X212777500Y-213700000D01*
X202830000Y-181710000D02*
X209787500Y-181710000D01*
X211640000Y-211612500D02*
X210527500Y-211612500D01*
X213439999Y-215600000D02*
X213990803Y-215049196D01*
X212540000Y-194475000D02*
X212540000Y-193550000D01*
X212690000Y-213612500D02*
X212690000Y-212650000D01*
X212777500Y-215600000D02*
X213439999Y-215600000D01*
X213990803Y-215049196D02*
X213990803Y-214277409D01*
X209790000Y-210875000D02*
X209790000Y-198550000D01*
X210965000Y-182250000D02*
X211890000Y-182250000D01*
D56*
X212540000Y-192312500D02*
X212540000Y-193550000D01*
D54*
X209790000Y-198550000D02*
X209790000Y-192300000D01*
X213990803Y-214277409D02*
X213413394Y-213700000D01*
X209790000Y-181712500D02*
X210427500Y-181712500D01*
%TO.N,/CODEC_VCOM*%
X362220000Y-218710000D02*
X361587500Y-219342500D01*
X317970000Y-215600000D02*
X317010000Y-214640000D01*
X362220000Y-203470000D02*
X362220000Y-211410000D01*
X361587500Y-219342500D02*
X356620000Y-219342500D01*
D53*
X310810000Y-214105000D02*
X310810000Y-213175000D01*
D54*
X356720000Y-202767500D02*
X361517500Y-202767500D01*
X317010000Y-214640000D02*
X315520000Y-214640000D01*
X362220000Y-211410000D02*
X362220000Y-212350000D01*
X361517500Y-202767500D02*
X362220000Y-203470000D01*
X356620000Y-224930000D02*
X356620000Y-219342500D01*
X321250000Y-212350000D02*
X362220000Y-212350000D01*
X362220000Y-212350000D02*
X362220000Y-218710000D01*
X311345000Y-214640000D02*
X310810000Y-214105000D01*
X313120000Y-214640000D02*
X311345000Y-214640000D01*
X320220000Y-213380000D02*
X321250000Y-212350000D01*
X356720000Y-193592500D02*
X356720000Y-202767500D01*
X315520000Y-214640000D02*
X313120000Y-214640000D01*
D53*
%TO.N,/CODEC_VFILT*%
X312730000Y-205740000D02*
X313430000Y-205740000D01*
X312170000Y-206300000D02*
X312730000Y-205740000D01*
D54*
X313287500Y-205882500D02*
X313430000Y-205740000D01*
D53*
X311865000Y-208625000D02*
X312170000Y-208320000D01*
D54*
X313430000Y-203440000D02*
X313430000Y-205740000D01*
D53*
X310810000Y-208625000D02*
X311865000Y-208625000D01*
X312170000Y-208320000D02*
X312170000Y-206300000D01*
D54*
%TO.N,/ASIGNAL_IN_L+*%
X372557500Y-220347500D02*
X372557500Y-221350000D01*
X377075000Y-219405000D02*
X377075000Y-218295000D01*
X376620000Y-219860000D02*
X377075000Y-219405000D01*
X368345000Y-218255000D02*
X367620000Y-217530000D01*
X369805000Y-219715000D02*
X371925000Y-219715000D01*
X375200000Y-219860000D02*
X376620000Y-219860000D01*
X367620000Y-217530000D02*
X364420000Y-217530000D01*
X379587500Y-218907500D02*
X380490000Y-218907500D01*
X377075000Y-218295000D02*
X378345000Y-218295000D01*
X378975000Y-218295000D02*
X379587500Y-218907500D01*
X372557500Y-221350000D02*
X373710000Y-221350000D01*
X371925000Y-219715000D02*
X372557500Y-220347500D01*
X378345000Y-218295000D02*
X378975000Y-218295000D01*
X373710000Y-221350000D02*
X375200000Y-219860000D01*
X372557500Y-221350000D02*
X372557500Y-223550000D01*
%TO.N,Net-(U3-BP)*%
X215052500Y-215600000D02*
X215052500Y-217887500D01*
X215052500Y-217887500D02*
X215077500Y-217912500D01*
%TO.N,/ASIGNAL_IN_R+*%
X372785000Y-200435000D02*
X372785000Y-201655000D01*
X372785000Y-201655000D02*
X371515000Y-201655000D01*
X377670000Y-200492500D02*
X376512500Y-200492500D01*
X364420000Y-204580000D02*
X371507500Y-204580000D01*
X371520000Y-204567500D02*
X371520000Y-201660000D01*
X371507500Y-204580000D02*
X371520000Y-204567500D01*
X373265000Y-199955000D02*
X372785000Y-200435000D01*
X371520000Y-201660000D02*
X371515000Y-201655000D01*
X376512500Y-200492500D02*
X375975000Y-199955000D01*
X375975000Y-199955000D02*
X373265000Y-199955000D01*
D53*
%TO.N,Net-(C25-Pad1)*%
X264557810Y-213175000D02*
X263615000Y-213175000D01*
X263615000Y-213175000D02*
X263347500Y-213442500D01*
X266997500Y-214775000D02*
X266157810Y-214775000D01*
X263347500Y-213442500D02*
X263347500Y-214525000D01*
X266157810Y-214775000D02*
X264557810Y-213175000D01*
%TO.N,/CTRL_KNB_30_HZ*%
X256847500Y-215428120D02*
X257710000Y-216290620D01*
X354140000Y-240080000D02*
X355800000Y-240080000D01*
X263450000Y-232900000D02*
X346960000Y-232900000D01*
X257710000Y-216290620D02*
X257710000Y-227160000D01*
X257710000Y-227160000D02*
X263450000Y-232900000D01*
X256847500Y-214525000D02*
X256847500Y-215428120D01*
X346960000Y-232900000D02*
X354140000Y-240080000D01*
D54*
%TO.N,Net-(U4-BP)*%
X214902500Y-196462500D02*
X214902500Y-198900000D01*
X214902500Y-198900000D02*
X214915000Y-198912500D01*
%TO.N,/CODEC_NRST_FILT*%
X305105000Y-219387500D02*
X305105000Y-214110000D01*
X309705000Y-219387500D02*
X305105000Y-219387500D01*
D53*
X305115000Y-214100000D02*
X305115000Y-213205000D01*
X305115000Y-213205000D02*
X305085000Y-213175000D01*
%TO.N,Net-(D2-K)*%
X265352450Y-181150050D02*
X264400000Y-182102500D01*
X266452500Y-176237500D02*
X266452500Y-177637500D01*
X265352450Y-178737550D02*
X265352450Y-181150050D01*
X266452500Y-176237500D02*
X263315000Y-176237500D01*
X266452500Y-177637500D02*
X265352450Y-178737550D01*
%TO.N,/MCU_XTI*%
X245910000Y-203400000D02*
X246615000Y-204105000D01*
X249765000Y-206350000D02*
X249040000Y-205625000D01*
X249040000Y-205625000D02*
X247947500Y-205625000D01*
X246615000Y-204105000D02*
X246615000Y-205150000D01*
X244047500Y-205875000D02*
X244047500Y-204102500D01*
X244047500Y-204102500D02*
X244750000Y-203400000D01*
X250672500Y-206350000D02*
X249765000Y-206350000D01*
X246615000Y-205150000D02*
X247090000Y-205625000D01*
X247090000Y-205625000D02*
X247947500Y-205625000D01*
X244750000Y-203400000D02*
X245910000Y-203400000D01*
%TO.N,/MCU_XTO*%
X249769380Y-206850000D02*
X248994380Y-207625000D01*
X245447500Y-207625000D02*
X247947500Y-207625000D01*
X248994380Y-207625000D02*
X247947500Y-207625000D01*
X250672500Y-206850000D02*
X249769380Y-206850000D01*
D54*
%TO.N,Net-(U7B--)*%
X347632500Y-227330000D02*
X349370000Y-227330000D01*
X349685000Y-225975000D02*
X349685000Y-224730000D01*
X349370000Y-226290000D02*
X349685000Y-225975000D01*
X349370000Y-227330000D02*
X349370000Y-226290000D01*
D53*
%TO.N,/CTRL_KNB_60_HZ*%
X342350000Y-240080000D02*
X343940000Y-240080000D01*
X256347500Y-215635227D02*
X256930000Y-216217727D01*
X256930000Y-216217727D02*
X256930000Y-228060000D01*
X256347500Y-214525000D02*
X256347500Y-215635227D01*
X335820000Y-233550000D02*
X342350000Y-240080000D01*
X262420000Y-233550000D02*
X335820000Y-233550000D01*
X256930000Y-228060000D02*
X262420000Y-233550000D01*
D54*
%TO.N,Net-(U5A-+)*%
X375805000Y-217105000D02*
X376462500Y-216447500D01*
X376462500Y-216447500D02*
X380955000Y-216447500D01*
X382955000Y-216445000D02*
X380957500Y-216445000D01*
X375805000Y-218295000D02*
X375805000Y-217105000D01*
%TO.N,/ASIGNAL_IN_L*%
X381102500Y-235910000D02*
X381102500Y-245147500D01*
X395417500Y-218762500D02*
X381102500Y-233077500D01*
X400290000Y-216440000D02*
X402050000Y-216440000D01*
X381102500Y-233077500D02*
X381102500Y-235910000D01*
X368500000Y-168100000D02*
X363150000Y-168100000D01*
X395417500Y-216445000D02*
X395417500Y-218762500D01*
X398265000Y-216445000D02*
X398270000Y-216440000D01*
X402050000Y-216440000D02*
X402910000Y-215580000D01*
X402910000Y-215580000D02*
X402910000Y-202510000D01*
X351750000Y-168100000D02*
X363150000Y-168100000D01*
X381102500Y-245147500D02*
X381100000Y-245150000D01*
X395417500Y-216445000D02*
X398265000Y-216445000D01*
X402910000Y-202510000D02*
X368500000Y-168100000D01*
%TO.N,/ASIGNAL_IN_R*%
X401860000Y-223100000D02*
X399280000Y-223100000D01*
X396182500Y-200580000D02*
X397710000Y-200580000D01*
X351750000Y-161750000D02*
X363150000Y-161750000D01*
X394380000Y-223100000D02*
X383607500Y-233872500D01*
X397710000Y-200580000D02*
X399280000Y-202150000D01*
X399280000Y-223100000D02*
X394380000Y-223100000D01*
X383607500Y-235920000D02*
X383607500Y-236217500D01*
X383600000Y-236225000D02*
X383600000Y-245150000D01*
X383607500Y-233872500D02*
X383607500Y-235920000D01*
X363150000Y-161750000D02*
X366660000Y-161750000D01*
X399280000Y-202150000D02*
X399280000Y-223100000D01*
X383607500Y-236217500D02*
X383600000Y-236225000D01*
X405970000Y-201060000D02*
X405970000Y-218990000D01*
X366660000Y-161750000D02*
X405970000Y-201060000D01*
X405970000Y-218990000D02*
X401860000Y-223100000D01*
D53*
%TO.N,/CTRL_KNB_200_HZ*%
X259850000Y-234850000D02*
X313240000Y-234850000D01*
X313240000Y-234850000D02*
X318350000Y-239960000D01*
X255347500Y-216049441D02*
X255520000Y-216221941D01*
X255520000Y-230520000D02*
X259850000Y-234850000D01*
X255520000Y-216221941D02*
X255520000Y-230520000D01*
X318350000Y-239960000D02*
X319980000Y-239960000D01*
X255347500Y-214525000D02*
X255347500Y-216049441D01*
%TO.N,/CTRL_KNB_400_HZ*%
X306290000Y-239970000D02*
X307830000Y-239970000D01*
X301830000Y-235510000D02*
X306290000Y-239970000D01*
X258600000Y-235510000D02*
X301830000Y-235510000D01*
X254847500Y-214525000D02*
X254847500Y-231757500D01*
X254847500Y-231757500D02*
X258600000Y-235510000D01*
D54*
%TO.N,Net-(U5B--)*%
X375805000Y-222155000D02*
X375805000Y-223245000D01*
X375805000Y-224455000D02*
X375515000Y-224745000D01*
X375805000Y-223245000D02*
X375805000Y-224455000D01*
X375552500Y-227800000D02*
X375552500Y-225737500D01*
X377227500Y-220732500D02*
X375805000Y-222155000D01*
X380490000Y-220732500D02*
X377227500Y-220732500D01*
X375515000Y-224745000D02*
X375515000Y-225700000D01*
%TO.N,Net-(U5B-+)*%
X374535000Y-223245000D02*
X374535000Y-224545000D01*
X373925000Y-225155000D02*
X368425000Y-225155000D01*
X367495000Y-224225000D02*
X367495000Y-220635000D01*
X369752500Y-218377500D02*
X372295000Y-218377500D01*
X374535000Y-224545000D02*
X373925000Y-225155000D01*
X368425000Y-225155000D02*
X367495000Y-224225000D01*
X367495000Y-220635000D02*
X369752500Y-218377500D01*
D53*
%TO.N,/CTRL_KNB_800_HZ*%
X253960000Y-222747107D02*
X253960000Y-232750000D01*
X254347500Y-214525000D02*
X254347500Y-222359607D01*
X253960000Y-232750000D02*
X257400000Y-236190000D01*
X294400000Y-239990000D02*
X295950000Y-239990000D01*
X257400000Y-236190000D02*
X290600000Y-236190000D01*
X290600000Y-236190000D02*
X294400000Y-239990000D01*
X254347500Y-222359607D02*
X253960000Y-222747107D01*
D54*
%TO.N,Net-(U7B-+)*%
X354285000Y-222885000D02*
X355065000Y-223665000D01*
X359995000Y-226755000D02*
X360020000Y-226730000D01*
X356620000Y-226755000D02*
X359995000Y-226755000D01*
X355065000Y-225865000D02*
X355955000Y-226755000D01*
X348415000Y-224730000D02*
X348415000Y-223755001D01*
X355955000Y-226755000D02*
X356620000Y-226755000D01*
X348415000Y-223755001D02*
X349285001Y-222885000D01*
X355065000Y-223665000D02*
X355065000Y-225865000D01*
X349285001Y-222885000D02*
X354285000Y-222885000D01*
D53*
%TO.N,/CTRL_KNB_1600_HZ*%
X256250000Y-236890000D02*
X279110000Y-236890000D01*
X279110000Y-236890000D02*
X282300000Y-240080000D01*
X253847500Y-214525000D02*
X253847500Y-221862500D01*
X252760000Y-222950000D02*
X252760000Y-233400000D01*
X253847500Y-221862500D02*
X252760000Y-222950000D01*
X252760000Y-233400000D02*
X256250000Y-236890000D01*
X282300000Y-240080000D02*
X283940000Y-240080000D01*
%TO.N,/CTRL_KNB_3200_HZ*%
X254925000Y-237575000D02*
X269385000Y-237575000D01*
X253347500Y-221372500D02*
X251400000Y-223320000D01*
X251400000Y-234050000D02*
X254925000Y-237575000D01*
X251400000Y-223320000D02*
X251400000Y-234050000D01*
X269385000Y-237575000D02*
X271890000Y-240080000D01*
X253347500Y-214525000D02*
X253347500Y-221372500D01*
D54*
%TO.N,Net-(U6B--)*%
X374375000Y-195105000D02*
X374055000Y-195425000D01*
X374577500Y-198667500D02*
X374055000Y-198145000D01*
X374337500Y-191805000D02*
X374337500Y-194042500D01*
X374055000Y-195425000D02*
X374055000Y-196705000D01*
X377670000Y-198667500D02*
X374577500Y-198667500D01*
X374375000Y-194080000D02*
X374375000Y-195105000D01*
X374055000Y-198145000D02*
X374055000Y-196705000D01*
X374337500Y-194042500D02*
X374375000Y-194080000D01*
%TO.N,Net-(U6A-+)*%
X383607500Y-200592500D02*
X383620000Y-200580000D01*
X374695000Y-204675000D02*
X380375000Y-204675000D01*
X380375000Y-204675000D02*
X381470000Y-203580000D01*
X381470000Y-203580000D02*
X381470000Y-200592500D01*
X381470000Y-200592500D02*
X383607500Y-200592500D01*
X374055000Y-204035000D02*
X374695000Y-204675000D01*
X374055000Y-201655000D02*
X374055000Y-204035000D01*
%TO.N,Net-(U6B-+)*%
X375350000Y-196680000D02*
X375325000Y-196705000D01*
X377457500Y-196680000D02*
X375350000Y-196680000D01*
%TO.N,Net-(U8B--)*%
X352120000Y-194085000D02*
X351745000Y-194460000D01*
X352117500Y-190985000D02*
X352117500Y-193177500D01*
X351745000Y-194460000D02*
X351745000Y-195730000D01*
X352117500Y-193177500D02*
X352120000Y-193180000D01*
X352120000Y-193180000D02*
X352120000Y-194085000D01*
%TO.N,Net-(U8B-+)*%
X354952500Y-191767500D02*
X354455000Y-192265000D01*
X354455000Y-192265000D02*
X354455000Y-195185000D01*
X353910000Y-195730000D02*
X353015000Y-195730000D01*
X356720000Y-191767500D02*
X354952500Y-191767500D01*
X360007500Y-191767500D02*
X360020000Y-191780000D01*
X354455000Y-195185000D02*
X353910000Y-195730000D01*
X356720000Y-191767500D02*
X360007500Y-191767500D01*
%TO.N,Net-(U7A--)*%
X348920000Y-217230000D02*
X350682500Y-217230000D01*
X350682500Y-217230000D02*
X350682500Y-218212500D01*
X350682500Y-218212500D02*
X350955000Y-218485000D01*
X350955000Y-218485000D02*
X350955000Y-219780000D01*
D53*
%TO.N,/CTRL_KNB_6400_HZ*%
X248940000Y-233270000D02*
X255750000Y-240080000D01*
X250672500Y-212850000D02*
X249976486Y-212850000D01*
X248940000Y-216529380D02*
X248940000Y-233270000D01*
X249820000Y-213006486D02*
X249820000Y-215649380D01*
X249820000Y-215649380D02*
X248940000Y-216529380D01*
X255750000Y-240080000D02*
X259690000Y-240080000D01*
X249976486Y-212850000D02*
X249820000Y-213006486D01*
%TO.N,Net-(U9A--)*%
X299315000Y-184140000D02*
X299580000Y-183875000D01*
D54*
X299462508Y-187900000D02*
X299462508Y-186712508D01*
X299315000Y-186565000D02*
X299315000Y-185110000D01*
D53*
X299315000Y-185110000D02*
X299315000Y-184140000D01*
D54*
X299462508Y-186712508D02*
X299315000Y-186565000D01*
D53*
X299580000Y-183875000D02*
X299580000Y-182685000D01*
D54*
%TO.N,Net-(U7A-+)*%
X355012500Y-217517500D02*
X356620000Y-217517500D01*
X350125000Y-221545000D02*
X353305000Y-221545000D01*
X354265000Y-218265000D02*
X355012500Y-217517500D01*
X354265000Y-220585000D02*
X354265000Y-218265000D01*
X360007500Y-217517500D02*
X360020000Y-217530000D01*
X349685000Y-219780000D02*
X349685000Y-221105000D01*
X356620000Y-217517500D02*
X360007500Y-217517500D01*
X353305000Y-221545000D02*
X354265000Y-220585000D01*
X349685000Y-221105000D02*
X350125000Y-221545000D01*
D53*
%TO.N,/CTRL_KNB_VOL_LVL*%
X247670000Y-218160000D02*
X246730000Y-219100000D01*
X246730000Y-219100000D02*
X246730000Y-231870000D01*
X248770000Y-212360000D02*
X248770000Y-214830000D01*
X246730000Y-231870000D02*
X238520000Y-240080000D01*
X248770000Y-214830000D02*
X247670000Y-215930000D01*
X250672500Y-211850000D02*
X249280000Y-211850000D01*
X247670000Y-215930000D02*
X247670000Y-218160000D01*
X249280000Y-211850000D02*
X248770000Y-212360000D01*
X238520000Y-240080000D02*
X226540000Y-240080000D01*
D54*
%TO.N,Net-(U9A-+)*%
X301065000Y-186125000D02*
X301065000Y-185110000D01*
D53*
X301065000Y-185110000D02*
X301065000Y-184230000D01*
X301065000Y-184230000D02*
X300850000Y-184015000D01*
X300850000Y-184015000D02*
X300850000Y-182685000D01*
D54*
X301910016Y-186970016D02*
X301065000Y-186125000D01*
X301910016Y-187897500D02*
X301910016Y-186970016D01*
%TO.N,/Single-Ended to Differential Converter Channel A/+2V5_VOLT_DIV*%
X372295000Y-215545000D02*
X373217500Y-214622500D01*
X372295000Y-216552500D02*
X372295000Y-215545000D01*
X383235000Y-212742500D02*
X380960000Y-212742500D01*
X380955000Y-214622500D02*
X380955000Y-212747500D01*
X380960000Y-212742500D02*
X380955000Y-212747500D01*
X373217500Y-214622500D02*
X380955000Y-214622500D01*
D53*
%TO.N,Net-(C26-Pad1)*%
X267490000Y-202350000D02*
X268940000Y-202350000D01*
X266022500Y-201850000D02*
X266990000Y-201850000D01*
X266990000Y-201850000D02*
X267490000Y-202350000D01*
D54*
%TO.N,/Single-Ended to Differential Converter Channel B/+2V5_VOLT_DIV*%
X381470000Y-196692500D02*
X381470000Y-198767500D01*
X383857500Y-196680000D02*
X383870000Y-196692500D01*
X379282500Y-196680000D02*
X383857500Y-196680000D01*
D53*
%TO.N,/CTRL_KNB_120_HZ*%
X255847500Y-215842334D02*
X256190000Y-216184834D01*
X256190000Y-216184834D02*
X256190000Y-229400000D01*
X255847500Y-214525000D02*
X255847500Y-215842334D01*
X261020000Y-234230000D02*
X324350000Y-234230000D01*
X324350000Y-234230000D02*
X330200000Y-240080000D01*
X330200000Y-240080000D02*
X331730000Y-240080000D01*
X256190000Y-229400000D02*
X261020000Y-234230000D01*
D54*
%TO.N,Net-(U8A--)*%
X350475000Y-200680000D02*
X350475000Y-201955000D01*
X350475000Y-201955000D02*
X350870000Y-202350000D01*
X350870000Y-203280000D02*
X350870000Y-205555000D01*
X350870000Y-202350000D02*
X350870000Y-203280000D01*
X350870000Y-205555000D02*
X350845000Y-205580000D01*
D53*
%TO.N,/CTRL_KNB_12800_HZ*%
X248420000Y-216110000D02*
X248420000Y-218700000D01*
X249769380Y-212350000D02*
X249320000Y-212799380D01*
X250672500Y-212350000D02*
X249769380Y-212350000D01*
X247940000Y-219180000D02*
X247940000Y-240080000D01*
X249320000Y-212799380D02*
X249320000Y-215210000D01*
X248420000Y-218700000D02*
X247940000Y-219180000D01*
X249320000Y-215210000D02*
X248420000Y-216110000D01*
D54*
%TO.N,Net-(C47-Pad1)*%
X384855000Y-216445000D02*
X393592500Y-216445000D01*
%TO.N,Net-(U8A-+)*%
X351745000Y-202075000D02*
X351745000Y-200680000D01*
X356732500Y-204580000D02*
X356720000Y-204592500D01*
X356720000Y-204592500D02*
X354262500Y-204592500D01*
X360020000Y-204580000D02*
X356732500Y-204580000D01*
X354262500Y-204592500D02*
X351745000Y-202075000D01*
D53*
%TO.N,Net-(U10A--)*%
X327190000Y-188135000D02*
X326220000Y-188135000D01*
X328645000Y-188350000D02*
X327405000Y-188350000D01*
D54*
X324875000Y-188135000D02*
X326220000Y-188135000D01*
X323320000Y-188322508D02*
X324687492Y-188322508D01*
D53*
X327405000Y-188350000D02*
X327190000Y-188135000D01*
D54*
X324687492Y-188322508D02*
X324875000Y-188135000D01*
%TO.N,Net-(C51-Pad1)*%
X385520000Y-200580000D02*
X394357500Y-200580000D01*
%TO.N,Net-(C54-Pad2)*%
X352080000Y-215030000D02*
X352582500Y-215532500D01*
X352582500Y-215532500D02*
X352582500Y-217230000D01*
X352582500Y-218177500D02*
X352225000Y-218535000D01*
X350732500Y-215030000D02*
X352080000Y-215030000D01*
X352582500Y-217230000D02*
X352582500Y-218177500D01*
X352225000Y-218535000D02*
X352225000Y-219780000D01*
%TO.N,Net-(C59-Pad2)*%
X349432500Y-229630000D02*
X350600000Y-229630000D01*
X351270000Y-226280000D02*
X350955000Y-225965000D01*
X351270000Y-228960000D02*
X351270000Y-227330000D01*
X350955000Y-225965000D02*
X350955000Y-224730000D01*
X351270000Y-227330000D02*
X351270000Y-226280000D01*
X350600000Y-229630000D02*
X351270000Y-228960000D01*
D53*
%TO.N,/CODEC_NRST*%
X284510000Y-231450000D02*
X300970000Y-231450000D01*
X271700000Y-231450000D02*
X284510000Y-231450000D01*
X300970000Y-231450000D02*
X305105000Y-227315000D01*
X268180000Y-227930000D02*
X271700000Y-231450000D01*
X258347500Y-226017500D02*
X260260000Y-227930000D01*
X258347500Y-214525000D02*
X258347500Y-226017500D01*
X305105000Y-227315000D02*
X305105000Y-221212500D01*
X260260000Y-227930000D02*
X268180000Y-227930000D01*
%TO.N,/I2C_SDA*%
X304170000Y-229440000D02*
X309020000Y-229440000D01*
X300005000Y-218560000D02*
X300005000Y-219412500D01*
X264260000Y-222880000D02*
X276750000Y-222880000D01*
X262847500Y-215712500D02*
X261930000Y-216630000D01*
X306720000Y-212180000D02*
X306415000Y-211875000D01*
X302265000Y-217625000D02*
X300940000Y-217625000D01*
X305085000Y-211875000D02*
X303890000Y-211875000D01*
X300940000Y-217625000D02*
X300005000Y-218560000D01*
X261930000Y-220550000D02*
X264260000Y-222880000D01*
X303390000Y-216500000D02*
X302265000Y-217625000D01*
X261930000Y-216630000D02*
X261930000Y-220550000D01*
X299070000Y-224580000D02*
X284580000Y-224580000D01*
X304050000Y-229560000D02*
X304170000Y-229440000D01*
X306720000Y-214180000D02*
X306720000Y-212180000D01*
X309020000Y-229440000D02*
X311090000Y-227370000D01*
X311090000Y-227370000D02*
X311090000Y-218550000D01*
X303890000Y-211875000D02*
X303390000Y-212375000D01*
X306415000Y-211875000D02*
X305085000Y-211875000D01*
X303390000Y-212375000D02*
X303390000Y-216500000D01*
X302780000Y-228290000D02*
X299070000Y-224580000D01*
X262847500Y-214525000D02*
X262847500Y-215712500D01*
X278450000Y-224580000D02*
X284580000Y-224580000D01*
X276750000Y-222880000D02*
X278450000Y-224580000D01*
X311090000Y-218550000D02*
X306720000Y-214180000D01*
%TO.N,/I2C_SCL*%
X311960000Y-218280000D02*
X311215000Y-217535000D01*
X262347500Y-214525000D02*
X262347500Y-215428120D01*
X275170000Y-224460000D02*
X278310000Y-227600000D01*
X297505000Y-218485000D02*
X299240000Y-216750000D01*
X265080000Y-223840000D02*
X265700000Y-224460000D01*
X297505000Y-219400000D02*
X297505000Y-218485000D01*
X302865000Y-211875000D02*
X303515000Y-211225000D01*
X265700000Y-224460000D02*
X275170000Y-224460000D01*
X301910000Y-216750000D02*
X302865000Y-215795000D01*
X311960000Y-228800000D02*
X311960000Y-218280000D01*
X262347500Y-215428120D02*
X261190000Y-216585620D01*
X261190000Y-221320000D02*
X263710000Y-223840000D01*
X302570000Y-231050000D02*
X302660000Y-231140000D01*
X303515000Y-211225000D02*
X305085000Y-211225000D01*
X302660000Y-231140000D02*
X309620000Y-231140000D01*
X309620000Y-231140000D02*
X311960000Y-228800000D01*
X302865000Y-215795000D02*
X302865000Y-211875000D01*
X278310000Y-227600000D02*
X284580000Y-227600000D01*
X261190000Y-216585620D02*
X261190000Y-221320000D01*
X311215000Y-217535000D02*
X311215000Y-215935000D01*
X306505000Y-211225000D02*
X305085000Y-211225000D01*
X263710000Y-223840000D02*
X265080000Y-223840000D01*
X284580000Y-227600000D02*
X299120000Y-227600000D01*
X311215000Y-215935000D02*
X306505000Y-211225000D01*
X299120000Y-227600000D02*
X301370000Y-229850000D01*
X299240000Y-216750000D02*
X301910000Y-216750000D01*
%TO.N,/I2C_AD0*%
X303915000Y-217150000D02*
X302405000Y-218660000D01*
X305085000Y-212525000D02*
X304165000Y-212525000D01*
X302405000Y-218660000D02*
X302405000Y-219400000D01*
X303915000Y-212775000D02*
X303915000Y-217150000D01*
X304165000Y-212525000D02*
X303915000Y-212775000D01*
D54*
%TO.N,Net-(C61-Pad2)*%
X346935000Y-203492500D02*
X347847500Y-203492500D01*
X348060000Y-203280000D02*
X348970000Y-203280000D01*
X348970000Y-202230000D02*
X349205000Y-201995000D01*
X348970000Y-203280000D02*
X348970000Y-202230000D01*
X349205000Y-201995000D02*
X349205000Y-200680000D01*
X347847500Y-203492500D02*
X348060000Y-203280000D01*
D55*
%TO.N,/CODEC_AOUTA-*%
X309603749Y-207225000D02*
X309703749Y-207325000D01*
X309703749Y-207325000D02*
X310810000Y-207325000D01*
X307465000Y-204268200D02*
X307465000Y-206268200D01*
X300462515Y-196779999D02*
X300462515Y-197265715D01*
X307465000Y-206268200D02*
X308421800Y-207225000D01*
X308421800Y-207225000D02*
X309603749Y-207225000D01*
X300462515Y-197265715D02*
X307465000Y-204268200D01*
X299470016Y-195787500D02*
X300462515Y-196779999D01*
D53*
%TO.N,/CODEC_AINB_BUFF+*%
X340320000Y-199530000D02*
X340320000Y-202490000D01*
D54*
X347977500Y-205317500D02*
X348245000Y-205585000D01*
X348245000Y-205585000D02*
X348250000Y-205580000D01*
X348250000Y-205580000D02*
X349020000Y-205580000D01*
X346935000Y-205317500D02*
X347977500Y-205317500D01*
D53*
X343147500Y-205317500D02*
X346935000Y-205317500D01*
X340320000Y-202490000D02*
X343147500Y-205317500D01*
%TO.N,/I2S_MCLK*%
X276000000Y-206850000D02*
X281275000Y-201575000D01*
X281275000Y-201575000D02*
X282945000Y-201575000D01*
X303870000Y-203180000D02*
X302265000Y-201575000D01*
X305085000Y-206025000D02*
X304135000Y-206025000D01*
X304135000Y-206025000D02*
X303870000Y-205760000D01*
X302265000Y-201575000D02*
X282945000Y-201575000D01*
X266022500Y-206850000D02*
X276000000Y-206850000D01*
X303870000Y-205760000D02*
X303870000Y-203180000D01*
D55*
%TO.N,/CODEC_AOUTA+*%
X308608200Y-206775000D02*
X309603749Y-206775000D01*
X309703749Y-206675000D02*
X310810000Y-206675000D01*
X300912517Y-197079317D02*
X307915000Y-204081800D01*
X301910016Y-195782500D02*
X300912517Y-196779999D01*
X309603749Y-206775000D02*
X309703749Y-206675000D01*
X307915000Y-204081800D02*
X307915000Y-206081800D01*
X300912517Y-196779999D02*
X300912517Y-197079317D01*
X307915000Y-206081800D02*
X308608200Y-206775000D01*
D53*
%TO.N,/CODEC_AINA_BUFF+*%
X312845788Y-212870000D02*
X318350000Y-212870000D01*
D54*
X347095000Y-217230000D02*
X347095000Y-215625000D01*
D53*
X325170000Y-214720000D02*
X331530000Y-221080000D01*
X310810000Y-211875000D02*
X311850788Y-211875000D01*
X311850788Y-211875000D02*
X312845788Y-212870000D01*
X320200000Y-214720000D02*
X325170000Y-214720000D01*
X341120000Y-219930000D02*
X343820000Y-217230000D01*
X343820000Y-217230000D02*
X347095000Y-217230000D01*
D54*
X347095000Y-215625000D02*
X347690000Y-215030000D01*
D53*
X318350000Y-212870000D02*
X320200000Y-214720000D01*
X341120000Y-221080000D02*
X341120000Y-219930000D01*
D54*
X347690000Y-215030000D02*
X348907500Y-215030000D01*
D53*
X331530000Y-221080000D02*
X341120000Y-221080000D01*
D55*
%TO.N,/CODEC_AOUTB-*%
X310810000Y-192957508D02*
X310810000Y-203419044D01*
X310810000Y-203419044D02*
X309772500Y-204456544D01*
X309772500Y-205182500D02*
X309965000Y-205375000D01*
X309965000Y-205375000D02*
X310810000Y-205375000D01*
X315445000Y-188322508D02*
X310810000Y-192957508D01*
X309772500Y-204456544D02*
X309772500Y-205182500D01*
D54*
%TO.N,/CODEC_AINA_BUFF-*%
X345807500Y-228947500D02*
X345807500Y-227330000D01*
D53*
X312638682Y-213370000D02*
X317335000Y-213370000D01*
X310810000Y-212525000D02*
X311793682Y-212525000D01*
X341120000Y-224390000D02*
X344060000Y-227330000D01*
X344060000Y-227330000D02*
X345807500Y-227330000D01*
D54*
X347607500Y-229630000D02*
X346490000Y-229630000D01*
D53*
X341120000Y-222980000D02*
X341120000Y-224390000D01*
X311793682Y-212525000D02*
X312638682Y-213370000D01*
X317335000Y-213370000D02*
X326945000Y-222980000D01*
D54*
X346490000Y-229630000D02*
X345807500Y-228947500D01*
D53*
X326945000Y-222980000D02*
X341120000Y-222980000D01*
%TO.N,/I2S_LRCK*%
X294460000Y-202360000D02*
X293620000Y-203200000D01*
X289860000Y-210730000D02*
X288250000Y-210730000D01*
X303805000Y-206675000D02*
X303300000Y-206170000D01*
X303300000Y-206170000D02*
X303300000Y-203950000D01*
X303300000Y-203950000D02*
X301710000Y-202360000D01*
X285205000Y-213775000D02*
X282945000Y-213775000D01*
X281265000Y-213775000D02*
X282945000Y-213775000D01*
X288250000Y-210730000D02*
X285205000Y-213775000D01*
X280340000Y-212850000D02*
X281265000Y-213775000D01*
X305085000Y-206675000D02*
X303805000Y-206675000D01*
X266022500Y-212850000D02*
X280340000Y-212850000D01*
X293620000Y-206970000D02*
X289860000Y-210730000D01*
X301710000Y-202360000D02*
X294460000Y-202360000D01*
%TO.N,/CODEC_AINB_BUFF-*%
X343932500Y-190982500D02*
X348095000Y-190982500D01*
X311965000Y-210575000D02*
X313260000Y-211870000D01*
X340320000Y-194595000D02*
X343932500Y-190982500D01*
X332610000Y-197630000D02*
X340320000Y-197630000D01*
X313260000Y-211870000D02*
X318370000Y-211870000D01*
D54*
X348097500Y-190985000D02*
X348095000Y-190982500D01*
D53*
X340320000Y-197630000D02*
X340320000Y-194595000D01*
D54*
X350292500Y-190985000D02*
X348097500Y-190985000D01*
D53*
X318370000Y-211870000D02*
X332610000Y-197630000D01*
X310810000Y-210575000D02*
X311965000Y-210575000D01*
D55*
%TO.N,/CODEC_AOUTB+*%
X311260000Y-203869044D02*
X311847500Y-204456544D01*
X311260000Y-193143905D02*
X311260000Y-203869044D01*
X315345000Y-190802508D02*
X313601397Y-190802508D01*
X311640000Y-206025000D02*
X310810000Y-206025000D01*
X313601397Y-190802508D02*
X311260000Y-193143905D01*
X311847500Y-205817500D02*
X311640000Y-206025000D01*
X311847500Y-204456544D02*
X311847500Y-205817500D01*
D53*
%TO.N,Net-(C70-Pad2)*%
X297645000Y-184010000D02*
X297415000Y-184240000D01*
D54*
X292215000Y-184330000D02*
X292995000Y-185110000D01*
D53*
X297415000Y-184240000D02*
X297415000Y-185110000D01*
D54*
X292215000Y-182510000D02*
X292215000Y-184330000D01*
X292995000Y-185110000D02*
X297415000Y-185110000D01*
D53*
X298310000Y-182685000D02*
X298310000Y-183820000D01*
D54*
X297272508Y-187892500D02*
X297272508Y-186697492D01*
X297415000Y-186555000D02*
X297415000Y-185110000D01*
X297272508Y-186697492D02*
X297415000Y-186555000D01*
D53*
X298120000Y-184010000D02*
X297645000Y-184010000D01*
X298310000Y-183820000D02*
X298120000Y-184010000D01*
%TO.N,/I2S_SCLK*%
X295680000Y-203250000D02*
X301420000Y-203250000D01*
X302680000Y-204510000D02*
X302680000Y-206520000D01*
X268054214Y-212350000D02*
X268524214Y-211880000D01*
X301420000Y-203250000D02*
X302680000Y-204510000D01*
X286600000Y-209160000D02*
X285035000Y-210725000D01*
X281465000Y-210725000D02*
X282945000Y-210725000D01*
X302680000Y-206520000D02*
X303485000Y-207325000D01*
X266022500Y-212350000D02*
X268054214Y-212350000D01*
X303485000Y-207325000D02*
X305085000Y-207325000D01*
X292890000Y-205880000D02*
X289610000Y-209160000D01*
X295680000Y-205880000D02*
X292890000Y-205880000D01*
X285035000Y-210725000D02*
X282945000Y-210725000D01*
X289610000Y-209160000D02*
X286600000Y-209160000D01*
X268524214Y-211880000D02*
X280310000Y-211880000D01*
X280310000Y-211880000D02*
X281465000Y-210725000D01*
D54*
%TO.N,Net-(C66-Pad2)*%
X350475000Y-194380000D02*
X350475000Y-195730000D01*
X349107500Y-192807500D02*
X349480000Y-193180000D01*
X349480000Y-193180000D02*
X350220000Y-193180000D01*
X350220000Y-194125000D02*
X350475000Y-194380000D01*
X348095000Y-192807500D02*
X349107500Y-192807500D01*
X350220000Y-193180000D02*
X350220000Y-194125000D01*
%TO.N,Net-(C68-Pad2)*%
X299462508Y-193954992D02*
X299470016Y-193962500D01*
X299462508Y-191825000D02*
X299462508Y-193954992D01*
X299455008Y-189717500D02*
X299462508Y-189725000D01*
X299462508Y-189725000D02*
X299462508Y-191825000D01*
X297272508Y-189717500D02*
X299455008Y-189717500D01*
%TO.N,Net-(C71-Pad2)*%
X292215000Y-176222500D02*
X292215000Y-178910000D01*
D53*
%TO.N,Net-(U10A-+)*%
X327200000Y-189835000D02*
X326220000Y-189835000D01*
D54*
X323312500Y-190802508D02*
X324187492Y-190802508D01*
X325155000Y-189835000D02*
X326220000Y-189835000D01*
D53*
X328645000Y-189620000D02*
X327415000Y-189620000D01*
X327415000Y-189620000D02*
X327200000Y-189835000D01*
D54*
X324187492Y-190802508D02*
X325155000Y-189835000D01*
%TO.N,Net-(D6-K)*%
X262485000Y-225427500D02*
X262487500Y-225430000D01*
X260350000Y-225427500D02*
X262485000Y-225427500D01*
%TO.N,Net-(C73-Pad2)*%
X301910016Y-193957500D02*
X301910016Y-189722500D01*
X301910016Y-189722500D02*
X304205016Y-189722500D01*
X304205016Y-189722500D02*
X304210016Y-189727500D01*
%TO.N,Net-(C74-Pad1)*%
X304217516Y-187910000D02*
X304210016Y-187902500D01*
X308170000Y-187910000D02*
X304217516Y-187910000D01*
D53*
%TO.N,Net-(C77-Pad2)*%
X327320000Y-186865000D02*
X327320000Y-186540000D01*
X327320000Y-186540000D02*
X327015000Y-186235000D01*
D54*
X327100000Y-181085000D02*
X326220000Y-181965000D01*
X324602508Y-186022508D02*
X324815000Y-186235000D01*
X326220000Y-181965000D02*
X326220000Y-186235000D01*
X323320000Y-186022508D02*
X324602508Y-186022508D01*
X330520000Y-181085000D02*
X327100000Y-181085000D01*
D53*
X327535000Y-187080000D02*
X327320000Y-186865000D01*
D54*
X324815000Y-186235000D02*
X326220000Y-186235000D01*
D53*
X328645000Y-187080000D02*
X327535000Y-187080000D01*
X327015000Y-186235000D02*
X326220000Y-186235000D01*
D54*
%TO.N,Net-(C78-Pad2)*%
X334120000Y-181085000D02*
X337007500Y-181085000D01*
%TO.N,Net-(C75-Pad2)*%
X321495000Y-188322508D02*
X321495000Y-186022508D01*
X317270000Y-188322508D02*
X321495000Y-188322508D01*
D53*
%TO.N,/MCU_LED_STATUS_RED*%
X260347500Y-223550000D02*
X260350000Y-223552500D01*
X260347500Y-214525000D02*
X260347500Y-223550000D01*
D54*
%TO.N,Net-(D7-K)*%
X215102500Y-208737500D02*
X215102500Y-209675000D01*
X214815000Y-207312500D02*
X214815000Y-208450000D01*
X214815000Y-208450000D02*
X215102500Y-208737500D01*
%TO.N,Net-(D9-K)*%
X214652500Y-189237500D02*
X215040000Y-189625000D01*
X215040000Y-189625000D02*
X215040000Y-190487500D01*
X214652500Y-188162500D02*
X214652500Y-189237500D01*
D53*
%TO.N,Net-(D3-K)*%
X264365000Y-189025000D02*
X264365000Y-187925000D01*
X264365000Y-187925000D02*
X265352550Y-186937450D01*
X265352550Y-186937450D02*
X265352550Y-184325050D01*
X265352550Y-184325050D02*
X264400000Y-183372500D01*
X261840000Y-189025000D02*
X264365000Y-189025000D01*
D54*
%TO.N,Net-(D8-A2)*%
X212065000Y-175350000D02*
X212065000Y-170305000D01*
X212070000Y-170300000D02*
X212070000Y-164960000D01*
D53*
%TO.N,Net-(D5-K)*%
X259581800Y-182858200D02*
X262615700Y-182858200D01*
X257827500Y-183387500D02*
X257840000Y-183375000D01*
X255315000Y-183387500D02*
X257827500Y-183387500D01*
X262615700Y-182858200D02*
X263130000Y-183372500D01*
X259065000Y-183375000D02*
X259581800Y-182858200D01*
X257840000Y-183375000D02*
X259065000Y-183375000D01*
D54*
%TO.N,Net-(C80-Pad2)*%
X321487500Y-190802508D02*
X317170000Y-190802508D01*
X321487500Y-193102508D02*
X321487500Y-190802508D01*
D53*
%TO.N,/I2S_SDO*%
X305085000Y-207975000D02*
X302885000Y-207975000D01*
X269940000Y-209050000D02*
X276990000Y-209050000D01*
X286628629Y-203411371D02*
X286157500Y-203882500D01*
X286157500Y-203882500D02*
X286157500Y-204625000D01*
X291511371Y-203411371D02*
X286628629Y-203411371D01*
X266022500Y-211350000D02*
X267640000Y-211350000D01*
X281415000Y-204625000D02*
X282945000Y-204625000D01*
X292200000Y-204100000D02*
X291511371Y-203411371D01*
X282945000Y-204625000D02*
X286157500Y-204625000D01*
X276990000Y-209050000D02*
X281415000Y-204625000D01*
X302070000Y-205090000D02*
X301080000Y-204100000D01*
X302070000Y-207160000D02*
X302070000Y-205090000D01*
X302885000Y-207975000D02*
X302070000Y-207160000D01*
X301080000Y-204100000D02*
X292200000Y-204100000D01*
X267640000Y-211350000D02*
X269940000Y-209050000D01*
D54*
%TO.N,/CODEC_AOUT_R*%
X407217500Y-235632500D02*
X402080000Y-235632500D01*
X338832500Y-181085000D02*
X338832500Y-183385000D01*
X401800000Y-159440000D02*
X414032500Y-171672500D01*
X338832500Y-163267500D02*
X342660000Y-159440000D01*
X414032500Y-228817500D02*
X407217500Y-235632500D01*
X398000000Y-235630000D02*
X398002500Y-235632500D01*
X391100000Y-242530000D02*
X391100000Y-245150000D01*
X398002500Y-235632500D02*
X402080000Y-235632500D01*
X398000000Y-235630000D02*
X391100000Y-242530000D01*
X338832500Y-181085000D02*
X338832500Y-163267500D01*
X342660000Y-159440000D02*
X401800000Y-159440000D01*
X414032500Y-171672500D02*
X414032500Y-228817500D01*
%TO.N,/CODEC_AOUT_L*%
X393600000Y-243280000D02*
X393600000Y-245150000D01*
X408932500Y-238587500D02*
X417317500Y-230202500D01*
X306970000Y-157480000D02*
X294615000Y-169835000D01*
X405030000Y-157480000D02*
X306970000Y-157480000D01*
X417317500Y-228522500D02*
X417320000Y-228520000D01*
X417317500Y-230202500D02*
X417317500Y-228522500D01*
X417320000Y-169770000D02*
X405030000Y-157480000D01*
X393600000Y-243280000D02*
X398292500Y-238587500D01*
X417320000Y-228520000D02*
X417320000Y-169770000D01*
X398292500Y-238587500D02*
X408932500Y-238587500D01*
X398292500Y-238587500D02*
X402080000Y-238587500D01*
X292215000Y-174397500D02*
X294615000Y-174397500D01*
X294615000Y-169835000D02*
X294615000Y-174397500D01*
D53*
%TO.N,Net-(D4-K)*%
X265978051Y-183680551D02*
X267990551Y-183680551D01*
X269015000Y-187100000D02*
X268102500Y-188012500D01*
X267990551Y-183680551D02*
X269015000Y-184705000D01*
X268102500Y-188012500D02*
X268102500Y-189025000D01*
X265670000Y-183372500D02*
X265978051Y-183680551D01*
X270490000Y-189025000D02*
X268102500Y-189025000D01*
X269015000Y-184705000D02*
X269015000Y-187100000D01*
D54*
%TO.N,Net-(C81-Pad1)*%
X323320000Y-197090000D02*
X323320000Y-193110008D01*
X323320000Y-193110008D02*
X323312500Y-193102508D01*
D53*
%TO.N,/I2S_SDI*%
X268757107Y-210940000D02*
X278550000Y-210940000D01*
X278550000Y-210940000D02*
X281815000Y-207675000D01*
X305085000Y-208625000D02*
X302215000Y-208625000D01*
X281815000Y-207675000D02*
X282945000Y-207675000D01*
X301490000Y-207900000D02*
X301490000Y-205710000D01*
X266022500Y-211850000D02*
X267847107Y-211850000D01*
X302215000Y-208625000D02*
X301490000Y-207900000D01*
X292160000Y-204980000D02*
X289465000Y-207675000D01*
X300760000Y-204980000D02*
X292160000Y-204980000D01*
X267847107Y-211850000D02*
X268757107Y-210940000D01*
X301490000Y-205710000D02*
X300760000Y-204980000D01*
X289465000Y-207675000D02*
X282945000Y-207675000D01*
%TO.N,/MCU_SWCLK*%
X264365000Y-199157500D02*
X264347500Y-199175000D01*
X264365000Y-190850000D02*
X264365000Y-199157500D01*
%TO.N,/MCU_SWDIO*%
X268102500Y-197150000D02*
X268102500Y-190850000D01*
X264615000Y-202100000D02*
X264615000Y-200637500D01*
X264615000Y-200637500D02*
X268102500Y-197150000D01*
X266022500Y-202350000D02*
X264865000Y-202350000D01*
X264865000Y-202350000D02*
X264615000Y-202100000D01*
%TO.N,/MCU_SWO*%
X257847500Y-185207500D02*
X257840000Y-185200000D01*
X257847500Y-199175000D02*
X257847500Y-185207500D01*
D54*
%TO.N,/ASIGNAL_OUT_R*%
X397990000Y-161750000D02*
X411290000Y-175050000D01*
X405450000Y-229000000D02*
X398790000Y-229000000D01*
X398790000Y-229000000D02*
X392400000Y-235390000D01*
X411290000Y-223160000D02*
X405450000Y-229000000D01*
X395410000Y-161750000D02*
X397990000Y-161750000D01*
X384010000Y-161750000D02*
X395410000Y-161750000D01*
X392400000Y-237380000D02*
X388600000Y-241180000D01*
X388600000Y-241180000D02*
X388600000Y-245150000D01*
X411290000Y-175050000D02*
X411290000Y-223160000D01*
X392400000Y-235390000D02*
X392400000Y-237380000D01*
%TO.N,/ASIGNAL_OUT_L*%
X408610000Y-179310000D02*
X408610000Y-221050000D01*
X389310000Y-233860000D02*
X389310000Y-236910000D01*
X408610000Y-221050000D02*
X403790000Y-225870000D01*
X395410000Y-168100000D02*
X397400000Y-168100000D01*
X386100000Y-240120000D02*
X386100000Y-245150000D01*
X389310000Y-236910000D02*
X386100000Y-240120000D01*
X397400000Y-168100000D02*
X408610000Y-179310000D01*
X403790000Y-225870000D02*
X397300000Y-225870000D01*
X397300000Y-225870000D02*
X389310000Y-233860000D01*
X384010000Y-168100000D02*
X395410000Y-168100000D01*
%TD*%
%TA.AperFunction,Conductor*%
%TO.N,GND*%
G36*
X219573278Y-195969685D02*
G01*
X219602207Y-195995475D01*
X219761972Y-196190743D01*
X219789188Y-196255092D01*
X219790000Y-196269263D01*
X219790000Y-199150589D01*
X219770315Y-199217628D01*
X219756018Y-199235869D01*
X219376682Y-199636280D01*
X219316286Y-199671410D01*
X219286664Y-199675000D01*
X216511592Y-199675000D01*
X216444553Y-199655315D01*
X216429937Y-199644319D01*
X216307345Y-199537050D01*
X216269855Y-199478090D01*
X216265000Y-199443731D01*
X216265000Y-198249800D01*
X216274538Y-198202108D01*
X216387802Y-197930274D01*
X216392669Y-197919958D01*
X216840000Y-197075000D01*
X216840000Y-196170870D01*
X216859685Y-196103831D01*
X216869848Y-196090177D01*
X216952884Y-195993302D01*
X217011459Y-195955212D01*
X217047032Y-195950000D01*
X219506239Y-195950000D01*
X219573278Y-195969685D01*
G37*
%TD.AperFunction*%
%TD*%
%TA.AperFunction,Conductor*%
%TO.N,+3.3V*%
G36*
X215667169Y-211044018D02*
G01*
X215672390Y-211047564D01*
X218288332Y-212923804D01*
X218291631Y-212926254D01*
X218891604Y-213387772D01*
X218932739Y-213444249D01*
X218940000Y-213486057D01*
X218940000Y-213961189D01*
X218920315Y-214028228D01*
X218888934Y-214061471D01*
X218697609Y-214200616D01*
X218631816Y-214224127D01*
X218624678Y-214224333D01*
X214729434Y-214224333D01*
X214662395Y-214204648D01*
X214657808Y-214201554D01*
X214613360Y-214170102D01*
X214570006Y-214115310D01*
X214565213Y-214100984D01*
X214550380Y-214045625D01*
X214540336Y-214028228D01*
X214471327Y-213908699D01*
X214471321Y-213908691D01*
X214409283Y-213846653D01*
X214375798Y-213785330D01*
X214372964Y-213758972D01*
X214372964Y-211230142D01*
X214392649Y-211163103D01*
X214413908Y-211138067D01*
X214504609Y-211056256D01*
X214567574Y-211025971D01*
X214587662Y-211024333D01*
X215600130Y-211024333D01*
X215667169Y-211044018D01*
G37*
%TD.AperFunction*%
%TD*%
%TA.AperFunction,Conductor*%
%TO.N,+5V*%
G36*
X313872967Y-207309685D02*
G01*
X313896794Y-207329624D01*
X313956866Y-207394317D01*
X313988059Y-207456838D01*
X313990000Y-207478693D01*
X313990000Y-210946503D01*
X313970315Y-211013542D01*
X313962828Y-211023965D01*
X313867230Y-211143462D01*
X313809979Y-211183514D01*
X313770402Y-211190000D01*
X313268466Y-211190000D01*
X313201427Y-211170315D01*
X313180785Y-211153681D01*
X312684978Y-210657874D01*
X312669759Y-210639385D01*
X312649999Y-210609999D01*
X312641034Y-210605417D01*
X312609788Y-210582685D01*
X312241616Y-210214513D01*
X312241614Y-210214511D01*
X312138887Y-210155201D01*
X312108093Y-210146950D01*
X312108090Y-210146949D01*
X312072680Y-210137461D01*
X312024309Y-210124500D01*
X312024308Y-210124500D01*
X311671552Y-210124500D01*
X311615258Y-210110985D01*
X311572801Y-210089352D01*
X311479024Y-210074500D01*
X310934000Y-210074500D01*
X310866961Y-210054815D01*
X310821206Y-210002011D01*
X310810000Y-209950500D01*
X310810000Y-209899499D01*
X310829685Y-209832460D01*
X310882489Y-209786705D01*
X310933998Y-209775499D01*
X311479018Y-209775499D01*
X311572804Y-209760646D01*
X311685842Y-209703050D01*
X311775550Y-209613342D01*
X311833146Y-209500304D01*
X311845241Y-209423935D01*
X311875169Y-209360804D01*
X311878109Y-209357624D01*
X312700000Y-208500000D01*
X312834779Y-207527661D01*
X312863482Y-207463961D01*
X312865412Y-207461764D01*
X312983057Y-207331048D01*
X313042535Y-207294387D01*
X313075225Y-207290000D01*
X313805928Y-207290000D01*
X313872967Y-207309685D01*
G37*
%TD.AperFunction*%
%TD*%
%TA.AperFunction,Conductor*%
%TO.N,+5V*%
G36*
X215584668Y-191856792D02*
G01*
X219014861Y-193041319D01*
X219059365Y-193068226D01*
X219850985Y-193813280D01*
X219886312Y-193873561D01*
X219890000Y-193903577D01*
X219890000Y-194844315D01*
X219870315Y-194911354D01*
X219848381Y-194936994D01*
X219700236Y-195068679D01*
X219637053Y-195098505D01*
X219617855Y-195100000D01*
X214287145Y-195100000D01*
X214220106Y-195080315D01*
X214204764Y-195068679D01*
X214056619Y-194936994D01*
X214019591Y-194877742D01*
X214015000Y-194844315D01*
X214015000Y-192248693D01*
X214034685Y-192181654D01*
X214048134Y-192164317D01*
X214303206Y-191889624D01*
X214363247Y-191853892D01*
X214394072Y-191850000D01*
X215544193Y-191850000D01*
X215584668Y-191856792D01*
G37*
%TD.AperFunction*%
%TD*%
%TA.AperFunction,Conductor*%
%TO.N,+5V*%
G36*
X380473278Y-222254685D02*
G01*
X380502207Y-222280475D01*
X380706972Y-222530743D01*
X380734188Y-222595092D01*
X380735000Y-222609263D01*
X380735000Y-223995000D01*
X380931114Y-224759844D01*
X380935000Y-224790643D01*
X380935000Y-225361940D01*
X380915315Y-225428979D01*
X380896619Y-225451636D01*
X380753049Y-225588681D01*
X380750938Y-225590696D01*
X380688853Y-225622746D01*
X380665319Y-225625000D01*
X378976362Y-225625000D01*
X378909323Y-225605315D01*
X378888681Y-225588681D01*
X378731319Y-225431319D01*
X378697834Y-225369996D01*
X378695000Y-225343638D01*
X378695000Y-224685001D01*
X378694999Y-224684999D01*
X378032209Y-224162235D01*
X377991762Y-224105262D01*
X377985000Y-224064874D01*
X377985000Y-222446977D01*
X378004685Y-222379938D01*
X378010492Y-222371663D01*
X378077777Y-222283675D01*
X378134137Y-222242380D01*
X378176277Y-222235000D01*
X380406239Y-222235000D01*
X380473278Y-222254685D01*
G37*
%TD.AperFunction*%
%TD*%
%TA.AperFunction,Conductor*%
%TO.N,+5V*%
G36*
X354148149Y-223526674D02*
G01*
X354303326Y-223681850D01*
X354325000Y-223734176D01*
X354325000Y-227531000D01*
X354303326Y-227583326D01*
X354251000Y-227605000D01*
X352322735Y-227605000D01*
X352270409Y-227583326D01*
X352248746Y-227532276D01*
X352225000Y-226155000D01*
X352224999Y-226154998D01*
X351706326Y-225777782D01*
X351676757Y-225729477D01*
X351675870Y-225716274D01*
X351723590Y-223592719D01*
X351746434Y-223540895D01*
X351787103Y-223521128D01*
X351894792Y-223505744D01*
X351905257Y-223505000D01*
X354095823Y-223505000D01*
X354148149Y-223526674D01*
G37*
%TD.AperFunction*%
%TD*%
%TA.AperFunction,Conductor*%
%TO.N,GND*%
G36*
X219605677Y-215119685D02*
G01*
X219626319Y-215136319D01*
X219803681Y-215313681D01*
X219837166Y-215375004D01*
X219840000Y-215401362D01*
X219840000Y-218273638D01*
X219820315Y-218340677D01*
X219803681Y-218361319D01*
X219526319Y-218638681D01*
X219464996Y-218672166D01*
X219438638Y-218675000D01*
X216647032Y-218675000D01*
X216579993Y-218655315D01*
X216552884Y-218631698D01*
X216469852Y-218534827D01*
X216441169Y-218471116D01*
X216440000Y-218454129D01*
X216440000Y-217351362D01*
X216459685Y-217284323D01*
X216476319Y-217263681D01*
X216639999Y-217100001D01*
X216640000Y-217100000D01*
X216915000Y-216200000D01*
X216915000Y-215341333D01*
X216934685Y-215274294D01*
X216939800Y-215266933D01*
X217027800Y-215149600D01*
X217083771Y-215107779D01*
X217127000Y-215100000D01*
X219538638Y-215100000D01*
X219605677Y-215119685D01*
G37*
%TD.AperFunction*%
%TD*%
%TA.AperFunction,Conductor*%
%TO.N,+5V*%
G36*
X299269426Y-173084066D02*
G01*
X299336214Y-173104577D01*
X299378801Y-173152603D01*
X299539871Y-173474743D01*
X299552246Y-173543508D01*
X299535842Y-173593067D01*
X299070000Y-174384998D01*
X299070000Y-174385000D01*
X298973004Y-175985428D01*
X298949300Y-176051154D01*
X298933607Y-176068793D01*
X298620000Y-176359999D01*
X298620000Y-178586000D01*
X298600315Y-178653039D01*
X298547511Y-178698794D01*
X298496000Y-178710000D01*
X298119000Y-178710000D01*
X298051961Y-178690315D01*
X298006206Y-178637511D01*
X297995000Y-178586000D01*
X297995000Y-176360001D01*
X297994999Y-176359999D01*
X297723562Y-176065942D01*
X297692555Y-176003329D01*
X297691187Y-175993061D01*
X297690493Y-175985428D01*
X297545000Y-174385000D01*
X297060167Y-173553859D01*
X297043392Y-173486034D01*
X297065949Y-173419906D01*
X297065973Y-173419871D01*
X297254633Y-173152603D01*
X297282386Y-173113285D01*
X297337127Y-173069870D01*
X297385219Y-173060805D01*
X299269426Y-173084066D01*
G37*
%TD.AperFunction*%
%TD*%
%TA.AperFunction,Conductor*%
%TO.N,+5V*%
G36*
X337891965Y-185818316D02*
G01*
X338386348Y-186055620D01*
X338438266Y-186102375D01*
X338456679Y-186168939D01*
X338433731Y-188027707D01*
X338413220Y-188094498D01*
X338359855Y-188139598D01*
X338350302Y-188143354D01*
X337836749Y-188321123D01*
X337766958Y-188324451D01*
X337733317Y-188310825D01*
X336932656Y-187839848D01*
X335332227Y-187742852D01*
X335266501Y-187719148D01*
X335248869Y-187703462D01*
X334957656Y-187389848D01*
X334957655Y-187389848D01*
X332731656Y-187389848D01*
X332664617Y-187370163D01*
X332618862Y-187317359D01*
X332607656Y-187265848D01*
X332607656Y-186888848D01*
X332627341Y-186821809D01*
X332680145Y-186776054D01*
X332731656Y-186764848D01*
X334957654Y-186764848D01*
X334957656Y-186764848D01*
X335251714Y-186493409D01*
X335314326Y-186462403D01*
X335324583Y-186461036D01*
X336932656Y-186314848D01*
X337775829Y-185822996D01*
X337843654Y-185806221D01*
X337891965Y-185818316D01*
G37*
%TD.AperFunction*%
%TD*%
%TA.AperFunction,Conductor*%
%TO.N,+5V*%
G36*
X347997145Y-193949685D02*
G01*
X348009489Y-193958741D01*
X348725000Y-194555000D01*
X349451731Y-194709155D01*
X349513226Y-194742322D01*
X349547028Y-194803471D01*
X349550000Y-194830456D01*
X349550000Y-196606000D01*
X349530315Y-196673039D01*
X349477511Y-196718794D01*
X349426000Y-196730000D01*
X348938888Y-196730000D01*
X348871849Y-196710315D01*
X348868076Y-196707792D01*
X348325000Y-196330000D01*
X346174000Y-196330000D01*
X346106961Y-196310315D01*
X346061206Y-196257511D01*
X346050000Y-196206000D01*
X346050000Y-194054000D01*
X346069685Y-193986961D01*
X346122489Y-193941206D01*
X346174000Y-193930000D01*
X347930106Y-193930000D01*
X347997145Y-193949685D01*
G37*
%TD.AperFunction*%
%TD*%
%TA.AperFunction,Conductor*%
%TO.N,+5V*%
G36*
X370242282Y-194874685D02*
G01*
X370260955Y-194889392D01*
X370800000Y-195405000D01*
X371760065Y-195679304D01*
X371819118Y-195716648D01*
X371848606Y-195779990D01*
X371850000Y-195798533D01*
X371850000Y-197606000D01*
X371830315Y-197673039D01*
X371777511Y-197718794D01*
X371726000Y-197730000D01*
X371280113Y-197730000D01*
X371223241Y-197716189D01*
X370475001Y-197330000D01*
X370475000Y-197330000D01*
X368524000Y-197330000D01*
X368456961Y-197310315D01*
X368411206Y-197257511D01*
X368400000Y-197206000D01*
X368400000Y-194979000D01*
X368419685Y-194911961D01*
X368472489Y-194866206D01*
X368524000Y-194855000D01*
X370175243Y-194855000D01*
X370242282Y-194874685D01*
G37*
%TD.AperFunction*%
%TD*%
M02*
