%TF.GenerationSoftware,KiCad,Pcbnew,8.0.4-8.0.4-0~ubuntu22.04.1*%
%TF.CreationDate,2024-08-18T20:01:04-04:00*%
%TF.ProjectId,CS4272-CZZ_Breakout_Board,43533432-3732-42d4-935a-5a5f42726561,rev?*%
%TF.SameCoordinates,Original*%
%TF.FileFunction,Drillmap*%
%TF.FilePolarity,Positive*%
%FSLAX45Y45*%
G04 Gerber Fmt 4.5, Leading zero omitted, Abs format (unit mm)*
G04 Created by KiCad (PCBNEW 8.0.4-8.0.4-0~ubuntu22.04.1) date 2024-08-18 20:01:04*
%MOMM*%
%LPD*%
G01*
G04 APERTURE LIST*
%ADD10C,0.050000*%
%ADD11C,0.200000*%
%ADD12C,0.220000*%
G04 APERTURE END LIST*
D10*
X21732500Y-6135000D02*
G75*
G02*
X22032500Y-6435000I0J-300000D01*
G01*
X8217500Y-6135000D02*
X21732500Y-6135000D01*
X22032500Y-13685000D02*
X22032500Y-6435000D01*
X22032500Y-13685000D02*
G75*
G02*
X21732500Y-13985000I-300000J0D01*
G01*
X8217500Y-13985000D02*
G75*
G02*
X7917500Y-13685000I0J300000D01*
G01*
X7917500Y-13685000D02*
X7917500Y-6435000D01*
X8217500Y-13985000D02*
X21732500Y-13985000D01*
X7917500Y-6435000D02*
G75*
G02*
X8217500Y-6135000I300000J0D01*
G01*
D11*
D12*
X8107500Y-6325000D02*
X8327500Y-6545000D01*
X8327500Y-6325000D02*
X8107500Y-6545000D01*
X8107500Y-13575000D02*
X8327500Y-13795000D01*
X8327500Y-13575000D02*
X8107500Y-13795000D01*
X21622500Y-6325000D02*
X21842500Y-6545000D01*
X21842500Y-6325000D02*
X21622500Y-6545000D01*
X21622500Y-13575000D02*
X21842500Y-13795000D01*
X21842500Y-13575000D02*
X21622500Y-13795000D01*
D11*
X8175777Y-14298984D02*
X8175777Y-14098984D01*
X8175777Y-14098984D02*
X8223396Y-14098984D01*
X8223396Y-14098984D02*
X8251967Y-14108508D01*
X8251967Y-14108508D02*
X8271015Y-14127555D01*
X8271015Y-14127555D02*
X8280539Y-14146603D01*
X8280539Y-14146603D02*
X8290062Y-14184698D01*
X8290062Y-14184698D02*
X8290062Y-14213269D01*
X8290062Y-14213269D02*
X8280539Y-14251365D01*
X8280539Y-14251365D02*
X8271015Y-14270412D01*
X8271015Y-14270412D02*
X8251967Y-14289460D01*
X8251967Y-14289460D02*
X8223396Y-14298984D01*
X8223396Y-14298984D02*
X8175777Y-14298984D01*
X8375777Y-14298984D02*
X8375777Y-14165650D01*
X8375777Y-14203746D02*
X8385301Y-14184698D01*
X8385301Y-14184698D02*
X8394824Y-14175174D01*
X8394824Y-14175174D02*
X8413872Y-14165650D01*
X8413872Y-14165650D02*
X8432920Y-14165650D01*
X8499586Y-14298984D02*
X8499586Y-14165650D01*
X8499586Y-14098984D02*
X8490063Y-14108508D01*
X8490063Y-14108508D02*
X8499586Y-14118031D01*
X8499586Y-14118031D02*
X8509110Y-14108508D01*
X8509110Y-14108508D02*
X8499586Y-14098984D01*
X8499586Y-14098984D02*
X8499586Y-14118031D01*
X8623396Y-14298984D02*
X8604348Y-14289460D01*
X8604348Y-14289460D02*
X8594824Y-14270412D01*
X8594824Y-14270412D02*
X8594824Y-14098984D01*
X8728158Y-14298984D02*
X8709110Y-14289460D01*
X8709110Y-14289460D02*
X8699586Y-14270412D01*
X8699586Y-14270412D02*
X8699586Y-14098984D01*
X8956729Y-14298984D02*
X8956729Y-14098984D01*
X8956729Y-14098984D02*
X9023396Y-14241841D01*
X9023396Y-14241841D02*
X9090063Y-14098984D01*
X9090063Y-14098984D02*
X9090063Y-14298984D01*
X9271015Y-14298984D02*
X9271015Y-14194222D01*
X9271015Y-14194222D02*
X9261491Y-14175174D01*
X9261491Y-14175174D02*
X9242444Y-14165650D01*
X9242444Y-14165650D02*
X9204348Y-14165650D01*
X9204348Y-14165650D02*
X9185301Y-14175174D01*
X9271015Y-14289460D02*
X9251967Y-14298984D01*
X9251967Y-14298984D02*
X9204348Y-14298984D01*
X9204348Y-14298984D02*
X9185301Y-14289460D01*
X9185301Y-14289460D02*
X9175777Y-14270412D01*
X9175777Y-14270412D02*
X9175777Y-14251365D01*
X9175777Y-14251365D02*
X9185301Y-14232317D01*
X9185301Y-14232317D02*
X9204348Y-14222793D01*
X9204348Y-14222793D02*
X9251967Y-14222793D01*
X9251967Y-14222793D02*
X9271015Y-14213269D01*
X9366253Y-14165650D02*
X9366253Y-14365650D01*
X9366253Y-14175174D02*
X9385301Y-14165650D01*
X9385301Y-14165650D02*
X9423396Y-14165650D01*
X9423396Y-14165650D02*
X9442444Y-14175174D01*
X9442444Y-14175174D02*
X9451967Y-14184698D01*
X9451967Y-14184698D02*
X9461491Y-14203746D01*
X9461491Y-14203746D02*
X9461491Y-14260888D01*
X9461491Y-14260888D02*
X9451967Y-14279936D01*
X9451967Y-14279936D02*
X9442444Y-14289460D01*
X9442444Y-14289460D02*
X9423396Y-14298984D01*
X9423396Y-14298984D02*
X9385301Y-14298984D01*
X9385301Y-14298984D02*
X9366253Y-14289460D01*
X9547205Y-14279936D02*
X9556729Y-14289460D01*
X9556729Y-14289460D02*
X9547205Y-14298984D01*
X9547205Y-14298984D02*
X9537682Y-14289460D01*
X9537682Y-14289460D02*
X9547205Y-14279936D01*
X9547205Y-14279936D02*
X9547205Y-14298984D01*
X9547205Y-14175174D02*
X9556729Y-14184698D01*
X9556729Y-14184698D02*
X9547205Y-14194222D01*
X9547205Y-14194222D02*
X9537682Y-14184698D01*
X9537682Y-14184698D02*
X9547205Y-14175174D01*
X9547205Y-14175174D02*
X9547205Y-14194222D01*
X7715000Y-14527500D02*
X7915000Y-14727500D01*
X7915000Y-14527500D02*
X7715000Y-14727500D01*
X8166253Y-14538031D02*
X8175777Y-14528508D01*
X8175777Y-14528508D02*
X8194824Y-14518984D01*
X8194824Y-14518984D02*
X8242443Y-14518984D01*
X8242443Y-14518984D02*
X8261491Y-14528508D01*
X8261491Y-14528508D02*
X8271015Y-14538031D01*
X8271015Y-14538031D02*
X8280539Y-14557079D01*
X8280539Y-14557079D02*
X8280539Y-14576127D01*
X8280539Y-14576127D02*
X8271015Y-14604698D01*
X8271015Y-14604698D02*
X8156729Y-14718984D01*
X8156729Y-14718984D02*
X8280539Y-14718984D01*
X8366253Y-14699936D02*
X8375777Y-14709460D01*
X8375777Y-14709460D02*
X8366253Y-14718984D01*
X8366253Y-14718984D02*
X8356729Y-14709460D01*
X8356729Y-14709460D02*
X8366253Y-14699936D01*
X8366253Y-14699936D02*
X8366253Y-14718984D01*
X8451967Y-14538031D02*
X8461491Y-14528508D01*
X8461491Y-14528508D02*
X8480539Y-14518984D01*
X8480539Y-14518984D02*
X8528158Y-14518984D01*
X8528158Y-14518984D02*
X8547205Y-14528508D01*
X8547205Y-14528508D02*
X8556729Y-14538031D01*
X8556729Y-14538031D02*
X8566253Y-14557079D01*
X8566253Y-14557079D02*
X8566253Y-14576127D01*
X8566253Y-14576127D02*
X8556729Y-14604698D01*
X8556729Y-14604698D02*
X8442444Y-14718984D01*
X8442444Y-14718984D02*
X8566253Y-14718984D01*
X8690063Y-14518984D02*
X8709110Y-14518984D01*
X8709110Y-14518984D02*
X8728158Y-14528508D01*
X8728158Y-14528508D02*
X8737682Y-14538031D01*
X8737682Y-14538031D02*
X8747205Y-14557079D01*
X8747205Y-14557079D02*
X8756729Y-14595174D01*
X8756729Y-14595174D02*
X8756729Y-14642793D01*
X8756729Y-14642793D02*
X8747205Y-14680888D01*
X8747205Y-14680888D02*
X8737682Y-14699936D01*
X8737682Y-14699936D02*
X8728158Y-14709460D01*
X8728158Y-14709460D02*
X8709110Y-14718984D01*
X8709110Y-14718984D02*
X8690063Y-14718984D01*
X8690063Y-14718984D02*
X8671015Y-14709460D01*
X8671015Y-14709460D02*
X8661491Y-14699936D01*
X8661491Y-14699936D02*
X8651967Y-14680888D01*
X8651967Y-14680888D02*
X8642444Y-14642793D01*
X8642444Y-14642793D02*
X8642444Y-14595174D01*
X8642444Y-14595174D02*
X8651967Y-14557079D01*
X8651967Y-14557079D02*
X8661491Y-14538031D01*
X8661491Y-14538031D02*
X8671015Y-14528508D01*
X8671015Y-14528508D02*
X8690063Y-14518984D01*
X8880539Y-14518984D02*
X8899586Y-14518984D01*
X8899586Y-14518984D02*
X8918634Y-14528508D01*
X8918634Y-14528508D02*
X8928158Y-14538031D01*
X8928158Y-14538031D02*
X8937682Y-14557079D01*
X8937682Y-14557079D02*
X8947205Y-14595174D01*
X8947205Y-14595174D02*
X8947205Y-14642793D01*
X8947205Y-14642793D02*
X8937682Y-14680888D01*
X8937682Y-14680888D02*
X8928158Y-14699936D01*
X8928158Y-14699936D02*
X8918634Y-14709460D01*
X8918634Y-14709460D02*
X8899586Y-14718984D01*
X8899586Y-14718984D02*
X8880539Y-14718984D01*
X8880539Y-14718984D02*
X8861491Y-14709460D01*
X8861491Y-14709460D02*
X8851967Y-14699936D01*
X8851967Y-14699936D02*
X8842444Y-14680888D01*
X8842444Y-14680888D02*
X8832920Y-14642793D01*
X8832920Y-14642793D02*
X8832920Y-14595174D01*
X8832920Y-14595174D02*
X8842444Y-14557079D01*
X8842444Y-14557079D02*
X8851967Y-14538031D01*
X8851967Y-14538031D02*
X8861491Y-14528508D01*
X8861491Y-14528508D02*
X8880539Y-14518984D01*
X9032920Y-14718984D02*
X9032920Y-14585650D01*
X9032920Y-14604698D02*
X9042444Y-14595174D01*
X9042444Y-14595174D02*
X9061491Y-14585650D01*
X9061491Y-14585650D02*
X9090063Y-14585650D01*
X9090063Y-14585650D02*
X9109110Y-14595174D01*
X9109110Y-14595174D02*
X9118634Y-14614222D01*
X9118634Y-14614222D02*
X9118634Y-14718984D01*
X9118634Y-14614222D02*
X9128158Y-14595174D01*
X9128158Y-14595174D02*
X9147205Y-14585650D01*
X9147205Y-14585650D02*
X9175777Y-14585650D01*
X9175777Y-14585650D02*
X9194825Y-14595174D01*
X9194825Y-14595174D02*
X9204348Y-14614222D01*
X9204348Y-14614222D02*
X9204348Y-14718984D01*
X9299586Y-14718984D02*
X9299586Y-14585650D01*
X9299586Y-14604698D02*
X9309110Y-14595174D01*
X9309110Y-14595174D02*
X9328158Y-14585650D01*
X9328158Y-14585650D02*
X9356729Y-14585650D01*
X9356729Y-14585650D02*
X9375777Y-14595174D01*
X9375777Y-14595174D02*
X9385301Y-14614222D01*
X9385301Y-14614222D02*
X9385301Y-14718984D01*
X9385301Y-14614222D02*
X9394825Y-14595174D01*
X9394825Y-14595174D02*
X9413872Y-14585650D01*
X9413872Y-14585650D02*
X9442444Y-14585650D01*
X9442444Y-14585650D02*
X9461491Y-14595174D01*
X9461491Y-14595174D02*
X9471015Y-14614222D01*
X9471015Y-14614222D02*
X9471015Y-14718984D01*
X9861491Y-14509460D02*
X9690063Y-14766603D01*
X10118634Y-14518984D02*
X10137682Y-14518984D01*
X10137682Y-14518984D02*
X10156729Y-14528508D01*
X10156729Y-14528508D02*
X10166253Y-14538031D01*
X10166253Y-14538031D02*
X10175777Y-14557079D01*
X10175777Y-14557079D02*
X10185301Y-14595174D01*
X10185301Y-14595174D02*
X10185301Y-14642793D01*
X10185301Y-14642793D02*
X10175777Y-14680888D01*
X10175777Y-14680888D02*
X10166253Y-14699936D01*
X10166253Y-14699936D02*
X10156729Y-14709460D01*
X10156729Y-14709460D02*
X10137682Y-14718984D01*
X10137682Y-14718984D02*
X10118634Y-14718984D01*
X10118634Y-14718984D02*
X10099587Y-14709460D01*
X10099587Y-14709460D02*
X10090063Y-14699936D01*
X10090063Y-14699936D02*
X10080539Y-14680888D01*
X10080539Y-14680888D02*
X10071015Y-14642793D01*
X10071015Y-14642793D02*
X10071015Y-14595174D01*
X10071015Y-14595174D02*
X10080539Y-14557079D01*
X10080539Y-14557079D02*
X10090063Y-14538031D01*
X10090063Y-14538031D02*
X10099587Y-14528508D01*
X10099587Y-14528508D02*
X10118634Y-14518984D01*
X10271015Y-14699936D02*
X10280539Y-14709460D01*
X10280539Y-14709460D02*
X10271015Y-14718984D01*
X10271015Y-14718984D02*
X10261491Y-14709460D01*
X10261491Y-14709460D02*
X10271015Y-14699936D01*
X10271015Y-14699936D02*
X10271015Y-14718984D01*
X10404348Y-14518984D02*
X10423396Y-14518984D01*
X10423396Y-14518984D02*
X10442444Y-14528508D01*
X10442444Y-14528508D02*
X10451968Y-14538031D01*
X10451968Y-14538031D02*
X10461491Y-14557079D01*
X10461491Y-14557079D02*
X10471015Y-14595174D01*
X10471015Y-14595174D02*
X10471015Y-14642793D01*
X10471015Y-14642793D02*
X10461491Y-14680888D01*
X10461491Y-14680888D02*
X10451968Y-14699936D01*
X10451968Y-14699936D02*
X10442444Y-14709460D01*
X10442444Y-14709460D02*
X10423396Y-14718984D01*
X10423396Y-14718984D02*
X10404348Y-14718984D01*
X10404348Y-14718984D02*
X10385301Y-14709460D01*
X10385301Y-14709460D02*
X10375777Y-14699936D01*
X10375777Y-14699936D02*
X10366253Y-14680888D01*
X10366253Y-14680888D02*
X10356729Y-14642793D01*
X10356729Y-14642793D02*
X10356729Y-14595174D01*
X10356729Y-14595174D02*
X10366253Y-14557079D01*
X10366253Y-14557079D02*
X10375777Y-14538031D01*
X10375777Y-14538031D02*
X10385301Y-14528508D01*
X10385301Y-14528508D02*
X10404348Y-14518984D01*
X10585301Y-14604698D02*
X10566253Y-14595174D01*
X10566253Y-14595174D02*
X10556729Y-14585650D01*
X10556729Y-14585650D02*
X10547206Y-14566603D01*
X10547206Y-14566603D02*
X10547206Y-14557079D01*
X10547206Y-14557079D02*
X10556729Y-14538031D01*
X10556729Y-14538031D02*
X10566253Y-14528508D01*
X10566253Y-14528508D02*
X10585301Y-14518984D01*
X10585301Y-14518984D02*
X10623396Y-14518984D01*
X10623396Y-14518984D02*
X10642444Y-14528508D01*
X10642444Y-14528508D02*
X10651968Y-14538031D01*
X10651968Y-14538031D02*
X10661491Y-14557079D01*
X10661491Y-14557079D02*
X10661491Y-14566603D01*
X10661491Y-14566603D02*
X10651968Y-14585650D01*
X10651968Y-14585650D02*
X10642444Y-14595174D01*
X10642444Y-14595174D02*
X10623396Y-14604698D01*
X10623396Y-14604698D02*
X10585301Y-14604698D01*
X10585301Y-14604698D02*
X10566253Y-14614222D01*
X10566253Y-14614222D02*
X10556729Y-14623746D01*
X10556729Y-14623746D02*
X10547206Y-14642793D01*
X10547206Y-14642793D02*
X10547206Y-14680888D01*
X10547206Y-14680888D02*
X10556729Y-14699936D01*
X10556729Y-14699936D02*
X10566253Y-14709460D01*
X10566253Y-14709460D02*
X10585301Y-14718984D01*
X10585301Y-14718984D02*
X10623396Y-14718984D01*
X10623396Y-14718984D02*
X10642444Y-14709460D01*
X10642444Y-14709460D02*
X10651968Y-14699936D01*
X10651968Y-14699936D02*
X10661491Y-14680888D01*
X10661491Y-14680888D02*
X10661491Y-14642793D01*
X10661491Y-14642793D02*
X10651968Y-14623746D01*
X10651968Y-14623746D02*
X10642444Y-14614222D01*
X10642444Y-14614222D02*
X10623396Y-14604698D01*
X10832920Y-14518984D02*
X10794825Y-14518984D01*
X10794825Y-14518984D02*
X10775777Y-14528508D01*
X10775777Y-14528508D02*
X10766253Y-14538031D01*
X10766253Y-14538031D02*
X10747206Y-14566603D01*
X10747206Y-14566603D02*
X10737682Y-14604698D01*
X10737682Y-14604698D02*
X10737682Y-14680888D01*
X10737682Y-14680888D02*
X10747206Y-14699936D01*
X10747206Y-14699936D02*
X10756729Y-14709460D01*
X10756729Y-14709460D02*
X10775777Y-14718984D01*
X10775777Y-14718984D02*
X10813872Y-14718984D01*
X10813872Y-14718984D02*
X10832920Y-14709460D01*
X10832920Y-14709460D02*
X10842444Y-14699936D01*
X10842444Y-14699936D02*
X10851968Y-14680888D01*
X10851968Y-14680888D02*
X10851968Y-14633269D01*
X10851968Y-14633269D02*
X10842444Y-14614222D01*
X10842444Y-14614222D02*
X10832920Y-14604698D01*
X10832920Y-14604698D02*
X10813872Y-14595174D01*
X10813872Y-14595174D02*
X10775777Y-14595174D01*
X10775777Y-14595174D02*
X10756729Y-14604698D01*
X10756729Y-14604698D02*
X10747206Y-14614222D01*
X10747206Y-14614222D02*
X10737682Y-14633269D01*
X11023396Y-14518984D02*
X10985301Y-14518984D01*
X10985301Y-14518984D02*
X10966253Y-14528508D01*
X10966253Y-14528508D02*
X10956729Y-14538031D01*
X10956729Y-14538031D02*
X10937682Y-14566603D01*
X10937682Y-14566603D02*
X10928158Y-14604698D01*
X10928158Y-14604698D02*
X10928158Y-14680888D01*
X10928158Y-14680888D02*
X10937682Y-14699936D01*
X10937682Y-14699936D02*
X10947206Y-14709460D01*
X10947206Y-14709460D02*
X10966253Y-14718984D01*
X10966253Y-14718984D02*
X11004349Y-14718984D01*
X11004349Y-14718984D02*
X11023396Y-14709460D01*
X11023396Y-14709460D02*
X11032920Y-14699936D01*
X11032920Y-14699936D02*
X11042444Y-14680888D01*
X11042444Y-14680888D02*
X11042444Y-14633269D01*
X11042444Y-14633269D02*
X11032920Y-14614222D01*
X11032920Y-14614222D02*
X11023396Y-14604698D01*
X11023396Y-14604698D02*
X11004349Y-14595174D01*
X11004349Y-14595174D02*
X10966253Y-14595174D01*
X10966253Y-14595174D02*
X10947206Y-14604698D01*
X10947206Y-14604698D02*
X10937682Y-14614222D01*
X10937682Y-14614222D02*
X10928158Y-14633269D01*
X11118634Y-14518984D02*
X11118634Y-14557079D01*
X11194825Y-14518984D02*
X11194825Y-14557079D01*
X11490063Y-14795174D02*
X11480539Y-14785650D01*
X11480539Y-14785650D02*
X11461491Y-14757079D01*
X11461491Y-14757079D02*
X11451968Y-14738031D01*
X11451968Y-14738031D02*
X11442444Y-14709460D01*
X11442444Y-14709460D02*
X11432920Y-14661841D01*
X11432920Y-14661841D02*
X11432920Y-14623746D01*
X11432920Y-14623746D02*
X11442444Y-14576127D01*
X11442444Y-14576127D02*
X11451968Y-14547555D01*
X11451968Y-14547555D02*
X11461491Y-14528508D01*
X11461491Y-14528508D02*
X11480539Y-14499936D01*
X11480539Y-14499936D02*
X11490063Y-14490412D01*
X11651968Y-14585650D02*
X11651968Y-14718984D01*
X11604348Y-14509460D02*
X11556729Y-14652317D01*
X11556729Y-14652317D02*
X11680539Y-14652317D01*
X11909110Y-14718984D02*
X11909110Y-14518984D01*
X11994825Y-14718984D02*
X11994825Y-14614222D01*
X11994825Y-14614222D02*
X11985301Y-14595174D01*
X11985301Y-14595174D02*
X11966253Y-14585650D01*
X11966253Y-14585650D02*
X11937682Y-14585650D01*
X11937682Y-14585650D02*
X11918634Y-14595174D01*
X11918634Y-14595174D02*
X11909110Y-14604698D01*
X12118634Y-14718984D02*
X12099587Y-14709460D01*
X12099587Y-14709460D02*
X12090063Y-14699936D01*
X12090063Y-14699936D02*
X12080539Y-14680888D01*
X12080539Y-14680888D02*
X12080539Y-14623746D01*
X12080539Y-14623746D02*
X12090063Y-14604698D01*
X12090063Y-14604698D02*
X12099587Y-14595174D01*
X12099587Y-14595174D02*
X12118634Y-14585650D01*
X12118634Y-14585650D02*
X12147206Y-14585650D01*
X12147206Y-14585650D02*
X12166253Y-14595174D01*
X12166253Y-14595174D02*
X12175777Y-14604698D01*
X12175777Y-14604698D02*
X12185301Y-14623746D01*
X12185301Y-14623746D02*
X12185301Y-14680888D01*
X12185301Y-14680888D02*
X12175777Y-14699936D01*
X12175777Y-14699936D02*
X12166253Y-14709460D01*
X12166253Y-14709460D02*
X12147206Y-14718984D01*
X12147206Y-14718984D02*
X12118634Y-14718984D01*
X12299587Y-14718984D02*
X12280539Y-14709460D01*
X12280539Y-14709460D02*
X12271015Y-14690412D01*
X12271015Y-14690412D02*
X12271015Y-14518984D01*
X12451968Y-14709460D02*
X12432920Y-14718984D01*
X12432920Y-14718984D02*
X12394825Y-14718984D01*
X12394825Y-14718984D02*
X12375777Y-14709460D01*
X12375777Y-14709460D02*
X12366253Y-14690412D01*
X12366253Y-14690412D02*
X12366253Y-14614222D01*
X12366253Y-14614222D02*
X12375777Y-14595174D01*
X12375777Y-14595174D02*
X12394825Y-14585650D01*
X12394825Y-14585650D02*
X12432920Y-14585650D01*
X12432920Y-14585650D02*
X12451968Y-14595174D01*
X12451968Y-14595174D02*
X12461491Y-14614222D01*
X12461491Y-14614222D02*
X12461491Y-14633269D01*
X12461491Y-14633269D02*
X12366253Y-14652317D01*
X12537682Y-14709460D02*
X12556730Y-14718984D01*
X12556730Y-14718984D02*
X12594825Y-14718984D01*
X12594825Y-14718984D02*
X12613872Y-14709460D01*
X12613872Y-14709460D02*
X12623396Y-14690412D01*
X12623396Y-14690412D02*
X12623396Y-14680888D01*
X12623396Y-14680888D02*
X12613872Y-14661841D01*
X12613872Y-14661841D02*
X12594825Y-14652317D01*
X12594825Y-14652317D02*
X12566253Y-14652317D01*
X12566253Y-14652317D02*
X12547206Y-14642793D01*
X12547206Y-14642793D02*
X12537682Y-14623746D01*
X12537682Y-14623746D02*
X12537682Y-14614222D01*
X12537682Y-14614222D02*
X12547206Y-14595174D01*
X12547206Y-14595174D02*
X12566253Y-14585650D01*
X12566253Y-14585650D02*
X12594825Y-14585650D01*
X12594825Y-14585650D02*
X12613872Y-14595174D01*
X12690063Y-14795174D02*
X12699587Y-14785650D01*
X12699587Y-14785650D02*
X12718634Y-14757079D01*
X12718634Y-14757079D02*
X12728158Y-14738031D01*
X12728158Y-14738031D02*
X12737682Y-14709460D01*
X12737682Y-14709460D02*
X12747206Y-14661841D01*
X12747206Y-14661841D02*
X12747206Y-14623746D01*
X12747206Y-14623746D02*
X12737682Y-14576127D01*
X12737682Y-14576127D02*
X12728158Y-14547555D01*
X12728158Y-14547555D02*
X12718634Y-14528508D01*
X12718634Y-14528508D02*
X12699587Y-14499936D01*
X12699587Y-14499936D02*
X12690063Y-14490412D01*
X13051968Y-14795174D02*
X13042444Y-14785650D01*
X13042444Y-14785650D02*
X13023396Y-14757079D01*
X13023396Y-14757079D02*
X13013872Y-14738031D01*
X13013872Y-14738031D02*
X13004349Y-14709460D01*
X13004349Y-14709460D02*
X12994825Y-14661841D01*
X12994825Y-14661841D02*
X12994825Y-14623746D01*
X12994825Y-14623746D02*
X13004349Y-14576127D01*
X13004349Y-14576127D02*
X13013872Y-14547555D01*
X13013872Y-14547555D02*
X13023396Y-14528508D01*
X13023396Y-14528508D02*
X13042444Y-14499936D01*
X13042444Y-14499936D02*
X13051968Y-14490412D01*
X13128158Y-14585650D02*
X13128158Y-14718984D01*
X13128158Y-14604698D02*
X13137682Y-14595174D01*
X13137682Y-14595174D02*
X13156730Y-14585650D01*
X13156730Y-14585650D02*
X13185301Y-14585650D01*
X13185301Y-14585650D02*
X13204349Y-14595174D01*
X13204349Y-14595174D02*
X13213872Y-14614222D01*
X13213872Y-14614222D02*
X13213872Y-14718984D01*
X13337682Y-14718984D02*
X13318634Y-14709460D01*
X13318634Y-14709460D02*
X13309111Y-14699936D01*
X13309111Y-14699936D02*
X13299587Y-14680888D01*
X13299587Y-14680888D02*
X13299587Y-14623746D01*
X13299587Y-14623746D02*
X13309111Y-14604698D01*
X13309111Y-14604698D02*
X13318634Y-14595174D01*
X13318634Y-14595174D02*
X13337682Y-14585650D01*
X13337682Y-14585650D02*
X13366253Y-14585650D01*
X13366253Y-14585650D02*
X13385301Y-14595174D01*
X13385301Y-14595174D02*
X13394825Y-14604698D01*
X13394825Y-14604698D02*
X13404349Y-14623746D01*
X13404349Y-14623746D02*
X13404349Y-14680888D01*
X13404349Y-14680888D02*
X13394825Y-14699936D01*
X13394825Y-14699936D02*
X13385301Y-14709460D01*
X13385301Y-14709460D02*
X13366253Y-14718984D01*
X13366253Y-14718984D02*
X13337682Y-14718984D01*
X13461492Y-14585650D02*
X13537682Y-14585650D01*
X13490063Y-14518984D02*
X13490063Y-14690412D01*
X13490063Y-14690412D02*
X13499587Y-14709460D01*
X13499587Y-14709460D02*
X13518634Y-14718984D01*
X13518634Y-14718984D02*
X13537682Y-14718984D01*
X13756730Y-14585650D02*
X13756730Y-14785650D01*
X13756730Y-14595174D02*
X13775777Y-14585650D01*
X13775777Y-14585650D02*
X13813873Y-14585650D01*
X13813873Y-14585650D02*
X13832920Y-14595174D01*
X13832920Y-14595174D02*
X13842444Y-14604698D01*
X13842444Y-14604698D02*
X13851968Y-14623746D01*
X13851968Y-14623746D02*
X13851968Y-14680888D01*
X13851968Y-14680888D02*
X13842444Y-14699936D01*
X13842444Y-14699936D02*
X13832920Y-14709460D01*
X13832920Y-14709460D02*
X13813873Y-14718984D01*
X13813873Y-14718984D02*
X13775777Y-14718984D01*
X13775777Y-14718984D02*
X13756730Y-14709460D01*
X13966253Y-14718984D02*
X13947206Y-14709460D01*
X13947206Y-14709460D02*
X13937682Y-14690412D01*
X13937682Y-14690412D02*
X13937682Y-14518984D01*
X14128158Y-14718984D02*
X14128158Y-14614222D01*
X14128158Y-14614222D02*
X14118634Y-14595174D01*
X14118634Y-14595174D02*
X14099587Y-14585650D01*
X14099587Y-14585650D02*
X14061492Y-14585650D01*
X14061492Y-14585650D02*
X14042444Y-14595174D01*
X14128158Y-14709460D02*
X14109111Y-14718984D01*
X14109111Y-14718984D02*
X14061492Y-14718984D01*
X14061492Y-14718984D02*
X14042444Y-14709460D01*
X14042444Y-14709460D02*
X14032920Y-14690412D01*
X14032920Y-14690412D02*
X14032920Y-14671365D01*
X14032920Y-14671365D02*
X14042444Y-14652317D01*
X14042444Y-14652317D02*
X14061492Y-14642793D01*
X14061492Y-14642793D02*
X14109111Y-14642793D01*
X14109111Y-14642793D02*
X14128158Y-14633269D01*
X14194825Y-14585650D02*
X14271015Y-14585650D01*
X14223396Y-14518984D02*
X14223396Y-14690412D01*
X14223396Y-14690412D02*
X14232920Y-14709460D01*
X14232920Y-14709460D02*
X14251968Y-14718984D01*
X14251968Y-14718984D02*
X14271015Y-14718984D01*
X14413873Y-14709460D02*
X14394825Y-14718984D01*
X14394825Y-14718984D02*
X14356730Y-14718984D01*
X14356730Y-14718984D02*
X14337682Y-14709460D01*
X14337682Y-14709460D02*
X14328158Y-14690412D01*
X14328158Y-14690412D02*
X14328158Y-14614222D01*
X14328158Y-14614222D02*
X14337682Y-14595174D01*
X14337682Y-14595174D02*
X14356730Y-14585650D01*
X14356730Y-14585650D02*
X14394825Y-14585650D01*
X14394825Y-14585650D02*
X14413873Y-14595174D01*
X14413873Y-14595174D02*
X14423396Y-14614222D01*
X14423396Y-14614222D02*
X14423396Y-14633269D01*
X14423396Y-14633269D02*
X14328158Y-14652317D01*
X14594825Y-14718984D02*
X14594825Y-14518984D01*
X14594825Y-14709460D02*
X14575777Y-14718984D01*
X14575777Y-14718984D02*
X14537682Y-14718984D01*
X14537682Y-14718984D02*
X14518634Y-14709460D01*
X14518634Y-14709460D02*
X14509111Y-14699936D01*
X14509111Y-14699936D02*
X14499587Y-14680888D01*
X14499587Y-14680888D02*
X14499587Y-14623746D01*
X14499587Y-14623746D02*
X14509111Y-14604698D01*
X14509111Y-14604698D02*
X14518634Y-14595174D01*
X14518634Y-14595174D02*
X14537682Y-14585650D01*
X14537682Y-14585650D02*
X14575777Y-14585650D01*
X14575777Y-14585650D02*
X14594825Y-14595174D01*
X14671015Y-14795174D02*
X14680539Y-14785650D01*
X14680539Y-14785650D02*
X14699587Y-14757079D01*
X14699587Y-14757079D02*
X14709111Y-14738031D01*
X14709111Y-14738031D02*
X14718634Y-14709460D01*
X14718634Y-14709460D02*
X14728158Y-14661841D01*
X14728158Y-14661841D02*
X14728158Y-14623746D01*
X14728158Y-14623746D02*
X14718634Y-14576127D01*
X14718634Y-14576127D02*
X14709111Y-14547555D01*
X14709111Y-14547555D02*
X14699587Y-14528508D01*
X14699587Y-14528508D02*
X14680539Y-14499936D01*
X14680539Y-14499936D02*
X14671015Y-14490412D01*
M02*
